<?xml version="1.0" encoding="UTF-8"?>
<svg viewBox="0 0 400 300" width="1600" height="1200" version="1.1" xmlns="http://www.w3.org/2000/svg" xmlns:xlink="http://www.w3.org/1999/xlink">
    <!-- Generator: Sketch 52.5 (67469) - http://www.bohemiancoding.com/sketch -->
    <title>02</title>
    <desc>Created with Sketch.</desc>
    <g id="02" stroke="none" stroke-width="1" fill="none" fill-rule="evenodd">
        <rect fill="#EDEDED" x="0" y="0" width="400" height="300"></rect>
        <g id="Group-171" transform="translate(34.000000, 40.000000)">
            <polyline id="Fill-51" fill="#343333" points="205.637708 79.3077278 207.109722 35.8073444 213.238331 79.2630944 205.637708 79.3077278"></polyline>
            <polyline id="Fill-52" fill="#8B8A8A" points="207.109722 35.8073444 205.637708 79.3077278 121.240695 79.8031722 119.722772 36.2671111 207.109722 35.8073444"></polyline>
            <polyline id="Fill-53" fill="#343333" points="119.722772 36.2671111 121.240695 79.8031722 115.737244 79.8355278 119.722772 36.2671111"></polyline>
            <path d="M205.637708,79.3077278 L213.238331,79.2630944 L220.970203,134.087706 L0.103329565,135.554106 L17.9694863,80.4094778 L115.737244,79.8355278 L121.240695,79.8031722 L205.637708,79.3077278 M97.8228046,127.26025 L102.787301,86.0754556 L28.3821707,86.5186833 L16.2092859,127.793394 L32.9549357,127.683978 L97.8228046,127.26025 M113.625176,86.0108889 L109.709302,127.182611 L113.104715,127.160439 L114.614363,109.975161 L116.721106,85.9924722 L113.625176,86.0108889 M127.554736,85.9279056 L124.986032,127.0828 L128.783393,127.058028 L200.486556,126.589594 L206.351948,126.551317 L201.753998,85.4859056 L127.554736,85.9279056" id="Fill-54" fill="#676666"></path>
            <polyline id="Fill-55" fill="#8B8A8A" points="12.0280363 220.821539 0.103329565 135.554106 220.970203 134.087706 216.842993 219.217556 12.0280363 220.821539"></polyline>
            <path d="M220.970203,134.087706 L213.238331,79.2630944 L207.109722,35.8073444 L294.283321,35.3486611 L330.893576,133.357828 L220.970203,134.087706 M300.447045,84.8980167 L226.452858,85.3387889 L233.432785,126.374372 L295.867228,125.966533 L314.552034,125.844478 L300.447045,84.8980167 M285.093754,40.3280222 L218.856912,40.6811167 L224.391448,73.2197556 L281.985016,72.88645 L296.280834,72.8036833 L285.093754,40.3280222 M298.594596,79.5206389 L298.073991,78.0091 L225.2786,78.4357167 L225.536276,79.9502889 L297.908851,79.5246111 L298.594596,79.5206389" id="Fill-56" fill="#676666"></path>
            <polyline id="Fill-57" fill="#8B8A8A" points="216.842993 219.217556 220.970203 134.087706 330.893576 133.357828 318.811717 218.418994 216.842993 219.217556"></polyline>
            <path d="M294.283321,35.3486611 L207.109722,35.8073444 L119.722772,36.2671111 L122.958729,0.89375 L281.131396,0.13975 L294.283321,35.3486611 M212.704773,4.51251667 L217.200761,30.9449111 L270.453768,30.6683 L281.746049,30.6096556 L272.656573,4.22333889 L212.704773,4.51251667 M207.778126,30.9938778 L203.953421,4.55469444 L201.452644,4.56682778 L203.497505,19.4498778 L205.085513,31.0078889 L207.778126,30.9938778 M195.659785,31.0567833 L192.698486,4.60900556 L132.612128,4.89890556 L130.958567,31.3929056 L133.251246,31.3809889 L192.116933,31.0752 L195.659785,31.0567833" id="Fill-58" fill="#676666"></path>
            <path d="M122.958729,0.89375 L119.722772,36.2671111 L115.737244,79.8355278 L17.9694863,80.4094778 L43.6090341,1.27197778 L122.958729,0.89375 M52.3395909,5.28608889 L44.5076272,31.8419111 L54.6126254,31.7894056 L109.365422,31.5050667 L112.560867,4.99561111 L52.3395909,5.28608889 M108.857841,35.7154056 L43.2635709,36.0599778 L42.9029967,37.2827722 L43.3794928,37.2802444 L108.71069,36.9359611 L108.857841,35.7154056 M108.188142,41.2710278 L41.6220987,41.6259278 L31.9758952,74.3332056 L44.7773922,74.2591778 L104.253199,73.9149667 L108.188142,41.2710278" id="Fill-59" fill="#676666"></path>
            <polyline id="Fill-60" fill="#8B8A8A" points="102.787301 86.0754556 97.8228046 127.26025 32.9549357 127.683978 28.3821707 86.5186833 102.787301 86.0754556"></polyline>
            <polyline id="Fill-61" fill="#343333" points="28.3821707 86.5186833 32.9549357 127.683978 16.2092859 127.793394 28.3821707 86.5186833"></polyline>
            <polyline id="Fill-62" fill="#343333" points="109.709302 127.182611 113.625176 86.0108889 114.614363 109.975161 113.104715 127.160439 109.709302 127.182611"></polyline>
            <polyline id="Fill-63" fill="#8B8A8A" points="113.625176 86.0108889 116.721106 85.9924722 114.614363 109.975161 113.625176 86.0108889"></polyline>
            <polyline id="Fill-64" fill="#343333" points="124.986032 127.0828 127.554736 85.9279056 128.783393 127.058028 124.986032 127.0828"></polyline>
            <polyline id="Fill-65" fill="#343333" points="201.753998 85.4859056 206.351948 126.551317 200.486556 126.589594 201.753998 85.4859056"></polyline>
            <polyline id="Fill-66" fill="#8B8A8A" points="127.554736 85.9279056 201.753998 85.4859056 200.486556 126.589594 128.783393 127.058028 127.554736 85.9279056"></polyline>
            <polyline id="Fill-67" fill="#8B8A8A" points="300.447045 84.8980167 295.867228 125.966533 233.432785 126.374372 226.452858 85.3387889 300.447045 84.8980167"></polyline>
            <polyline id="Fill-68" fill="#343333" points="295.867228 125.966533 300.447045 84.8980167 314.552034 125.844478 295.867228 125.966533"></polyline>
            <polyline id="Fill-69" fill="#8B8A8A" points="218.856912 40.6811167 285.093754 40.3280222 281.985016 72.88645 224.391448 73.2197556 218.856912 40.6811167"></polyline>
            <polyline id="Fill-70" fill="#343333" points="285.093754 40.3280222 296.280834 72.8036833 281.985016 72.88645 285.093754 40.3280222"></polyline>
            <polyline id="Fill-71" fill="#343333" points="298.073991 78.0091 298.594596 79.5206389 297.908851 79.5246111 298.073991 78.0091"></polyline>
            <polyline id="Fill-72" fill="#8B8A8A" points="225.536276 79.9502889 225.2786 78.4357167 298.073991 78.0091 297.908851 79.5246111 225.536276 79.9502889"></polyline>
            <polyline id="Fill-73" fill="#8B8A8A" points="217.200761 30.9449111 212.704773 4.51251667 272.656573 4.22333889 270.453768 30.6683 217.200761 30.9449111"></polyline>
            <polyline id="Fill-74" fill="#343333" points="270.453768 30.6683 272.656573 4.22333889 281.746049 30.6096556 270.453768 30.6683"></polyline>
            <polyline id="Fill-75" fill="#343333" points="203.953421 4.55469444 207.778126 30.9938778 205.085513 31.0078889 203.497505 19.4498778 203.953421 4.55469444"></polyline>
            <polyline id="Fill-76" fill="#8B8A8A" points="201.452644 4.56682778 203.953421 4.55469444 203.497505 19.4498778 201.452644 4.56682778"></polyline>
            <polyline id="Fill-77" fill="#343333" points="192.698486 4.60900556 195.659785 31.0567833 192.116933 31.0752 192.698486 4.60900556"></polyline>
            <polyline id="Fill-78" fill="#343333" points="130.958567 31.3929056 132.612128 4.89890556 133.251246 31.3809889 130.958567 31.3929056"></polyline>
            <polyline id="Fill-79" fill="#8B8A8A" points="132.612128 4.89890556 192.698486 4.60900556 192.116933 31.0752 133.251246 31.3809889 132.612128 4.89890556"></polyline>
            <polyline id="Fill-80" fill="#343333" points="44.5076272 31.8419111 52.3395909 5.28608889 54.6126254 31.7894056 44.5076272 31.8419111"></polyline>
            <polyline id="Fill-81" fill="#8B8A8A" points="54.6126254 31.7894056 52.3395909 5.28608889 112.560867 4.99561111 109.365422 31.5050667 54.6126254 31.7894056"></polyline>
            <polyline id="Fill-82" fill="#8B8A8A" points="43.2635709 36.0599778 108.857841 35.7154056 108.71069 36.9359611 43.3794928 37.2802444 43.2635709 36.0599778"></polyline>
            <polyline id="Fill-83" fill="#343333" points="42.9029967 37.2827722 43.2635709 36.0599778 43.3794928 37.2802444 42.9029967 37.2827722"></polyline>
            <polyline id="Fill-84" fill="#8B8A8A" points="41.6220987 41.6259278 108.188142 41.2710278 104.253199 73.9149667 44.7773922 74.2591778 41.6220987 41.6259278"></polyline>
            <polyline id="Fill-85" fill="#343333" points="31.9758952 74.3332056 41.6220987 41.6259278 44.7773922 74.2591778 31.9758952 74.3332056"></polyline>
            <path d="M28.3821707,86.5186833 L32.9549357,127.683978" id="Stroke-86" stroke="#000000" stroke-width="0.5" stroke-linecap="round" stroke-linejoin="round"></path>
            <path d="M109.709302,127.182611 L113.625176,86.0108889" id="Stroke-87" stroke="#000000" stroke-width="0.5" stroke-linecap="round" stroke-linejoin="round"></path>
            <polyline id="Stroke-88" stroke="#000000" stroke-width="0.5" stroke-linecap="round" stroke-linejoin="round" points="102.787301 86.0754556 28.3821707 86.5186833 16.2092859 127.793394"></polyline>
            <path d="M124.986032,127.0828 L127.554736,85.9279056" id="Stroke-89" stroke="#000000" stroke-width="0.5" stroke-linecap="round" stroke-linejoin="round"></path>
            <path d="M201.753998,85.4859056 L206.351948,126.551317" id="Stroke-90" stroke="#000000" stroke-width="0.5" stroke-linecap="round" stroke-linejoin="round"></path>
            <path d="M127.554736,85.9279056 L201.753998,85.4859056" id="Stroke-91" stroke="#000000" stroke-width="0.5" stroke-linecap="round" stroke-linejoin="round"></path>
            <path d="M220.970203,134.087706 L0.103329565,135.554106" id="Stroke-92" stroke="#000000" stroke-width="0.5" stroke-linecap="round" stroke-linejoin="round"></path>
            <path d="M116.721106,85.9924722 L113.625176,86.0108889" id="Stroke-93" stroke="#000000" stroke-width="0.5" stroke-linecap="round" stroke-linejoin="round"></path>
            <path d="M127.554736,85.9279056 L128.783393,127.058028" id="Stroke-94" stroke="#000000" stroke-width="0.5" stroke-linecap="round" stroke-linejoin="round"></path>
            <path d="M201.753998,85.4859056 L200.486556,126.589594" id="Stroke-95" stroke="#000000" stroke-width="0.5" stroke-linecap="round" stroke-linejoin="round"></path>
            <path d="M113.625176,86.0108889 L114.614363,109.975161" id="Stroke-96" stroke="#000000" stroke-width="0.5" stroke-linecap="round" stroke-linejoin="round"></path>
            <path d="M300.447045,84.8980167 L295.867228,125.966533" id="Stroke-97" stroke="#000000" stroke-width="0.5" stroke-linecap="round" stroke-linejoin="round"></path>
            <path d="M300.447045,84.8980167 L226.452858,85.3387889" id="Stroke-98" stroke="#000000" stroke-width="0.5" stroke-linecap="round" stroke-linejoin="round"></path>
            <path d="M314.552034,125.844478 L300.447045,84.8980167" id="Stroke-99" stroke="#000000" stroke-width="0.5" stroke-linecap="round" stroke-linejoin="round"></path>
            <path d="M330.893576,133.357828 L220.970203,134.087706" id="Stroke-100" stroke="#000000" stroke-width="0.5" stroke-linecap="round" stroke-linejoin="round"></path>
            <polyline id="Stroke-101" stroke="#000000" stroke-width="0.5" stroke-linecap="round" stroke-linejoin="round" points="218.856912 40.6811167 285.093754 40.3280222 296.280834 72.8036833"></polyline>
            <path d="M298.594596,79.5206389 L298.073991,78.0091" id="Stroke-102" stroke="#000000" stroke-width="0.5" stroke-linecap="round" stroke-linejoin="round"></path>
            <path d="M298.073991,78.0091 L225.2786,78.4357167" id="Stroke-103" stroke="#000000" stroke-width="0.5" stroke-linecap="round" stroke-linejoin="round"></path>
            <path d="M285.093754,40.3280222 L281.985016,72.88645" id="Stroke-104" stroke="#000000" stroke-width="0.5" stroke-linecap="round" stroke-linejoin="round"></path>
            <path d="M298.073991,78.0091 L297.908851,79.5246111" id="Stroke-105" stroke="#000000" stroke-width="0.5" stroke-linecap="round" stroke-linejoin="round"></path>
            <path d="M272.656573,4.22333889 L212.704773,4.51251667" id="Stroke-106" stroke="#000000" stroke-width="0.5" stroke-linecap="round" stroke-linejoin="round"></path>
            <path d="M272.656573,4.22333889 L270.453768,30.6683" id="Stroke-107" stroke="#000000" stroke-width="0.5" stroke-linecap="round" stroke-linejoin="round"></path>
            <path d="M203.953421,4.55469444 L207.778126,30.9938778" id="Stroke-108" stroke="#000000" stroke-width="0.5" stroke-linecap="round" stroke-linejoin="round"></path>
            <path d="M281.746049,30.6096556 L272.656573,4.22333889" id="Stroke-109" stroke="#000000" stroke-width="0.5" stroke-linecap="round" stroke-linejoin="round"></path>
            <path d="M192.698486,4.60900556 L195.659785,31.0567833" id="Stroke-110" stroke="#000000" stroke-width="0.5" stroke-linecap="round" stroke-linejoin="round"></path>
            <polyline id="Stroke-111" stroke="#000000" stroke-width="0.5" stroke-linecap="round" stroke-linejoin="round" points="130.958567 31.3929056 132.612128 4.89890556 192.698486 4.60900556"></polyline>
            <path d="M203.953421,4.55469444 L201.452644,4.56682778" id="Stroke-112" stroke="#000000" stroke-width="0.5" stroke-linecap="round" stroke-linejoin="round"></path>
            <path d="M132.612128,4.89890556 L133.251246,31.3809889" id="Stroke-113" stroke="#000000" stroke-width="0.5" stroke-linecap="round" stroke-linejoin="round"></path>
            <path d="M192.698486,4.60900556 L192.116933,31.0752" id="Stroke-114" stroke="#000000" stroke-width="0.5" stroke-linecap="round" stroke-linejoin="round"></path>
            <path d="M203.953421,4.55469444 L203.497505,19.4498778" id="Stroke-115" stroke="#000000" stroke-width="0.5" stroke-linecap="round" stroke-linejoin="round"></path>
            <path d="M52.3395909,5.28608889 L44.5076272,31.8419111" id="Stroke-116" stroke="#000000" stroke-width="0.5" stroke-linecap="round" stroke-linejoin="round"></path>
            <path d="M52.3395909,5.28608889 L54.6126254,31.7894056" id="Stroke-117" stroke="#000000" stroke-width="0.5" stroke-linecap="round" stroke-linejoin="round"></path>
            <path d="M43.2635709,36.0599778 L108.857841,35.7154056" id="Stroke-118" stroke="#000000" stroke-width="0.5" stroke-linecap="round" stroke-linejoin="round"></path>
            <path d="M112.560867,4.99561111 L52.3395909,5.28608889" id="Stroke-119" stroke="#000000" stroke-width="0.5" stroke-linecap="round" stroke-linejoin="round"></path>
            <path d="M41.6220987,41.6259278 L108.188142,41.2710278" id="Stroke-120" stroke="#000000" stroke-width="0.5" stroke-linecap="round" stroke-linejoin="round"></path>
            <path d="M31.9758952,74.3332056 L41.6220987,41.6259278" id="Stroke-121" stroke="#000000" stroke-width="0.5" stroke-linecap="round" stroke-linejoin="round"></path>
            <path d="M43.2635709,36.0599778 L42.9029967,37.2827722" id="Stroke-122" stroke="#000000" stroke-width="0.5" stroke-linecap="round" stroke-linejoin="round"></path>
            <path d="M41.6220987,41.6259278 L44.7773922,74.2591778" id="Stroke-123" stroke="#000000" stroke-width="0.5" stroke-linecap="round" stroke-linejoin="round"></path>
            <path d="M43.2635709,36.0599778 L43.3794928,37.2802444" id="Stroke-124" stroke="#000000" stroke-width="0.5" stroke-linecap="round" stroke-linejoin="round"></path>
            <path d="M213.238331,79.2630944 L207.109722,35.8073444" id="Stroke-125" stroke="#000000" stroke-width="0.5" stroke-linecap="round" stroke-linejoin="round"></path>
            <path d="M207.109722,35.8073444 L119.722772,36.2671111" id="Stroke-126" stroke="#000000" stroke-width="0.5" stroke-linecap="round" stroke-linejoin="round"></path>
            <path d="M119.722772,36.2671111 L115.737244,79.8355278" id="Stroke-127" stroke="#000000" stroke-width="0.5" stroke-linecap="round" stroke-linejoin="round"></path>
            <path d="M205.637708,79.3077278 L207.109722,35.8073444" id="Stroke-128" stroke="#000000" stroke-width="0.72" stroke-linecap="round" stroke-linejoin="round"></path>
            <path d="M121.240695,79.8031722 L119.722772,36.2671111" id="Stroke-129" stroke="#000000" stroke-width="0.72" stroke-linecap="round" stroke-linejoin="round"></path>
            <path d="M97.8228046,127.26025 L102.787301,86.0754556" id="Stroke-130" stroke="#000000" stroke-width="0.72" stroke-linecap="round" stroke-linejoin="round"></path>
            <polyline id="Stroke-131" stroke="#000000" stroke-width="0.72" stroke-linecap="round" stroke-linejoin="round" points="12.0280363 220.821539 0.103329565 135.554106 17.9694863 80.4094778"></polyline>
            <path d="M213.238331,79.2630944 L220.970203,134.087706" id="Stroke-132" stroke="#000000" stroke-width="0.72" stroke-linecap="round" stroke-linejoin="round"></path>
            <path d="M216.842993,219.217556 L220.970203,134.087706" id="Stroke-133" stroke="#000000" stroke-width="0.72" stroke-linecap="round" stroke-linejoin="round"></path>
            <path d="M216.842993,219.217556 L12.0280363,220.821539" id="Stroke-134" stroke="#000000" stroke-width="0.72" stroke-linecap="round" stroke-linejoin="round"></path>
            <path d="M109.709302,127.182611 L113.104715,127.160439" id="Stroke-135" stroke="#000000" stroke-width="0.72" stroke-linecap="round" stroke-linejoin="round"></path>
            <path d="M226.452858,85.3387889 L233.432785,126.374372" id="Stroke-136" stroke="#000000" stroke-width="0.72" stroke-linecap="round" stroke-linejoin="round"></path>
            <path d="M318.811717,218.418994 L216.842993,219.217556" id="Stroke-137" stroke="#000000" stroke-width="0.72" stroke-linecap="round" stroke-linejoin="round"></path>
            <path d="M318.811717,218.418994 L330.893576,133.357828" id="Stroke-138" stroke="#000000" stroke-width="0.72" stroke-linecap="round" stroke-linejoin="round"></path>
            <path d="M207.109722,35.8073444 L294.283321,35.3486611" id="Stroke-139" stroke="#000000" stroke-width="0.72" stroke-linecap="round" stroke-linejoin="round"></path>
            <path d="M224.391448,73.2197556 L218.856912,40.6811167" id="Stroke-140" stroke="#000000" stroke-width="0.72" stroke-linecap="round" stroke-linejoin="round"></path>
            <path d="M294.283321,35.3486611 L330.893576,133.357828" id="Stroke-141" stroke="#000000" stroke-width="0.72" stroke-linecap="round" stroke-linejoin="round"></path>
            <path d="M225.2786,78.4357167 L225.536276,79.9502889" id="Stroke-142" stroke="#000000" stroke-width="0.72" stroke-linecap="round" stroke-linejoin="round"></path>
            <path d="M212.704773,4.51251667 L217.200761,30.9449111" id="Stroke-143" stroke="#000000" stroke-width="0.72" stroke-linecap="round" stroke-linejoin="round"></path>
            <path d="M281.131396,0.13975 L294.283321,35.3486611" id="Stroke-144" stroke="#000000" stroke-width="0.72" stroke-linecap="round" stroke-linejoin="round"></path>
            <path d="M119.722772,36.2671111 L122.958729,0.89375" id="Stroke-145" stroke="#000000" stroke-width="0.72" stroke-linecap="round" stroke-linejoin="round"></path>
            <path d="M122.958729,0.89375 L281.131396,0.13975" id="Stroke-146" stroke="#000000" stroke-width="0.72" stroke-linecap="round" stroke-linejoin="round"></path>
            <path d="M205.085513,31.0078889 L207.778126,30.9938778" id="Stroke-147" stroke="#000000" stroke-width="0.72" stroke-linecap="round" stroke-linejoin="round"></path>
            <path d="M109.365422,31.5050667 L112.560867,4.99561111" id="Stroke-148" stroke="#000000" stroke-width="0.72" stroke-linecap="round" stroke-linejoin="round"></path>
            <path d="M43.6090341,1.27197778 L122.958729,0.89375" id="Stroke-149" stroke="#000000" stroke-width="0.72" stroke-linecap="round" stroke-linejoin="round"></path>
            <path d="M115.737244,79.8355278 L17.9694863,80.4094778" id="Stroke-150" stroke="#000000" stroke-width="0.72" stroke-linecap="round" stroke-linejoin="round"></path>
            <path d="M108.188142,41.2710278 L104.253199,73.9149667" id="Stroke-151" stroke="#000000" stroke-width="0.72" stroke-linecap="round" stroke-linejoin="round"></path>
            <path d="M17.9694863,80.4094778 L43.6090341,1.27197778" id="Stroke-152" stroke="#000000" stroke-width="0.72" stroke-linecap="round" stroke-linejoin="round"></path>
            <path d="M108.71069,36.9359611 L108.857841,35.7154056" id="Stroke-153" stroke="#000000" stroke-width="0.72" stroke-linecap="round" stroke-linejoin="round"></path>
            <polyline id="Stroke-154" stroke="#000000" stroke-width="0.72" stroke-linecap="round" stroke-linejoin="round" points="16.2092859 127.793394 32.9549357 127.683978 97.8228046 127.26025"></polyline>
            <path d="M128.783393,127.058028 L124.986032,127.0828" id="Stroke-155" stroke="#000000" stroke-width="0.72" stroke-linecap="round" stroke-linejoin="round"></path>
            <path d="M205.637708,79.3077278 L213.238331,79.2630944" id="Stroke-156" stroke="#000000" stroke-width="0.72" stroke-linecap="round" stroke-linejoin="round"></path>
            <polyline id="Stroke-157" stroke="#000000" stroke-width="0.72" stroke-linecap="round" stroke-linejoin="round" points="113.104715 127.160439 114.614363 109.975161 116.721106 85.9924722"></polyline>
            <polyline id="Stroke-158" stroke="#000000" stroke-width="0.72" stroke-linecap="round" stroke-linejoin="round" points="298.594596 79.5206389 297.908851 79.5246111 225.536276 79.9502889"></polyline>
            <polyline id="Stroke-159" stroke="#000000" stroke-width="0.72" stroke-linecap="round" stroke-linejoin="round" points="233.432785 126.374372 295.867228 125.966533 314.552034 125.844478"></polyline>
            <polyline id="Stroke-160" stroke="#000000" stroke-width="0.72" stroke-linecap="round" stroke-linejoin="round" points="296.280834 72.8036833 281.985016 72.88645 224.391448 73.2197556"></polyline>
            <polyline id="Stroke-161" stroke="#000000" stroke-width="0.72" stroke-linecap="round" stroke-linejoin="round" points="217.200761 30.9449111 270.453768 30.6683 281.746049 30.6096556"></polyline>
            <path d="M133.251246,31.3809889 L130.958567,31.3929056" id="Stroke-162" stroke="#000000" stroke-width="0.72" stroke-linecap="round" stroke-linejoin="round"></path>
            <polyline id="Stroke-163" stroke="#000000" stroke-width="0.72" stroke-linecap="round" stroke-linejoin="round" points="201.452644 4.56682778 203.497505 19.4498778 205.085513 31.0078889"></polyline>
            <polyline id="Stroke-164" stroke="#000000" stroke-width="0.72" stroke-linecap="round" stroke-linejoin="round" points="44.5076272 31.8419111 54.6126254 31.7894056 109.365422 31.5050667"></polyline>
            <polyline id="Stroke-165" stroke="#000000" stroke-width="0.72" stroke-linecap="round" stroke-linejoin="round" points="104.253199 73.9149667 44.7773922 74.2591778 31.9758952 74.3332056"></polyline>
            <polyline id="Stroke-166" stroke="#000000" stroke-width="0.72" stroke-linecap="round" stroke-linejoin="round" points="42.9029967 37.2827722 43.3794928 37.2802444 108.71069 36.9359611"></polyline>
            <polyline id="Stroke-167" stroke="#000000" stroke-width="0.72" stroke-linecap="round" stroke-linejoin="round" points="206.351948 126.551317 200.486556 126.589594 128.783393 127.058028"></polyline>
            <path d="M121.240695,79.8031722 L205.637708,79.3077278" id="Stroke-168" stroke="#000000" stroke-width="0.72" stroke-linecap="round" stroke-linejoin="round"></path>
            <polyline id="Stroke-169" stroke="#000000" stroke-width="0.72" stroke-linecap="round" stroke-linejoin="round" points="195.659785 31.0567833 192.116933 31.0752 133.251246 31.3809889"></polyline>
            <path d="M115.737244,79.8355278 L121.240695,79.8031722" id="Stroke-170" stroke="#000000" stroke-width="0.72" stroke-linecap="round" stroke-linejoin="round"></path>
        </g>
    </g>
</svg>