<?xml version="1.0" encoding="UTF-8"?>
<svg viewBox="0 0 400 300" width="1600" height="1200" version="1.1" xmlns="http://www.w3.org/2000/svg" xmlns:xlink="http://www.w3.org/1999/xlink">
    <!-- Generator: Sketch 52.5 (67469) - http://www.bohemiancoding.com/sketch -->
    <title>03</title>
    <desc>Created with Sketch.</desc>
    <g id="03" stroke="none" stroke-width="1" fill="none" fill-rule="evenodd">
        <rect fill="#EDEDED" x="0" y="0" width="400" height="300"></rect>
        <g id="Group-513" transform="translate(133.000000, 29.000000)">
            <polyline id="Fill-51" fill="#383838" points="31.8045534 186.882642 44.6066362 189.190219 59.2938448 190.385248 67.0077397 190.364353 67.0767612 192.656922 0.556562069 192.83441 6.71039655 173.882373 12.5146759 173.868462 12.9136724 175.89858 15.5019517 179.928224 21.8879759 183.695821 31.8045534 186.882642"></polyline>
            <polyline id="Fill-52" fill="#3D3D3D" points="44.6066362 189.190219 31.8045534 186.882642 43.9806483 181.455777 43.9813991 181.465185 44.6066362 189.190219"></polyline>
            <polyline id="Fill-53" fill="#353535" points="31.8045534 186.882642 21.8879759 183.695821 30.8120871 179.187507 31.8045534 186.882642"></polyline>
            <polyline id="Fill-54" fill="#2C2C2C" points="21.8879759 183.695821 15.5019517 179.928224 14.0786638 172.363363 21.8879759 183.695821"></polyline>
            <polyline id="Fill-55" fill="#212121" points="15.5019517 179.928224 12.9136724 175.89858 12.5146759 173.868462 11.4431379 168.416258 15.5019517 179.928224"></polyline>
            <polyline id="Fill-56" fill="#383838" points="12.5146759 173.868462 6.71039655 173.882373 10.3249888 162.750318 11.4431379 168.416258 12.5146759 173.868462"></polyline>
            <polyline id="Fill-57" fill="#979696" points="1.69637069 242.309903 0.739194828 200.761867 67.0749707 200.577395 89.1590371 200.515981 88.8281379 242.01611 1.69637069 242.309903"></polyline>
            <polyline id="Fill-58" fill="#979696" points="88.8281379 242.01611 89.1590371 200.515981 133.285584 200.393269 132.313044 241.869444 88.8281379 242.01611"></polyline>
            <polyline id="Fill-59" fill="#787878" points="133.285584 200.393269 89.1590371 200.515981 67.0749707 200.577395 67.0767612 192.656922 133.471162 192.479781 133.285584 200.393269"></polyline>
            <polyline id="Fill-60" fill="#383838" points="122.412119 163.748927 126.202355 173.595737 120.474259 173.609474 121.537711 168.171757 121.539097 168.164831 121.541581 168.160733 122.412119 163.748927"></polyline>
            <polyline id="Fill-61" fill="#86633D" points="121.539097 168.164831 121.537711 168.171757 119.160886 172.113552 121.494277 159.92944 122.029815 159.633626 123.765981 156.888246 122.412119 163.748927 121.541581 168.160733 121.539097 168.164831"></polyline>
            <polyline id="Fill-62" fill="#383838" points="120.474259 173.609474 126.202355 173.595737 133.471162 192.479781 67.0767612 192.656922 67.0077397 190.364353 74.6113733 190.343228 89.2153517 189.066929 101.862872 186.691474 111.573887 183.455534 117.727664 179.660116 117.728472 179.655672 120.079653 175.624008 120.474259 173.609474"></polyline>
            <polyline id="Fill-63" fill="#414141" points="89.2153517 189.066929 74.6113733 190.343228 89.8957483 181.340626 89.2153517 189.066929"></polyline>
            <polyline id="Fill-64" fill="#3C3C3C" points="101.862872 186.691474 89.2153517 189.066929 102.898311 179.009038 101.862872 186.691474"></polyline>
            <polyline id="Fill-65" fill="#353535" points="111.573887 183.455534 101.862872 186.691474 102.898311 179.009038 111.573887 183.455534"></polyline>
            <polyline id="Fill-66" fill="#2B2B2B" points="117.727664 179.660116 111.573887 183.455534 112.865139 175.834281 117.727664 179.660116"></polyline>
            <polyline id="Fill-67" fill="#2B2B2B" points="117.728472 179.655672 117.727664 179.660116 112.865139 175.834281 119.160886 172.113552 117.728472 179.655672"></polyline>
            <polyline id="Fill-68" fill="#787878" points="67.0749707 200.577395 0.739194828 200.761867 0.556562069 192.83441 67.0767612 192.656922 67.0749707 200.577395"></polyline>
            <polyline id="Fill-69" fill="#222222" points="8.53060172 156.03157 7.14214224 146.621871 9.87666638 150.31576 11.2352069 159.877319 9.18183017 156.957567 8.53060172 156.03157"></polyline>
            <polyline id="Fill-70" fill="#222222" points="9.87666638 150.31576 7.14214224 146.621871 7.13665517 146.584526 9.86875345 150.274432 9.87123707 150.27778 9.87666638 150.31576"></polyline>
            <polyline id="Fill-71" fill="#89663F" points="9.86875345 150.274432 7.13665517 146.584526 4.21730345 131.800776 7.00999052 135.274637 9.86875345 150.274432"></polyline>
            <polyline id="Fill-72" fill="#212121" points="125.839169 146.382161 124.465034 155.782856 123.765981 156.888246 122.029815 159.633626 123.3805 150.080667 125.839169 146.382161"></polyline>
            <polyline id="Fill-73" fill="#212121" points="125.839169 146.382161 123.3805 150.080667 123.385698 150.043611 123.388355 150.039686 125.844425 146.345855 125.839169 146.382161"></polyline>
            <polyline id="Fill-74" fill="#86633D" points="125.844425 146.345855 123.388355 150.039686 126.258266 135.05409 128.760773 131.576592 125.844425 146.345855"></polyline>
            <polyline id="Fill-75" fill="#212121" points="14.0786638 172.363363 15.5019517 179.928224 11.4431379 168.416258 14.0786638 172.363363"></polyline>
            <polyline id="Fill-76" fill="#89663F" points="14.0786638 172.363363 11.4431379 168.416258 10.3249888 162.750318 9.18183017 156.957567 11.2352069 159.877319 11.7508181 160.149237 14.0786638 172.363363"></polyline>
            <polyline id="Fill-77" fill="#B28452" points="119.160886 172.113552 112.865139 175.834281 114.990021 163.404167 115.451628 163.267313 121.494277 159.92944 119.160886 172.113552"></polyline>
            <polyline id="Fill-78" fill="#3D3D3D" points="31.8045534 186.882642 30.8120871 179.187507 43.9806483 181.455777 31.8045534 186.882642"></polyline>
            <polyline id="Fill-79" fill="#F7B872" points="43.9806483 181.455777 30.8120871 179.187507 29.1383578 166.604494 42.6939017 168.774063 42.9089948 168.789589 43.9806483 181.455777"></polyline>
            <polyline id="Fill-80" fill="#3C3C3C" points="89.2153517 189.066929 89.8957483 181.340626 102.898311 179.009038 89.2153517 189.066929"></polyline>
            <polyline id="Fill-81" fill="#F5B771" points="102.898311 179.009038 89.8957483 181.340626 91.0111828 168.679518 91.2498991 168.661048 104.605945 166.435548 102.898311 179.009038"></polyline>
            <polyline id="Fill-82" fill="#353535" points="112.865139 175.834281 111.573887 183.455534 102.898311 179.009038 112.865139 175.834281"></polyline>
            <polyline id="Fill-83" fill="#D8A163" points="112.865139 175.834281 102.898311 179.009038 104.605945 166.435548 104.970691 166.37477 114.990021 163.404167 112.865139 175.834281"></polyline>
            <polyline id="Fill-84" fill="#2C2C2C" points="21.8879759 183.695821 14.0786638 172.363363 20.6244483 176.058464 21.8879759 183.695821"></polyline>
            <polyline id="Fill-85" fill="#B48653" points="20.6244483 176.058464 14.0786638 172.363363 11.7508181 160.149237 18.0790259 163.486533 18.5205328 163.612708 20.6244483 176.058464"></polyline>
            <polyline id="Fill-86" fill="#353535" points="21.8879759 183.695821 20.6244483 176.058464 30.8120871 179.187507 21.8879759 183.695821"></polyline>
            <polyline id="Fill-87" fill="#DAA264" points="30.8120871 179.187507 20.6244483 176.058464 18.5205328 163.612708 28.7955026 166.549603 29.1383578 166.604494 30.8120871 179.187507"></polyline>
            <polyline id="Fill-88" fill="#414141" points="89.8957483 181.340626 74.6113733 190.343228 74.8666664 182.602263 74.8671862 182.592913 89.8957483 181.340626"></polyline>
            <polyline id="Fill-89" fill="#FFC57A" points="89.8957483 181.340626 74.8671862 182.592913 75.2702836 169.890651 75.3609647 169.89042 91.0111828 168.679518 89.8957483 181.340626"></polyline>
            <polyline id="Fill-90" fill="#232323" points="2.88475431 121.781037 2.66521379 111.658904 5.48579828 114.654384 5.70146897 125.050051 3.50028793 122.495376 2.88475431 121.781037"></polyline>
            <polyline id="Fill-91" fill="#8D6941" points="5.48579828 114.654384 2.66521379 111.658904 1.09077155 91.2260672 3.93740517 93.7072646 5.48579828 114.654384"></polyline>
            <polyline id="Fill-92" fill="#2E2E2E" points="5.70146897 125.050051 5.48579828 114.654384 12.9109 117.479649 13.1051422 128.132803 6.27177759 125.28751 5.70146897 125.050051"></polyline>
            <polyline id="Fill-93" fill="#BA8A56" points="12.9109 117.479649 5.48579828 114.654384 3.93740517 93.7072646 11.5150474 96.0507428 12.9109 117.479649"></polyline>
            <polyline id="Fill-94" fill="#373737" points="13.1051422 128.132803 12.9109 117.479649 24.6838397 119.888292 24.8386328 130.760436 13.6122052 128.246338 13.1051422 128.132803"></polyline>
            <polyline id="Fill-95" fill="#E0A767" points="24.6838397 119.888292 12.9109 117.479649 11.5150474 96.0507428 23.570831 98.0510195 24.6838397 119.888292"></polyline>
            <polyline id="Fill-96" fill="#3E3E3E" points="24.8386328 130.760436 24.6838397 119.888292 40.0565276 121.643722 40.1557569 132.675229 25.2405172 130.81071 24.8386328 130.760436"></polyline>
            <polyline id="Fill-97" fill="#FDBC75" points="40.0565276 121.643722 24.6838397 119.888292 23.570831 98.0510195 39.3419957 99.5102316 40.0565276 121.643722"></polyline>
            <polyline id="Fill-98" fill="#434343" points="40.1557569 132.675229 40.0565276 121.643722 57.802344 122.557656 57.8350353 133.672049 40.4130716 132.689775 40.1557569 132.675229"></polyline>
            <polyline id="Fill-99" fill="#FFCA7D" points="57.802344 122.557656 40.0565276 121.643722 39.3419957 99.5102316 57.566169 100.270458 57.802344 122.557656"></polyline>
            <polyline id="Fill-100" fill="#444444" points="57.8350353 133.672049 57.802344 122.557656 76.3441897 122.526661 76.306531 133.638341 76.2097853 133.638514 57.920056 133.671933 57.8350353 133.672049"></polyline>
            <polyline id="Fill-101" fill="#FFCE80" points="76.3441897 122.526661 57.802344 122.557656 57.566169 100.270458 76.6137491 100.244657 76.3441897 122.526661"></polyline>
            <polyline id="Fill-102" fill="#434343" points="76.306531 133.638341 76.3441897 122.526661 93.9810155 121.554372 93.8773388 132.577856 93.6096276 132.594018 76.306531 133.638341"></polyline>
            <polyline id="Fill-103" fill="#FFC97D" points="93.9810155 121.554372 76.3441897 122.526661 76.6137491 100.244657 94.7251776 99.4359463 93.9810155 121.554372"></polyline>
            <polyline id="Fill-104" fill="#3E3E3E" points="93.8773388 132.577856 93.9810155 121.554372 109.152415 119.750515 108.994098 130.610191 108.58407 130.663582 93.8773388 132.577856"></polyline>
            <polyline id="Fill-105" fill="#FBBB74" points="109.152415 119.750515 93.9810155 121.554372 94.7251776 99.4359463 110.288353 97.9365613 109.152415 119.750515"></polyline>
            <polyline id="Fill-106" fill="#373737" points="108.994098 130.610191 109.152415 119.750515 120.660127 117.307702 120.463516 127.945157 119.951082 128.064232 108.994098 130.610191"></polyline>
            <polyline id="Fill-107" fill="#DEA566" points="120.660127 117.307702 109.152415 119.750515 110.288353 97.9365613 122.070708 95.9080019 120.660127 117.307702"></polyline>
            <polyline id="Fill-108" fill="#222222" points="130.311419 111.465774 130.091878 121.570187 129.470049 122.377686 127.57187 124.842433 127.788696 114.464082 130.311419 111.465774"></polyline>
            <polyline id="Fill-109" fill="#8A6740" points="130.311419 111.465774 127.788696 114.464082 129.343269 93.5495743 131.884417 91.0661836 130.311419 111.465774"></polyline>
            <polyline id="Fill-110" fill="#2D2D2D" points="127.788696 114.464082 127.57187 124.842433 126.998731 125.09259 120.463516 127.945157 120.660127 117.307702 127.788696 114.464082"></polyline>
            <polyline id="Fill-111" fill="#B78854" points="127.788696 114.464082 120.660127 117.307702 122.070708 95.9080019 129.343269 93.5495743 127.788696 114.464082"></polyline>
            <polyline id="Fill-112" fill="#BE8D57" points="11.5150474 96.0507428 3.93740517 93.7072646 4.60757845 72.3224565 12.1194336 74.0792715 11.5150474 96.0507428"></polyline>
            <polyline id="Fill-113" fill="#2E2E2E" points="12.1194336 74.0792715 4.60757845 72.3224565 4.38405259 61.5481482 11.9179138 63.0278508 12.1194336 74.0792715"></polyline>
            <polyline id="Fill-114" fill="#916C43" points="4.60757845 72.3224565 3.93740517 93.7072646 1.09077155 91.2260672 1.77191897 70.4612266 4.60757845 72.3224565"></polyline>
            <polyline id="Fill-115" fill="#232323" points="4.60757845 72.3224565 1.77191897 70.4612266 1.54463879 59.9808271 4.38405259 61.5481482 4.60757845 72.3224565"></polyline>
            <polyline id="Fill-116" fill="#E4AA69" points="11.5150474 96.0507428 12.1194336 74.0792715 24.0530578 75.5780216 23.570831 98.0510195 11.5150474 96.0507428"></polyline>
            <polyline id="Fill-117" fill="#373737" points="24.0530578 75.5780216 12.1194336 74.0792715 11.9179138 63.0278508 23.8923733 64.2904119 24.0530578 75.5780216"></polyline>
            <polyline id="Fill-118" fill="#FFBE76" points="110.288353 97.9365613 94.7251776 99.4359463 94.4036353 76.6153026 109.797347 75.4923078 110.288353 97.9365613"></polyline>
            <polyline id="Fill-119" fill="#3E3E3E" points="109.797347 75.4923078 94.4036353 76.6153026 94.5113552 65.1643461 109.961671 64.2182045 109.797347 75.4923078"></polyline>
            <polyline id="Fill-120" fill="#8A6740" points="129.470049 122.377686 128.760773 131.576592 126.258266 135.05409 126.998731 125.09259 127.57187 124.842433 129.470049 122.377686"></polyline>
            <polyline id="Fill-121" fill="#8E6A41" points="131.205003 70.341285 131.884417 91.0661836 129.343269 93.5495743 128.671594 72.2041888 131.205003 70.341285"></polyline>
            <polyline id="Fill-122" fill="#222222" points="131.205003 70.341285 128.671594 72.2041888 128.896275 61.448524 131.432283 59.8798176 131.205003 70.341285"></polyline>
            <polyline id="Fill-123" fill="#B78854" points="126.998731 125.09259 126.258266 135.05409 119.273227 138.34775 119.951082 128.064232 120.463516 127.945157 126.998731 125.09259"></polyline>
            <polyline id="Fill-124" fill="#BB8B56" points="128.671594 72.2041888 129.343269 93.5495743 122.070708 95.9080019 121.461066 73.9722591 128.671594 72.2041888"></polyline>
            <polyline id="Fill-125" fill="#2D2D2D" points="128.671594 72.2041888 121.461066 73.9722591 121.664953 62.9377504 128.896275 61.448524 128.671594 72.2041888"></polyline>
            <polyline id="Fill-126" fill="#E2A868" points="121.461066 73.9722591 122.070708 95.9080019 110.288353 97.9365613 109.797347 75.4923078 121.461066 73.9722591"></polyline>
            <polyline id="Fill-127" fill="#373737" points="121.461066 73.9722591 109.797347 75.4923078 109.961671 64.2182045 121.664953 62.9377504 121.461066 73.9722591"></polyline>
            <polyline id="Fill-128" fill="#DEA566" points="119.951082 128.064232 119.273227 138.34775 108.036749 141.173823 108.58407 130.663582 108.994098 130.610191 119.951082 128.064232"></polyline>
            <polyline id="Fill-129" fill="#B28452" points="119.273227 138.34775 126.258266 135.05409 123.388355 150.039686 123.385698 150.043611 116.675013 153.537039 119.273227 138.34775"></polyline>
            <polyline id="Fill-130" fill="#B28452" points="116.675013 153.537039 123.385698 150.043611 123.3805 150.080667 116.670277 153.574615 116.675013 153.537039"></polyline>
            <polyline id="Fill-131" fill="#2C2C2C" points="116.670277 153.574615 123.3805 150.080667 122.029815 159.633626 121.494277 159.92944 115.451628 163.267313 116.670277 153.574615"></polyline>
            <polyline id="Fill-132" fill="#FBBB74" points="108.58407 130.663582 108.036749 141.173823 93.250831 143.258601 93.6096276 132.594018 93.8773388 132.577856 108.58407 130.663582"></polyline>
            <polyline id="Fill-133" fill="#F5B771" points="93.250831 143.258601 108.036749 141.173823 105.950161 156.527786 91.8877276 158.729909 93.250831 143.258601"></polyline>
            <polyline id="Fill-134" fill="#F5B771" points="91.8877276 158.729909 105.950161 156.527786 105.946349 156.565997 91.8843198 158.768985 91.8877276 158.729909"></polyline>
            <polyline id="Fill-135" fill="#3D3D3D" points="91.8843198 158.768985 105.946349 156.565997 104.970691 166.37477 104.605945 166.435548 91.2498991 168.661048 91.8843198 158.768985"></polyline>
            <polyline id="Fill-136" fill="#414141" points="91.8843198 158.768985 91.2498991 168.661048 91.0111828 168.679518 75.3609647 169.89042 75.5855879 159.954202 91.8843198 158.768985"></polyline>
            <polyline id="Fill-137" fill="#FFC57A" points="91.8843198 158.768985 75.5855879 159.954202 76.0797707 144.381596 93.250831 143.258601 91.8877276 158.729909 91.8843198 158.768985"></polyline>
            <polyline id="Fill-138" fill="#434343" points="75.5855879 159.954202 75.3609647 169.89042 75.2702836 169.890651 58.7445603 169.929381 58.6785422 169.929554 58.467781 159.99195 75.5855879 159.954202"></polyline>
            <polyline id="Fill-139" fill="#FFCA7D" points="75.5855879 159.954202 58.467781 159.99195 58.033956 144.417382 76.0797707 144.381596 75.5855879 159.954202"></polyline>
            <polyline id="Fill-140" fill="#414141" points="58.467781 159.99195 58.6785422 169.929554 42.9089948 168.789589 42.6939017 168.774063 42.0703974 158.878191 58.467781 159.99195"></polyline>
            <polyline id="Fill-141" fill="#FFC57A" points="58.467781 159.99195 42.0703974 158.878191 42.0670474 158.838826 40.7576017 143.361804 58.033956 144.417382 58.467781 159.99195"></polyline>
            <polyline id="Fill-142" fill="#3D3D3D" points="42.0703974 158.878191 42.6939017 168.774063 29.1383578 166.604494 28.7955026 166.549603 27.8255621 156.735173 42.0703974 158.878191"></polyline>
            <polyline id="Fill-143" fill="#3D3D3D" points="42.0703974 158.878191 27.8255621 156.735173 27.820306 156.695751 42.0670474 158.838826 42.0703974 158.878191"></polyline>
            <polyline id="Fill-144" fill="#F7B872" points="42.0670474 158.838826 27.820306 156.695751 25.776806 141.333071 40.7576017 143.361804 42.0670474 158.838826"></polyline>
            <polyline id="Fill-145" fill="#FFC97D" points="93.6096276 132.594018 93.250831 143.258601 76.0797707 144.381596 76.2097853 133.638514 76.306531 133.638341 93.6096276 132.594018"></polyline>
            <polyline id="Fill-146" fill="#D8A163" points="108.036749 141.173823 119.273227 138.34775 116.675013 153.537039 105.950161 156.527786 108.036749 141.173823"></polyline>
            <polyline id="Fill-147" fill="#D8A163" points="105.950161 156.527786 116.675013 153.537039 116.670277 153.574615 105.946349 156.565997 105.950161 156.527786"></polyline>
            <polyline id="Fill-148" fill="#353535" points="105.946349 156.565997 116.670277 153.574615 115.451628 163.267313 114.990021 163.404167 104.970691 166.37477 105.946349 156.565997"></polyline>
            <polyline id="Fill-149" fill="#FFCC7E" points="94.4036353 76.6153026 94.7251776 99.4359463 76.6137491 100.244657 76.4975966 77.2208979 94.4036353 76.6153026"></polyline>
            <polyline id="Fill-150" fill="#434343" points="94.4036353 76.6153026 76.4975966 77.2208979 76.5366991 65.6745884 94.5113552 65.1643461 94.4036353 76.6153026"></polyline>
            <polyline id="Fill-151" fill="#FFBF76" points="23.570831 98.0510195 24.0530578 75.5780216 39.6518129 76.6709444 39.3419957 99.5102316 23.570831 98.0510195"></polyline>
            <polyline id="Fill-152" fill="#3E3E3E" points="39.6518129 76.6709444 24.0530578 75.5780216 23.8923733 64.2904119 39.5487138 65.2112722 39.6518129 76.6709444"></polyline>
            <polyline id="Fill-153" fill="#8D6941" points="4.21730345 131.800776 3.50028793 122.495376 5.70146897 125.050051 6.27177759 125.28751 7.00999052 135.274637 4.21730345 131.800776"></polyline>
            <polyline id="Fill-154" fill="#BA8A56" points="7.00999052 135.274637 6.27177759 125.28751 13.1051422 128.132803 13.6122052 128.246338 14.2831871 138.546825 7.00999052 135.274637"></polyline>
            <polyline id="Fill-155" fill="#E0A767" points="14.2831871 138.546825 13.6122052 128.246338 24.8386328 130.760436 25.2405172 130.81071 25.776806 141.333071 14.2831871 138.546825"></polyline>
            <polyline id="Fill-156" fill="#B48653" points="7.00999052 135.274637 14.2831871 138.546825 16.8527526 153.747024 9.87123707 150.27778 9.86875345 150.274432 7.00999052 135.274637"></polyline>
            <polyline id="Fill-157" fill="#B48653" points="9.87123707 150.27778 16.8527526 153.747024 16.8594526 153.786446 9.87666638 150.31576 9.87123707 150.27778"></polyline>
            <polyline id="Fill-158" fill="#2D2D2D" points="9.87666638 150.31576 16.8594526 153.786446 18.0790259 163.486533 11.7508181 160.149237 11.2352069 159.877319 9.87666638 150.31576"></polyline>
            <polyline id="Fill-159" fill="#FDBC75" points="25.776806 141.333071 25.2405172 130.81071 40.1557569 132.675229 40.4130716 132.689775 40.7576017 143.361804 25.776806 141.333071"></polyline>
            <polyline id="Fill-160" fill="#DAA264" points="14.2831871 138.546825 25.776806 141.333071 27.820306 156.695751 16.8527526 153.747024 14.2831871 138.546825"></polyline>
            <polyline id="Fill-161" fill="#DAA264" points="16.8527526 153.747024 27.820306 156.695751 27.8255621 156.735173 16.8594526 153.786446 16.8527526 153.747024"></polyline>
            <polyline id="Fill-162" fill="#363636" points="16.8594526 153.786446 27.8255621 156.735173 28.7955026 166.549603 18.5205328 163.612708 18.0790259 163.486533 16.8594526 153.786446"></polyline>
            <polyline id="Fill-163" fill="#FFCD7F" points="39.3419957 99.5102316 39.6518129 76.6709444 57.6689793 77.2401185 57.566169 100.270458 39.3419957 99.5102316"></polyline>
            <polyline id="Fill-164" fill="#434343" points="57.6689793 77.2401185 39.6518129 76.6709444 39.5487138 65.2112722 57.6349595 65.6908653 57.6689793 77.2401185"></polyline>
            <polyline id="Fill-165" fill="#FFCA7D" points="40.7576017 143.361804 40.4130716 132.689775 57.8350353 133.672049 57.920056 133.671933 58.033956 144.417382 40.7576017 143.361804"></polyline>
            <polyline id="Fill-166" fill="#FFC57A" points="43.9806483 181.455777 42.9089948 168.789589 58.6785422 169.929554 58.7445603 169.929381 59.0983897 182.632739 51.5658569 182.046307 43.9806483 181.455777"></polyline>
            <polyline id="Fill-167" fill="#414141" points="43.9813991 181.465185 51.5658569 182.046307 59.0983897 182.632739 59.2938448 190.385248 44.6066362 189.190219 43.9813991 181.465185"></polyline>
            <polyline id="Fill-168" fill="#424242" points="59.2938448 190.385248 59.0983897 182.632739 66.9807664 182.612826 74.8666664 182.602263 74.6113733 190.343228 67.0077397 190.364353 59.2938448 190.385248"></polyline>
            <polyline id="Fill-169" fill="#FFD181" points="57.566169 100.270458 57.6689793 77.2401185 76.4975966 77.2208979 76.6137491 100.244657 57.566169 100.270458"></polyline>
            <polyline id="Fill-170" fill="#444444" points="76.4975966 77.2208979 57.6689793 77.2401185 57.6349595 65.6908653 76.5366991 65.6745884 76.4975966 77.2208979"></polyline>
            <polyline id="Fill-171" fill="#FFCE80" points="58.033956 144.417382 57.920056 133.671933 76.2097853 133.638514 76.0797707 144.381596 58.033956 144.417382"></polyline>
            <polyline id="Fill-172" fill="#FFCA7D" points="59.0983897 182.632739 58.7445603 169.929381 75.2702836 169.890651 74.8671862 182.592913 66.9807664 182.612826 59.0983897 182.632739"></polyline>
            <polyline id="Fill-173" fill="#202020" points="5.87503362 23.1946675 6.38625517 23.0303394 6.36147672 23.1926473 9.11292414 23.6658912 16.1739733 24.1107371 27.2814181 24.4888589 41.7227483 24.7638933 58.3545164 24.9068651 75.7196457 24.9020166 92.250856 24.7498675 106.503547 24.4673872 106.506839 24.4673295 117.36725 24.0836665 124.151404 23.635877 126.622549 23.162229 126.601698 23.0224318 127.122912 23.1638451 124.644432 23.6415335 117.81384 24.0933634 106.866271 24.4805473 92.4889371 24.7658558 75.8106155 24.919448 58.2889603 24.9243542 41.5088103 24.7799971 26.9431259 24.5023653 15.746444 24.1206648 8.63606897 23.6718363 5.87503362 23.1946675"></polyline>
            <polyline id="Fill-174" fill="#C19059" points="16.1739733 24.1107371 9.11292414 23.6658912 11.1184767 9.51780784 17.9738474 9.61558504 16.1739733 24.1107371"></polyline>
            <polyline id="Fill-175" fill="#E6AC6A" points="27.2814181 24.4888589 16.1739733 24.1107371 17.9738474 9.61558504 28.7110595 9.69864371 27.2814181 24.4888589"></polyline>
            <polyline id="Fill-176" fill="#926D43" points="126.622549 23.162229 124.151404 23.635877 122.138632 9.51122779 123.341917 9.45968409 124.575988 9.40687055 126.601698 23.0224318 126.622549 23.162229"></polyline>
            <polyline id="Fill-177" fill="#BE8E57" points="124.151404 23.635877 117.36725 24.0836665 115.549355 9.60969762 122.138632 9.51122779 124.151404 23.635877"></polyline>
            <polyline id="Fill-178" fill="#FFC077" points="106.503547 24.4673872 92.250856 24.7498675 91.2988207 9.75584394 105.048087 9.69391069 106.503547 24.4673872"></polyline>
            <polyline id="Fill-179" fill="#956F44" points="9.11292414 23.6658912 6.36147672 23.1926473 6.38625517 23.0303394 8.41138793 9.41356603 11.1184767 9.51780784 9.11292414 23.6658912"></polyline>
            <polyline id="Fill-180" fill="#FFC177" points="41.7227483 24.7638933 27.2814181 24.4888589 28.7110595 9.69864371 42.6382802 9.75890309 41.7227483 24.7638933"></polyline>
            <polyline id="Fill-181" fill="#2F2F2F" points="17.9738474 9.61558504 11.1184767 9.51780784 19.0478112 0.77552209 17.9738474 9.61558504"></polyline>
            <polyline id="Fill-182" fill="#FFCE7F" points="91.2988207 9.75584394 92.250856 24.7498675 75.7196457 24.9020166 75.3757509 9.78920594 91.2988207 9.75584394"></polyline>
            <polyline id="Fill-183" fill="#383838" points="28.7110595 9.69864371 17.9738474 9.61558504 19.0478112 0.77552209 28.7110595 9.69864371"></polyline>
            <polyline id="Fill-184" fill="#2E2E2E" points="122.138632 9.51122779 115.549355 9.60969762 120.921022 0.885189549 122.138632 9.51122779"></polyline>
            <polyline id="Fill-185" fill="#E4AA69" points="115.549355 9.60969762 117.36725 24.0836665 106.506839 24.4673295 106.503547 24.4673872 105.048087 9.69391069 115.549355 9.60969762"></polyline>
            <polyline id="Fill-186" fill="#383838" points="115.549355 9.60969762 105.048087 9.69391069 114.449342 0.782044418 115.549355 9.60969762"></polyline>
            <polyline id="Fill-187" fill="#3F3F3F" points="105.048087 9.69391069 91.2988207 9.75584394 90.7156319 0.629087173 105.048087 9.69391069"></polyline>
            <polyline id="Fill-188" fill="#242424" points="11.1184767 9.51780784 8.41138793 9.41356603 12.3273069 0.877916865 11.1184767 9.51780784"></polyline>
            <polyline id="Fill-189" fill="#3F3F3F" points="42.6382802 9.75890309 28.7110595 9.69864371 29.5547974 0.688711639 42.6382802 9.75890309"></polyline>
            <polyline id="Fill-190" fill="#FFCE80" points="41.7227483 24.7638933 42.6382802 9.75890309 50.6760276 9.77466057 58.6572293 9.79024489 58.3545164 24.9068651 41.7227483 24.7638933"></polyline>
            <polyline id="Fill-191" fill="#444444" points="50.6760276 9.77466057 42.6389155 9.74718599 43.1696595 0.62568171 58.8210328 0.593012352 58.6572293 9.79024489 50.6760276 9.77466057"></polyline>
            <polyline id="Fill-192" fill="#3F3F3F" points="42.6389155 9.74718599 42.6382802 9.75890309 29.5547974 0.688711639 43.1696595 0.62568171 42.6389155 9.74718599"></polyline>
            <polyline id="Fill-193" fill="#FFD382" points="58.3545164 24.9068651 58.6572293 9.79024489 75.3757509 9.78920594 75.7196457 24.9020166 58.3545164 24.9068651"></polyline>
            <polyline id="Fill-194" fill="#434343" points="91.2988207 9.75584394 75.3757509 9.78920594 75.3752888 9.77743112 75.1543621 0.594166746 91.2988207 9.75584394"></polyline>
            <polyline id="Fill-195" fill="#454545" points="75.3752888 9.77743112 75.3757509 9.78920594 58.6572293 9.79024489 58.8210328 0.593012352 75.1543621 0.594166746 75.3752888 9.77743112"></polyline>
            <polyline id="Fill-196" fill="#242424" points="5.87503362 23.1946675 8.63606897 23.6718363 7.61449224 34.2366221 4.83341466 33.4717204 5.87503362 23.1946675"></polyline>
            <polyline id="Fill-197" fill="#242424" points="4.83341466 33.4717204 7.61449224 34.2366221 7.61044914 34.2783534 4.82931379 33.5122397 4.83341466 33.4717204"></polyline>
            <polyline id="Fill-198" fill="#2F2F2F" points="8.63606897 23.6718363 15.746444 24.1206648 14.8272155 34.956791 7.61449224 34.2366221 8.63606897 23.6718363"></polyline>
            <polyline id="Fill-199" fill="#2F2F2F" points="7.61449224 34.2366221 14.8272155 34.956791 14.8219595 34.9994458 7.61044914 34.2783534 7.61449224 34.2366221"></polyline>
            <polyline id="Fill-200" fill="#383838" points="15.746444 24.1206648 26.9431259 24.5023653 26.2102267 35.5697743 14.8272155 34.956791 15.746444 24.1206648"></polyline>
            <polyline id="Fill-201" fill="#383838" points="14.8272155 34.956791 26.2102267 35.5697743 26.2060103 35.6134105 14.8219595 34.9994458 14.8272155 34.956791"></polyline>
            <polyline id="Fill-202" fill="#2E2E2E" points="117.81384 24.0933634 124.644432 23.6415335 125.655266 34.1892919 118.727466 34.9140784 117.81384 24.0933634"></polyline>
            <polyline id="Fill-203" fill="#2E2E2E" points="118.727466 34.9140784 125.655266 34.1892919 125.659135 34.2296957 118.730989 34.955752 118.727466 34.9140784"></polyline>
            <polyline id="Fill-204" fill="#3F3F3F" points="26.9431259 24.5023653 41.5088103 24.7799971 41.0362293 36.0159477 26.2102267 35.5697743 26.9431259 24.5023653"></polyline>
            <polyline id="Fill-205" fill="#FFC177" points="26.2102267 35.5697743 41.0362293 36.0159477 39.9652112 53.5683976 24.5410026 52.8379546 26.2060103 35.6134105 26.2102267 35.5697743"></polyline>
            <polyline id="Fill-206" fill="#FFCE80" points="39.9652112 53.5683976 41.0362293 36.0159477 58.1274095 36.2480964 57.7729448 53.9487705 39.9652112 53.5683976"></polyline>
            <polyline id="Fill-207" fill="#444444" points="58.1274095 36.2480964 41.0362293 36.0159477 41.5088103 24.7799971 58.2889603 24.9243542 58.1274095 36.2480964"></polyline>
            <polyline id="Fill-208" fill="#FFBF76" points="24.5410026 52.8379546 39.9652112 53.5683976 39.8081078 65.1529176 24.2962793 64.2416964 24.5410026 52.8379546"></polyline>
            <polyline id="Fill-209" fill="#202020" points="24.2962793 64.2416964 39.8081078 65.1529176 57.7208466 65.6273736 76.4390871 65.6113276 94.2415069 65.1065109 109.549621 64.1701817 121.153385 62.9026568 128.332435 61.4278026 130.861859 59.8734107 130.84713 59.4238318 131.432283 59.8798176 128.896275 61.448524 121.664953 62.9377504 109.961671 64.2182045 94.5113552 65.1643461 76.5366991 65.6745884 57.6349595 65.6908653 39.5487138 65.2112722 23.8923733 64.2904119 11.9179138 63.0278508 4.38405259 61.5481482 1.54463879 59.9808271 2.13331466 59.4437451 2.11592931 59.9735544 4.94587069 61.5264456 12.4244569 62.9918914 24.2962793 64.2416964"></polyline>
            <polyline id="Fill-210" fill="#BE8D57" points="12.4244569 62.9918914 4.94587069 61.5264456 5.28635776 50.6605361 12.7313862 51.8358249 12.4244569 62.9918914"></polyline>
            <polyline id="Fill-211" fill="#8E6A41" points="130.861859 59.8734107 128.332435 61.4278026 127.99114 50.5814024 130.516347 49.3343102 130.84713 59.4238318 130.861859 59.8734107"></polyline>
            <polyline id="Fill-212" fill="#BB8B56" points="128.332435 61.4278026 121.153385 62.9026568 120.843799 51.7643102 127.99114 50.5814024 128.332435 61.4278026"></polyline>
            <polyline id="Fill-213" fill="#E2A868" points="121.153385 62.9026568 109.549621 64.1701817 109.300508 52.780639 120.843799 51.7643102 121.153385 62.9026568"></polyline>
            <polyline id="Fill-214" fill="#FFBE76" points="109.549621 64.1701817 94.2415069 65.1065109 94.0784543 53.5312838 109.300508 52.780639 109.549621 64.1701817"></polyline>
            <polyline id="Fill-215" fill="#E4AA69" points="24.2962793 64.2416964 12.4244569 62.9918914 12.7313862 51.8358249 24.5410026 52.8379546 24.2962793 64.2416964"></polyline>
            <polyline id="Fill-216" fill="#916C43" points="4.94587069 61.5264456 2.11592931 59.9735544 2.13331466 59.4437451 2.46230776 49.4146561 5.28635776 50.6605361 4.94587069 61.5264456"></polyline>
            <polyline id="Fill-217" fill="#FFCD7F" points="57.7208466 65.6273736 39.8081078 65.1529176 39.9652112 53.5683976 57.7729448 53.9487705 57.7208466 65.6273736"></polyline>
            <polyline id="Fill-218" fill="#FFD181" points="76.4390871 65.6113276 57.7208466 65.6273736 57.7729448 53.9487705 76.3801733 53.935899 76.4390871 65.6113276"></polyline>
            <polyline id="Fill-219" fill="#FFCC7E" points="94.2415069 65.1065109 76.4390871 65.6113276 76.3801733 53.935899 94.0784543 53.5312838 94.2415069 65.1065109"></polyline>
            <polyline id="Fill-220" fill="#C19059" points="12.7313862 51.8358249 5.28635776 50.6605361 7.61044914 34.2783534 14.8219595 34.9994458 12.7313862 51.8358249"></polyline>
            <polyline id="Fill-221" fill="#E6AC6A" points="24.5410026 52.8379546 12.7313862 51.8358249 14.8219595 34.9994458 26.2060103 35.6134105 24.5410026 52.8379546"></polyline>
            <polyline id="Fill-222" fill="#926D43" points="130.516347 49.3343102 127.99114 50.5814024 125.659135 34.2296957 128.153095 33.4627739 130.516347 49.3343102"></polyline>
            <polyline id="Fill-223" fill="#BE8E57" points="127.99114 50.5814024 120.843799 51.7643102 118.730989 34.955752 125.659135 34.2296957 127.99114 50.5814024"></polyline>
            <polyline id="Fill-224" fill="#FFC077" points="109.300508 52.780639 94.0784543 53.5312838 92.9648681 35.9938988 107.598534 35.5356043 107.602693 35.5783169 109.300508 52.780639"></polyline>
            <polyline id="Fill-225" fill="#3F3F3F" points="107.598534 35.5356043 92.9648681 35.9938988 92.4889371 24.7658558 106.866271 24.4805473 107.598534 35.5356043"></polyline>
            <polyline id="Fill-226" fill="#FFCE7F" points="92.9648681 35.9938988 94.0784543 53.5312838 76.3801733 53.935899 75.9775957 36.2404197 92.9648681 35.9938988"></polyline>
            <polyline id="Fill-227" fill="#434343" points="92.9648681 35.9938988 75.9775957 36.2404197 75.8106155 24.919448 92.4889371 24.7658558 92.9648681 35.9938988"></polyline>
            <polyline id="Fill-228" fill="#E4AA69" points="120.843799 51.7643102 109.300508 52.780639 107.602693 35.5783169 118.730989 34.955752 120.843799 51.7643102"></polyline>
            <polyline id="Fill-229" fill="#956F44" points="5.28635776 50.6605361 2.46230776 49.4146561 4.82931379 33.5122397 7.61044914 34.2783534 5.28635776 50.6605361"></polyline>
            <polyline id="Fill-230" fill="#FFD382" points="57.7729448 53.9487705 58.1274095 36.2480964 75.9775957 36.2404197 76.3801733 53.935899 57.7729448 53.9487705"></polyline>
            <polyline id="Fill-231" fill="#454545" points="75.9775957 36.2404197 58.1274095 36.2480964 58.2889603 24.9243542 75.8106155 24.919448 75.9775957 36.2404197"></polyline>
            <polyline id="Fill-232" fill="#373737" points="106.866271 24.4805473 117.81384 24.0933634 118.727466 34.9140784 107.598534 35.5356043 106.866271 24.4805473"></polyline>
            <polyline id="Fill-233" fill="#373737" points="107.598534 35.5356043 118.727466 34.9140784 118.730989 34.955752 107.602693 35.5783169 107.598534 35.5356043"></polyline>
            <polyline id="Fill-234" fill="#232323" points="124.644432 23.6415335 127.122912 23.1638451 128.149109 33.423409 125.655266 34.1892919 124.644432 23.6415335"></polyline>
            <polyline id="Fill-235" fill="#232323" points="125.655266 34.1892919 128.149109 33.423409 128.153095 33.4627739 125.659135 34.2296957 125.655266 34.1892919"></polyline>
            <polyline id="Fill-236" fill="#242424" points="8.41138793 9.41356603 9.65943621 0.987122565 12.3273069 0.877916865 8.41138793 9.41356603"></polyline>
            <polyline id="Fill-237" fill="#2F2F2F" points="11.1184767 9.51780784 12.3273069 0.877916865 19.0478112 0.77552209 11.1184767 9.51780784"></polyline>
            <polyline id="Fill-238" fill="#383838" points="19.0478112 0.77552209 29.5547974 0.688711639 28.7110595 9.69864371 19.0478112 0.77552209"></polyline>
            <polyline id="Fill-239" fill="#434343" points="75.1543621 0.594166746 90.7156319 0.629087173 91.2988207 9.75584394 75.1543621 0.594166746"></polyline>
            <polyline id="Fill-240" fill="#3F3F3F" points="90.7156319 0.629087173 104.163514 0.693906413 105.048087 9.69391069 90.7156319 0.629087173"></polyline>
            <polyline id="Fill-241" fill="#383838" points="105.048087 9.69391069 104.163514 0.693906413 114.449342 0.782044418 105.048087 9.69391069"></polyline>
            <polyline id="Fill-242" fill="#2E2E2E" points="115.549355 9.60969762 114.449342 0.782044418 120.921022 0.885189549 115.549355 9.60969762"></polyline>
            <polyline id="Fill-243" fill="#232323" points="122.138632 9.51122779 120.921022 0.885189549 123.337354 0.994568409 124.572349 9.39434537 123.341917 9.45968409 122.138632 9.51122779"></polyline>
            <polyline id="Fill-244" fill="#202020" points="117.728472 179.655672 119.160886 172.113552 121.537711 168.171757 120.474259 173.609474 120.079653 175.624008 117.728472 179.655672"></polyline>
            <polyline id="Fill-245" fill="#383838" points="121.537711 168.171757 121.539097 168.164831 121.541581 168.160733 122.412119 163.748927 126.202355 173.595737 120.474259 173.609474 121.537711 168.171757"></polyline>
            <polyline id="Fill-246" fill="#86633D" points="121.539097 168.164831 121.537711 168.171757 119.160886 172.113552 121.494277 159.92944 122.029815 159.633626 123.765981 156.888246 122.412119 163.748927 121.541581 168.160733 121.539097 168.164831"></polyline>
            <path d="M93.9810155,121.554372 L109.152415,119.750515" id="Stroke-247" stroke="#000000" stroke-width="0.5" stroke-linecap="round" stroke-linejoin="round"></path>
            <path d="M76.3441897,122.526661 L93.9810155,121.554372" id="Stroke-248" stroke="#000000" stroke-width="0.5" stroke-linecap="round" stroke-linejoin="round"></path>
            <path d="M57.802344,122.557656 L76.3441897,122.526661" id="Stroke-249" stroke="#000000" stroke-width="0.5" stroke-linecap="round" stroke-linejoin="round"></path>
            <path d="M40.0565276,121.643722 L57.802344,122.557656" id="Stroke-250" stroke="#000000" stroke-width="0.5" stroke-linecap="round" stroke-linejoin="round"></path>
            <path d="M24.6838397,119.888292 L40.0565276,121.643722" id="Stroke-251" stroke="#000000" stroke-width="0.5" stroke-linecap="round" stroke-linejoin="round"></path>
            <path d="M12.9109,117.479649 L24.6838397,119.888292" id="Stroke-252" stroke="#000000" stroke-width="0.5" stroke-linecap="round" stroke-linejoin="round"></path>
            <path d="M5.48579828,114.654384 L12.9109,117.479649" id="Stroke-253" stroke="#000000" stroke-width="0.5" stroke-linecap="round" stroke-linejoin="round"></path>
            <path d="M5.48579828,114.654384 L2.66521379,111.658904" id="Stroke-254" stroke="#000000" stroke-width="0.5" stroke-linecap="round" stroke-linejoin="round"></path>
            <path d="M127.788696,114.464082 L130.311419,111.465774" id="Stroke-255" stroke="#000000" stroke-width="0.5" stroke-linecap="round" stroke-linejoin="round"></path>
            <path d="M120.660127,117.307702 L127.788696,114.464082" id="Stroke-256" stroke="#000000" stroke-width="0.5" stroke-linecap="round" stroke-linejoin="round"></path>
            <path d="M109.152415,119.750515 L120.660127,117.307702" id="Stroke-257" stroke="#000000" stroke-width="0.5" stroke-linecap="round" stroke-linejoin="round"></path>
            <path d="M67.0767612,192.656922 L0.556562069,192.83441" id="Stroke-258" stroke="#000000" stroke-width="0.5" stroke-linecap="round" stroke-linejoin="round"></path>
            <path d="M133.471162,192.479781 L67.0767612,192.656922" id="Stroke-259" stroke="#000000" stroke-width="0.5" stroke-linecap="round" stroke-linejoin="round"></path>
            <path d="M16.8527526,153.747024 L9.87123707,150.27778" id="Stroke-260" stroke="#000000" stroke-width="0.5" stroke-linecap="round" stroke-linejoin="round"></path>
            <path d="M27.820306,156.695751 L16.8527526,153.747024" id="Stroke-261" stroke="#000000" stroke-width="0.5" stroke-linecap="round" stroke-linejoin="round"></path>
            <path d="M9.86875345,150.274432 L7.13665517,146.584526" id="Stroke-262" stroke="#000000" stroke-width="0.5" stroke-linecap="round" stroke-linejoin="round"></path>
            <polyline id="Stroke-263" stroke="#000000" stroke-width="0.5" stroke-linecap="round" stroke-linejoin="round" points="116.675013 153.537039 105.950161 156.527786 91.8877276 158.729909"></polyline>
            <path d="M123.385698,150.043611 L116.675013,153.537039" id="Stroke-264" stroke="#000000" stroke-width="0.5" stroke-linecap="round" stroke-linejoin="round"></path>
            <path d="M42.0670474,158.838826 L27.820306,156.695751" id="Stroke-265" stroke="#000000" stroke-width="0.5" stroke-linecap="round" stroke-linejoin="round"></path>
            <path d="M125.844425,146.345855 L123.388355,150.039686" id="Stroke-266" stroke="#000000" stroke-width="0.5" stroke-linecap="round" stroke-linejoin="round"></path>
            <path d="M14.0786638,172.363363 L11.4431379,168.416258" id="Stroke-267" stroke="#000000" stroke-width="0.5" stroke-linecap="round" stroke-linejoin="round"></path>
            <polyline id="Stroke-268" stroke="#000000" stroke-width="0.5" stroke-linecap="round" stroke-linejoin="round" points="119.160886 172.113552 112.865139 175.834281 102.898311 179.009038 89.8957483 181.340626 74.8671862 182.592913"></polyline>
            <polyline id="Stroke-269" stroke="#000000" stroke-width="0.5" stroke-linecap="round" stroke-linejoin="round" points="43.9806483 181.455777 30.8120871 179.187507 20.6244483 176.058464 14.0786638 172.363363"></polyline>
            <path d="M8.63606897,23.6718363 L5.87503362,23.1946675" id="Stroke-270" stroke="#000000" stroke-width="0.5" stroke-linecap="round" stroke-linejoin="round"></path>
            <path d="M15.746444,24.1206648 L8.63606897,23.6718363" id="Stroke-271" stroke="#000000" stroke-width="0.5" stroke-linecap="round" stroke-linejoin="round"></path>
            <path d="M26.9431259,24.5023653 L15.746444,24.1206648" id="Stroke-272" stroke="#000000" stroke-width="0.5" stroke-linecap="round" stroke-linejoin="round"></path>
            <path d="M124.644432,23.6415335 L117.81384,24.0933634" id="Stroke-273" stroke="#000000" stroke-width="0.5" stroke-linecap="round" stroke-linejoin="round"></path>
            <path d="M41.5088103,24.7799971 L26.9431259,24.5023653" id="Stroke-274" stroke="#000000" stroke-width="0.5" stroke-linecap="round" stroke-linejoin="round"></path>
            <path d="M106.866271,24.4805473 L92.4889371,24.7658558" id="Stroke-275" stroke="#000000" stroke-width="0.5" stroke-linecap="round" stroke-linejoin="round"></path>
            <path d="M117.81384,24.0933634 L106.866271,24.4805473" id="Stroke-276" stroke="#000000" stroke-width="0.5" stroke-linecap="round" stroke-linejoin="round"></path>
            <path d="M75.8106155,24.919448 L58.2889603,24.9243542" id="Stroke-277" stroke="#000000" stroke-width="0.5" stroke-linecap="round" stroke-linejoin="round"></path>
            <path d="M58.2889603,24.9243542 L41.5088103,24.7799971" id="Stroke-278" stroke="#000000" stroke-width="0.5" stroke-linecap="round" stroke-linejoin="round"></path>
            <path d="M92.4889371,24.7658558 L75.8106155,24.919448" id="Stroke-279" stroke="#000000" stroke-width="0.5" stroke-linecap="round" stroke-linejoin="round"></path>
            <path d="M127.122912,23.1638451 L124.644432,23.6415335" id="Stroke-280" stroke="#000000" stroke-width="0.5" stroke-linecap="round" stroke-linejoin="round"></path>
            <polyline id="Stroke-281" stroke="#000000" stroke-width="0.5" stroke-linecap="round" stroke-linejoin="round" points="109.961671 64.2182045 94.5113552 65.1643461 76.5366991 65.6745884 57.6349595 65.6908653 39.5487138 65.2112722 23.8923733 64.2904119 11.9179138 63.0278508 4.38405259 61.5481482"></polyline>
            <path d="M4.38405259,61.5481482 L1.54463879,59.9808271" id="Stroke-282" stroke="#000000" stroke-width="0.5" stroke-linecap="round" stroke-linejoin="round"></path>
            <polyline id="Stroke-283" stroke="#000000" stroke-width="0.5" stroke-linecap="round" stroke-linejoin="round" points="131.432283 59.8798176 128.896275 61.448524 121.664953 62.9377504 109.961671 64.2182045"></polyline>
            <polyline id="Stroke-284" stroke="#000000" stroke-width="0.5" stroke-linecap="round" stroke-linejoin="round" points="59.0983897 182.632739 51.5658569 182.046307 43.9806483 181.455777"></polyline>
            <polyline id="Stroke-285" stroke="#000000" stroke-width="0.5" stroke-linecap="round" stroke-linejoin="round" points="74.8671862 182.592913 66.9807664 182.612826 59.0983897 182.632739"></polyline>
            <path d="M121.537711,168.171757 L119.160886,172.113552" id="Stroke-286" stroke="#000000" stroke-width="0.5" stroke-linecap="round" stroke-linejoin="round"></path>
            <path d="M31.8045534,186.882642 L44.6066362,189.190219" id="Stroke-287" stroke="#000000" stroke-width="0.576" stroke-linecap="round" stroke-linejoin="round"></path>
            <path d="M21.8879759,183.695821 L31.8045534,186.882642" id="Stroke-288" stroke="#000000" stroke-width="0.576" stroke-linecap="round" stroke-linejoin="round"></path>
            <path d="M15.5019517,179.928224 L21.8879759,183.695821" id="Stroke-289" stroke="#000000" stroke-width="0.576" stroke-linecap="round" stroke-linejoin="round"></path>
            <path d="M15.5019517,179.928224 L12.9136724,175.89858" id="Stroke-290" stroke="#000000" stroke-width="0.576" stroke-linecap="round" stroke-linejoin="round"></path>
            <polyline id="Stroke-291" stroke="#000000" stroke-width="0.576" stroke-linecap="round" stroke-linejoin="round" points="74.6113733 190.343228 89.2153517 189.066929 101.862872 186.691474 111.573887 183.455534 117.727664 179.660116 117.728472 179.655672"></polyline>
            <path d="M9.11292414,23.6658912 L16.1739733,24.1107371" id="Stroke-292" stroke="#000000" stroke-width="0.576" stroke-linecap="round" stroke-linejoin="round"></path>
            <path d="M4.94587069,61.5264456 L12.4244569,62.9918914" id="Stroke-293" stroke="#000000" stroke-width="0.576" stroke-linecap="round" stroke-linejoin="round"></path>
            <path d="M4.60757845,72.3224565 L12.1194336,74.0792715" id="Stroke-294" stroke="#000000" stroke-width="0.576" stroke-linecap="round" stroke-linejoin="round"></path>
            <path d="M16.1739733,24.1107371 L27.2814181,24.4888589" id="Stroke-295" stroke="#000000" stroke-width="0.576" stroke-linecap="round" stroke-linejoin="round"></path>
            <path d="M128.332435,61.4278026 L130.861859,59.8734107" id="Stroke-296" stroke="#000000" stroke-width="0.576" stroke-linecap="round" stroke-linejoin="round"></path>
            <path d="M128.671594,72.2041888 L131.205003,70.341285" id="Stroke-297" stroke="#000000" stroke-width="0.576" stroke-linecap="round" stroke-linejoin="round"></path>
            <path d="M124.151404,23.635877 L126.622549,23.162229" id="Stroke-298" stroke="#000000" stroke-width="0.576" stroke-linecap="round" stroke-linejoin="round"></path>
            <path d="M117.36725,24.0836665 L124.151404,23.635877" id="Stroke-299" stroke="#000000" stroke-width="0.576" stroke-linecap="round" stroke-linejoin="round"></path>
            <path d="M121.153385,62.9026568 L128.332435,61.4278026" id="Stroke-300" stroke="#000000" stroke-width="0.576" stroke-linecap="round" stroke-linejoin="round"></path>
            <path d="M121.461066,73.9722591 L128.671594,72.2041888" id="Stroke-301" stroke="#000000" stroke-width="0.576" stroke-linecap="round" stroke-linejoin="round"></path>
            <path d="M109.549621,64.1701817 L121.153385,62.9026568" id="Stroke-302" stroke="#000000" stroke-width="0.576" stroke-linecap="round" stroke-linejoin="round"></path>
            <path d="M109.797347,75.4923078 L121.461066,73.9722591" id="Stroke-303" stroke="#000000" stroke-width="0.576" stroke-linecap="round" stroke-linejoin="round"></path>
            <path d="M92.250856,24.7498675 L106.503547,24.4673872" id="Stroke-304" stroke="#000000" stroke-width="0.576" stroke-linecap="round" stroke-linejoin="round"></path>
            <path d="M94.2415069,65.1065109 L109.549621,64.1701817" id="Stroke-305" stroke="#000000" stroke-width="0.576" stroke-linecap="round" stroke-linejoin="round"></path>
            <path d="M94.4036353,76.6153026 L109.797347,75.4923078" id="Stroke-306" stroke="#000000" stroke-width="0.576" stroke-linecap="round" stroke-linejoin="round"></path>
            <path d="M12.4244569,62.9918914 L24.2962793,64.2416964" id="Stroke-307" stroke="#000000" stroke-width="0.576" stroke-linecap="round" stroke-linejoin="round"></path>
            <path d="M12.1194336,74.0792715 L24.0530578,75.5780216" id="Stroke-308" stroke="#000000" stroke-width="0.576" stroke-linecap="round" stroke-linejoin="round"></path>
            <path d="M6.36147672,23.1926473 L9.11292414,23.6658912" id="Stroke-309" stroke="#000000" stroke-width="0.576" stroke-linecap="round" stroke-linejoin="round"></path>
            <path d="M1.77191897,70.4612266 L4.60757845,72.3224565" id="Stroke-310" stroke="#000000" stroke-width="0.576" stroke-linecap="round" stroke-linejoin="round"></path>
            <path d="M2.11592931,59.9735544 L4.94587069,61.5264456" id="Stroke-311" stroke="#000000" stroke-width="0.576" stroke-linecap="round" stroke-linejoin="round"></path>
            <path d="M27.2814181,24.4888589 L41.7227483,24.7638933" id="Stroke-312" stroke="#000000" stroke-width="0.576" stroke-linecap="round" stroke-linejoin="round"></path>
            <path d="M24.2962793,64.2416964 L39.8081078,65.1529176" id="Stroke-313" stroke="#000000" stroke-width="0.576" stroke-linecap="round" stroke-linejoin="round"></path>
            <polyline id="Stroke-314" stroke="#000000" stroke-width="0.576" stroke-linecap="round" stroke-linejoin="round" points="24.0530578 75.5780216 39.6518129 76.6709444 57.6689793 77.2401185"></polyline>
            <path d="M39.8081078,65.1529176 L57.7208466,65.6273736" id="Stroke-315" stroke="#000000" stroke-width="0.576" stroke-linecap="round" stroke-linejoin="round"></path>
            <path d="M57.6689793,77.2401185 L76.4975966,77.2208979" id="Stroke-316" stroke="#000000" stroke-width="0.576" stroke-linecap="round" stroke-linejoin="round"></path>
            <polyline id="Stroke-317" stroke="#000000" stroke-width="0.576" stroke-linecap="round" stroke-linejoin="round" points="57.7208466 65.6273736 76.4390871 65.6113276 94.2415069 65.1065109"></polyline>
            <path d="M76.4975966,77.2208979 L94.4036353,76.6153026" id="Stroke-318" stroke="#000000" stroke-width="0.576" stroke-linecap="round" stroke-linejoin="round"></path>
            <path d="M1.69637069,242.309903 L0.739194828,200.761867" id="Stroke-319" stroke="#000000" stroke-width="0.576" stroke-linecap="round" stroke-linejoin="round"></path>
            <path d="M88.8281379,242.01611 L89.1590371,200.515981" id="Stroke-320" stroke="#000000" stroke-width="0.576" stroke-linecap="round" stroke-linejoin="round"></path>
            <path d="M88.8281379,242.01611 L1.69637069,242.309903" id="Stroke-321" stroke="#000000" stroke-width="0.576" stroke-linecap="round" stroke-linejoin="round"></path>
            <path d="M132.313044,241.869444 L88.8281379,242.01611" id="Stroke-322" stroke="#000000" stroke-width="0.576" stroke-linecap="round" stroke-linejoin="round"></path>
            <polyline id="Stroke-323" stroke="#000000" stroke-width="0.576" stroke-linecap="round" stroke-linejoin="round" points="132.313044 241.869444 133.285584 200.393269 89.1590371 200.515981"></polyline>
            <path d="M126.202355,173.595737 L120.474259,173.609474" id="Stroke-324" stroke="#000000" stroke-width="0.576" stroke-linecap="round" stroke-linejoin="round"></path>
            <path d="M122.412119,163.748927 L126.202355,173.595737" id="Stroke-325" stroke="#000000" stroke-width="0.576" stroke-linecap="round" stroke-linejoin="round"></path>
            <path d="M6.71039655,173.882373 L10.3249888,162.750318" id="Stroke-326" stroke="#000000" stroke-width="0.576" stroke-linecap="round" stroke-linejoin="round"></path>
            <path d="M12.5146759,173.868462 L6.71039655,173.882373" id="Stroke-327" stroke="#000000" stroke-width="0.576" stroke-linecap="round" stroke-linejoin="round"></path>
            <polyline id="Stroke-328" stroke="#000000" stroke-width="0.576" stroke-linecap="round" stroke-linejoin="round" points="67.0749707 200.577395 0.739194828 200.761867 0.556562069 192.83441 6.71039655 173.882373"></polyline>
            <path d="M67.0749707,200.577395 L67.0767612,192.656922" id="Stroke-329" stroke="#000000" stroke-width="0.576" stroke-linecap="round" stroke-linejoin="round"></path>
            <path d="M67.0077397,190.364353 L67.0767612,192.656922" id="Stroke-330" stroke="#000000" stroke-width="0.576" stroke-linecap="round" stroke-linejoin="round"></path>
            <path d="M133.285584,200.393269 L133.471162,192.479781" id="Stroke-331" stroke="#000000" stroke-width="0.576" stroke-linecap="round" stroke-linejoin="round"></path>
            <path d="M126.202355,173.595737 L133.471162,192.479781" id="Stroke-332" stroke="#000000" stroke-width="0.576" stroke-linecap="round" stroke-linejoin="round"></path>
            <path d="M8.53060172,156.03157 L7.14214224,146.621871" id="Stroke-333" stroke="#000000" stroke-width="0.576" stroke-linecap="round" stroke-linejoin="round"></path>
            <path d="M124.465034,155.782856 L125.839169,146.382161" id="Stroke-334" stroke="#000000" stroke-width="0.576" stroke-linecap="round" stroke-linejoin="round"></path>
            <path d="M2.66521379,111.658904 L2.88475431,121.781037" id="Stroke-335" stroke="#000000" stroke-width="0.576" stroke-linecap="round" stroke-linejoin="round"></path>
            <path d="M130.311419,111.465774 L130.091878,121.570187" id="Stroke-336" stroke="#000000" stroke-width="0.576" stroke-linecap="round" stroke-linejoin="round"></path>
            <path d="M17.9738474,9.61558504 L11.1184767,9.51780784" id="Stroke-337" stroke="#000000" stroke-width="0.576" stroke-linecap="round" stroke-linejoin="round"></path>
            <path d="M28.7110595,9.69864371 L17.9738474,9.61558504" id="Stroke-338" stroke="#000000" stroke-width="0.576" stroke-linecap="round" stroke-linejoin="round"></path>
            <path d="M131.884417,91.0661836 L130.311419,111.465774" id="Stroke-339" stroke="#000000" stroke-width="0.576" stroke-linecap="round" stroke-linejoin="round"></path>
            <path d="M129.470049,122.377686 L128.760773,131.576592" id="Stroke-340" stroke="#000000" stroke-width="0.576" stroke-linecap="round" stroke-linejoin="round"></path>
            <path d="M131.205003,70.341285 L131.884417,91.0661836" id="Stroke-341" stroke="#000000" stroke-width="0.576" stroke-linecap="round" stroke-linejoin="round"></path>
            <polyline id="Stroke-342" stroke="#000000" stroke-width="0.576" stroke-linecap="round" stroke-linejoin="round" points="122.138632 9.51122779 115.549355 9.60969762 105.048087 9.69391069 91.2988207 9.75584394"></polyline>
            <polyline id="Stroke-343" stroke="#000000" stroke-width="0.576" stroke-linecap="round" stroke-linejoin="round" points="1.77191897 70.4612266 1.09077155 91.2260672 2.66521379 111.658904"></polyline>
            <path d="M3.50028793,122.495376 L4.21730345,131.800776" id="Stroke-344" stroke="#000000" stroke-width="0.576" stroke-linecap="round" stroke-linejoin="round"></path>
            <path d="M11.1184767,9.51780784 L8.41138793,9.41356603" id="Stroke-345" stroke="#000000" stroke-width="0.576" stroke-linecap="round" stroke-linejoin="round"></path>
            <path d="M42.6382802,9.75890309 L28.7110595,9.69864371" id="Stroke-346" stroke="#000000" stroke-width="0.576" stroke-linecap="round" stroke-linejoin="round"></path>
            <path d="M50.6760276,9.77466057 L42.6382802,9.75890309" id="Stroke-347" stroke="#000000" stroke-width="0.576" stroke-linecap="round" stroke-linejoin="round"></path>
            <path d="M91.2988207,9.75584394 L75.3757509,9.78920594" id="Stroke-348" stroke="#000000" stroke-width="0.576" stroke-linecap="round" stroke-linejoin="round"></path>
            <path d="M5.87503362,23.1946675 L6.38625517,23.0303394" id="Stroke-349" stroke="#000000" stroke-width="0.576" stroke-linecap="round" stroke-linejoin="round"></path>
            <path d="M126.601698,23.0224318 L127.122912,23.1638451" id="Stroke-350" stroke="#000000" stroke-width="0.576" stroke-linecap="round" stroke-linejoin="round"></path>
            <path d="M75.7196457,24.9020166 L92.250856,24.7498675" id="Stroke-351" stroke="#000000" stroke-width="0.576" stroke-linecap="round" stroke-linejoin="round"></path>
            <path d="M58.3545164,24.9068651 L75.7196457,24.9020166" id="Stroke-352" stroke="#000000" stroke-width="0.576" stroke-linecap="round" stroke-linejoin="round"></path>
            <path d="M41.7227483,24.7638933 L58.3545164,24.9068651" id="Stroke-353" stroke="#000000" stroke-width="0.576" stroke-linecap="round" stroke-linejoin="round"></path>
            <path d="M5.87503362,23.1946675 L4.83341466,33.4717204" id="Stroke-354" stroke="#000000" stroke-width="0.576" stroke-linecap="round" stroke-linejoin="round"></path>
            <path d="M14.8219595,34.9994458 L7.61044914,34.2783534" id="Stroke-355" stroke="#000000" stroke-width="0.576" stroke-linecap="round" stroke-linejoin="round"></path>
            <path d="M26.2060103,35.6134105 L14.8219595,34.9994458" id="Stroke-356" stroke="#000000" stroke-width="0.576" stroke-linecap="round" stroke-linejoin="round"></path>
            <path d="M7.61044914,34.2783534 L4.82931379,33.5122397" id="Stroke-357" stroke="#000000" stroke-width="0.576" stroke-linecap="round" stroke-linejoin="round"></path>
            <path d="M118.730989,34.955752 L107.602693,35.5783169" id="Stroke-358" stroke="#000000" stroke-width="0.576" stroke-linecap="round" stroke-linejoin="round"></path>
            <path d="M125.659135,34.2296957 L118.730989,34.955752" id="Stroke-359" stroke="#000000" stroke-width="0.576" stroke-linecap="round" stroke-linejoin="round"></path>
            <path d="M127.122912,23.1638451 L128.149109,33.423409" id="Stroke-360" stroke="#000000" stroke-width="0.576" stroke-linecap="round" stroke-linejoin="round"></path>
            <path d="M128.153095,33.4627739 L125.659135,34.2296957" id="Stroke-361" stroke="#000000" stroke-width="0.576" stroke-linecap="round" stroke-linejoin="round"></path>
            <path d="M1.54463879,59.9808271 L1.77191897,70.4612266" id="Stroke-362" stroke="#000000" stroke-width="0.576" stroke-linecap="round" stroke-linejoin="round"></path>
            <path d="M1.54463879,59.9808271 L2.13331466,59.4437451" id="Stroke-363" stroke="#000000" stroke-width="0.576" stroke-linecap="round" stroke-linejoin="round"></path>
            <path d="M131.432283,59.8798176 L131.205003,70.341285" id="Stroke-364" stroke="#000000" stroke-width="0.576" stroke-linecap="round" stroke-linejoin="round"></path>
            <path d="M130.84713,59.4238318 L131.432283,59.8798176" id="Stroke-365" stroke="#000000" stroke-width="0.576" stroke-linecap="round" stroke-linejoin="round"></path>
            <path d="M9.65943621,0.987122565 L8.41138793,9.41356603" id="Stroke-366" stroke="#000000" stroke-width="0.576" stroke-linecap="round" stroke-linejoin="round"></path>
            <path d="M12.3273069,0.877916865 L9.65943621,0.987122565" id="Stroke-367" stroke="#000000" stroke-width="0.576" stroke-linecap="round" stroke-linejoin="round"></path>
            <path d="M19.0478112,0.77552209 L12.3273069,0.877916865" id="Stroke-368" stroke="#000000" stroke-width="0.576" stroke-linecap="round" stroke-linejoin="round"></path>
            <path d="M29.5547974,0.688711639 L19.0478112,0.77552209" id="Stroke-369" stroke="#000000" stroke-width="0.576" stroke-linecap="round" stroke-linejoin="round"></path>
            <path d="M43.1696595,0.62568171 L29.5547974,0.688711639" id="Stroke-370" stroke="#000000" stroke-width="0.576" stroke-linecap="round" stroke-linejoin="round"></path>
            <path d="M58.8210328,0.593012352 L43.1696595,0.62568171" id="Stroke-371" stroke="#000000" stroke-width="0.576" stroke-linecap="round" stroke-linejoin="round"></path>
            <path d="M75.1543621,0.594166746 L58.8210328,0.593012352" id="Stroke-372" stroke="#000000" stroke-width="0.576" stroke-linecap="round" stroke-linejoin="round"></path>
            <path d="M90.7156319,0.629087173 L75.1543621,0.594166746" id="Stroke-373" stroke="#000000" stroke-width="0.576" stroke-linecap="round" stroke-linejoin="round"></path>
            <path d="M104.163514,0.693906413 L90.7156319,0.629087173" id="Stroke-374" stroke="#000000" stroke-width="0.576" stroke-linecap="round" stroke-linejoin="round"></path>
            <path d="M114.449342,0.782044418 L104.163514,0.693906413" id="Stroke-375" stroke="#000000" stroke-width="0.576" stroke-linecap="round" stroke-linejoin="round"></path>
            <path d="M120.921022,0.885189549 L114.449342,0.782044418" id="Stroke-376" stroke="#000000" stroke-width="0.576" stroke-linecap="round" stroke-linejoin="round"></path>
            <path d="M123.337354,0.994568409 L120.921022,0.885189549" id="Stroke-377" stroke="#000000" stroke-width="0.576" stroke-linecap="round" stroke-linejoin="round"></path>
            <path d="M121.537711,168.171757 L121.539097,168.164831" id="Stroke-378" stroke="#000000" stroke-width="0.576" stroke-linecap="round" stroke-linejoin="round"></path>
            <path d="M89.1590371,200.515981 L67.0749707,200.577395" id="Stroke-379" stroke="#000000" stroke-width="0.576" stroke-linecap="round" stroke-linejoin="round"></path>
            <polyline id="Stroke-380" stroke="#000000" stroke-width="0.576" stroke-linecap="round" stroke-linejoin="round" points="11.2352069 159.877319 9.18183017 156.957567 8.53060172 156.03157"></polyline>
            <polyline id="Stroke-381" stroke="#000000" stroke-width="0.576" stroke-linecap="round" stroke-linejoin="round" points="18.0790259 163.486533 11.7508181 160.149237 11.2352069 159.877319"></polyline>
            <polyline id="Stroke-382" stroke="#000000" stroke-width="0.576" stroke-linecap="round" stroke-linejoin="round" points="28.7955026 166.549603 18.5205328 163.612708 18.0790259 163.486533"></polyline>
            <polyline id="Stroke-383" stroke="#000000" stroke-width="0.576" stroke-linecap="round" stroke-linejoin="round" points="122.029815 159.633626 121.494277 159.92944 115.451628 163.267313"></polyline>
            <polyline id="Stroke-384" stroke="#000000" stroke-width="0.576" stroke-linecap="round" stroke-linejoin="round" points="42.6939017 168.774063 29.1383578 166.604494 28.7955026 166.549603"></polyline>
            <polyline id="Stroke-385" stroke="#000000" stroke-width="0.576" stroke-linecap="round" stroke-linejoin="round" points="104.970691 166.37477 104.605945 166.435548 91.2498991 168.661048"></polyline>
            <polyline id="Stroke-386" stroke="#000000" stroke-width="0.576" stroke-linecap="round" stroke-linejoin="round" points="115.451628 163.267313 114.990021 163.404167 104.970691 166.37477"></polyline>
            <polyline id="Stroke-387" stroke="#000000" stroke-width="0.576" stroke-linecap="round" stroke-linejoin="round" points="58.7445603 169.929381 58.6785422 169.929554 42.9089948 168.789589 42.6939017 168.774063"></polyline>
            <polyline id="Stroke-388" stroke="#000000" stroke-width="0.576" stroke-linecap="round" stroke-linejoin="round" points="91.2498991 168.661048 91.0111828 168.679518 75.3609647 169.89042"></polyline>
            <polyline id="Stroke-389" stroke="#000000" stroke-width="0.576" stroke-linecap="round" stroke-linejoin="round" points="124.465034 155.782856 123.765981 156.888246 122.029815 159.633626"></polyline>
            <polyline id="Stroke-390" stroke="#000000" stroke-width="0.576" stroke-linecap="round" stroke-linejoin="round" points="12.9136724 175.89858 12.5146759 173.868462 11.4431379 168.416258"></polyline>
            <polyline id="Stroke-391" stroke="#000000" stroke-width="0.576" stroke-linecap="round" stroke-linejoin="round" points="108.994098 130.610191 108.58407 130.663582 93.8773388 132.577856 93.6096276 132.594018 76.306531 133.638341"></polyline>
            <polyline id="Stroke-392" stroke="#000000" stroke-width="0.576" stroke-linecap="round" stroke-linejoin="round" points="57.920056 133.671933 57.8350353 133.672049 40.4130716 132.689775 40.1557569 132.675229 25.2405172 130.81071 24.8386328 130.760436 13.6122052 128.246338 13.1051422 128.132803 6.27177759 125.28751 5.70146897 125.050051 3.50028793 122.495376 2.88475431 121.781037"></polyline>
            <polyline id="Stroke-393" stroke="#000000" stroke-width="0.576" stroke-linecap="round" stroke-linejoin="round" points="130.091878 121.570187 129.470049 122.377686 127.57187 124.842433 126.998731 125.09259 120.463516 127.945157 119.951082 128.064232 108.994098 130.610191"></polyline>
            <polyline id="Stroke-394" stroke="#000000" stroke-width="0.576" stroke-linecap="round" stroke-linejoin="round" points="128.760773 131.576592 125.844425 146.345855 125.839169 146.382161"></polyline>
            <polyline id="Stroke-395" stroke="#000000" stroke-width="0.576" stroke-linecap="round" stroke-linejoin="round" points="123.765981 156.888246 122.412119 163.748927 121.541581 168.160733"></polyline>
            <polyline id="Stroke-396" stroke="#000000" stroke-width="0.576" stroke-linecap="round" stroke-linejoin="round" points="130.516347 49.3343102 130.84713 59.4238318 130.861859 59.8734107"></polyline>
            <polyline id="Stroke-397" stroke="#000000" stroke-width="0.576" stroke-linecap="round" stroke-linejoin="round" points="124.575988 9.40687055 126.601698 23.0224318 126.622549 23.162229"></polyline>
            <polyline id="Stroke-398" stroke="#000000" stroke-width="0.576" stroke-linecap="round" stroke-linejoin="round" points="128.149109 33.423409 128.153095 33.4627739 130.516347 49.3343102"></polyline>
            <polyline id="Stroke-399" stroke="#000000" stroke-width="0.576" stroke-linecap="round" stroke-linejoin="round" points="124.575988 9.40687055 123.341917 9.45968409 122.138632 9.51122779"></polyline>
            <polyline id="Stroke-400" stroke="#000000" stroke-width="0.576" stroke-linecap="round" stroke-linejoin="round" points="8.41138793 9.41356603 6.38625517 23.0303394 6.36147672 23.1926473"></polyline>
            <polyline id="Stroke-401" stroke="#000000" stroke-width="0.576" stroke-linecap="round" stroke-linejoin="round" points="4.83341466 33.4717204 4.82931379 33.5122397 2.46230776 49.4146561 2.13331466 59.4437451 2.11592931 59.9735544"></polyline>
            <polyline id="Stroke-402" stroke="#000000" stroke-width="0.576" stroke-linecap="round" stroke-linejoin="round" points="4.21730345 131.800776 7.13665517 146.584526 7.14214224 146.621871"></polyline>
            <polyline id="Stroke-403" stroke="#000000" stroke-width="0.576" stroke-linecap="round" stroke-linejoin="round" points="9.18183017 156.957567 10.3249888 162.750318 11.4431379 168.416258"></polyline>
            <path d="M58.6572293,9.79024489 L50.6760276,9.77466057" id="Stroke-404" stroke="#000000" stroke-width="0.576" stroke-linecap="round" stroke-linejoin="round"></path>
            <polyline id="Stroke-405" stroke="#000000" stroke-width="0.576" stroke-linecap="round" stroke-linejoin="round" points="123.337354 0.994568409 124.572349 9.39434537 124.575988 9.40687055"></polyline>
            <polyline id="Stroke-406" stroke="#000000" stroke-width="0.576" stroke-linecap="round" stroke-linejoin="round" points="75.3609647 169.89042 75.2702836 169.890651 58.7445603 169.929381"></polyline>
            <path d="M121.541581,168.160733 L121.539097,168.164831" id="Stroke-407" stroke="#000000" stroke-width="0.576" stroke-linecap="round" stroke-linejoin="round"></path>
            <path d="M74.6113733,190.343228 L67.0077397,190.364353" id="Stroke-408" stroke="#000000" stroke-width="0.576" stroke-linecap="round" stroke-linejoin="round"></path>
            <path d="M120.079653,175.624008 L120.474259,173.609474" id="Stroke-409" stroke="#000000" stroke-width="0.576" stroke-linecap="round" stroke-linejoin="round"></path>
            <polyline id="Stroke-410" stroke="#000000" stroke-width="0.576" stroke-linecap="round" stroke-linejoin="round" points="76.306531 133.638341 76.2097853 133.638514 57.920056 133.671933"></polyline>
            <path d="M59.2938448,190.385248 L44.6066362,189.190219" id="Stroke-411" stroke="#000000" stroke-width="0.576" stroke-linecap="round" stroke-linejoin="round"></path>
            <path d="M59.2938448,190.385248 L67.0077397,190.364353" id="Stroke-412" stroke="#000000" stroke-width="0.576" stroke-linecap="round" stroke-linejoin="round"></path>
            <path d="M117.728472,179.655672 L120.079653,175.624008" id="Stroke-413" stroke="#000000" stroke-width="0.576" stroke-linecap="round" stroke-linejoin="round"></path>
            <path d="M121.537711,168.171757 L120.474259,173.609474" id="Stroke-414" stroke="#000000" stroke-width="0.576" stroke-linecap="round" stroke-linejoin="round"></path>
            <path d="M75.3757509,9.78920594 L58.6572293,9.79024489" id="Stroke-415" stroke="#000000" stroke-width="0.576" stroke-linecap="round" stroke-linejoin="round"></path>
            <path d="M3.50028793,122.495376 L4.21730345,131.800776" id="Stroke-416" stroke="#000000" stroke-width="0.576" stroke-linecap="round" stroke-linejoin="round"></path>
            <path d="M1.77191897,70.4612266 L1.09077155,91.2260672" id="Stroke-417" stroke="#000000" stroke-width="0.576" stroke-linecap="round" stroke-linejoin="round"></path>
            <path d="M8.41138793,9.41356603 L6.36211207,23.1929359" id="Stroke-418" stroke="#000000" stroke-width="0.576" stroke-linecap="round" stroke-linejoin="round"></path>
            <path d="M2.46230776,49.4146561 L2.11592931,59.9735544" id="Stroke-419" stroke="#000000" stroke-width="0.576" stroke-linecap="round" stroke-linejoin="round"></path>
            <path d="M4.83341466,33.4717781 L2.46230776,49.4146561" id="Stroke-420" stroke="#000000" stroke-width="0.576" stroke-linecap="round" stroke-linejoin="round"></path>
            <path d="M4.21730345,131.800776 L7.14214224,146.621871" id="Stroke-421" stroke="#000000" stroke-width="0.576" stroke-linecap="round" stroke-linejoin="round"></path>
            <path d="M1.09077155,91.2260672 L2.66521379,111.658904" id="Stroke-422" stroke="#000000" stroke-width="0.576" stroke-linecap="round" stroke-linejoin="round"></path>
            <path d="M9.18183017,156.957567 L11.4431379,168.416258" id="Stroke-423" stroke="#000000" stroke-width="0.576" stroke-linecap="round" stroke-linejoin="round"></path>
            <path d="M6.27177759,125.28751 L7.00999052,135.274637" id="Stroke-424" stroke="#000000" stroke-width="0.576" stroke-linecap="round" stroke-linejoin="round"></path>
            <path d="M4.60757845,72.3224565 L3.93740517,93.7072646" id="Stroke-425" stroke="#000000" stroke-width="0.576" stroke-linecap="round" stroke-linejoin="round"></path>
            <path d="M11.1184767,9.51780784 L9.11292414,23.6659489" id="Stroke-426" stroke="#000000" stroke-width="0.576" stroke-linecap="round" stroke-linejoin="round"></path>
            <path d="M5.28635776,50.6605361 L4.94587069,61.5264456" id="Stroke-427" stroke="#000000" stroke-width="0.576" stroke-linecap="round" stroke-linejoin="round"></path>
            <path d="M7.61449224,34.2366221 L5.28635776,50.6605361" id="Stroke-428" stroke="#000000" stroke-width="0.576" stroke-linecap="round" stroke-linejoin="round"></path>
            <path d="M7.00999052,135.274637 L9.87666638,150.31576" id="Stroke-429" stroke="#000000" stroke-width="0.576" stroke-linecap="round" stroke-linejoin="round"></path>
            <path d="M3.93740517,93.7072646 L5.48579828,114.654384" id="Stroke-430" stroke="#000000" stroke-width="0.576" stroke-linecap="round" stroke-linejoin="round"></path>
            <path d="M11.7508181,160.149237 L14.0786638,172.363363" id="Stroke-431" stroke="#000000" stroke-width="0.576" stroke-linecap="round" stroke-linejoin="round"></path>
            <path d="M12.1194336,74.0792715 L11.5150474,96.0507428" id="Stroke-432" stroke="#000000" stroke-width="0.576" stroke-linecap="round" stroke-linejoin="round"></path>
            <path d="M18.5205328,163.612708 L20.6244483,176.058464" id="Stroke-433" stroke="#000000" stroke-width="0.576" stroke-linecap="round" stroke-linejoin="round"></path>
            <path d="M14.2831871,138.546825 L16.8594526,153.786446" id="Stroke-434" stroke="#000000" stroke-width="0.576" stroke-linecap="round" stroke-linejoin="round"></path>
            <path d="M13.6122052,128.246338 L14.2831871,138.546825" id="Stroke-435" stroke="#000000" stroke-width="0.576" stroke-linecap="round" stroke-linejoin="round"></path>
            <path d="M17.9738474,9.61558504 L16.1739733,24.1107948" id="Stroke-436" stroke="#000000" stroke-width="0.576" stroke-linecap="round" stroke-linejoin="round"></path>
            <path d="M11.5150474,96.0507428 L12.9109,117.479649" id="Stroke-437" stroke="#000000" stroke-width="0.576" stroke-linecap="round" stroke-linejoin="round"></path>
            <polyline id="Stroke-438" stroke="#000000" stroke-width="0.576" stroke-linecap="round" stroke-linejoin="round" points="14.8272155 34.956791 12.7313862 51.8358249 12.4244569 62.9918914"></polyline>
            <path d="M24.0530578,75.5780216 L23.570831,98.0510195" id="Stroke-439" stroke="#000000" stroke-width="0.576" stroke-linecap="round" stroke-linejoin="round"></path>
            <path d="M29.1383578,166.604494 L30.8120871,179.187507" id="Stroke-440" stroke="#000000" stroke-width="0.576" stroke-linecap="round" stroke-linejoin="round"></path>
            <path d="M25.776806,141.333071 L27.8255621,156.735173" id="Stroke-441" stroke="#000000" stroke-width="0.576" stroke-linecap="round" stroke-linejoin="round"></path>
            <path d="M25.2405172,130.81071 L25.776806,141.333071" id="Stroke-442" stroke="#000000" stroke-width="0.576" stroke-linecap="round" stroke-linejoin="round"></path>
            <path d="M28.7110595,9.69864371 L27.2814181,24.4889166" id="Stroke-443" stroke="#000000" stroke-width="0.576" stroke-linecap="round" stroke-linejoin="round"></path>
            <path d="M23.570831,98.0510195 L24.6838397,119.888292" id="Stroke-444" stroke="#000000" stroke-width="0.576" stroke-linecap="round" stroke-linejoin="round"></path>
            <polyline id="Stroke-445" stroke="#000000" stroke-width="0.576" stroke-linecap="round" stroke-linejoin="round" points="26.2102267 35.5698321 24.5410026 52.8379546 24.2962793 64.2416964"></polyline>
            <path d="M128.149167,33.4235822 L130.516347,49.3343102" id="Stroke-446" stroke="#000000" stroke-width="0.576" stroke-linecap="round" stroke-linejoin="round"></path>
            <path d="M123.765981,156.888246 L121.541581,168.160733" id="Stroke-447" stroke="#000000" stroke-width="0.576" stroke-linecap="round" stroke-linejoin="round"></path>
            <path d="M128.760773,131.576592 L125.839169,146.382161" id="Stroke-448" stroke="#000000" stroke-width="0.576" stroke-linecap="round" stroke-linejoin="round"></path>
            <path d="M124.575988,9.40687055 L126.622549,23.1624021" id="Stroke-449" stroke="#000000" stroke-width="0.576" stroke-linecap="round" stroke-linejoin="round"></path>
            <path d="M131.884417,91.0661836 L130.311419,111.465774" id="Stroke-450" stroke="#000000" stroke-width="0.576" stroke-linecap="round" stroke-linejoin="round"></path>
            <path d="M129.470049,122.377686 L128.760773,131.576592" id="Stroke-451" stroke="#000000" stroke-width="0.576" stroke-linecap="round" stroke-linejoin="round"></path>
            <path d="M130.516347,49.3343102 L130.861859,59.8734107" id="Stroke-452" stroke="#000000" stroke-width="0.576" stroke-linecap="round" stroke-linejoin="round"></path>
            <path d="M131.205003,70.341285 L131.884417,91.0661836" id="Stroke-453" stroke="#000000" stroke-width="0.576" stroke-linecap="round" stroke-linejoin="round"></path>
            <path d="M125.655266,34.1892919 L127.99114,50.5814024" id="Stroke-454" stroke="#000000" stroke-width="0.576" stroke-linecap="round" stroke-linejoin="round"></path>
            <path d="M121.494277,159.92944 L119.160886,172.113552" id="Stroke-455" stroke="#000000" stroke-width="0.576" stroke-linecap="round" stroke-linejoin="round"></path>
            <path d="M126.258266,135.05409 L123.3805,150.080667" id="Stroke-456" stroke="#000000" stroke-width="0.576" stroke-linecap="round" stroke-linejoin="round"></path>
            <path d="M122.138632,9.51122779 L124.151404,23.6359347" id="Stroke-457" stroke="#000000" stroke-width="0.576" stroke-linecap="round" stroke-linejoin="round"></path>
            <path d="M129.343269,93.5495743 L127.788696,114.464082" id="Stroke-458" stroke="#000000" stroke-width="0.576" stroke-linecap="round" stroke-linejoin="round"></path>
            <path d="M126.998731,125.09259 L126.258266,135.05409" id="Stroke-459" stroke="#000000" stroke-width="0.576" stroke-linecap="round" stroke-linejoin="round"></path>
            <path d="M127.99114,50.5814024 L128.332435,61.4278026" id="Stroke-460" stroke="#000000" stroke-width="0.576" stroke-linecap="round" stroke-linejoin="round"></path>
            <path d="M128.671594,72.2041888 L129.343269,93.5495743" id="Stroke-461" stroke="#000000" stroke-width="0.576" stroke-linecap="round" stroke-linejoin="round"></path>
            <path d="M121.461066,73.9722591 L122.070708,95.9080019" id="Stroke-462" stroke="#000000" stroke-width="0.576" stroke-linecap="round" stroke-linejoin="round"></path>
            <path d="M120.843799,51.7643102 L121.153385,62.9026568" id="Stroke-463" stroke="#000000" stroke-width="0.576" stroke-linecap="round" stroke-linejoin="round"></path>
            <path d="M119.951082,128.064232 L119.273227,138.34775" id="Stroke-464" stroke="#000000" stroke-width="0.576" stroke-linecap="round" stroke-linejoin="round"></path>
            <path d="M122.070708,95.9080019 L120.660127,117.307702" id="Stroke-465" stroke="#000000" stroke-width="0.576" stroke-linecap="round" stroke-linejoin="round"></path>
            <path d="M115.549355,9.60969762 L117.36725,24.0837242" id="Stroke-466" stroke="#000000" stroke-width="0.576" stroke-linecap="round" stroke-linejoin="round"></path>
            <path d="M119.273227,138.34775 L116.670277,153.574788" id="Stroke-467" stroke="#000000" stroke-width="0.576" stroke-linecap="round" stroke-linejoin="round"></path>
            <path d="M114.990021,163.404167 L112.865139,175.834281" id="Stroke-468" stroke="#000000" stroke-width="0.576" stroke-linecap="round" stroke-linejoin="round"></path>
            <path d="M118.727466,34.9140784 L120.843799,51.7643102" id="Stroke-469" stroke="#000000" stroke-width="0.576" stroke-linecap="round" stroke-linejoin="round"></path>
            <path d="M109.797347,75.4923078 L110.288353,97.9365613" id="Stroke-470" stroke="#000000" stroke-width="0.576" stroke-linecap="round" stroke-linejoin="round"></path>
            <path d="M109.300508,52.780639 L109.549621,64.1701817" id="Stroke-471" stroke="#000000" stroke-width="0.576" stroke-linecap="round" stroke-linejoin="round"></path>
            <path d="M108.58407,130.663582 L108.036749,141.173823" id="Stroke-472" stroke="#000000" stroke-width="0.576" stroke-linecap="round" stroke-linejoin="round"></path>
            <path d="M110.288353,97.9365613 L109.152415,119.750515" id="Stroke-473" stroke="#000000" stroke-width="0.576" stroke-linecap="round" stroke-linejoin="round"></path>
            <path d="M105.048087,9.69391069 L106.506088,24.4673295" id="Stroke-474" stroke="#000000" stroke-width="0.576" stroke-linecap="round" stroke-linejoin="round"></path>
            <path d="M108.036749,141.173823 L105.946291,156.566228" id="Stroke-475" stroke="#000000" stroke-width="0.576" stroke-linecap="round" stroke-linejoin="round"></path>
            <path d="M104.605945,166.435548 L102.898311,179.009038" id="Stroke-476" stroke="#000000" stroke-width="0.576" stroke-linecap="round" stroke-linejoin="round"></path>
            <path d="M107.598477,35.5356043 L109.300508,52.780639" id="Stroke-477" stroke="#000000" stroke-width="0.576" stroke-linecap="round" stroke-linejoin="round"></path>
            <path d="M94.4036353,76.6153026 L94.7251776,99.4359463" id="Stroke-478" stroke="#000000" stroke-width="0.576" stroke-linecap="round" stroke-linejoin="round"></path>
            <path d="M94.0784543,53.5312838 L94.2415069,65.1065109" id="Stroke-479" stroke="#000000" stroke-width="0.576" stroke-linecap="round" stroke-linejoin="round"></path>
            <path d="M93.6096276,132.594018 L93.250831,143.258601" id="Stroke-480" stroke="#000000" stroke-width="0.576" stroke-linecap="round" stroke-linejoin="round"></path>
            <path d="M94.7251776,99.4359463 L93.9810155,121.554372" id="Stroke-481" stroke="#000000" stroke-width="0.576" stroke-linecap="round" stroke-linejoin="round"></path>
            <path d="M91.2988207,9.75584394 L92.250856,24.7499252" id="Stroke-482" stroke="#000000" stroke-width="0.576" stroke-linecap="round" stroke-linejoin="round"></path>
            <path d="M93.250831,143.258601 L91.8843198,158.768985" id="Stroke-483" stroke="#000000" stroke-width="0.576" stroke-linecap="round" stroke-linejoin="round"></path>
            <path d="M91.0111828,168.679518 L89.8957483,181.340626" id="Stroke-484" stroke="#000000" stroke-width="0.576" stroke-linecap="round" stroke-linejoin="round"></path>
            <path d="M92.9648103,35.9938988 L94.0784543,53.5312838" id="Stroke-485" stroke="#000000" stroke-width="0.576" stroke-linecap="round" stroke-linejoin="round"></path>
            <path d="M75.2702836,169.890651 L74.8671862,182.592913" id="Stroke-486" stroke="#000000" stroke-width="0.576" stroke-linecap="round" stroke-linejoin="round"></path>
            <path d="M76.4975966,77.2208979 L76.6137491,100.244657" id="Stroke-487" stroke="#000000" stroke-width="0.576" stroke-linecap="round" stroke-linejoin="round"></path>
            <path d="M75.3752888,9.77743112 L75.3757509,9.78920594" id="Stroke-488" stroke="#000000" stroke-width="0.576" stroke-linecap="round" stroke-linejoin="round"></path>
            <path d="M76.6137491,100.244657 L76.3441897,122.526661" id="Stroke-489" stroke="#000000" stroke-width="0.576" stroke-linecap="round" stroke-linejoin="round"></path>
            <path d="M76.0797707,144.381596 L75.5855879,159.954202" id="Stroke-490" stroke="#000000" stroke-width="0.576" stroke-linecap="round" stroke-linejoin="round"></path>
            <path d="M75.3757509,9.78920594 L75.7196457,24.9020166" id="Stroke-491" stroke="#000000" stroke-width="0.576" stroke-linecap="round" stroke-linejoin="round"></path>
            <path d="M76.3801733,53.935899 L76.4390871,65.6113276" id="Stroke-492" stroke="#000000" stroke-width="0.576" stroke-linecap="round" stroke-linejoin="round"></path>
            <path d="M76.2097853,133.638514 L76.0797707,144.381596" id="Stroke-493" stroke="#000000" stroke-width="0.576" stroke-linecap="round" stroke-linejoin="round"></path>
            <path d="M75.9775957,36.2405929 L76.3801733,53.935899" id="Stroke-494" stroke="#000000" stroke-width="0.576" stroke-linecap="round" stroke-linejoin="round"></path>
            <path d="M74.8671862,182.592913 L74.8666664,182.602263" id="Stroke-495" stroke="#000000" stroke-width="0.576" stroke-linecap="round" stroke-linejoin="round"></path>
            <path d="M58.7445603,169.929381 L59.0983897,182.632739" id="Stroke-496" stroke="#000000" stroke-width="0.576" stroke-linecap="round" stroke-linejoin="round"></path>
            <polyline id="Stroke-497" stroke="#000000" stroke-width="0.576" stroke-linecap="round" stroke-linejoin="round" points="57.6689793 77.2401185 57.566169 100.270458 57.802344 122.557656"></polyline>
            <path d="M58.033956,144.417382 L58.467781,159.992066" id="Stroke-498" stroke="#000000" stroke-width="0.576" stroke-linecap="round" stroke-linejoin="round"></path>
            <path d="M58.6572293,9.79024489 L58.3545164,24.9068651" id="Stroke-499" stroke="#000000" stroke-width="0.576" stroke-linecap="round" stroke-linejoin="round"></path>
            <path d="M57.7729448,53.9487705 L57.7208466,65.6273736" id="Stroke-500" stroke="#000000" stroke-width="0.576" stroke-linecap="round" stroke-linejoin="round"></path>
            <path d="M57.920056,133.671933 L58.033956,144.417382" id="Stroke-501" stroke="#000000" stroke-width="0.576" stroke-linecap="round" stroke-linejoin="round"></path>
            <path d="M58.1274095,36.2482696 L57.7729448,53.9487705" id="Stroke-502" stroke="#000000" stroke-width="0.576" stroke-linecap="round" stroke-linejoin="round"></path>
            <path d="M42.9089948,168.789589 L43.9806483,181.455777" id="Stroke-503" stroke="#000000" stroke-width="0.576" stroke-linecap="round" stroke-linejoin="round"></path>
            <path d="M39.6518129,76.6709444 L39.3419957,99.5102316" id="Stroke-504" stroke="#000000" stroke-width="0.576" stroke-linecap="round" stroke-linejoin="round"></path>
            <path d="M42.6396664,9.74718599 L42.6382802,9.75890309" id="Stroke-505" stroke="#000000" stroke-width="0.576" stroke-linecap="round" stroke-linejoin="round"></path>
            <path d="M39.3419957,99.5102316 L40.0565276,121.643722" id="Stroke-506" stroke="#000000" stroke-width="0.576" stroke-linecap="round" stroke-linejoin="round"></path>
            <path d="M40.7576017,143.361804 L42.0704552,158.878999" id="Stroke-507" stroke="#000000" stroke-width="0.576" stroke-linecap="round" stroke-linejoin="round"></path>
            <path d="M42.6382802,9.75890309 L41.7227483,24.7638933" id="Stroke-508" stroke="#000000" stroke-width="0.576" stroke-linecap="round" stroke-linejoin="round"></path>
            <path d="M39.9652112,53.5683976 L39.8081078,65.1529176" id="Stroke-509" stroke="#000000" stroke-width="0.576" stroke-linecap="round" stroke-linejoin="round"></path>
            <path d="M40.4130716,132.689775 L40.7576017,143.361804" id="Stroke-510" stroke="#000000" stroke-width="0.576" stroke-linecap="round" stroke-linejoin="round"></path>
            <path d="M41.0361716,36.0160632 L39.9652112,53.5683976" id="Stroke-511" stroke="#000000" stroke-width="0.576" stroke-linecap="round" stroke-linejoin="round"></path>
            <path d="M43.9806483,181.455777 L43.9820922,181.465243" id="Stroke-512" stroke="#000000" stroke-width="0.576" stroke-linecap="round" stroke-linejoin="round"></path>
        </g>
    </g>
</svg>