<?xml version="1.0" encoding="UTF-8"?>
<svg viewBox="0 0 400 300" width="1600" height="1200" version="1.1" xmlns="http://www.w3.org/2000/svg" xmlns:xlink="http://www.w3.org/1999/xlink">
    <!-- Generator: Sketch 52.5 (67469) - http://www.bohemiancoding.com/sketch -->
    <title>03b</title>
    <desc>Created with Sketch.</desc>
    <g id="03b" stroke="none" stroke-width="1" fill="none" fill-rule="evenodd">
        <rect fill="#EDEDED" x="0" y="0" width="400" height="300"></rect>
        <g id="Group-622" transform="translate(43.000000, 33.000000)">
            <polyline id="Fill-89" fill="#82613C" points="12.8676672 311.004463 6.92132521 292.102423 1.6959958 248.980889 7.71490084 267.393473 12.8676672 311.004463"></polyline>
            <polyline id="Fill-95" fill="#87653E" points="306.925633 294.545477 299.734373 313.401689 304.948884 269.731003 312.256508 251.3587 306.925633 294.545477"></polyline>
            <polyline id="Fill-111" fill="#916C42" points="312.310865 206.283701 312.256508 251.3587 304.948884 269.731003 305.004296 223.43923 312.310865 206.283701"></polyline>
            <polyline id="Fill-112" fill="#222222" points="312.310865 206.283701 305.004296 223.43923 306.382202 199.920111 313.717136 183.236076 312.310865 206.283701"></polyline>
            <polyline id="Fill-113" fill="#B88955" points="305.004296 223.43923 304.948884 269.731003 286.48542 286.974624 286.54136 239.540963 305.004296 223.43923"></polyline>
            <polyline id="Fill-114" fill="#2C2C2C" points="305.004296 223.43923 286.54136 239.540963 287.78034 215.586669 306.382202 199.920111 305.004296 223.43923"></polyline>
            <polyline id="Fill-122" fill="#DBA365" points="286.54136 239.540963 286.48542 286.974624 257.558632 301.590159 257.614176 253.188548 286.54136 239.540963"></polyline>
            <polyline id="Fill-123" fill="#343434" points="286.54136 239.540963 257.614176 253.188548 258.601956 228.871057 287.78034 215.586669 286.54136 239.540963"></polyline>
            <polyline id="Fill-128" fill="#F5B671" points="257.614176 253.188548 257.558632 301.590159 220.034576 312.153879 220.088933 263.052819 257.614176 253.188548"></polyline>
            <polyline id="Fill-129" fill="#3B3B3B" points="257.614176 253.188548 220.088933 263.052819 220.72696 238.475808 258.601956 228.871057 257.614176 253.188548"></polyline>
            <polyline id="Fill-134" fill="#FFC278" points="220.088933 263.052819 220.034576 312.153879 176.905357 317.547142 176.957603 268.088829 220.088933 263.052819"></polyline>
            <polyline id="Fill-135" fill="#3F3F3F" points="220.088933 263.052819 176.957603 268.088829 177.17859 243.380539 220.72696 238.475808 220.088933 263.052819"></polyline>
            <polyline id="Fill-136" fill="#B48653" points="24.8930756 284.866238 7.71490084 267.393473 7.7554042 221.256488 24.9354261 237.572045 24.8930756 284.866238"></polyline>
            <polyline id="Fill-137" fill="#2B2B2B" points="24.9354261 237.572045 7.7554042 221.256488 6.41918908 197.796933 23.7258664 213.670711 24.9354261 237.572045"></polyline>
            <polyline id="Fill-144" fill="#404040" points="176.957603 268.088829 132.024203 267.735802 131.805854 243.036758 177.17859 243.380539 176.957603 268.088829"></polyline>
            <polyline id="Fill-150" fill="#FFC177" points="132.024203 267.735802 131.9742 317.169154 89.3183555 311.062442 89.3657193 262.033493 132.024203 267.735802"></polyline>
            <polyline id="Fill-151" fill="#3E3E3E" points="132.024203 267.735802 89.3657193 262.033493 88.7358723 237.483293 131.805854 243.036758 132.024203 267.735802"></polyline>
            <polyline id="Fill-156" fill="#F2B46F" points="89.3657193 262.033493 89.3183555 311.062442 52.6686185 299.904401 52.7133437 251.614522 89.3657193 262.033493"></polyline>
            <polyline id="Fill-157" fill="#3A3A3A" points="89.3657193 262.033493 52.7133437 251.614522 51.743242 227.338635 88.7358723 237.483293 89.3657193 262.033493"></polyline>
            <polyline id="Fill-158" fill="#D7A063" points="52.7133437 251.614522 52.6686185 299.904401 24.8930756 284.866238 24.9354261 237.572045 52.7133437 251.614522"></polyline>
            <polyline id="Fill-159" fill="#333333" points="52.7133437 251.614522 24.9354261 237.572045 23.7258664 213.670711 51.743242 227.338635 52.7133437 251.614522"></polyline>
            <polyline id="Fill-172" fill="#8B6840" points="7.7554042 221.256488 7.71490084 267.393473 1.6959958 248.980889 1.7350479 204.063318 7.7554042 221.256488"></polyline>
            <polyline id="Fill-173" fill="#212121" points="7.7554042 221.256488 1.7350479 204.063318 0.381021849 181.077239 6.41918908 197.796933 7.7554042 221.256488"></polyline>
            <polyline id="Fill-175" fill="#2C2C2C" points="303.666102 89.1944639 306.192614 99.746298 299.028929 113.434825 281.204151 126.255643 253.417922 137.101996 217.472178 144.92986 176.217987 148.922639 133.258434 148.64278 92.4492521 144.121584 57.326637 135.851942 30.6268739 124.68941 14.0195723 111.694918 8.08141008 97.9723167 10.0295294 91.9910731 9.28331765 97.9179033 15.2030092 111.524282 31.6964529 124.403476 58.1844639 135.462992 93.0085151 143.653656 133.457784 148.131928 176.033809 148.409014 216.923338 144.45414 252.555477 136.703669 252.563657 136.701952 280.126129 125.955577 297.826229 113.249133 304.961286 99.6770927 303.666102 89.1944639"></polyline>
            <polyline id="Fill-176" fill="#9A7347" points="304.961286 99.6770927 297.826229 113.249133 293.944635 79.9127592 293.951364 79.9057595 293.949253 79.8813263 297.426605 73.7931049 300.98813 67.5206441 303.666102 89.1944639 304.961286 99.6770927"></polyline>
            <polyline id="Fill-177" fill="#C19059" points="297.826229 113.249133 280.126129 125.955577 276.666719 91.4987114 293.944635 79.9127592 297.826229 113.249133"></polyline>
            <polyline id="Fill-178" fill="#FDBC74" points="252.555477 136.703669 216.923338 144.45414 215.206101 108.339251 249.835551 101.28506 252.555477 136.703669"></polyline>
            <polyline id="Fill-179" fill="#FABA73" points="93.0085151 143.653656 58.1844639 135.462992 61.0795966 100.157964 94.9240471 107.611142 93.0085151 143.653656"></polyline>
            <polyline id="Fill-180" fill="#DFA667" points="58.1844639 135.462992 31.6964529 124.403476 35.2870034 90.0843601 61.0795966 100.157964 58.1844639 135.462992"></polyline>
            <polyline id="Fill-181" fill="#BC8C57" points="31.6964529 124.403476 15.2030092 111.524282 19.1691723 78.3387339 35.2870034 90.0843601 31.6964529 124.403476"></polyline>
            <polyline id="Fill-182" fill="#946F44" points="15.2030092 111.524282 9.28331765 97.9179033 10.0295294 91.9910731 13.3124126 65.9132047 19.1691723 78.3387339 15.2030092 111.524282"></polyline>
            <polyline id="Fill-183" fill="#2F2F2F" points="293.951364 79.9057595 293.944635 79.9127592 275.094608 70.263104 292.164862 59.3467532 293.949253 79.8813263 293.951364 79.9057595"></polyline>
            <polyline id="Fill-184" fill="#2F2F2F" points="293.944635 79.9127592 276.666719 91.4987114 275.094608 70.263104 293.944635 79.9127592"></polyline>
            <polyline id="Fill-185" fill="#E3A969" points="276.666719 91.4987114 280.126129 125.955577 252.563657 136.701952 252.555477 136.703669 249.835551 101.28506 276.666719 91.4987114"></polyline>
            <polyline id="Fill-186" fill="#373737" points="276.666719 91.4987114 249.835551 101.28506 248.635887 79.4746788 276.666719 91.4987114"></polyline>
            <polyline id="Fill-187" fill="#3D3D3D" points="249.835551 101.28506 215.206101 108.339251 248.635887 79.4746788 249.835551 101.28506"></polyline>
            <polyline id="Fill-188" fill="#FFC87C" points="215.206101 108.339251 216.923338 144.45414 176.033809 148.409014 175.512675 111.934495 215.206101 108.339251"></polyline>
            <polyline id="Fill-189" fill="#414141" points="215.206101 108.339251 175.512675 111.934495 214.515301 86.1079584 215.206101 108.339251"></polyline>
            <polyline id="Fill-190" fill="#FFCC7E" points="175.512675 111.934495 176.033809 148.409014 133.457784 148.131928 134.193837 111.682635 154.855037 111.808631 175.512675 111.934495"></polyline>
            <polyline id="Fill-191" fill="#434343" points="154.855037 111.808631 134.194761 111.648561 134.727769 89.239104 175.421245 89.4834359 175.512675 111.934495 154.855037 111.808631"></polyline>
            <polyline id="Fill-192" fill="#FFC77B" points="134.193837 111.682635 133.457784 148.131928 93.0085151 143.653656 94.9240471 107.611142 114.636255 109.654945 134.193837 111.682635"></polyline>
            <polyline id="Fill-193" fill="#414141" points="134.194761 111.648561 114.636255 109.654945 94.9240471 107.611142 96.0378235 85.4015091 134.727769 89.239104 134.194761 111.648561"></polyline>
            <polyline id="Fill-194" fill="#3D3D3D" points="94.9240471 107.611142 61.0795966 100.157964 96.0378235 85.4015091 94.9240471 107.611142"></polyline>
            <polyline id="Fill-195" fill="#363636" points="61.0795966 100.157964 35.2870034 90.0843601 62.6655605 78.3806004 61.0795966 100.157964"></polyline>
            <polyline id="Fill-196" fill="#2E2E2E" points="35.2870034 90.0843601 19.1691723 78.3387339 21.2368227 57.8167076 35.2870034 90.0843601"></polyline>
            <polyline id="Fill-197" fill="#242424" points="19.1691723 78.3387339 13.3124126 65.9132047 15.3803269 46.0953824 19.1691723 78.3387339"></polyline>
            <polyline id="Fill-198" fill="#373737" points="253.417922 137.101996 281.204151 126.255643 282.681007 151.402145 254.577479 162.881384 253.417922 137.101996"></polyline>
            <polyline id="Fill-199" fill="#373737" points="254.577479 162.881384 282.681007 151.402145 282.686548 151.4975 254.581833 162.978984 254.577479 162.881384"></polyline>
            <polyline id="Fill-200" fill="#2E2E2E" points="281.204151 126.255643 299.028929 113.434825 300.684025 137.840275 282.681007 151.402145 281.204151 126.255643"></polyline>
            <polyline id="Fill-201" fill="#2E2E2E" points="282.681007 151.402145 300.684025 137.840275 300.690358 137.933121 282.686548 151.4975 282.681007 151.402145"></polyline>
            <polyline id="Fill-202" fill="#242424" points="299.028929 113.434825 306.192614 99.746298 307.888742 123.369094 300.684025 137.840275 299.028929 113.434825"></polyline>
            <polyline id="Fill-203" fill="#242424" points="300.684025 137.840275 307.888742 123.369094 307.895075 123.458902 300.690358 137.933121 300.684025 137.840275"></polyline>
            <polyline id="Fill-204" fill="#3C3C3C" points="57.326637 135.851942 92.4492521 144.121584 91.5916891 170.312638 56.0446462 161.557105 57.326637 135.851942"></polyline>
            <polyline id="Fill-205" fill="#3C3C3C" points="56.0446462 161.557105 91.5916891 170.312638 91.5862798 170.412087 56.0365983 161.654177 56.0446462 161.557105"></polyline>
            <polyline id="Fill-206" fill="#2D2D2D" points="14.0195723 111.694918 30.6268739 124.68941 29.0451319 149.743594 12.2779277 135.998805 14.0195723 111.694918"></polyline>
            <polyline id="Fill-207" fill="#2D2D2D" points="12.2779277 135.998805 29.0451319 149.743594 29.039195 149.840006 12.2711992 136.092708 12.267637 136.084255 12.2779277 135.998805"></polyline>
            <polyline id="Fill-208" fill="#363636" points="30.6268739 124.68941 57.326637 135.851942 56.0446462 161.557105 29.0451319 149.743594 30.6268739 124.68941"></polyline>
            <polyline id="Fill-209" fill="#363636" points="29.0451319 149.743594 56.0446462 161.557105 56.0365983 161.654177 29.039195 149.840006 29.0451319 149.743594"></polyline>
            <polyline id="Fill-210" fill="#232323" points="8.08141008 97.9723167 14.0195723 111.694918 12.2779277 135.998805 12.267637 136.084255 6.30876134 121.583886 8.08141008 97.9723167"></polyline>
            <polyline id="Fill-211" fill="#404040" points="92.4492521 144.121584 133.258434 148.64278 132.913166 175.101014 91.5916891 170.312638 92.4492521 144.121584"></polyline>
            <polyline id="Fill-212" fill="#FFC77B" points="91.5916891 170.312638 132.913166 175.101014 132.07592 216.553298 89.4146664 211.269787 91.5862798 170.412087 91.5916891 170.312638"></polyline>
            <polyline id="Fill-213" fill="#FFCC7E" points="132.07592 216.553298 132.913166 175.101014 176.419317 175.397646 177.011959 216.880439 132.07592 216.553298"></polyline>
            <polyline id="Fill-214" fill="#424242" points="176.419317 175.397646 132.913166 175.101014 133.258434 148.64278 176.217987 148.922639 176.419317 175.397646"></polyline>
            <polyline id="Fill-215" fill="#FFC87C" points="177.011959 216.880439 176.419317 175.397646 218.193587 171.169252 218.198336 171.268305 220.145136 212.214097 177.011959 216.880439"></polyline>
            <polyline id="Fill-216" fill="#414141" points="218.193587 171.169252 176.419317 175.397646 176.217987 148.922639 217.472178 144.92986 218.193587 171.169252"></polyline>
            <polyline id="Fill-217" fill="#FFC278" points="177.011959 216.880439 220.145136 212.214097 220.116771 237.856262 176.984517 242.709221 177.011959 216.880439"></polyline>
            <polyline id="Fill-218" fill="#2C2C2C" points="176.984517 242.709221 220.116771 237.856262 257.642673 228.351093 286.569989 215.200228 305.032793 199.684496 312.338703 183.153531 312.346223 176.978143 313.717136 183.236076 306.382202 199.920111 287.78034 215.586669 258.601956 228.871057 220.72696 238.475808 177.17859 243.380539 131.805854 243.036758 88.7358723 237.483293 51.743242 227.338635 23.7258664 213.670711 6.41918908 197.796933 0.381021849 181.077239 1.7591916 176.388708 1.75523361 181.013844 7.77624958 197.581261 24.957195 213.303024 52.7364319 226.834386 89.389995 236.87418 132.049797 242.369005 176.984517 242.709221"></polyline>
            <polyline id="Fill-219" fill="#916C42" points="312.338703 183.153531 305.032793 199.684496 305.061818 175.509642 312.3672 159.614204 312.346223 176.978143 312.338703 183.153531"></polyline>
            <polyline id="Fill-220" fill="#B88955" points="305.032793 199.684496 286.569989 215.200228 286.599146 190.428809 305.061818 175.509642 305.032793 199.684496"></polyline>
            <polyline id="Fill-221" fill="#DBA365" points="286.569989 215.200228 257.642673 228.351093 257.671566 203.074237 286.599146 190.428809 286.569989 215.200228"></polyline>
            <polyline id="Fill-222" fill="#F5B671" points="257.642673 228.351093 220.116771 237.856262 220.145136 212.214097 257.671566 203.074237 257.642673 228.351093"></polyline>
            <polyline id="Fill-223" fill="#FFC67A" points="176.984517 242.709221 132.049797 242.369005 132.07592 216.553298 177.011959 216.880439 176.984517 242.709221"></polyline>
            <polyline id="Fill-224" fill="#FFC177" points="132.049797 242.369005 89.389995 236.87418 89.4146664 211.269787 132.07592 216.553298 132.049797 242.369005"></polyline>
            <polyline id="Fill-225" fill="#F2B46F" points="89.389995 236.87418 52.7364319 226.834386 52.759784 201.615774 89.4146664 211.269787 89.389995 236.87418"></polyline>
            <polyline id="Fill-226" fill="#D7A063" points="52.7364319 226.834386 24.957195 213.303024 24.9793597 188.604641 52.759784 201.615774 52.7364319 226.834386"></polyline>
            <polyline id="Fill-227" fill="#B48653" points="24.957195 213.303024 7.77624958 197.581261 7.79735882 173.487235 24.9793597 188.604641 24.957195 213.303024"></polyline>
            <polyline id="Fill-228" fill="#8B6840" points="7.77624958 197.581261 1.75523361 181.013844 1.7591916 176.388708 1.77555126 157.556798 7.79735882 173.487235 7.77624958 197.581261"></polyline>
            <polyline id="Fill-229" fill="#9A7347" points="312.3672 159.614204 305.061818 175.509642 300.690358 137.933121 307.895075 123.458902 312.3672 159.614204"></polyline>
            <polyline id="Fill-230" fill="#C19059" points="305.061818 175.509642 286.599146 190.428809 282.686548 151.4975 300.690358 137.933121 305.061818 175.509642"></polyline>
            <polyline id="Fill-231" fill="#E3A969" points="286.599146 190.428809 257.671566 203.074237 254.581833 162.978984 282.686548 151.4975 286.599146 190.428809"></polyline>
            <polyline id="Fill-232" fill="#FDBC74" points="257.671566 203.074237 220.145136 212.214097 218.198336 171.268305 254.581833 162.978984 257.671566 203.074237"></polyline>
            <polyline id="Fill-233" fill="#FABA73" points="89.4146664 211.269787 52.759784 201.615774 56.0365983 161.654177 91.5862798 170.412087 89.4146664 211.269787"></polyline>
            <polyline id="Fill-234" fill="#BC8C57" points="24.9793597 188.604641 7.79735882 173.487235 12.2711992 136.092708 29.039195 149.840006 24.9793597 188.604641"></polyline>
            <polyline id="Fill-235" fill="#DFA667" points="52.759784 201.615774 24.9793597 188.604641 29.039195 149.840006 56.0365983 161.654177 52.759784 201.615774"></polyline>
            <polyline id="Fill-236" fill="#946F44" points="7.79735882 173.487235 1.77555126 157.556798 6.30876134 121.583886 12.267637 136.084255 12.2711992 136.092708 7.79735882 173.487235"></polyline>
            <polyline id="Fill-237" fill="#3D3D3D" points="217.472178 144.92986 253.417922 137.101996 254.577479 162.881384 218.193587 171.169252 217.472178 144.92986"></polyline>
            <polyline id="Fill-238" fill="#3D3D3D" points="218.193587 171.169252 254.577479 162.881384 254.581833 162.978984 218.198336 171.268305 218.193587 171.169252"></polyline>
            <path d="M176.022859,1.03966503 L208.823721,3.71793831 L238.947008,8.81351203 L264.665718,16.1348829 L284.284782,25.3735323 L296.220608,36.0825312 L299.141203,47.6595024 L292.164862,59.3467532 L275.094608,70.263104 L248.635887,79.4746788 L214.515301,86.1079584 L175.421245,89.4834359 L134.727769,89.239104 L96.0378235,85.4015091 L62.6655605,78.3806004 L37.1963345,68.8891666 L21.2368227,57.8167076 L15.3803269,46.0953824 L19.3421361,34.5935597 L32.1814378,24.0487254 L52.5336513,15.0425214 L78.8021261,8.00219822 L109.289547,3.21950134 L142.270893,0.871670379 L176.022859,1.03966503 M288.639487,58.9143519 L295.53205,47.486357 L292.775183,36.1560949 L281.208637,25.6660702 L262.118229,16.609547 L237.04203,9.4287 L207.635798,4.42993452 L175.59223,1.80396147 L142.60785,1.64375902 L110.376013,3.95500624 L80.5912664,8.65621514 L54.9464378,15.5701461 L35.1013739,24.4065065 L22.6111664,34.7417437 L18.7960664,46.0022722 L24.5575706,57.4640773 L40.1545311,68.278469 L64.9933824,77.5379857 L97.5018815,84.3796737 L135.167105,88.1137247 L174.777809,88.3447174 L212.844768,85.0475581 L246.098951,78.5731604 L271.926903,69.579371 L288.639487,58.9143519" id="Fill-239" fill="#2C2C2C"></path>
            <polyline id="Fill-240" fill="#373737" points="275.094608 70.263104 276.666719 91.4987114 248.635887 79.4746788 275.094608 70.263104"></polyline>
            <polyline id="Fill-241" fill="#424242" points="175.512675 111.934495 175.421245 89.4834359 214.515301 86.1079584 175.512675 111.934495"></polyline>
            <polyline id="Fill-242" fill="#252525" points="292.164862 59.3467532 299.141203 47.6595024 300.98813 67.5206441 297.426605 73.7931049 293.949253 79.8813263 292.164862 59.3467532"></polyline>
            <polyline id="Fill-243" fill="#3E3E3E" points="215.206101 108.339251 214.515301 86.1079584 248.635887 79.4746788 215.206101 108.339251"></polyline>
            <polyline id="Fill-244" fill="#242424" points="15.3803269 46.0953824 21.2368227 57.8167076 19.1691723 78.3387339 15.3803269 46.0953824"></polyline>
            <polyline id="Fill-245" fill="#2E2E2E" points="21.2368227 57.8167076 37.1963345 68.8891666 35.2870034 90.0843601 21.2368227 57.8167076"></polyline>
            <polyline id="Fill-246" fill="#363636" points="35.2870034 90.0843601 37.1963345 68.8891666 62.6655605 78.3806004 35.2870034 90.0843601"></polyline>
            <polyline id="Fill-247" fill="#3D3D3D" points="61.0795966 100.157964 62.6655605 78.3806004 96.0378235 85.4015091 61.0795966 100.157964"></polyline>
            <polyline id="Fill-248" fill="#E3A969" points="173.892672 17.0766831 143.937468 16.9261218 143.492987 16.9591396 143.893271 5.10785635 173.975922 5.25498374 174.449297 17.1239646 173.892672 17.0766831"></polyline>
            <path d="M143.937468,16.9261218 L173.892672,17.0766831 L174.449297,17.1239646 L202.967225,19.5446989 L204.52047,19.8184826 L229.580308,24.235078 L232.119618,24.9905256 L252.170893,30.9555245 L255.723447,32.7137893 L269.237321,39.4021425 L274.193903,44.1466708 L279.415803,49.1451722 L279.661593,50.3229837 L279.748009,50.7370272 L275.693847,57.1523891 L260.405213,66.7114434 L237.026858,74.7407163 L207.10213,80.5029857 L172.954762,83.4315341 L137.456139,83.2265595 L103.660108,79.9091933 L74.3900303,73.8180664 L51.8855975,65.5476314 L37.5908134,55.8492419 L34.9158765,50.8140247 L35.2420143,49.7330214 L35.8151303,47.8341007 L42.0992202,42.3582938 L46.8377176,38.2293497 L61.1650891,31.5785047 L64.5999588,29.9840082 L85.2897882,24.1912303 L87.7190664,23.5109312 L113.243704,19.3345735 L114.685993,19.0985621 L143.492987,16.9591396 L143.937468,16.9261218 M78.9460647,53.2293441 L79.2731261,54.8707258 L80.0591815,55.6078156 L80.9225496,56.4176766 L82.3897739,57.1048434 L83.7924832,57.761898 L85.786779,58.2967866 L87.6916244,58.8077704 L90.0172034,59.1429673 L92.3522815,59.4796169 L94.7993706,59.5991414 L97.4476571,59.7284392 L99.8209958,59.6402156 L102.617971,59.5361434 L104.757261,59.2646049 L107.497372,58.9167292 L109.2877,58.4944973 L111.743233,57.9153648 L113.114938,57.3736085 L115.062002,56.6045575 L115.981177,55.9574082 L117.230317,55.0779457 L117.684166,54.2333499 L118.109121,53.4423751 L117.65171,51.8106345 L115.901754,50.2928715 L112.988678,48.9895922 L109.114604,47.9854543 L104.541155,47.3447766 L99.5712471,47.108369 L94.5312832,47.2910236 L89.7522824,47.8812501 L85.5498277,48.8416724 L82.2058597,50.1107452 L79.9506008,51.6063203 L78.9460647,53.2293441" id="Fill-249" fill="#B68754"></path>
            <polyline id="Fill-250" fill="#6A4F31" points="279.986412 36.6157029 282.196022 46.8635089 279.878359 50.5308639 279.661593 50.3229837 279.415803 49.1451722 274.193903 44.1466708 269.750803 27.0855722 279.986412 36.6157029"></polyline>
            <polyline id="Fill-251" fill="#916C43" points="269.750803 27.0855722 274.193903 44.1466708 269.237321 39.4021425 255.723447 32.7137893 252.600071 18.8251746 269.750803 27.0855722"></polyline>
            <polyline id="Fill-252" fill="#B38552" points="252.600071 18.8251746 255.723447 32.7137893 252.170893 30.9555245 232.119618 24.9905256 229.905655 12.2538365 252.600071 18.8251746"></polyline>
            <polyline id="Fill-253" fill="#B68854" points="64.2067992 17.875186 87.4314529 11.5456704 85.2897882 24.1912303 64.5999588 29.9840082 61.1650891 31.5785047 64.2067992 17.875186"></polyline>
            <polyline id="Fill-254" fill="#967045" points="64.2067992 17.875186 61.1650891 31.5785047 46.8377176 38.2293497 42.0992202 42.3582938 46.3582739 25.9386653 64.2067992 17.875186"></polyline>
            <polyline id="Fill-255" fill="#705333" points="46.3582739 25.9386653 42.0992202 42.3582938 35.8151303 47.8341007 35.2420143 49.7330214 34.6270756 50.2704194 32.3191756 45.926067 35.2756571 35.3331588 46.3582739 25.9386653"></polyline>
            <polyline id="Fill-256" fill="#DDA566" points="174.449297 17.1239646 173.975922 5.25498374 203.175283 7.66792584 204.52047 19.8184826 202.967225 19.5446989 174.449297 17.1239646"></polyline>
            <polyline id="Fill-257" fill="#CD985E" points="204.52047 19.8184826 203.175283 7.66792584 229.905655 12.2538365 232.119618 24.9905256 229.580308 24.235078 204.52047 19.8184826"></polyline>
            <polyline id="Fill-258" fill="#755736" points="32.1055765 45.52391 35.2756571 35.3331588 32.3191756 45.926067 32.1055765 45.52391"></polyline>
            <polyline id="Fill-259" fill="#CF9A5F" points="87.4314529 11.5456704 114.51646 7.23169443 113.243704 19.3345735 87.7190664 23.5109312 85.2897882 24.1912303 87.4314529 11.5456704"></polyline>
            <polyline id="Fill-260" fill="#DFA667" points="114.51646 7.23169443 143.893271 5.10785635 143.492987 16.9591396 114.685993 19.0985621 113.243704 19.3345735 114.51646 7.23169443"></polyline>
            <polyline id="Fill-261" fill="#7D5D39" points="34.6270756 50.2704194 35.2420143 49.7330214 34.9158765 50.8140247 34.6270756 50.2704194"></polyline>
            <polyline id="Fill-262" fill="#775836" points="79.2731261 54.8707258 78.9460647 53.2293441 79.9506008 51.6063203 80.0591815 55.6078156 79.2731261 54.8707258"></polyline>
            <polyline id="Fill-263" fill="#A0784A" points="79.9506008 51.6063203 82.2058597 50.1107452 82.3897739 57.1048434 80.9225496 56.4176766 80.0591815 55.6078156 79.9506008 51.6063203"></polyline>
            <polyline id="Fill-264" fill="#C6935B" points="82.2058597 50.1107452 85.5498277 48.8416724 85.786779 58.2967866 83.7924832 57.761898 82.3897739 57.1048434 82.2058597 50.1107452"></polyline>
            <polyline id="Fill-265" fill="#E4AA69" points="85.5498277 48.8416724 89.7522824 47.8812501 90.0172034 59.1429673 87.6916244 58.8077704 85.786779 58.2967866 85.5498277 48.8416724"></polyline>
            <polyline id="Fill-266" fill="#F9BA73" points="89.7522824 47.8812501 94.5312832 47.2910236 94.7993706 59.5991414 92.3522815 59.4796169 90.0172034 59.1429673 89.7522824 47.8812501"></polyline>
            <polyline id="Fill-267" fill="#FFC278" points="94.5312832 47.2910236 99.5712471 47.108369 99.8209958 59.6402156 97.4476571 59.7284392 94.7993706 59.5991414 94.5312832 47.2910236"></polyline>
            <polyline id="Fill-268" fill="#FFC177" points="99.5712471 47.108369 104.541155 47.3447766 104.757261 59.2646049 102.617971 59.5361434 99.8209958 59.6402156 99.5712471 47.108369"></polyline>
            <polyline id="Fill-269" fill="#F7B872" points="104.541155 47.3447766 109.114604 47.9854543 109.2877 58.4944973 107.497372 58.9167292 104.757261 59.2646049 104.541155 47.3447766"></polyline>
            <polyline id="Fill-270" fill="#E1A868" points="109.114604 47.9854543 112.988678 48.9895922 113.114938 57.3736085 111.743233 57.9153648 109.2877 58.4944973 109.114604 47.9854543"></polyline>
            <polyline id="Fill-271" fill="#C19059" points="112.988678 48.9895922 115.901754 50.2928715 115.981177 55.9574082 115.062002 56.6045575 113.114938 57.3736085 112.988678 48.9895922"></polyline>
            <polyline id="Fill-272" fill="#9B7447" points="115.901754 50.2928715 117.65171 51.8106345 117.684166 54.2333499 117.230317 55.0779457 115.981177 55.9574082 115.901754 50.2928715"></polyline>
            <polyline id="Fill-273" fill="#715434" points="117.65171 51.8106345 118.109121 53.4423751 117.684166 54.2333499 117.65171 51.8106345"></polyline>
            <path d="M295.53205,47.486357 L288.639487,58.9143519 L271.926903,69.579371 L246.098951,78.5731604 L212.844768,85.0475581 L174.777809,88.3447174 L135.167105,88.1137247 L97.5018815,84.3796737 L64.9933824,77.5379857 L40.1545311,68.278469 L24.5575706,57.4640773 L18.7960664,46.0022722 L22.6111664,34.7417437 L35.1013739,24.4065065 L54.9464378,15.5701461 L80.5912664,8.65621514 L110.376013,3.95500624 L142.60785,1.64375902 L175.59223,1.80396147 L207.635798,4.42993452 L237.04203,9.4287 L262.118229,16.609547 L281.208637,25.6660702 L292.775183,36.1560949 L295.53205,47.486357 M260.405213,66.7114434 L275.693847,57.1523891 L279.748009,50.7370272 L279.878359,50.5308639 L282.196022,46.8635089 L279.986412,36.6157029 L269.750803,27.0855722 L252.600071,18.8251746 L229.905655,12.2538365 L203.175283,7.66792584 L173.975922,5.25498374 L143.893271,5.10785635 L114.51646,7.23169443 L87.4314529,11.5456704 L64.2067992,17.875186 L46.3582739,25.9386653 L35.2756571,35.3331588 L32.1055765,45.52391 L32.3191756,45.926067 L34.6270756,50.2704194 L34.9158765,50.8140247 L37.5908134,55.8492419 L51.8855975,65.5476314 L74.3900303,73.8180664 L103.660108,79.9091933 L137.456139,83.2265595 L172.954762,83.4315341 L207.10213,80.5029857 L237.026858,74.7407163 L260.405213,66.7114434" id="Fill-274" fill="#B68754"></path>
            <polyline id="Stroke-295" stroke="#000000" stroke-width="1.2" stroke-linecap="round" stroke-linejoin="round" points="78.9460647 53.2293441 79.9506008 51.6063203 82.2058597 50.1107452 85.5498277 48.8416724 89.7522824 47.8812501 94.5312832 47.2910236 99.5712471 47.108369 104.541155 47.3447766 109.114604 47.9854543 112.988678 48.9895922 115.901754 50.2928715 117.65171 51.8106345 118.109121 53.4423751"></polyline>
            <path d="M292.775183,36.1560949 L295.53205,47.486357" id="Stroke-296" stroke="#000000" stroke-width="1.2" stroke-linecap="round" stroke-linejoin="round"></path>
            <path d="M269.750803,27.0855722 L279.986412,36.6157029" id="Stroke-297" stroke="#000000" stroke-width="1.2" stroke-linecap="round" stroke-linejoin="round"></path>
            <path d="M252.600071,18.8251746 L269.750803,27.0855722" id="Stroke-298" stroke="#000000" stroke-width="1.2" stroke-linecap="round" stroke-linejoin="round"></path>
            <path d="M64.2067992,17.875186 L87.4314529,11.5456704" id="Stroke-299" stroke="#000000" stroke-width="1.2" stroke-linecap="round" stroke-linejoin="round"></path>
            <path d="M46.3582739,25.9386653 L64.2067992,17.875186" id="Stroke-300" stroke="#000000" stroke-width="1.2" stroke-linecap="round" stroke-linejoin="round"></path>
            <path d="M173.975922,5.25498374 L203.175283,7.66792584" id="Stroke-301" stroke="#000000" stroke-width="1.2" stroke-linecap="round" stroke-linejoin="round"></path>
            <path d="M203.175283,7.66792584 L229.905655,12.2538365" id="Stroke-302" stroke="#000000" stroke-width="1.2" stroke-linecap="round" stroke-linejoin="round"></path>
            <path d="M229.905655,12.2538365 L252.600071,18.8251746" id="Stroke-303" stroke="#000000" stroke-width="1.2" stroke-linecap="round" stroke-linejoin="round"></path>
            <polyline id="Stroke-304" stroke="#000000" stroke-width="1.2" stroke-linecap="round" stroke-linejoin="round" points="32.1055765 45.52391 35.2756571 35.3331588 46.3582739 25.9386653"></polyline>
            <polyline id="Stroke-305" stroke="#000000" stroke-width="1.2" stroke-linecap="round" stroke-linejoin="round" points="87.4314529 11.5456704 114.51646 7.23169443 143.893271 5.10785635 173.975922 5.25498374"></polyline>
            <path d="M281.204151,126.255643 L253.417922,137.101996" id="Stroke-306" stroke="#000000" stroke-width="1.2" stroke-linecap="round" stroke-linejoin="round"></path>
            <path d="M299.028929,113.434825 L281.204151,126.255643" id="Stroke-307" stroke="#000000" stroke-width="1.2" stroke-linecap="round" stroke-linejoin="round"></path>
            <path d="M306.192614,99.746298 L299.028929,113.434825" id="Stroke-308" stroke="#000000" stroke-width="1.2" stroke-linecap="round" stroke-linejoin="round"></path>
            <path d="M92.4492521,144.121584 L57.326637,135.851942" id="Stroke-309" stroke="#000000" stroke-width="1.2" stroke-linecap="round" stroke-linejoin="round"></path>
            <path d="M30.6268739,124.68941 L14.0195723,111.694918" id="Stroke-310" stroke="#000000" stroke-width="1.2" stroke-linecap="round" stroke-linejoin="round"></path>
            <path d="M57.326637,135.851942 L30.6268739,124.68941" id="Stroke-311" stroke="#000000" stroke-width="1.2" stroke-linecap="round" stroke-linejoin="round"></path>
            <path d="M14.0195723,111.694918 L8.08141008,97.9723167" id="Stroke-312" stroke="#000000" stroke-width="1.2" stroke-linecap="round" stroke-linejoin="round"></path>
            <path d="M133.258434,148.64278 L92.4492521,144.121584" id="Stroke-313" stroke="#000000" stroke-width="1.2" stroke-linecap="round" stroke-linejoin="round"></path>
            <path d="M176.217987,148.922639 L133.258434,148.64278" id="Stroke-314" stroke="#000000" stroke-width="1.2" stroke-linecap="round" stroke-linejoin="round"></path>
            <path d="M217.472178,144.92986 L176.217987,148.922639" id="Stroke-315" stroke="#000000" stroke-width="1.2" stroke-linecap="round" stroke-linejoin="round"></path>
            <path d="M253.417922,137.101996 L217.472178,144.92986" id="Stroke-316" stroke="#000000" stroke-width="1.2" stroke-linecap="round" stroke-linejoin="round"></path>
            <path d="M23.7258664,213.670711 L6.41918908,197.796933" id="Stroke-317" stroke="#000000" stroke-width="1.2" stroke-linecap="round" stroke-linejoin="round"></path>
            <path d="M6.41918908,197.796933 L0.381021849,181.077239" id="Stroke-318" stroke="#000000" stroke-width="1.2" stroke-linecap="round" stroke-linejoin="round"></path>
            <polyline id="Stroke-319" stroke="#000000" stroke-width="1.2" stroke-linecap="round" stroke-linejoin="round" points="313.717136 183.236076 306.382202 199.920111 287.78034 215.586669 258.601956 228.871057 220.72696 238.475808 177.17859 243.380539 131.805854 243.036758 88.7358723 237.483293 51.743242 227.338635 23.7258664 213.670711"></polyline>
            <path d="M299.141203,47.6595024 L292.164862,59.3467532" id="Stroke-320" stroke="#000000" stroke-width="1.2" stroke-linecap="round" stroke-linejoin="round"></path>
            <path d="M292.164862,59.3467532 L275.094608,70.263104" id="Stroke-321" stroke="#000000" stroke-width="1.2" stroke-linecap="round" stroke-linejoin="round"></path>
            <path d="M214.515301,86.1079584 L175.421245,89.4834359" id="Stroke-322" stroke="#000000" stroke-width="1.2" stroke-linecap="round" stroke-linejoin="round"></path>
            <path d="M248.635887,79.4746788 L214.515301,86.1079584" id="Stroke-323" stroke="#000000" stroke-width="1.2" stroke-linecap="round" stroke-linejoin="round"></path>
            <path d="M275.094608,70.263104 L248.635887,79.4746788" id="Stroke-324" stroke="#000000" stroke-width="1.2" stroke-linecap="round" stroke-linejoin="round"></path>
            <path d="M21.2368227,57.8167076 L15.3803269,46.0953824" id="Stroke-325" stroke="#000000" stroke-width="1.2" stroke-linecap="round" stroke-linejoin="round"></path>
            <path d="M37.1963345,68.8891666 L21.2368227,57.8167076" id="Stroke-326" stroke="#000000" stroke-width="1.2" stroke-linecap="round" stroke-linejoin="round"></path>
            <path d="M62.6655605,78.3806004 L37.1963345,68.8891666" id="Stroke-327" stroke="#000000" stroke-width="1.2" stroke-linecap="round" stroke-linejoin="round"></path>
            <path d="M96.0378235,85.4015091 L62.6655605,78.3806004" id="Stroke-328" stroke="#000000" stroke-width="1.2" stroke-linecap="round" stroke-linejoin="round"></path>
            <path d="M134.727769,89.239104 L96.0378235,85.4015091" id="Stroke-329" stroke="#000000" stroke-width="1.2" stroke-linecap="round" stroke-linejoin="round"></path>
            <path d="M175.421245,89.4834359 L134.727769,89.239104" id="Stroke-330" stroke="#000000" stroke-width="1.2" stroke-linecap="round" stroke-linejoin="round"></path>
            <path d="M297.826229,113.249133 L304.961286,99.6770927" id="Stroke-340" stroke="#000000" stroke-width="1.32" stroke-linecap="round" stroke-linejoin="round"></path>
            <path d="M305.032793,199.684496 L312.338703,183.153531" id="Stroke-341" stroke="#000000" stroke-width="1.32" stroke-linecap="round" stroke-linejoin="round"></path>
            <path d="M305.004296,223.43923 L312.310865,206.283701" id="Stroke-342" stroke="#000000" stroke-width="1.32" stroke-linecap="round" stroke-linejoin="round"></path>
            <path d="M286.54136,239.540963 L305.004296,223.43923" id="Stroke-343" stroke="#000000" stroke-width="1.32" stroke-linecap="round" stroke-linejoin="round"></path>
            <path d="M286.569989,215.200228 L305.032793,199.684496" id="Stroke-344" stroke="#000000" stroke-width="1.32" stroke-linecap="round" stroke-linejoin="round"></path>
            <path d="M280.126129,125.955577 L297.826229,113.249133" id="Stroke-345" stroke="#000000" stroke-width="1.32" stroke-linecap="round" stroke-linejoin="round"></path>
            <path d="M257.614176,253.188548 L286.54136,239.540963" id="Stroke-346" stroke="#000000" stroke-width="1.32" stroke-linecap="round" stroke-linejoin="round"></path>
            <path d="M257.642673,228.351093 L286.569989,215.200228" id="Stroke-347" stroke="#000000" stroke-width="1.32" stroke-linecap="round" stroke-linejoin="round"></path>
            <path d="M220.116771,237.856262 L257.642673,228.351093" id="Stroke-348" stroke="#000000" stroke-width="1.32" stroke-linecap="round" stroke-linejoin="round"></path>
            <path d="M220.088933,263.052819 L257.614176,253.188548" id="Stroke-349" stroke="#000000" stroke-width="1.32" stroke-linecap="round" stroke-linejoin="round"></path>
            <path d="M216.923338,144.45414 L252.555477,136.703669" id="Stroke-350" stroke="#000000" stroke-width="1.32" stroke-linecap="round" stroke-linejoin="round"></path>
            <path d="M176.984517,242.709221 L220.116771,237.856262" id="Stroke-351" stroke="#000000" stroke-width="1.32" stroke-linecap="round" stroke-linejoin="round"></path>
            <path d="M176.957603,268.088829 L220.088933,263.052819" id="Stroke-352" stroke="#000000" stroke-width="1.32" stroke-linecap="round" stroke-linejoin="round"></path>
            <path d="M132.049797,242.369005 L176.984517,242.709221" id="Stroke-353" stroke="#000000" stroke-width="1.32" stroke-linecap="round" stroke-linejoin="round"></path>
            <path d="M89.389995,236.87418 L132.049797,242.369005" id="Stroke-355" stroke="#000000" stroke-width="1.32" stroke-linecap="round" stroke-linejoin="round"></path>
            <path d="M89.3657193,262.033493 L132.024203,267.735802" id="Stroke-356" stroke="#000000" stroke-width="1.32" stroke-linecap="round" stroke-linejoin="round"></path>
            <path d="M58.1844639,135.462992 L93.0085151,143.653656" id="Stroke-357" stroke="#000000" stroke-width="1.32" stroke-linecap="round" stroke-linejoin="round"></path>
            <path d="M52.7364319,226.834386 L89.389995,236.87418" id="Stroke-358" stroke="#000000" stroke-width="1.32" stroke-linecap="round" stroke-linejoin="round"></path>
            <path d="M52.7133437,251.614522 L89.3657193,262.033493" id="Stroke-359" stroke="#000000" stroke-width="1.32" stroke-linecap="round" stroke-linejoin="round"></path>
            <path d="M31.6964529,124.403476 L58.1844639,135.462992" id="Stroke-360" stroke="#000000" stroke-width="1.32" stroke-linecap="round" stroke-linejoin="round"></path>
            <path d="M24.9354261,237.572045 L52.7133437,251.614522" id="Stroke-361" stroke="#000000" stroke-width="1.32" stroke-linecap="round" stroke-linejoin="round"></path>
            <path d="M24.957195,213.303024 L52.7364319,226.834386" id="Stroke-362" stroke="#000000" stroke-width="1.32" stroke-linecap="round" stroke-linejoin="round"></path>
            <path d="M15.2030092,111.524282 L31.6964529,124.403476" id="Stroke-363" stroke="#000000" stroke-width="1.32" stroke-linecap="round" stroke-linejoin="round"></path>
            <path d="M7.77624958,197.581261 L24.957195,213.303024" id="Stroke-364" stroke="#000000" stroke-width="1.32" stroke-linecap="round" stroke-linejoin="round"></path>
            <path d="M7.7554042,221.256488 L24.9354261,237.572045" id="Stroke-365" stroke="#000000" stroke-width="1.32" stroke-linecap="round" stroke-linejoin="round"></path>
            <path d="M15.2030092,111.524282 L9.28331765,97.9179033" id="Stroke-366" stroke="#000000" stroke-width="1.32" stroke-linecap="round" stroke-linejoin="round"></path>
            <path d="M7.77624958,197.581261 L1.75523361,181.013844" id="Stroke-367" stroke="#000000" stroke-width="1.32" stroke-linecap="round" stroke-linejoin="round"></path>
            <path d="M7.7554042,221.256488 L1.7350479,204.063318" id="Stroke-368" stroke="#000000" stroke-width="1.32" stroke-linecap="round" stroke-linejoin="round"></path>
            <path d="M293.944635,79.9127592 L293.951364,79.9057595" id="Stroke-369" stroke="#000000" stroke-width="1.32" stroke-linecap="round" stroke-linejoin="round"></path>
            <path d="M173.892672,17.0766831 L143.937468,16.9261218" id="Stroke-388" stroke="#000000" stroke-width="1.32" stroke-linecap="round" stroke-linejoin="round"></path>
            <path d="M79.2731261,54.8707258 L78.9460647,53.2293441" id="Stroke-389" stroke="#000000" stroke-width="1.32" stroke-linecap="round" stroke-linejoin="round"></path>
            <path d="M279.986412,36.6157029 L282.196022,46.8635089" id="Stroke-390" stroke="#000000" stroke-width="1.32" stroke-linecap="round" stroke-linejoin="round"></path>
            <path d="M295.53205,47.486357 L288.639487,58.9143519" id="Stroke-391" stroke="#000000" stroke-width="1.32" stroke-linecap="round" stroke-linejoin="round"></path>
            <polyline id="Stroke-392" stroke="#000000" stroke-width="1.32" stroke-linecap="round" stroke-linejoin="round" points="312.310865 206.283701 312.256508 251.3587 306.925633 294.545477"></polyline>
            <path d="M80.5912664,8.65621514 L110.376013,3.95500624" id="Stroke-395" stroke="#000000" stroke-width="1.32" stroke-linecap="round" stroke-linejoin="round"></path>
            <path d="M281.208637,25.6660702 L292.775183,36.1560949" id="Stroke-396" stroke="#000000" stroke-width="1.32" stroke-linecap="round" stroke-linejoin="round"></path>
            <path d="M293.944635,79.9127592 L276.666719,91.4987114" id="Stroke-397" stroke="#000000" stroke-width="1.32" stroke-linecap="round" stroke-linejoin="round"></path>
            <path d="M288.639487,58.9143519 L271.926903,69.579371" id="Stroke-398" stroke="#000000" stroke-width="1.32" stroke-linecap="round" stroke-linejoin="round"></path>
            <path d="M275.693847,57.1523891 L260.405213,66.7114434" id="Stroke-399" stroke="#000000" stroke-width="1.32" stroke-linecap="round" stroke-linejoin="round"></path>
            <path d="M54.9464378,15.5701461 L80.5912664,8.65621514" id="Stroke-400" stroke="#000000" stroke-width="1.32" stroke-linecap="round" stroke-linejoin="round"></path>
            <path d="M276.666719,91.4987114 L249.835551,101.28506" id="Stroke-401" stroke="#000000" stroke-width="1.32" stroke-linecap="round" stroke-linejoin="round"></path>
            <path d="M271.926903,69.579371 L246.098951,78.5731604" id="Stroke-402" stroke="#000000" stroke-width="1.32" stroke-linecap="round" stroke-linejoin="round"></path>
            <path d="M260.405213,66.7114434 L237.026858,74.7407163" id="Stroke-403" stroke="#000000" stroke-width="1.32" stroke-linecap="round" stroke-linejoin="round"></path>
            <path d="M40.1545311,68.278469 L24.5575706,57.4640773" id="Stroke-404" stroke="#000000" stroke-width="1.32" stroke-linecap="round" stroke-linejoin="round"></path>
            <path d="M249.835551,101.28506 L215.206101,108.339251" id="Stroke-405" stroke="#000000" stroke-width="1.32" stroke-linecap="round" stroke-linejoin="round"></path>
            <path d="M246.098951,78.5731604 L212.844768,85.0475581" id="Stroke-406" stroke="#000000" stroke-width="1.32" stroke-linecap="round" stroke-linejoin="round"></path>
            <path d="M237.026858,74.7407163 L207.10213,80.5029857" id="Stroke-407" stroke="#000000" stroke-width="1.32" stroke-linecap="round" stroke-linejoin="round"></path>
            <path d="M215.206101,108.339251 L175.512675,111.934495" id="Stroke-408" stroke="#000000" stroke-width="1.32" stroke-linecap="round" stroke-linejoin="round"></path>
            <path d="M212.844768,85.0475581 L174.777809,88.3447174" id="Stroke-409" stroke="#000000" stroke-width="1.32" stroke-linecap="round" stroke-linejoin="round"></path>
            <path d="M207.10213,80.5029857 L172.954762,83.4315341" id="Stroke-410" stroke="#000000" stroke-width="1.32" stroke-linecap="round" stroke-linejoin="round"></path>
            <path d="M154.855037,111.808631 L134.193837,111.682635" id="Stroke-411" stroke="#000000" stroke-width="1.32" stroke-linecap="round" stroke-linejoin="round"></path>
            <path d="M174.777809,88.3447174 L135.167105,88.1137247" id="Stroke-412" stroke="#000000" stroke-width="1.32" stroke-linecap="round" stroke-linejoin="round"></path>
            <path d="M172.954762,83.4315341 L137.456139,83.2265595" id="Stroke-413" stroke="#000000" stroke-width="1.32" stroke-linecap="round" stroke-linejoin="round"></path>
            <path d="M135.167105,88.1137247 L97.5018815,84.3796737" id="Stroke-414" stroke="#000000" stroke-width="1.32" stroke-linecap="round" stroke-linejoin="round"></path>
            <polyline id="Stroke-415" stroke="#000000" stroke-width="1.32" stroke-linecap="round" stroke-linejoin="round" points="137.456139 83.2265595 103.660108 79.9091933 74.3900303 73.8180664"></polyline>
            <path d="M97.5018815,84.3796737 L64.9933824,77.5379857" id="Stroke-416" stroke="#000000" stroke-width="1.32" stroke-linecap="round" stroke-linejoin="round"></path>
            <path d="M94.9240471,107.611142 L61.0795966,100.157964" id="Stroke-417" stroke="#000000" stroke-width="1.32" stroke-linecap="round" stroke-linejoin="round"></path>
            <path d="M74.3900303,73.8180664 L51.8855975,65.5476314" id="Stroke-418" stroke="#000000" stroke-width="1.32" stroke-linecap="round" stroke-linejoin="round"></path>
            <path d="M64.9933824,77.5379857 L40.1545311,68.278469" id="Stroke-419" stroke="#000000" stroke-width="1.32" stroke-linecap="round" stroke-linejoin="round"></path>
            <path d="M61.0795966,100.157964 L35.2870034,90.0843601" id="Stroke-420" stroke="#000000" stroke-width="1.32" stroke-linecap="round" stroke-linejoin="round"></path>
            <path d="M51.8855975,65.5476314 L37.5908134,55.8492419" id="Stroke-421" stroke="#000000" stroke-width="1.32" stroke-linecap="round" stroke-linejoin="round"></path>
            <path d="M175.59223,1.80396147 L207.635798,4.42993452" id="Stroke-422" stroke="#000000" stroke-width="1.32" stroke-linecap="round" stroke-linejoin="round"></path>
            <path d="M35.2870034,90.0843601 L19.1691723,78.3387339" id="Stroke-423" stroke="#000000" stroke-width="1.32" stroke-linecap="round" stroke-linejoin="round"></path>
            <path d="M207.635798,4.42993452 L237.04203,9.4287" id="Stroke-424" stroke="#000000" stroke-width="1.32" stroke-linecap="round" stroke-linejoin="round"></path>
            <path d="M237.04203,9.4287 L262.118229,16.609547" id="Stroke-425" stroke="#000000" stroke-width="1.32" stroke-linecap="round" stroke-linejoin="round"></path>
            <path d="M262.118229,16.609547 L281.208637,25.6660702" id="Stroke-426" stroke="#000000" stroke-width="1.32" stroke-linecap="round" stroke-linejoin="round"></path>
            <path d="M142.60785,1.64375902 L175.59223,1.80396147" id="Stroke-427" stroke="#000000" stroke-width="1.32" stroke-linecap="round" stroke-linejoin="round"></path>
            <path d="M110.376013,3.95500624 L142.60785,1.64375902" id="Stroke-428" stroke="#000000" stroke-width="1.32" stroke-linecap="round" stroke-linejoin="round"></path>
            <path d="M35.1013739,24.4065065 L54.9464378,15.5701461" id="Stroke-429" stroke="#000000" stroke-width="1.32" stroke-linecap="round" stroke-linejoin="round"></path>
            <path d="M22.6111664,34.7417437 L35.1013739,24.4065065" id="Stroke-430" stroke="#000000" stroke-width="1.32" stroke-linecap="round" stroke-linejoin="round"></path>
            <path d="M18.7960664,46.0022722 L22.6111664,34.7417437" id="Stroke-431" stroke="#000000" stroke-width="1.32" stroke-linecap="round" stroke-linejoin="round"></path>
            <path d="M24.5575706,57.4640773 L18.7960664,46.0022722" id="Stroke-432" stroke="#000000" stroke-width="1.32" stroke-linecap="round" stroke-linejoin="round"></path>
            <polyline id="Stroke-433" stroke="#000000" stroke-width="1.32" stroke-linecap="round" stroke-linejoin="round" points="1.7350479 204.063318 1.6959958 248.980889 6.92132521 292.102423"></polyline>
            <path d="M19.1691723,78.3387339 L13.3124126,65.9132047" id="Stroke-436" stroke="#000000" stroke-width="1.32" stroke-linecap="round" stroke-linejoin="round"></path>
            <path d="M303.666102,89.1944639 L306.192614,99.746298" id="Stroke-437" stroke="#000000" stroke-width="1.32" stroke-linecap="round" stroke-linejoin="round"></path>
            <path d="M93.0085151,143.653656 L133.457784,148.131928" id="Stroke-438" stroke="#000000" stroke-width="1.32" stroke-linecap="round" stroke-linejoin="round"></path>
            <path d="M133.457784,148.131928 L176.033809,148.409014" id="Stroke-439" stroke="#000000" stroke-width="1.32" stroke-linecap="round" stroke-linejoin="round"></path>
            <path d="M8.08141008,97.9723167 L10.0295294,91.9910731" id="Stroke-440" stroke="#000000" stroke-width="1.32" stroke-linecap="round" stroke-linejoin="round"></path>
            <path d="M176.033809,148.409014 L216.923338,144.45414" id="Stroke-441" stroke="#000000" stroke-width="1.32" stroke-linecap="round" stroke-linejoin="round"></path>
            <path d="M307.895075,123.458902 L300.690358,137.933121" id="Stroke-442" stroke="#000000" stroke-width="1.32" stroke-linecap="round" stroke-linejoin="round"></path>
            <path d="M306.192614,99.746298 L307.888742,123.369094" id="Stroke-443" stroke="#000000" stroke-width="1.32" stroke-linecap="round" stroke-linejoin="round"></path>
            <path d="M300.690358,137.933121 L282.686548,151.4975" id="Stroke-444" stroke="#000000" stroke-width="1.32" stroke-linecap="round" stroke-linejoin="round"></path>
            <path d="M56.0365983,161.654177 L29.039195,149.840006" id="Stroke-445" stroke="#000000" stroke-width="1.32" stroke-linecap="round" stroke-linejoin="round"></path>
            <path d="M12.267637,136.084255 L6.30876134,121.583886" id="Stroke-446" stroke="#000000" stroke-width="1.32" stroke-linecap="round" stroke-linejoin="round"></path>
            <path d="M29.039195,149.840006 L12.2711992,136.092708" id="Stroke-447" stroke="#000000" stroke-width="1.32" stroke-linecap="round" stroke-linejoin="round"></path>
            <path d="M91.5862798,170.412087 L56.0365983,161.654177" id="Stroke-448" stroke="#000000" stroke-width="1.32" stroke-linecap="round" stroke-linejoin="round"></path>
            <polyline id="Stroke-449" stroke="#000000" stroke-width="1.32" stroke-linecap="round" stroke-linejoin="round" points="282.686548 151.4975 254.581833 162.978984 218.198336 171.268305"></polyline>
            <path d="M0.381021849,181.077239 L1.7350479,204.063318" id="Stroke-450" stroke="#000000" stroke-width="1.32" stroke-linecap="round" stroke-linejoin="round"></path>
            <path d="M0.381021849,181.077239 L1.7591916,176.388708" id="Stroke-451" stroke="#000000" stroke-width="1.32" stroke-linecap="round" stroke-linejoin="round"></path>
            <path d="M313.717136,183.236076 L312.310865,206.283701" id="Stroke-452" stroke="#000000" stroke-width="1.32" stroke-linecap="round" stroke-linejoin="round"></path>
            <path d="M312.346223,176.978143 L313.717136,183.236076" id="Stroke-453" stroke="#000000" stroke-width="1.32" stroke-linecap="round" stroke-linejoin="round"></path>
            <polyline id="Stroke-454" stroke="#000000" stroke-width="1.32" stroke-linecap="round" stroke-linejoin="round" points="176.022859 1.03966503 208.823721 3.71793831 238.947008 8.81351203 264.665718 16.1348829"></polyline>
            <path d="M299.141203,47.6595024 L300.98813,67.5206441" id="Stroke-455" stroke="#000000" stroke-width="1.32" stroke-linecap="round" stroke-linejoin="round"></path>
            <path d="M142.270893,0.871670379 L176.022859,1.03966503" id="Stroke-456" stroke="#000000" stroke-width="1.32" stroke-linecap="round" stroke-linejoin="round"></path>
            <path d="M109.289547,3.21950134 L142.270893,0.871670379" id="Stroke-457" stroke="#000000" stroke-width="1.32" stroke-linecap="round" stroke-linejoin="round"></path>
            <path d="M296.220608,36.0825312 L299.141203,47.6595024" id="Stroke-458" stroke="#000000" stroke-width="1.32" stroke-linecap="round" stroke-linejoin="round"></path>
            <polyline id="Stroke-459" stroke="#000000" stroke-width="1.32" stroke-linecap="round" stroke-linejoin="round" points="264.665718 16.1348829 284.284782 25.3735323 296.220608 36.0825312"></polyline>
            <path d="M78.8021261,8.00219822 L109.289547,3.21950134" id="Stroke-460" stroke="#000000" stroke-width="1.32" stroke-linecap="round" stroke-linejoin="round"></path>
            <path d="M52.5336513,15.0425214 L78.8021261,8.00219822" id="Stroke-461" stroke="#000000" stroke-width="1.32" stroke-linecap="round" stroke-linejoin="round"></path>
            <path d="M32.1814378,24.0487254 L52.5336513,15.0425214" id="Stroke-462" stroke="#000000" stroke-width="1.32" stroke-linecap="round" stroke-linejoin="round"></path>
            <path d="M19.3421361,34.5935597 L32.1814378,24.0487254" id="Stroke-463" stroke="#000000" stroke-width="1.32" stroke-linecap="round" stroke-linejoin="round"></path>
            <path d="M15.3803269,46.0953824 L19.3421361,34.5935597" id="Stroke-464" stroke="#000000" stroke-width="1.32" stroke-linecap="round" stroke-linejoin="round"></path>
            <path d="M15.3803269,46.0953824 L13.3124126,65.9132047" id="Stroke-465" stroke="#000000" stroke-width="1.32" stroke-linecap="round" stroke-linejoin="round"></path>
            <path d="M293.951364,79.9057595 L293.949253,79.8813263" id="Stroke-467" stroke="#000000" stroke-width="1.32" stroke-linecap="round" stroke-linejoin="round"></path>
            <polyline id="Stroke-487" stroke="#000000" stroke-width="1.32" stroke-linecap="round" stroke-linejoin="round" points="35.8151303 47.8341007 35.2420143 49.7330214 34.9158765 50.8140247"></polyline>
            <polyline id="Stroke-488" stroke="#000000" stroke-width="1.32" stroke-linecap="round" stroke-linejoin="round" points="46.8377176 38.2293497 42.0992202 42.3582938 35.8151303 47.8341007"></polyline>
            <polyline id="Stroke-489" stroke="#000000" stroke-width="1.32" stroke-linecap="round" stroke-linejoin="round" points="64.5999588 29.9840082 61.1650891 31.5785047 46.8377176 38.2293497"></polyline>
            <polyline id="Stroke-490" stroke="#000000" stroke-width="1.32" stroke-linecap="round" stroke-linejoin="round" points="87.7190664 23.5109312 85.2897882 24.1912303 64.5999588 29.9840082"></polyline>
            <polyline id="Stroke-491" stroke="#000000" stroke-width="1.32" stroke-linecap="round" stroke-linejoin="round" points="114.685993 19.0985621 113.243704 19.3345735 87.7190664 23.5109312"></polyline>
            <polyline id="Stroke-492" stroke="#000000" stroke-width="1.32" stroke-linecap="round" stroke-linejoin="round" points="143.937468 16.9261218 143.492987 16.9591396 114.685993 19.0985621"></polyline>
            <polyline id="Stroke-493" stroke="#000000" stroke-width="1.32" stroke-linecap="round" stroke-linejoin="round" points="202.967225 19.5446989 174.449297 17.1239646 173.892672 17.0766831"></polyline>
            <polyline id="Stroke-494" stroke="#000000" stroke-width="1.32" stroke-linecap="round" stroke-linejoin="round" points="229.580308 24.235078 204.52047 19.8184826 202.967225 19.5446989"></polyline>
            <polyline id="Stroke-495" stroke="#000000" stroke-width="1.32" stroke-linecap="round" stroke-linejoin="round" points="252.170893 30.9555245 232.119618 24.9905256 229.580308 24.235078"></polyline>
            <polyline id="Stroke-496" stroke="#000000" stroke-width="1.32" stroke-linecap="round" stroke-linejoin="round" points="269.237321 39.4021425 255.723447 32.7137893 252.170893 30.9555245"></polyline>
            <polyline id="Stroke-497" stroke="#000000" stroke-width="1.32" stroke-linecap="round" stroke-linejoin="round" points="279.415803 49.1451722 274.193903 44.1466708 269.237321 39.4021425"></polyline>
            <polyline id="Stroke-498" stroke="#000000" stroke-width="1.32" stroke-linecap="round" stroke-linejoin="round" points="279.748009 50.7370272 279.661593 50.3229837 279.415803 49.1451722"></polyline>
            <polyline id="Stroke-499" stroke="#000000" stroke-width="1.32" stroke-linecap="round" stroke-linejoin="round" points="118.109121 53.4423751 117.684166 54.2333499 117.230317 55.0779457 115.981177 55.9574082 115.062002 56.6045575 113.114938 57.3736085 111.743233 57.9153648 109.2877 58.4944973 107.497372 58.9167292 104.757261 59.2646049 102.617971 59.5361434 99.8209958 59.6402156 97.4476571 59.7284392 94.7993706 59.5991414 92.3522815 59.4796169 90.0172034 59.1429673 87.6916244 58.8077704 85.786779 58.2967866 83.7924832 57.761898 82.3897739 57.1048434 80.9225496 56.4176766 80.0591815 55.6078156 79.2731261 54.8707258"></polyline>
            <path d="M279.748009,50.7370272 L275.693847,57.1523891" id="Stroke-500" stroke="#000000" stroke-width="1.32" stroke-linecap="round" stroke-linejoin="round"></path>
            <path d="M300.98813,67.5206441 L303.666102,89.1944639" id="Stroke-501" stroke="#000000" stroke-width="1.32" stroke-linecap="round" stroke-linejoin="round"></path>
            <polyline id="Stroke-502" stroke="#000000" stroke-width="1.32" stroke-linecap="round" stroke-linejoin="round" points="307.888742 123.369094 307.895075 123.458902 312.3672 159.614204 312.346223 176.978143 312.338703 183.153531"></polyline>
            <polyline id="Stroke-504" stroke="#000000" stroke-width="1.32" stroke-linecap="round" stroke-linejoin="round" points="134.193837 111.682635 114.636255 109.654945 94.9240471 107.611142"></polyline>
            <path d="M32.3191756,45.926067 L32.1055765,45.52391" id="Stroke-505" stroke="#000000" stroke-width="1.32" stroke-linecap="round" stroke-linejoin="round"></path>
            <path d="M13.3124126,65.9132047 L10.0295294,91.9910731" id="Stroke-506" stroke="#000000" stroke-width="1.32" stroke-linecap="round" stroke-linejoin="round"></path>
            <polyline id="Stroke-507" stroke="#000000" stroke-width="1.32" stroke-linecap="round" stroke-linejoin="round" points="6.30876134 121.583886 1.77555126 157.556798 1.7591916 176.388708 1.75523361 181.013844"></polyline>
            <path d="M175.512675,111.934495 L154.855037,111.808631" id="Stroke-509" stroke="#000000" stroke-width="1.32" stroke-linecap="round" stroke-linejoin="round"></path>
            <polyline id="Stroke-515" stroke="#000000" stroke-width="1.32" stroke-linecap="round" stroke-linejoin="round" points="282.196022 46.8635089 279.878359 50.5308639 279.748009 50.7370272"></polyline>
            <path d="M300.98813,67.5206441 L297.426605,73.7931049" id="Stroke-516" stroke="#000000" stroke-width="1.32" stroke-linecap="round" stroke-linejoin="round"></path>
            <polyline id="Stroke-517" stroke="#000000" stroke-width="1.32" stroke-linecap="round" stroke-linejoin="round" points="37.5908134 55.8492419 34.9158765 50.8140247 34.6270756 50.2704194 32.3191756 45.926067"></polyline>
            <path d="M8.08141008,97.9723167 L6.30876134,121.583886" id="Stroke-523" stroke="#000000" stroke-width="1.32" stroke-linecap="round" stroke-linejoin="round"></path>
            <path d="M304.961286,99.6770927 L303.666102,89.1944639" id="Stroke-524" stroke="#000000" stroke-width="1.32" stroke-linecap="round" stroke-linejoin="round"></path>
            <path d="M9.28331765,97.9179033 L10.0295294,91.9910731" id="Stroke-525" stroke="#000000" stroke-width="1.32" stroke-linecap="round" stroke-linejoin="round"></path>
            <path d="M293.949253,79.8813263 L297.426605,73.7931049" id="Stroke-526" stroke="#000000" stroke-width="1.32" stroke-linecap="round" stroke-linejoin="round"></path>
            <path d="M300.98813,67.5206441 L304.961813,99.6807906" id="Stroke-528" stroke="#000000" stroke-width="1.32" stroke-linecap="round" stroke-linejoin="round"></path>
            <path d="M312.256508,251.3587 L306.925633,294.545477" id="Stroke-529" stroke="#000000" stroke-width="1.32" stroke-linecap="round" stroke-linejoin="round"></path>
            <polyline id="Stroke-532" stroke="#000000" stroke-width="1.32" stroke-linecap="round" stroke-linejoin="round" points="307.888742 123.369094 312.3672 159.614204 312.338703 183.153531"></polyline>
            <path d="M312.310865,206.283701 L312.256508,251.3587" id="Stroke-533" stroke="#000000" stroke-width="1.32" stroke-linecap="round" stroke-linejoin="round"></path>
            <path d="M300.684025,137.840539 L305.061818,175.509642" id="Stroke-534" stroke="#000000" stroke-width="1.32" stroke-linecap="round" stroke-linejoin="round"></path>
            <path d="M293.952024,79.9127592 L297.826361,113.250982" id="Stroke-537" stroke="#000000" stroke-width="1.32" stroke-linecap="round" stroke-linejoin="round"></path>
            <path d="M305.061818,175.509642 L305.032793,199.684496" id="Stroke-540" stroke="#000000" stroke-width="1.32" stroke-linecap="round" stroke-linejoin="round"></path>
            <path d="M305.004296,223.43923 L304.948884,269.731003" id="Stroke-541" stroke="#000000" stroke-width="1.32" stroke-linecap="round" stroke-linejoin="round"></path>
            <path d="M282.681007,151.402277 L286.599146,190.428809" id="Stroke-542" stroke="#000000" stroke-width="1.32" stroke-linecap="round" stroke-linejoin="round"></path>
            <path d="M276.666719,91.4987114 L280.126261,125.956898" id="Stroke-545" stroke="#000000" stroke-width="1.32" stroke-linecap="round" stroke-linejoin="round"></path>
            <path d="M286.599146,190.428809 L286.569989,215.200228" id="Stroke-548" stroke="#000000" stroke-width="1.32" stroke-linecap="round" stroke-linejoin="round"></path>
            <path d="M286.54136,239.540963 L286.48542,286.974624" id="Stroke-549" stroke="#000000" stroke-width="1.32" stroke-linecap="round" stroke-linejoin="round"></path>
            <path d="M254.577479,162.881384 L257.671566,203.074237" id="Stroke-550" stroke="#000000" stroke-width="1.32" stroke-linecap="round" stroke-linejoin="round"></path>
            <path d="M249.835551,101.28506 L252.562074,136.702216" id="Stroke-551" stroke="#000000" stroke-width="1.32" stroke-linecap="round" stroke-linejoin="round"></path>
            <path d="M257.671566,203.074237 L257.642673,228.351093" id="Stroke-556" stroke="#000000" stroke-width="1.32" stroke-linecap="round" stroke-linejoin="round"></path>
            <path d="M257.614176,253.188548 L257.558632,301.590159" id="Stroke-557" stroke="#000000" stroke-width="1.32" stroke-linecap="round" stroke-linejoin="round"></path>
            <path d="M218.193587,171.169252 L220.145136,212.214097" id="Stroke-558" stroke="#000000" stroke-width="1.32" stroke-linecap="round" stroke-linejoin="round"></path>
            <path d="M215.206101,108.339251 L216.92347,144.455196" id="Stroke-559" stroke="#000000" stroke-width="1.32" stroke-linecap="round" stroke-linejoin="round"></path>
            <path d="M220.145136,212.214097 L220.116771,237.856262" id="Stroke-564" stroke="#000000" stroke-width="1.32" stroke-linecap="round" stroke-linejoin="round"></path>
            <path d="M220.088933,263.052819 L220.034576,312.153879" id="Stroke-565" stroke="#000000" stroke-width="1.32" stroke-linecap="round" stroke-linejoin="round"></path>
            <path d="M176.419317,175.397646 L177.011959,216.880439" id="Stroke-566" stroke="#000000" stroke-width="1.32" stroke-linecap="round" stroke-linejoin="round"></path>
            <path d="M175.512675,111.934495 L176.033809,148.409014" id="Stroke-570" stroke="#000000" stroke-width="1.32" stroke-linecap="round" stroke-linejoin="round"></path>
            <path d="M177.011959,216.880439 L176.984517,242.709221" id="Stroke-572" stroke="#000000" stroke-width="1.32" stroke-linecap="round" stroke-linejoin="round"></path>
            <path d="M132.913034,175.100749 L132.07592,216.553298" id="Stroke-574" stroke="#000000" stroke-width="1.32" stroke-linecap="round" stroke-linejoin="round"></path>
            <path d="M134.193837,111.682635 L133.457784,148.131928" id="Stroke-577" stroke="#000000" stroke-width="1.32" stroke-linecap="round" stroke-linejoin="round"></path>
            <path d="M134.195156,111.648561 L134.193837,111.682635" id="Stroke-580" stroke="#000000" stroke-width="1.32" stroke-linecap="round" stroke-linejoin="round"></path>
            <path d="M132.07592,216.553298 L132.049797,242.369005" id="Stroke-581" stroke="#000000" stroke-width="1.32" stroke-linecap="round" stroke-linejoin="round"></path>
            <path d="M91.5915571,170.312638 L89.4146664,211.269787" id="Stroke-583" stroke="#000000" stroke-width="1.32" stroke-linecap="round" stroke-linejoin="round"></path>
            <path d="M94.9240471,107.611142 L93.0083832,143.65458" id="Stroke-586" stroke="#000000" stroke-width="1.32" stroke-linecap="round" stroke-linejoin="round"></path>
            <path d="M89.4146664,211.269787 L89.389995,236.87418" id="Stroke-589" stroke="#000000" stroke-width="1.32" stroke-linecap="round" stroke-linejoin="round"></path>
            <path d="M89.3657193,262.033493 L89.3183555,311.062442" id="Stroke-590" stroke="#000000" stroke-width="1.32" stroke-linecap="round" stroke-linejoin="round"></path>
            <path d="M52.7133437,251.614522 L52.6686185,299.904401" id="Stroke-591" stroke="#000000" stroke-width="1.32" stroke-linecap="round" stroke-linejoin="round"></path>
            <path d="M52.759784,201.615774 L52.7364319,226.834386" id="Stroke-592" stroke="#000000" stroke-width="1.32" stroke-linecap="round" stroke-linejoin="round"></path>
            <path d="M61.0795966,100.157964 L58.1843319,135.464048" id="Stroke-595" stroke="#000000" stroke-width="1.32" stroke-linecap="round" stroke-linejoin="round"></path>
            <path d="M56.0446462,161.557105 L52.759784,201.615774" id="Stroke-598" stroke="#000000" stroke-width="1.32" stroke-linecap="round" stroke-linejoin="round"></path>
            <path d="M24.9354261,237.572045 L24.8930756,284.866238" id="Stroke-599" stroke="#000000" stroke-width="1.32" stroke-linecap="round" stroke-linejoin="round"></path>
            <path d="M24.9793597,188.604641 L24.957195,213.303024" id="Stroke-600" stroke="#000000" stroke-width="1.32" stroke-linecap="round" stroke-linejoin="round"></path>
            <path d="M35.2870034,90.0843601 L31.6961891,124.404929" id="Stroke-603" stroke="#000000" stroke-width="1.32" stroke-linecap="round" stroke-linejoin="round"></path>
            <path d="M29.0451319,149.743594 L24.9793597,188.604641" id="Stroke-606" stroke="#000000" stroke-width="1.32" stroke-linecap="round" stroke-linejoin="round"></path>
            <path d="M7.7554042,221.256488 L7.71490084,267.393473" id="Stroke-607" stroke="#000000" stroke-width="1.32" stroke-linecap="round" stroke-linejoin="round"></path>
            <path d="M7.79735882,173.487235 L7.77624958,197.581261" id="Stroke-608" stroke="#000000" stroke-width="1.32" stroke-linecap="round" stroke-linejoin="round"></path>
            <path d="M19.1691723,78.3387339 L15.2027454,111.526263" id="Stroke-611" stroke="#000000" stroke-width="1.32" stroke-linecap="round" stroke-linejoin="round"></path>
            <path d="M12.2779277,135.998805 L7.79735882,173.487235" id="Stroke-614" stroke="#000000" stroke-width="1.32" stroke-linecap="round" stroke-linejoin="round"></path>
            <polyline id="Stroke-616" stroke="#000000" stroke-width="1.32" stroke-linecap="round" stroke-linejoin="round" points="1.7350479 204.063318 1.6959958 248.980889 6.92132521 292.102423"></polyline>
            <path d="M13.3124126,65.9132047 L9.28292185,97.9222617" id="Stroke-618" stroke="#000000" stroke-width="1.32" stroke-linecap="round" stroke-linejoin="round"></path>
            <path d="M1.77555126,157.556798 L1.75523361,181.013844" id="Stroke-619" stroke="#000000" stroke-width="1.32" stroke-linecap="round" stroke-linejoin="round"></path>
            <path d="M6.31562185,121.492493 L1.77555126,157.556798" id="Stroke-621" stroke="#000000" stroke-width="1.32" stroke-linecap="round" stroke-linejoin="round"></path>
        </g>
    </g>
</svg>