<?xml version="1.0" encoding="UTF-8"?>
<svg viewBox="0 0 277 518" version="1.1" xmlns="http://www.w3.org/2000/svg" xmlns:xlink="http://www.w3.org/1999/xlink">
    <!-- Generator: Sketch 52.5 (67469) - http://www.bohemiancoding.com/sketch -->
    <title>03b</title>
    <desc>Created with Sketch.</desc>
    <g id="03b" stroke="none" stroke-width="1" fill="none" fill-rule="evenodd">
        <g id="Group-614">
            <polyline id="Fill-51" fill="#4B4B4B" points="67.5873 410.5588 93.1335 419.1841 122.5422 423.7682 138.0145 423.7961 138.1245 432.2247 4.7406 431.9629 18.1849 362.9132 28.5918 362.9314 30.4108 370.2963 35.3522 384.9685 47.9065 398.7812 67.5873 410.5588"></polyline>
            <polyline id="Fill-52" fill="#383838" points="93.1335 419.1841 67.5873 410.5588 91.7539 406.222 91.757 406.2368 93.1335 419.1841"></polyline>
            <polyline id="Fill-53" fill="#313131" points="67.5873 410.5588 47.9065 398.7812 65.3665 397.5157 67.5873 410.5588"></polyline>
            <polyline id="Fill-54" fill="#282828" points="47.9065 398.7812 35.3522 384.9685 32.1618 371.7401 47.9065 398.7812"></polyline>
            <polyline id="Fill-55" fill="#1E1E1E" points="35.3522 384.9685 30.4108 370.2963 28.5918 362.9314 27.1253 356.994 35.3522 384.9685"></polyline>
            <polyline id="Fill-56" fill="#4B4B4B" points="28.5918 362.9314 18.1849 362.9132 22.577 340.3554 24.0869 344.7495 27.1253 356.994 28.5918 362.9314"></polyline>
            <polyline id="Fill-57" fill="#908F8F" points="9.8582 516.2688 5.5784 445.7648 138.0408 446.0305 182.2187 446.119 180.2196 516.647 9.8582 516.2688"></polyline>
            <polyline id="Fill-58" fill="#908F8F" points="180.2196 516.647 182.2187 446.119 270.6104 446.2961 265.4669 516.8362 180.2196 516.647"></polyline>
            <polyline id="Fill-59" fill="#727272" points="270.6104 446.2961 182.2187 446.119 138.0408 446.0305 138.1245 432.2247 271.6172 432.4866 270.6104 446.2961"></polyline>
            <polyline id="Fill-60" fill="#4B4B4B" points="251.8683 343.0464 256.3471 363.3302 246.0649 363.3123 247.5815 357.4364 247.6006 357.3761 249.407 350.4278 249.6038 350.2159 251.8683 343.0464"></polyline>
            <polyline id="Fill-61" fill="#4B4B4B" points="246.0649 363.3123 256.3471 363.3302 271.6172 432.4866 138.1245 432.2247 138.0145 423.7961 153.2704 423.8216 182.5789 419.3323 207.9333 410.7882 227.3471 399.0691 239.5809 385.2886 239.5964 385.2282 244.1735 370.6232 246.0649 363.3123"></polyline>
            <polyline id="Fill-62" fill="#3C3C3C" points="182.5789 419.3323 153.2704 423.8216 184.2243 406.3962 182.5789 419.3323"></polyline>
            <polyline id="Fill-63" fill="#383838" points="207.9333 410.7882 182.5789 419.3323 210.3992 397.785 207.9333 410.7882"></polyline>
            <polyline id="Fill-64" fill="#313131" points="227.3471 399.0691 207.9333 410.7882 210.3992 397.785 227.3471 399.0691"></polyline>
            <polyline id="Fill-65" fill="#282828" points="239.5809 385.2886 227.3471 399.0691 230.3989 385.9811 239.5809 385.2886"></polyline>
            <polyline id="Fill-66" fill="#727272" points="138.0408 446.0305 5.5784 445.7648 4.7406 431.9629 138.1245 432.2247 138.0408 446.0305"></polyline>
            <polyline id="Fill-67" fill="#1F1F1F" points="257.8196 318.0684 254.3526 335.1812 251.8683 343.0464 249.6038 350.2159 253.0277 333.0651 253.0411 332.9982 253.0613 332.9351 257.8196 318.0684"></polyline>
            <polyline id="Fill-68" fill="#1E1E1E" points="32.1618 371.7401 35.3522 384.9685 27.1253 356.994 32.1618 371.7401"></polyline>
            <polyline id="Fill-69" fill="#7C5C39" points="32.1618 371.7401 27.1253 356.994 24.0869 344.7495 25.8336 349.833 27.1307 351.1933 32.1618 371.7401"></polyline>
            <polyline id="Fill-70" fill="#383838" points="67.5873 410.5588 65.3665 397.5157 91.7539 406.222 67.5873 410.5588"></polyline>
            <polyline id="Fill-71" fill="#E3A968" points="91.7539 406.222 65.3665 397.5157 61.6537 376.4838 88.926 385.1881 89.4068 385.259 91.7539 406.222"></polyline>
            <polyline id="Fill-72" fill="#383838" points="182.5789 419.3323 184.2243 406.3962 210.3992 397.785 182.5789 419.3323"></polyline>
            <polyline id="Fill-73" fill="#E3A969" points="210.3992 397.785 184.2243 406.3962 186.9136 385.4446 187.449 385.3673 214.4347 376.7775 210.3992 397.785"></polyline>
            <polyline id="Fill-74" fill="#313131" points="230.3989 385.9811 227.3471 399.0691 210.3992 397.785 230.3989 385.9811"></polyline>
            <polyline id="Fill-75" fill="#C9965C" points="230.3989 385.9811 210.3992 397.785 214.4347 376.7775 215.264 376.5135 235.3421 365.0238 230.3989 385.9811"></polyline>
            <polyline id="Fill-76" fill="#282828" points="47.9065 398.7812 32.1618 371.7401 45.0707 385.6437 47.9065 398.7812"></polyline>
            <polyline id="Fill-77" fill="#A57B4C" points="45.0707 385.6437 32.1618 371.7401 27.1307 351.1933 39.3965 364.0576 40.4194 364.6375 45.0707 385.6437"></polyline>
            <polyline id="Fill-78" fill="#313131" points="47.9065 398.7812 45.0707 385.6437 65.3665 397.5157 47.9065 398.7812"></polyline>
            <polyline id="Fill-79" fill="#C8955C" points="65.3665 397.5157 45.0707 385.6437 40.4194 364.6375 60.8802 376.237 61.6537 376.4838 65.3665 397.5157"></polyline>
            <polyline id="Fill-80" fill="#3C3C3C" points="184.2243 406.3962 153.2704 423.8216 153.9304 410.9333 153.9317 410.9189 184.2243 406.3962"></polyline>
            <polyline id="Fill-81" fill="#F4B670" points="184.2243 406.3962 153.9317 410.9189 154.9808 390.0237 155.183 390.024 186.9136 385.4446 184.2243 406.3962"></polyline>
            <polyline id="Fill-82" fill="#282828" points="239.5809 385.2886 230.3989 385.9811 242.9519 372.1149 239.5964 385.2282 239.5809 385.2886"></polyline>
            <polyline id="Fill-83" fill="#A67B4C" points="242.9519 372.1149 230.3989 385.9811 235.3421 365.0238 236.4264 364.4033 248.2172 351.7088 242.9519 372.1149"></polyline>
            <polyline id="Fill-84" fill="#212121" points="7.2977 271.7194 6.2429 252.5453 11.6393 266.9924 12.6777 286.6288 8.9932 276.4182 7.2977 271.7194"></polyline>
            <polyline id="Fill-85" fill="#85633D" points="11.6393 266.9924 6.2429 252.5453 1.7182 213.2703 7.1686 226.9824 11.6393 266.9924"></polyline>
            <polyline id="Fill-86" fill="#2C2C2C" points="12.6777 286.6288 11.6393 266.9924 26.6249 280.7495 27.5531 300.8184 13.9713 287.8627 12.6777 286.6288"></polyline>
            <polyline id="Fill-87" fill="#AF8250" points="26.6249 280.7495 11.6393 266.9924 7.1686 226.9824 22.5944 240.0684 26.6249 280.7495"></polyline>
            <polyline id="Fill-88" fill="#343434" points="27.5531 300.8184 26.6249 280.7495 50.7725 292.6021 51.4919 313.0376 28.6698 301.3884 27.5531 300.8184"></polyline>
            <polyline id="Fill-89" fill="#D29D61" points="50.7725 292.6021 26.6249 280.7495 22.5944 240.0684 47.5888 251.3652 50.7725 292.6021"></polyline>
            <polyline id="Fill-90" fill="#3B3B3B" points="51.4919 313.0376 50.7725 292.6021 82.5899 301.3565 83.0122 322.0593 52.3697 313.2888 51.4919 313.0376"></polyline>
            <polyline id="Fill-91" fill="#EEB16D" points="82.5899 301.3565 50.7725 292.6021 47.5888 251.3652 80.6203 259.7227 82.5899 301.3565"></polyline>
            <polyline id="Fill-92" fill="#3F3F3F" points="83.0122 322.0593 82.5899 301.3565 119.5188 306.0406 119.5825 326.8852 83.5728 322.1333 83.0122 322.0593"></polyline>
            <polyline id="Fill-93" fill="#FFBE75" points="119.5188 306.0406 82.5899 301.3565 80.6203 259.7227 119.0206 264.199 119.5188 306.0406"></polyline>
            <polyline id="Fill-94" fill="#414141" points="119.5825 326.8852 119.5188 306.0406 158.2009 306.1016 157.8849 326.9481 157.6715 326.9477 119.767 326.8855 119.5825 326.8852"></polyline>
            <polyline id="Fill-95" fill="#FFC278" points="158.2009 306.1016 119.5188 306.0406 119.0206 264.199 159.2637 264.2574 158.2009 306.1016"></polyline>
            <polyline id="Fill-96" fill="#3F3F3F" points="157.8849 326.9481 158.2009 306.1016 194.9834 301.5322 194.3121 322.2403 193.7238 322.3163 157.8849 326.9481"></polyline>
            <polyline id="Fill-97" fill="#FFBE76" points="194.9834 301.5322 158.2009 306.1016 159.2637 264.2574 197.5072 259.8904 194.9834 301.5322"></polyline>
            <polyline id="Fill-98" fill="#3B3B3B" points="194.3121 322.2403 194.9834 301.5322 226.5211 292.8721 225.5593 313.3159 224.655 313.5741 194.3121 322.2403"></polyline>
            <polyline id="Fill-99" fill="#EEB16E" points="226.5211 292.8721 194.9834 301.5322 197.5072 259.8904 230.2393 251.6228 226.5211 292.8721"></polyline>
            <polyline id="Fill-100" fill="#353535" points="225.5593 313.3159 226.5211 292.8721 250.2804 281.0851 249.1188 301.1643 247.9755 301.7541 225.5593 313.3159"></polyline>
            <polyline id="Fill-101" fill="#D39D61" points="250.2804 281.0851 226.5211 292.8721 230.2393 251.6228 254.8187 240.3878 250.2804 281.0851"></polyline>
            <polyline id="Fill-102" fill="#222222" points="269.6963 252.9178 268.4296 272.1039 266.543 277.8564 263.5409 287.0096 264.8022 267.3616 269.6963 252.9178"></polyline>
            <polyline id="Fill-103" fill="#87643E" points="269.6963 252.9178 264.8022 267.3616 269.7494 227.3332 274.6648 213.6234 269.6963 252.9178"></polyline>
            <polyline id="Fill-104" fill="#2C2C2C" points="264.8022 267.3616 263.5409 287.0096 262.2127 288.3131 249.1188 301.1643 250.2804 281.0851 264.8022 267.3616"></polyline>
            <polyline id="Fill-105" fill="#B08351" points="264.8022 267.3616 250.2804 281.0851 254.8187 240.3878 269.7494 227.3332 264.8022 267.3616"></polyline>
            <polyline id="Fill-106" fill="#B78954" points="22.5944 240.0684 7.1686 226.9824 7.2881 184.7115 22.7306 196.5418 22.5944 240.0684"></polyline>
            <polyline id="Fill-107" fill="#2C2C2C" points="22.7306 196.5418 7.2881 184.7115 6.148 163.1535 21.7089 174.4485 22.7306 196.5418"></polyline>
            <polyline id="Fill-108" fill="#8E6A41" points="7.2881 184.7115 7.1686 226.9824 1.7182 213.2703 1.8295 172.3156 7.2881 184.7115"></polyline>
            <polyline id="Fill-109" fill="#212121" points="7.2881 184.7115 1.8295 172.3156 0.6748 151.3256 6.148 163.1535 7.2881 184.7115"></polyline>
            <polyline id="Fill-110" fill="#DBA365" points="22.5944 240.0684 22.7306 196.5418 47.7504 206.7552 47.5888 251.3652 22.5944 240.0684"></polyline>
            <polyline id="Fill-111" fill="#343434" points="47.7504 206.7552 22.7306 196.5418 21.7089 174.4485 46.9566 184.2049 47.7504 206.7552"></polyline>
            <polyline id="Fill-112" fill="#F7B872" points="230.2393 251.6228 197.5072 259.8904 197.806 214.4631 230.5615 206.9881 230.2393 251.6228"></polyline>
            <polyline id="Fill-113" fill="#3B3B3B" points="230.5615 206.9881 197.806 214.4631 198.5481 191.5711 231.623 184.4274 230.5615 206.9881"></polyline>
            <polyline id="Fill-114" fill="#7D5D39" points="249.407 350.4278 247.6006 357.3761 247.5815 357.4364 242.9519 372.1149 248.2172 351.7088 249.407 350.4278"></polyline>
            <polyline id="Fill-115" fill="#87643E" points="266.543 277.8564 264.9041 290.8176 260.041 305.8842 262.2127 288.3131 263.5409 287.0096 266.543 277.8564"></polyline>
            <polyline id="Fill-116" fill="#8F6B42" points="274.9965 172.6349 274.6648 213.6234 269.7494 227.3332 270.0875 185.0286 274.9965 172.6349"></polyline>
            <polyline id="Fill-117" fill="#222222" points="274.9965 172.6349 270.0875 185.0286 271.4724 163.4562 276.3831 151.6302 274.9965 172.6349"></polyline>
            <polyline id="Fill-118" fill="#7D5D39" points="260.041 305.8842 264.9041 290.8176 257.833 318.002 257.8196 318.0684 253.0613 332.9351 260.041 305.8842"></polyline>
            <polyline id="Fill-119" fill="#B08351" points="262.2127 288.3131 260.041 305.8842 245.9219 320.1692 247.9755 301.7541 249.1188 301.1643 262.2127 288.3131"></polyline>
            <polyline id="Fill-120" fill="#B88955" points="270.0875 185.0286 269.7494 227.3332 254.8187 240.3878 255.1542 196.8307 270.0875 185.0286"></polyline>
            <polyline id="Fill-121" fill="#2C2C2C" points="270.0875 185.0286 255.1542 196.8307 256.433 174.7243 271.4724 163.4562 270.0875 185.0286"></polyline>
            <polyline id="Fill-122" fill="#DCA465" points="255.1542 196.8307 254.8187 240.3878 230.2393 251.6228 230.5615 206.9881 255.1542 196.8307"></polyline>
            <polyline id="Fill-123" fill="#353535" points="255.1542 196.8307 230.5615 206.9881 231.623 184.4274 256.433 174.7243 255.1542 196.8307"></polyline>
            <polyline id="Fill-124" fill="#D39D61" points="247.9755 301.7541 245.9219 320.1692 222.9567 332.415 224.655 313.5741 225.5593 313.3159 247.9755 301.7541"></polyline>
            <polyline id="Fill-125" fill="#A67B4C" points="245.9219 320.1692 260.041 305.8842 253.0613 332.9351 253.0411 332.9982 239.5541 347.1663 245.9219 320.1692"></polyline>
            <polyline id="Fill-126" fill="#A67B4C" points="239.5541 347.1663 253.0411 332.9982 253.0277 333.0651 239.5372 347.2383 239.5493 347.1713 239.5541 347.1663"></polyline>
            <polyline id="Fill-127" fill="#292929" points="239.5372 347.2383 253.0277 333.0651 249.6038 350.2159 249.407 350.4278 248.2172 351.7088 236.4264 364.4033 239.5372 347.2383"></polyline>
            <polyline id="Fill-128" fill="#EEB16E" points="224.655 313.5741 222.9567 332.415 192.5673 341.3985 193.7238 322.3163 194.3121 322.2403 224.655 313.5741"></polyline>
            <polyline id="Fill-129" fill="#E3A969" points="192.5673 341.3985 222.9567 332.415 217.7917 359.2864 189.1331 368.1529 192.5673 341.3985"></polyline>
            <polyline id="Fill-130" fill="#E3A969" points="189.1331 368.1529 217.7917 359.2864 217.7819 359.3537 189.1243 368.2215 189.1331 368.1529"></polyline>
            <polyline id="Fill-131" fill="#393939" points="189.1243 368.2215 217.7819 359.3537 215.264 376.5135 214.4347 376.7775 187.449 385.3673 189.1243 368.2215"></polyline>
            <polyline id="Fill-132" fill="#3D3D3D" points="189.1243 368.2215 187.449 385.3673 186.9136 385.4446 155.183 390.024 155.841 372.8888 189.1243 368.2215"></polyline>
            <polyline id="Fill-133" fill="#F4B670" points="189.1243 368.2215 155.841 372.8888 157.1842 346.1339 192.5673 341.3985 189.1331 368.1529 189.1243 368.2215"></polyline>
            <polyline id="Fill-134" fill="#FFBE76" points="193.7238 322.3163 192.5673 341.3985 157.1842 346.1339 157.6715 326.9477 157.8849 326.9481 193.7238 322.3163"></polyline>
            <polyline id="Fill-135" fill="#C9965C" points="222.9567 332.415 245.9219 320.1692 239.5541 347.1663 239.5493 347.1713 217.7917 359.2864 222.9567 332.415"></polyline>
            <polyline id="Fill-136" fill="#C9965C" points="217.7917 359.2864 239.5493 347.1713 239.5372 347.2383 217.7819 359.3537 217.7917 359.2864"></polyline>
            <polyline id="Fill-137" fill="#323232" points="217.7819 359.3537 239.5372 347.2383 236.4264 364.4033 235.3421 365.0238 215.264 376.5135 217.7819 359.3537"></polyline>
            <polyline id="Fill-138" fill="#FFC479" points="197.806 214.4631 197.5072 259.8904 159.2637 264.2574 159.5308 218.4114 197.806 214.4631"></polyline>
            <polyline id="Fill-139" fill="#3F3F3F" points="197.806 214.4631 159.5308 218.4114 159.8806 195.3454 198.5481 191.5711 197.806 214.4631"></polyline>
            <polyline id="Fill-140" fill="#F6B771" points="47.5888 251.3652 47.7504 206.7552 80.8144 214.3114 80.6203 259.7227 47.5888 251.3652"></polyline>
            <polyline id="Fill-141" fill="#3B3B3B" points="80.8144 214.3114 47.7504 206.7552 46.9566 184.2049 80.3475 191.4261 80.8144 214.3114"></polyline>
            <polyline id="Fill-142" fill="#85633D" points="10.6073 290.4286 8.9932 276.4182 12.6777 286.6288 13.9713 287.8627 15.942 305.4996 10.6073 290.4286"></polyline>
            <polyline id="Fill-143" fill="#AF8250" points="15.942 305.4996 13.9713 287.8627 27.5531 300.8184 28.6698 301.3884 30.496 319.8203 15.942 305.4996"></polyline>
            <polyline id="Fill-144" fill="#D29D61" points="30.496 319.8203 28.6698 301.3884 51.4919 313.0376 52.3697 313.2888 53.8246 332.1348 30.496 319.8203"></polyline>
            <polyline id="Fill-145" fill="#A57B4C" points="15.942 305.4996 30.496 319.8203 36.4745 346.821 22.5856 332.616 22.5727 332.5789 15.942 305.4996"></polyline>
            <polyline id="Fill-146" fill="#A57B4C" points="22.5856 332.616 36.4745 346.821 36.4791 346.8257 36.4907 346.8943 22.5985 332.6846 22.5856 332.616"></polyline>
            <polyline id="Fill-147" fill="#292929" points="22.5985 332.6846 36.4907 346.8943 39.3965 364.0576 27.1307 351.1933 25.8336 349.833 22.5985 332.6846"></polyline>
            <polyline id="Fill-148" fill="#EEB16D" points="53.8246 332.1348 52.3697 313.2888 83.0122 322.0593 83.5728 322.1333 84.4756 341.2164 53.8246 332.1348"></polyline>
            <polyline id="Fill-149" fill="#C8955C" points="30.496 319.8203 53.8246 332.1348 58.5686 359.0078 36.4791 346.8257 36.4745 346.821 30.496 319.8203"></polyline>
            <polyline id="Fill-150" fill="#C8955C" points="36.4791 346.8257 58.5686 359.0078 58.5811 359.0781 36.4907 346.8943 36.4791 346.8257"></polyline>
            <polyline id="Fill-151" fill="#323232" points="36.4907 346.8943 58.5811 359.0781 60.8802 376.237 40.4194 364.6375 39.3965 364.0576 36.4907 346.8943"></polyline>
            <polyline id="Fill-152" fill="#7C5C39" points="10.6073 290.4286 15.942 305.4996 22.5727 332.5789 17.3572 317.6142 10.6073 290.4286"></polyline>
            <polyline id="Fill-153" fill="#1F1F1F" points="17.3572 317.6142 22.5727 332.5789 22.5856 332.616 22.5985 332.6846 25.8336 349.833 24.0869 344.7495 22.577 340.3554 20.6655 334.792 17.3572 317.6142"></polyline>
            <polyline id="Fill-154" fill="#FFC479" points="80.6203 259.7227 80.8144 214.3114 119.2512 218.3587 119.0206 264.199 80.6203 259.7227"></polyline>
            <polyline id="Fill-155" fill="#3F3F3F" points="119.2512 218.3587 80.8144 214.3114 80.3475 191.4261 119.1808 195.295 119.2512 218.3587"></polyline>
            <polyline id="Fill-156" fill="#FFBE75" points="84.4756 341.2164 83.5728 322.1333 119.5825 326.8852 119.767 326.8855 119.9955 346.0706 84.4756 341.2164"></polyline>
            <polyline id="Fill-157" fill="#E3A968" points="53.8246 332.1348 84.4756 341.2164 87.4714 367.9734 58.5686 359.0078 53.8246 332.1348"></polyline>
            <polyline id="Fill-158" fill="#E3A968" points="58.5686 359.0078 87.4714 367.9734 87.4791 368.0424 58.5811 359.0781 58.5686 359.0078"></polyline>
            <polyline id="Fill-159" fill="#383838" points="58.5811 359.0781 87.4791 368.0424 88.926 385.1881 61.6537 376.4838 60.8802 376.237 58.5811 359.0781"></polyline>
            <polyline id="Fill-160" fill="#3D3D3D" points="88.926 385.1881 87.4791 368.0424 120.8883 372.8266 121.3126 389.9619 89.4068 385.259 88.926 385.1881"></polyline>
            <polyline id="Fill-161" fill="#F4B670" points="120.8883 372.8266 87.4791 368.0424 87.4714 367.9734 84.4756 341.2164 119.9955 346.0706 120.8883 372.8266"></polyline>
            <polyline id="Fill-162" fill="#3E3E3E" points="121.3126 389.9619 120.8883 372.8266 155.841 372.8888 155.183 390.024 154.9808 390.0237 121.4601 389.9622 121.3126 389.9619"></polyline>
            <polyline id="Fill-163" fill="#FABA73" points="155.841 372.8888 120.8883 372.8266 119.9955 346.0706 157.1842 346.1339 155.841 372.8888"></polyline>
            <polyline id="Fill-164" fill="#F4B670" points="91.7539 406.222 89.4068 385.259 121.3126 389.9619 121.4601 389.9622 122.1574 410.8586 107.0015 408.5473 91.7539 406.222"></polyline>
            <polyline id="Fill-165" fill="#FFC97C" points="119.0206 264.199 119.2512 218.3587 159.5308 218.4114 159.2637 264.2574 119.0206 264.199"></polyline>
            <polyline id="Fill-166" fill="#414141" points="159.5308 218.4114 119.2512 218.3587 119.1808 195.295 159.8806 195.3454 159.5308 218.4114"></polyline>
            <polyline id="Fill-167" fill="#FFC278" points="119.9955 346.0706 119.767 326.8855 157.6715 326.9477 157.1842 346.1339 119.9955 346.0706"></polyline>
            <polyline id="Fill-168" fill="#FABA73" points="122.1574 410.8586 121.4601 389.9622 154.9808 390.0237 153.9317 410.9189 138.0566 410.8888 122.1574 410.8586"></polyline>
            <polyline id="Fill-169" fill="#2A2A2A" points="7.6208 75.3771 9.0977 71.9254 8.6753 75.3451 14.0843 84.1551 28.9614 92.5384 52.8705 99.7567 84.3298 105.0855 120.8127 107.9365 159.0113 107.9736 195.3308 105.1924 226.4783 99.9211 249.9556 92.7428 264.3183 84.3801 269.1719 75.5724 268.852 72.7428 270.2606 75.6062 265.3996 84.4897 250.9426 92.9286 227.279 100.1754 195.8621 105.4991 159.2141 108.3078 120.6652 108.2704 83.8519 105.3911 52.1198 100.0095 28.0197 92.7223 13.0428 84.2627 7.6208 75.3771"></polyline>
            <polyline id="Fill-170" fill="#BF8E58" points="28.9614 92.5384 14.0843 84.1551 17.6611 53.75 32.2184 61.0554 28.9614 92.5384"></polyline>
            <polyline id="Fill-171" fill="#E2A968" points="52.8705 99.7567 28.9614 92.5384 32.2184 61.0554 55.5143 67.3363 52.8705 99.7567"></polyline>
            <polyline id="Fill-172" fill="#977146" points="269.1719 75.5724 264.3183 84.3801 261.0378 53.9462 263.4122 50.1595 263.4538 50.0925 265.857 46.2592 268.852 72.7428 269.1719 75.5724"></polyline>
            <polyline id="Fill-173" fill="#C08F58" points="264.3183 84.3801 249.9556 92.7428 246.9892 61.2333 261.0378 53.9462 264.3183 84.3801"></polyline>
            <polyline id="Fill-174" fill="#E3A969" points="249.9556 92.7428 226.4783 99.9211 224.1201 67.4792 246.9892 61.2333 249.9556 92.7428"></polyline>
            <polyline id="Fill-175" fill="#FEBD75" points="226.4783 99.9211 195.3308 105.1924 193.8462 72.0606 224.1201 67.4792 226.4783 99.9211"></polyline>
            <polyline id="Fill-176" fill="#967045" points="14.0843 84.1551 8.6753 75.3451 9.0977 71.9254 12.2917 46.0607 17.6611 53.75 14.0843 84.1551"></polyline>
            <polyline id="Fill-177" fill="#FDBD75" points="84.3298 105.0855 52.8705 99.7567 55.5143 67.3363 86.0964 71.9678 84.3298 105.0855"></polyline>
            <polyline id="Fill-178" fill="#2E2E2E" points="32.2184 61.0554 17.6611 53.75 34.1738 41.6734 32.2184 61.0554"></polyline>
            <polyline id="Fill-179" fill="#FFCA7D" points="193.8462 72.0606 195.3308 105.1924 159.0113 107.9736 158.5871 74.4754 193.8462 72.0606"></polyline>
            <polyline id="Fill-180" fill="#373737" points="55.5143 67.3363 32.2184 61.0554 34.1738 41.6734 55.5143 67.3363"></polyline>
            <polyline id="Fill-181" fill="#2F2F2F" points="261.0378 53.9462 246.9892 61.2333 259.0356 35.1395 261.0378 53.9462"></polyline>
            <polyline id="Fill-182" fill="#373737" points="246.9892 61.2333 224.1201 67.4792 245.1788 41.8134 246.9892 61.2333"></polyline>
            <polyline id="Fill-183" fill="#3E3E3E" points="224.1201 67.4792 193.8462 72.0606 192.9255 51.724 224.1201 67.4792"></polyline>
            <polyline id="Fill-184" fill="#242424" points="17.6611 53.75 12.2917 46.0607 19.8354 34.985 17.6611 53.75"></polyline>
            <polyline id="Fill-185" fill="#3E3E3E" points="86.0964 71.9678 55.5143 67.3363 57.0811 47.4186 86.0964 71.9678"></polyline>
            <polyline id="Fill-186" fill="#FFC97D" points="84.3298 105.0855 86.0964 71.9678 103.8823 73.2107 121.517 74.4431 120.8127 107.9365 84.3298 105.0855"></polyline>
            <polyline id="Fill-187" fill="#424242" points="103.8823 73.2107 86.0978 71.9404 87.1249 51.6511 121.9047 53.9102 121.517 74.4431 103.8823 73.2107"></polyline>
            <polyline id="Fill-188" fill="#3E3E3E" points="86.0978 71.9404 86.0964 71.9678 57.0811 47.4186 87.1249 51.6511 86.0978 71.9404"></polyline>
            <polyline id="Fill-189" fill="#FFCE7F" points="120.8127 107.9365 121.517 74.4431 140.055 74.4592 158.5871 74.4754 159.0113 107.9736 120.8127 107.9365"></polyline>
            <polyline id="Fill-190" fill="#424242" points="193.8462 72.0606 158.5871 74.4754 158.5862 74.448 158.2996 53.9355 193.8462 72.0606"></polyline>
            <polyline id="Fill-191" fill="#434343" points="158.5862 74.448 140.055 74.4592 121.517 74.4431 121.9047 53.9102 158.2996 53.9355 158.5862 74.448"></polyline>
            <polyline id="Fill-192" fill="#242424" points="7.6208 75.3771 13.0428 84.2627 11.448 106.5653 11.4384 106.6469 6.0073 96.9831 7.6208 75.3771"></polyline>
            <polyline id="Fill-193" fill="#2E2E2E" points="13.0428 84.2627 28.0197 92.7223 26.5575 115.7747 11.448 106.5653 13.0428 84.2627"></polyline>
            <polyline id="Fill-194" fill="#2E2E2E" points="11.448 106.5653 26.5575 115.7747 26.5484 115.8631 11.4417 106.6528 11.4384 106.6469 11.448 106.5653"></polyline>
            <polyline id="Fill-195" fill="#373737" points="28.0197 92.7223 52.1198 100.0095 50.9171 123.7127 26.5575 115.7747 28.0197 92.7223"></polyline>
            <polyline id="Fill-196" fill="#E2A968" points="26.5575 115.7747 50.9171 123.7127 47.918 160.4889 22.8719 151.4012 26.5484 115.8631 26.5575 115.7747"></polyline>
            <polyline id="Fill-197" fill="#FDBD75" points="47.918 160.4889 50.9171 123.7127 83.0233 129.5781 81.0156 167.2125 47.918 160.4889"></polyline>
            <polyline id="Fill-198" fill="#3D3D3D" points="83.0233 129.5781 50.9171 123.7127 52.1198 100.0095 83.8519 105.3911 83.0233 129.5781"></polyline>
            <polyline id="Fill-199" fill="#DBA365" points="22.8719 151.4012 47.918 160.4889 47.8334 183.8348 22.8006 174.1788 22.8719 151.4012"></polyline>
            <polyline id="Fill-200" fill="#2A2A2A" points="22.8006 174.1788 47.8334 183.8348 80.9141 190.9788 119.3697 194.8053 159.668 194.8551 197.9595 191.1222 230.7272 184.055 255.3265 174.4519 270.2614 163.2942 275.1667 151.5774 275.1901 148.6878 276.3831 151.6302 271.4724 163.4562 256.433 174.7243 231.623 184.4274 198.5481 191.5711 159.8806 195.3454 119.1808 195.295 80.3475 191.4261 46.9566 184.2049 21.7089 174.4485 6.148 163.1535 0.6748 151.3256 1.8958 147.9071 1.8866 151.2756 7.3494 162.9944 22.8006 174.1788"></polyline>
            <polyline id="Fill-201" fill="#B78954" points="22.8006 174.1788 7.3494 162.9944 7.4119 140.8752 22.8719 151.4012 22.8006 174.1788"></polyline>
            <polyline id="Fill-202" fill="#8F6B42" points="275.1667 151.5774 270.2614 163.2942 270.4383 141.1573 275.3403 130.1307 275.1901 148.6878 275.1667 151.5774"></polyline>
            <polyline id="Fill-203" fill="#B88955" points="270.2614 163.2942 255.3265 174.4519 255.5021 151.6582 270.4383 141.1573 270.2614 163.2942"></polyline>
            <polyline id="Fill-204" fill="#DCA465" points="255.3265 174.4519 230.7272 184.055 230.8958 160.6961 255.5021 151.6582 255.3265 174.4519"></polyline>
            <polyline id="Fill-205" fill="#F7B872" points="230.7272 184.055 197.9595 191.1222 198.1158 167.3475 230.8958 160.6961 230.7272 184.055"></polyline>
            <polyline id="Fill-206" fill="#8E6A41" points="7.3494 162.9944 1.8866 151.2756 1.8958 147.9071 1.9449 129.8467 7.4119 140.8752 7.3494 162.9944"></polyline>
            <polyline id="Fill-207" fill="#F6B771" points="80.9141 190.9788 47.8334 183.8348 47.918 160.4889 81.0156 167.2125 80.9141 190.9788"></polyline>
            <polyline id="Fill-208" fill="#FFC479" points="119.3697 194.8053 80.9141 190.9788 81.0156 167.2125 119.4904 170.814 119.3697 194.8053"></polyline>
            <polyline id="Fill-209" fill="#FFC97C" points="159.668 194.8551 119.3697 194.8053 119.4904 170.814 159.8077 170.8609 159.668 194.8551"></polyline>
            <polyline id="Fill-210" fill="#FFC479" points="197.9595 191.1222 159.668 194.8551 159.8077 170.8609 198.1158 167.3475 197.9595 191.1222"></polyline>
            <polyline id="Fill-211" fill="#BF8E58" points="22.8719 151.4012 7.4119 140.8752 11.4417 106.6528 26.5484 115.8631 22.8719 151.4012"></polyline>
            <polyline id="Fill-212" fill="#977146" points="275.3403 130.1307 270.4383 141.1573 266.7416 106.8999 266.7449 106.8933 271.6166 97.2324 275.3403 130.1307"></polyline>
            <polyline id="Fill-213" fill="#C08F58" points="270.4383 141.1573 255.5021 151.6582 252.1534 116.0877 266.7416 106.8999 270.4383 141.1573"></polyline>
            <polyline id="Fill-214" fill="#FEBD75" points="230.8958 160.6961 198.1158 167.3475 196.4288 129.6971 228.2209 123.8954 230.8958 160.6961"></polyline>
            <polyline id="Fill-215" fill="#3D3D3D" points="228.2209 123.8954 196.4288 129.6971 195.8621 105.4991 227.279 100.1754 228.2209 123.8954"></polyline>
            <polyline id="Fill-216" fill="#FFCA7D" points="196.4288 129.6971 198.1158 167.3475 159.8077 170.8609 159.3252 132.7585 196.4288 129.6971"></polyline>
            <polyline id="Fill-217" fill="#414141" points="196.4288 129.6971 159.3252 132.7585 159.2141 108.3078 195.8621 105.4991 196.4288 129.6971"></polyline>
            <polyline id="Fill-218" fill="#E3A969" points="230.8958 160.6961 228.2209 123.8954 252.1453 116.0016 252.1534 116.0877 255.5021 151.6582 230.8958 160.6961"></polyline>
            <polyline id="Fill-219" fill="#373737" points="252.1453 116.0016 228.2209 123.8954 227.279 100.1754 250.9426 92.9286 252.1453 116.0016"></polyline>
            <polyline id="Fill-220" fill="#967045" points="7.4119 140.8752 1.9449 129.8467 6.0073 96.9831 11.4384 106.6469 11.4417 106.6528 7.4119 140.8752"></polyline>
            <polyline id="Fill-221" fill="#FFC97D" points="81.0156 167.2125 83.0233 129.5781 120.2916 132.7173 119.4904 170.814 81.0156 167.2125"></polyline>
            <polyline id="Fill-222" fill="#414141" points="120.2916 132.7173 83.0233 129.5781 83.8519 105.3911 120.6652 108.2704 120.2916 132.7173"></polyline>
            <polyline id="Fill-223" fill="#FFCE7F" points="119.4904 170.814 120.2916 132.7173 159.3252 132.7585 159.8077 170.8609 119.4904 170.814"></polyline>
            <polyline id="Fill-224" fill="#434343" points="159.3252 132.7585 120.2916 132.7173 120.6652 108.2704 159.2141 108.3078 159.3252 132.7585"></polyline>
            <polyline id="Fill-225" fill="#2E2E2E" points="250.9426 92.9286 265.3996 84.4897 266.7365 106.8148 252.1453 116.0016 250.9426 92.9286"></polyline>
            <polyline id="Fill-226" fill="#2E2E2E" points="252.1453 116.0016 266.7365 106.8148 266.7449 106.8933 266.7416 106.8999 252.1534 116.0877 252.1453 116.0016"></polyline>
            <polyline id="Fill-227" fill="#242424" points="265.3996 84.4897 270.2606 75.6062 271.6115 97.1503 266.7365 106.8148 265.3996 84.4897"></polyline>
            <polyline id="Fill-228" fill="#242424" points="266.7365 106.8148 271.6115 97.1503 271.6166 97.2324 266.7449 106.8933 266.7365 106.8148"></polyline>
            <path d="M17.8624,21.0632 L28.9345,14.7938 L46.47,9.4599 L69.0537,5.2939 L95.2344,2.4483 L123.5785,1.013 L152.6792,1.0292 L181.1401,2.4964 L207.5497,5.3725 L230.4645,9.5663 L248.4176,14.9239 L259.9718,21.2106 L263.8333,28.0948 L259.0356,35.1395 L245.1788,41.8134 L222.6765,47.531 L192.9255,51.724 L158.2996,53.9355 L121.9047,53.9102 L87.1249,51.6511 L57.0811,47.4186 L34.1738,41.6734 L19.8354,34.985 L14.5187,27.9385 L17.8624,21.0632 M180.2861,3.0019 L152.3582,1.5611 L123.7996,1.5426 L95.9934,2.947 L70.3314,5.7328 L48.2274,9.8096 L31.1055,15.0251 L20.3459,21.1487 L17.1722,27.8558 L22.4737,34.7209 L36.5781,41.2287 L59.0206,46.8129 L88.3914,50.9239 L122.3509,53.1188 L157.8716,53.1474 L191.6747,51.0062 L220.747,46.9398 L242.7758,41.3871 L256.3867,34.8959 L261.1547,28.0332 L257.4471,21.3162 L246.1891,15.173 L228.6343,9.9308 L206.1862,5.8224 L180.2861,3.0019" id="Fill-229" fill="#2A2A2A"></path>
            <polyline id="Fill-230" fill="#242424" points="12.2917 46.0607 14.5187 27.9385 19.8354 34.985 12.2917 46.0607"></polyline>
            <polyline id="Fill-231" fill="#2E2E2E" points="17.6611 53.75 19.8354 34.985 34.1738 41.6734 17.6611 53.75"></polyline>
            <polyline id="Fill-232" fill="#373737" points="34.1738 41.6734 57.0811 47.4186 55.5143 67.3363 34.1738 41.6734"></polyline>
            <polyline id="Fill-233" fill="#424242" points="158.2996 53.9355 192.9255 51.724 193.8462 72.0606 158.2996 53.9355"></polyline>
            <polyline id="Fill-234" fill="#3E3E3E" points="192.9255 51.724 222.6765 47.531 224.1201 67.4792 192.9255 51.724"></polyline>
            <polyline id="Fill-235" fill="#373737" points="224.1201 67.4792 222.6765 47.531 245.1788 41.8134 224.1201 67.4792"></polyline>
            <polyline id="Fill-236" fill="#2F2F2F" points="246.9892 61.2333 245.1788 41.8134 259.0356 35.1395 246.9892 61.2333"></polyline>
            <polyline id="Fill-237" fill="#252525" points="261.0378 53.9462 259.0356 35.1395 263.8333 28.0948 265.8507 46.2319 263.4538 50.0925 263.4122 50.1595 261.0378 53.9462"></polyline>
            <polyline id="Fill-238" fill="#1E1E1E" points="247.5815 357.4364 246.0649 363.3123 244.1735 370.6232 239.5964 385.2282 242.9519 372.1149 247.5815 357.4364"></polyline>
            <polyline id="Fill-239" fill="#3C3C3C" points="107.0015 408.5473 122.1574 410.8586 122.5422 423.7682 93.1335 419.1841 91.757 406.2368 107.0015 408.5473"></polyline>
            <polyline id="Fill-240" fill="#3E3E3E" points="122.5422 423.7682 122.1574 410.8586 138.0566 410.8888 153.9304 410.9333 153.2704 423.8216 138.0145 423.7961 122.5422 423.7682"></polyline>
            <polyline id="Fill-241" fill="#EAAE6C" points="151.0883 14.1544 125.1201 14.1366 124.6761 14.1604 125.1162 3.5368 151.1984 3.5538 151.4723 14.1754 151.0883 14.1544"></polyline>
            <path d="M125.1201,14.1366 L151.0883,14.1544 L151.4723,14.1754 L176.4593,15.5417 L177.6665,15.6811 L199.9213,18.2523 L201.9344,18.6441 L220.152,22.1891 L222.9553,23.0831 L235.8391,27.1922 L239.5156,29.3598 L245.4951,32.8852 L244.7607,33.8704 L232.2529,39.6791 L212.2933,44.6239 L186.1498,48.2311 L155.8766,50.1257 L124.1076,50.1005 L93.6948,48.1582 L67.2845,44.5111 L46.9545,39.5378 L34.0038,33.7134 L32.8498,32.3107 L37.6304,29.3679 L41.3939,27.0513 L53.8318,23.0038 L56.6918,22.0731 L74.5433,18.5721 L76.6125,18.1663 L98.5935,15.6346 L99.8591,15.4888 L124.6761,14.1604 L125.1201,14.1366 M155.6827,37.086 L156.1656,36.0899 L155.4743,35.101 L153.6689,34.1856 L150.8819,33.4041 L147.3064,32.8068 L143.1823,32.4314 L138.7808,32.3014 L134.3889,32.4249 L130.2928,32.7941 L126.7621,33.3862 L124.0337,34.1635 L122.2969,35.0761 L121.6793,36.064 L122.2366,37.0608 L122.3,37.0956 L123.9441,37.9978 L124.0369,38.0252 L126.6958,38.8091 L126.7604,38.8204 L130.2809,39.4318 L130.3079,39.4364 L134.363,39.8181 L134.5309,39.8338 L138.7399,39.9621 L139.0669,39.9721 L143.129,39.8542 L143.593,39.8408 L147.2469,39.5001 L147.7869,39.4498 L150.8246,38.92 L151.3529,38.8279 L153.6231,38.147 L154.0446,38.0206 L155.4482,37.2198 L155.6827,37.086" id="Fill-242" fill="#AD8150"></path>
            <polyline id="Fill-243" fill="#E4AA69" points="151.4723 14.1754 151.1984 3.5538 176.6821 4.8813 177.6665 15.6811 176.4593 15.5417 151.4723 14.1754"></polyline>
            <polyline id="Fill-244" fill="#D49E62" points="177.6665 15.6811 176.6821 4.8813 200.2516 7.4754 201.9344 18.6441 199.9213 18.2523 177.6665 15.6811"></polyline>
            <polyline id="Fill-245" fill="#E4AA69" points="125.1162 3.5368 124.6761 14.1604 99.8591 15.4888 98.5935 15.6346 99.7438 4.8307 125.1162 3.5368"></polyline>
            <polyline id="Fill-246" fill="#D49E62" points="99.7438 4.8307 98.5935 15.6346 76.6125 18.1663 74.5433 18.5721 76.3918 7.3931 99.7438 4.8307"></polyline>
            <polyline id="Fill-247" fill="#BA8B56" points="76.3918 7.3931 74.5433 18.5721 56.6918 22.0731 53.8318 23.0038 56.3768 11.1324 76.3918 7.3931"></polyline>
            <polyline id="Fill-248" fill="#BA8A55" points="201.9344 18.6441 200.2516 7.4754 220.5801 11.2433 222.9553 23.0831 220.152 22.1891 201.9344 18.6441"></polyline>
            <polyline id="Fill-249" fill="#987146" points="222.9553 23.0831 220.5801 11.2433 236.3494 16.0328 239.5156 29.3598 235.8391 27.1922 222.9553 23.0831"></polyline>
            <polyline id="Fill-250" fill="#705334" points="239.5156 29.3598 236.3494 16.0328 246.3054 21.6195 248.2609 29.1746 245.4951 32.8852 239.5156 29.3598"></polyline>
            <polyline id="Fill-251" fill="#765836" points="248.2609 29.1746 246.3054 21.6195 249.3629 27.6961 248.2609 29.1746"></polyline>
            <polyline id="Fill-252" fill="#715434" points="31.4968 21.4675 41.0011 15.8979 37.6304 29.3679 32.8498 32.3107 29.6257 28.3919 31.4968 21.4675"></polyline>
            <polyline id="Fill-253" fill="#997246" points="37.6304 29.3679 41.0011 15.8979 56.3768 11.1324 53.8318 23.0038 41.3939 27.0513 37.6304 29.3679"></polyline>
            <polyline id="Fill-254" fill="#755736" points="31.4968 21.4675 29.6257 28.3919 28.9214 27.536 31.4968 21.4675"></polyline>
            <polyline id="Fill-255" fill="#745635" points="156.1656 36.0899 155.6827 37.086 155.4482 37.2198 155.4743 35.101 156.1656 36.0899"></polyline>
            <polyline id="Fill-256" fill="#755736" points="122.2366 37.0608 121.6793 36.064 122.2969 35.0761 122.3 37.0956 122.2366 37.0608"></polyline>
            <polyline id="Fill-257" fill="#A0774A" points="122.2969 35.0761 124.0337 34.1635 124.0369 38.0252 123.9441 37.9978 122.3 37.0956 122.2969 35.0761"></polyline>
            <polyline id="Fill-258" fill="#C7945C" points="124.0337 34.1635 126.7621 33.3862 126.7604 38.8204 126.6958 38.8091 124.0369 38.0252 124.0337 34.1635"></polyline>
            <polyline id="Fill-259" fill="#E6AC6A" points="126.7621 33.3862 130.2928 32.7941 130.2809 39.4318 126.7604 38.8204 126.7621 33.3862"></polyline>
            <polyline id="Fill-260" fill="#FCBC74" points="130.2928 32.7941 134.3889 32.4249 134.363 39.8181 130.3079 39.4364 130.2809 39.4318 130.2928 32.7941"></polyline>
            <polyline id="Fill-261" fill="#FFC57A" points="134.3889 32.4249 138.7808 32.3014 138.7399 39.9621 134.5309 39.8338 134.363 39.8181 134.3889 32.4249"></polyline>
            <polyline id="Fill-262" fill="#FFC57A" points="138.7808 32.3014 143.1823 32.4314 143.129 39.8542 139.0669 39.9721 138.7399 39.9621 138.7808 32.3014"></polyline>
            <polyline id="Fill-263" fill="#FCBC74" points="143.1823 32.4314 147.3064 32.8068 147.2469 39.5001 143.593 39.8408 143.129 39.8542 143.1823 32.4314"></polyline>
            <polyline id="Fill-264" fill="#E6AB6A" points="147.3064 32.8068 150.8819 33.4041 150.8246 38.92 147.7869 39.4498 147.2469 39.5001 147.3064 32.8068"></polyline>
            <polyline id="Fill-265" fill="#C6935B" points="150.8819 33.4041 153.6689 34.1856 153.6231 38.147 151.3529 38.8279 150.8246 38.92 150.8819 33.4041"></polyline>
            <polyline id="Fill-266" fill="#9F7649" points="153.6689 34.1856 155.4743 35.101 155.4482 37.2198 154.0446 38.0206 153.6231 38.147 153.6689 34.1856"></polyline>
            <path d="M152.3582,1.5611 L180.2861,3.0019 L206.1862,5.8224 L228.6343,9.9308 L246.1891,15.173 L257.4471,21.3162 L261.1547,28.0332 L256.3867,34.8959 L242.7758,41.3871 L220.747,46.9398 L191.6747,51.0062 L157.8716,53.1474 L122.3509,53.1188 L88.3914,50.9239 L59.0206,46.8129 L36.5781,41.2287 L22.4737,34.7209 L17.1722,27.8558 L20.3459,21.1487 L31.1055,15.0251 L48.2274,9.8096 L70.3314,5.7328 L95.9934,2.947 L123.7996,1.5426 L152.3582,1.5611 M151.1984,3.5538 L125.1162,3.5368 L99.7438,4.8307 L76.3918,7.3931 L56.3768,11.1324 L41.0011,15.8979 L31.4968,21.4675 L28.9214,27.536 L29.6257,28.3919 L32.8498,32.3107 L34.0038,33.7134 L46.9545,39.5378 L67.2845,44.5111 L93.6948,48.1582 L124.1076,50.1005 L155.8766,50.1257 L186.1498,48.2311 L212.2933,44.6239 L232.2529,39.6791 L244.7607,33.8704 L245.4951,32.8852 L248.2609,29.1746 L249.3629,27.6961 L246.3054,21.6195 L236.3494,16.0328 L220.5801,11.2433 L200.2516,7.4754 L176.6821,4.8813 L151.1984,3.5538" id="Fill-267" fill="#AD8150"></path>
            <path d="M194.9834,301.5322 L226.5211,292.8721" id="Stroke-268" stroke="#000000" stroke-width="0.5" stroke-linecap="round" stroke-linejoin="round"></path>
            <path d="M158.2009,306.1016 L194.9834,301.5322" id="Stroke-269" stroke="#000000" stroke-width="0.5" stroke-linecap="round" stroke-linejoin="round"></path>
            <path d="M119.5188,306.0406 L158.2009,306.1016" id="Stroke-270" stroke="#000000" stroke-width="0.5" stroke-linecap="round" stroke-linejoin="round"></path>
            <path d="M82.5899,301.3565 L119.5188,306.0406" id="Stroke-271" stroke="#000000" stroke-width="0.5" stroke-linecap="round" stroke-linejoin="round"></path>
            <path d="M50.7725,292.6021 L82.5899,301.3565" id="Stroke-272" stroke="#000000" stroke-width="0.5" stroke-linecap="round" stroke-linejoin="round"></path>
            <path d="M26.6249,280.7495 L50.7725,292.6021" id="Stroke-273" stroke="#000000" stroke-width="0.5" stroke-linecap="round" stroke-linejoin="round"></path>
            <path d="M11.6393,266.9924 L26.6249,280.7495" id="Stroke-274" stroke="#000000" stroke-width="0.5" stroke-linecap="round" stroke-linejoin="round"></path>
            <path d="M11.6393,266.9924 L6.2429,252.5453" id="Stroke-275" stroke="#000000" stroke-width="0.5" stroke-linecap="round" stroke-linejoin="round"></path>
            <path d="M264.8022,267.3616 L269.6963,252.9178" id="Stroke-276" stroke="#000000" stroke-width="0.5" stroke-linecap="round" stroke-linejoin="round"></path>
            <path d="M250.2804,281.0851 L264.8022,267.3616" id="Stroke-277" stroke="#000000" stroke-width="0.5" stroke-linecap="round" stroke-linejoin="round"></path>
            <path d="M226.5211,292.8721 L250.2804,281.0851" id="Stroke-278" stroke="#000000" stroke-width="0.5" stroke-linecap="round" stroke-linejoin="round"></path>
            <path d="M138.1245,432.2247 L4.7406,431.9629" id="Stroke-279" stroke="#000000" stroke-width="0.5" stroke-linecap="round" stroke-linejoin="round"></path>
            <path d="M271.6172,432.4866 L138.1245,432.2247" id="Stroke-280" stroke="#000000" stroke-width="0.5" stroke-linecap="round" stroke-linejoin="round"></path>
            <path d="M36.4745,346.821 L22.5856,332.616" id="Stroke-281" stroke="#000000" stroke-width="0.5" stroke-linecap="round" stroke-linejoin="round"></path>
            <path d="M58.5686,359.0078 L36.4791,346.8257" id="Stroke-282" stroke="#000000" stroke-width="0.5" stroke-linecap="round" stroke-linejoin="round"></path>
            <path d="M22.5727,332.5789 L17.3572,317.6142" id="Stroke-283" stroke="#000000" stroke-width="0.5" stroke-linecap="round" stroke-linejoin="round"></path>
            <polyline id="Stroke-284" stroke="#000000" stroke-width="0.5" stroke-linecap="round" stroke-linejoin="round" points="239.5493 347.1713 217.7917 359.2864 189.1331 368.1529"></polyline>
            <path d="M253.0411,332.9982 L239.5541,347.1663" id="Stroke-285" stroke="#000000" stroke-width="0.5" stroke-linecap="round" stroke-linejoin="round"></path>
            <path d="M87.4714,367.9734 L58.5686,359.0078" id="Stroke-286" stroke="#000000" stroke-width="0.5" stroke-linecap="round" stroke-linejoin="round"></path>
            <polyline id="Stroke-287" stroke="#000000" stroke-width="0.5" stroke-linecap="round" stroke-linejoin="round" points="242.9519 372.1149 230.3989 385.9811 210.3992 397.785 184.2243 406.3962 153.9317 410.9189"></polyline>
            <polyline id="Stroke-288" stroke="#000000" stroke-width="0.5" stroke-linecap="round" stroke-linejoin="round" points="91.7539 406.222 65.3665 397.5157 45.0707 385.6437 32.1618 371.7401"></polyline>
            <polyline id="Stroke-289" stroke="#000000" stroke-width="0.5" stroke-linecap="round" stroke-linejoin="round" points="121.6793 36.064 122.2969 35.0761 124.0337 34.1635 126.7621 33.3862 130.2928 32.7941 134.3889 32.4249 138.7808 32.3014 143.1823 32.4314 147.3064 32.8068 150.8819 33.4041 153.6689 34.1856 155.4743 35.101 156.1656 36.0899"></polyline>
            <polyline id="Stroke-290" stroke="#000000" stroke-width="0.5" stroke-linecap="round" stroke-linejoin="round" points="125.1162 3.5368 151.1984 3.5538 176.6821 4.8813"></polyline>
            <path d="M99.7438,4.8307 L125.1162,3.5368" id="Stroke-291" stroke="#000000" stroke-width="0.5" stroke-linecap="round" stroke-linejoin="round"></path>
            <path d="M76.3918,7.3931 L99.7438,4.8307" id="Stroke-292" stroke="#000000" stroke-width="0.5" stroke-linecap="round" stroke-linejoin="round"></path>
            <path d="M176.6821,4.8813 L200.2516,7.4754" id="Stroke-293" stroke="#000000" stroke-width="0.5" stroke-linecap="round" stroke-linejoin="round"></path>
            <path d="M200.2516,7.4754 L220.5801,11.2433" id="Stroke-294" stroke="#000000" stroke-width="0.5" stroke-linecap="round" stroke-linejoin="round"></path>
            <path d="M220.5801,11.2433 L236.3494,16.0328" id="Stroke-295" stroke="#000000" stroke-width="0.5" stroke-linecap="round" stroke-linejoin="round"></path>
            <path d="M236.3494,16.0328 L246.3054,21.6195" id="Stroke-296" stroke="#000000" stroke-width="0.5" stroke-linecap="round" stroke-linejoin="round"></path>
            <path d="M246.3054,21.6195 L249.3629,27.6961" id="Stroke-297" stroke="#000000" stroke-width="0.5" stroke-linecap="round" stroke-linejoin="round"></path>
            <path d="M31.4968,21.4675 L41.0011,15.8979" id="Stroke-298" stroke="#000000" stroke-width="0.5" stroke-linecap="round" stroke-linejoin="round"></path>
            <path d="M41.0011,15.8979 L56.3768,11.1324" id="Stroke-299" stroke="#000000" stroke-width="0.5" stroke-linecap="round" stroke-linejoin="round"></path>
            <path d="M56.3768,11.1324 L76.3918,7.3931" id="Stroke-300" stroke="#000000" stroke-width="0.5" stroke-linecap="round" stroke-linejoin="round"></path>
            <path d="M28.9214,27.536 L31.4968,21.4675" id="Stroke-301" stroke="#000000" stroke-width="0.5" stroke-linecap="round" stroke-linejoin="round"></path>
            <path d="M13.0428,84.2627 L7.6208,75.3771" id="Stroke-302" stroke="#000000" stroke-width="0.5" stroke-linecap="round" stroke-linejoin="round"></path>
            <path d="M28.0197,92.7223 L13.0428,84.2627" id="Stroke-303" stroke="#000000" stroke-width="0.5" stroke-linecap="round" stroke-linejoin="round"></path>
            <path d="M52.1198,100.0095 L28.0197,92.7223" id="Stroke-304" stroke="#000000" stroke-width="0.5" stroke-linecap="round" stroke-linejoin="round"></path>
            <path d="M265.3996,84.4897 L250.9426,92.9286" id="Stroke-305" stroke="#000000" stroke-width="0.5" stroke-linecap="round" stroke-linejoin="round"></path>
            <path d="M83.8519,105.3911 L52.1198,100.0095" id="Stroke-306" stroke="#000000" stroke-width="0.5" stroke-linecap="round" stroke-linejoin="round"></path>
            <path d="M227.279,100.1754 L195.8621,105.4991" id="Stroke-307" stroke="#000000" stroke-width="0.5" stroke-linecap="round" stroke-linejoin="round"></path>
            <path d="M250.9426,92.9286 L227.279,100.1754" id="Stroke-308" stroke="#000000" stroke-width="0.5" stroke-linecap="round" stroke-linejoin="round"></path>
            <path d="M159.2141,108.3078 L120.6652,108.2704" id="Stroke-309" stroke="#000000" stroke-width="0.5" stroke-linecap="round" stroke-linejoin="round"></path>
            <path d="M120.6652,108.2704 L83.8519,105.3911" id="Stroke-310" stroke="#000000" stroke-width="0.5" stroke-linecap="round" stroke-linejoin="round"></path>
            <path d="M195.8621,105.4991 L159.2141,108.3078" id="Stroke-311" stroke="#000000" stroke-width="0.5" stroke-linecap="round" stroke-linejoin="round"></path>
            <path d="M270.2606,75.6062 L265.3996,84.4897" id="Stroke-312" stroke="#000000" stroke-width="0.5" stroke-linecap="round" stroke-linejoin="round"></path>
            <polyline id="Stroke-313" stroke="#000000" stroke-width="0.5" stroke-linecap="round" stroke-linejoin="round" points="231.623 184.4274 198.5481 191.5711 159.8806 195.3454 119.1808 195.295 80.3475 191.4261 46.9566 184.2049 21.7089 174.4485 6.148 163.1535"></polyline>
            <path d="M6.148,163.1535 L0.6748,151.3256" id="Stroke-314" stroke="#000000" stroke-width="0.5" stroke-linecap="round" stroke-linejoin="round"></path>
            <polyline id="Stroke-315" stroke="#000000" stroke-width="0.5" stroke-linecap="round" stroke-linejoin="round" points="276.3831 151.6302 271.4724 163.4562 256.433 174.7243 231.623 184.4274"></polyline>
            <path d="M19.8354,34.985 L14.5187,27.9385" id="Stroke-316" stroke="#000000" stroke-width="0.5" stroke-linecap="round" stroke-linejoin="round"></path>
            <path d="M34.1738,41.6734 L19.8354,34.985" id="Stroke-317" stroke="#000000" stroke-width="0.5" stroke-linecap="round" stroke-linejoin="round"></path>
            <path d="M57.0811,47.4186 L34.1738,41.6734" id="Stroke-318" stroke="#000000" stroke-width="0.5" stroke-linecap="round" stroke-linejoin="round"></path>
            <path d="M87.1249,51.6511 L57.0811,47.4186" id="Stroke-319" stroke="#000000" stroke-width="0.5" stroke-linecap="round" stroke-linejoin="round"></path>
            <path d="M121.9047,53.9102 L87.1249,51.6511" id="Stroke-320" stroke="#000000" stroke-width="0.5" stroke-linecap="round" stroke-linejoin="round"></path>
            <path d="M158.2996,53.9355 L121.9047,53.9102" id="Stroke-321" stroke="#000000" stroke-width="0.5" stroke-linecap="round" stroke-linejoin="round"></path>
            <path d="M192.9255,51.724 L158.2996,53.9355" id="Stroke-322" stroke="#000000" stroke-width="0.5" stroke-linecap="round" stroke-linejoin="round"></path>
            <path d="M222.6765,47.531 L192.9255,51.724" id="Stroke-323" stroke="#000000" stroke-width="0.5" stroke-linecap="round" stroke-linejoin="round"></path>
            <path d="M245.1788,41.8134 L222.6765,47.531" id="Stroke-324" stroke="#000000" stroke-width="0.5" stroke-linecap="round" stroke-linejoin="round"></path>
            <path d="M259.0356,35.1395 L245.1788,41.8134" id="Stroke-325" stroke="#000000" stroke-width="0.5" stroke-linecap="round" stroke-linejoin="round"></path>
            <path d="M263.8333,28.0948 L259.0356,35.1395" id="Stroke-326" stroke="#000000" stroke-width="0.5" stroke-linecap="round" stroke-linejoin="round"></path>
            <path d="M257.8196,318.0684 L253.0613,332.9351" id="Stroke-327" stroke="#000000" stroke-width="0.5" stroke-linecap="round" stroke-linejoin="round"></path>
            <polyline id="Stroke-328" stroke="#000000" stroke-width="0.5" stroke-linecap="round" stroke-linejoin="round" points="122.1574 410.8586 107.0015 408.5473 91.7539 406.222"></polyline>
            <polyline id="Stroke-329" stroke="#000000" stroke-width="0.5" stroke-linecap="round" stroke-linejoin="round" points="153.9317 410.9189 138.0566 410.8888 122.1574 410.8586"></polyline>
            <path d="M67.5873,410.5588 L93.1335,419.1841" id="Stroke-330" stroke="#000000" stroke-linecap="round" stroke-linejoin="round"></path>
            <path d="M47.9065,398.7812 L67.5873,410.5588" id="Stroke-331" stroke="#000000" stroke-linecap="round" stroke-linejoin="round"></path>
            <polyline id="Stroke-332" stroke="#000000" stroke-linecap="round" stroke-linejoin="round" points="47.9065 398.7812 35.3522 384.9685 30.4108 370.2963"></polyline>
            <polyline id="Stroke-333" stroke="#000000" stroke-linecap="round" stroke-linejoin="round" points="153.2704 423.8216 182.5789 419.3323 207.9333 410.7882 227.3471 399.0691 239.5809 385.2886"></polyline>
            <path d="M14.0843,84.1551 L28.9614,92.5384" id="Stroke-334" stroke="#000000" stroke-linecap="round" stroke-linejoin="round"></path>
            <path d="M7.3494,162.9944 L22.8006,174.1788" id="Stroke-335" stroke="#000000" stroke-linecap="round" stroke-linejoin="round"></path>
            <path d="M7.2881,184.7115 L22.7306,196.5418" id="Stroke-336" stroke="#000000" stroke-linecap="round" stroke-linejoin="round"></path>
            <path d="M28.9614,92.5384 L52.8705,99.7567" id="Stroke-337" stroke="#000000" stroke-linecap="round" stroke-linejoin="round"></path>
            <path d="M265.857,46.2592 L265.8507,46.2319" id="Stroke-338" stroke="#000000" stroke-linecap="round" stroke-linejoin="round"></path>
            <path d="M270.2614,163.2942 L275.1667,151.5774" id="Stroke-339" stroke="#000000" stroke-linecap="round" stroke-linejoin="round"></path>
            <path d="M270.0875,185.0286 L274.9965,172.6349" id="Stroke-340" stroke="#000000" stroke-linecap="round" stroke-linejoin="round"></path>
            <path d="M264.3183,84.3801 L269.1719,75.5724" id="Stroke-341" stroke="#000000" stroke-linecap="round" stroke-linejoin="round"></path>
            <path d="M249.9556,92.7428 L264.3183,84.3801" id="Stroke-342" stroke="#000000" stroke-linecap="round" stroke-linejoin="round"></path>
            <path d="M255.3265,174.4519 L270.2614,163.2942" id="Stroke-343" stroke="#000000" stroke-linecap="round" stroke-linejoin="round"></path>
            <path d="M255.1542,196.8307 L270.0875,185.0286" id="Stroke-344" stroke="#000000" stroke-linecap="round" stroke-linejoin="round"></path>
            <path d="M226.4783,99.9211 L249.9556,92.7428" id="Stroke-345" stroke="#000000" stroke-linecap="round" stroke-linejoin="round"></path>
            <path d="M230.7272,184.055 L255.3265,174.4519" id="Stroke-346" stroke="#000000" stroke-linecap="round" stroke-linejoin="round"></path>
            <path d="M230.5615,206.9881 L255.1542,196.8307" id="Stroke-347" stroke="#000000" stroke-linecap="round" stroke-linejoin="round"></path>
            <path d="M195.3308,105.1924 L226.4783,99.9211" id="Stroke-348" stroke="#000000" stroke-linecap="round" stroke-linejoin="round"></path>
            <path d="M197.9595,191.1222 L230.7272,184.055" id="Stroke-349" stroke="#000000" stroke-linecap="round" stroke-linejoin="round"></path>
            <path d="M197.806,214.4631 L230.5615,206.9881" id="Stroke-350" stroke="#000000" stroke-linecap="round" stroke-linejoin="round"></path>
            <path d="M22.8006,174.1788 L47.8334,183.8348" id="Stroke-351" stroke="#000000" stroke-linecap="round" stroke-linejoin="round"></path>
            <path d="M22.7306,196.5418 L47.7504,206.7552" id="Stroke-352" stroke="#000000" stroke-linecap="round" stroke-linejoin="round"></path>
            <path d="M14.0843,84.1551 L8.6753,75.3451" id="Stroke-353" stroke="#000000" stroke-linecap="round" stroke-linejoin="round"></path>
            <path d="M7.2881,184.7115 L1.8295,172.3156" id="Stroke-354" stroke="#000000" stroke-linecap="round" stroke-linejoin="round"></path>
            <path d="M7.3494,162.9944 L1.8866,151.2756" id="Stroke-355" stroke="#000000" stroke-linecap="round" stroke-linejoin="round"></path>
            <path d="M52.8705,99.7567 L84.3298,105.0855" id="Stroke-356" stroke="#000000" stroke-linecap="round" stroke-linejoin="round"></path>
            <path d="M47.8334,183.8348 L80.9141,190.9788" id="Stroke-357" stroke="#000000" stroke-linecap="round" stroke-linejoin="round"></path>
            <path d="M47.7504,206.7552 L80.8144,214.3114" id="Stroke-358" stroke="#000000" stroke-linecap="round" stroke-linejoin="round"></path>
            <path d="M80.9141,190.9788 L119.3697,194.8053" id="Stroke-359" stroke="#000000" stroke-linecap="round" stroke-linejoin="round"></path>
            <path d="M80.8144,214.3114 L119.2512,218.3587" id="Stroke-360" stroke="#000000" stroke-linecap="round" stroke-linejoin="round"></path>
            <path d="M119.3697,194.8053 L159.668,194.8551" id="Stroke-361" stroke="#000000" stroke-linecap="round" stroke-linejoin="round"></path>
            <polyline id="Stroke-362" stroke="#000000" stroke-linecap="round" stroke-linejoin="round" points="119.2512 218.3587 159.5308 218.4114 197.806 214.4631"></polyline>
            <path d="M159.668,194.8551 L197.9595,191.1222" id="Stroke-363" stroke="#000000" stroke-linecap="round" stroke-linejoin="round"></path>
            <path d="M9.8582,516.2688 L5.5784,445.7648" id="Stroke-364" stroke="#000000" stroke-linecap="round" stroke-linejoin="round"></path>
            <path d="M180.2196,516.647 L182.2187,446.119" id="Stroke-365" stroke="#000000" stroke-linecap="round" stroke-linejoin="round"></path>
            <path d="M180.2196,516.647 L9.8582,516.2688" id="Stroke-366" stroke="#000000" stroke-linecap="round" stroke-linejoin="round"></path>
            <path d="M265.4669,516.8362 L180.2196,516.647" id="Stroke-367" stroke="#000000" stroke-linecap="round" stroke-linejoin="round"></path>
            <polyline id="Stroke-368" stroke="#000000" stroke-linecap="round" stroke-linejoin="round" points="265.4669 516.8362 270.6104 446.2961 182.2187 446.119"></polyline>
            <path d="M256.3471,363.3302 L246.0649,363.3123" id="Stroke-369" stroke="#000000" stroke-linecap="round" stroke-linejoin="round"></path>
            <path d="M251.8683,343.0464 L256.3471,363.3302" id="Stroke-370" stroke="#000000" stroke-linecap="round" stroke-linejoin="round"></path>
            <path d="M18.1849,362.9132 L22.577,340.3554" id="Stroke-371" stroke="#000000" stroke-linecap="round" stroke-linejoin="round"></path>
            <path d="M28.5918,362.9314 L18.1849,362.9132" id="Stroke-372" stroke="#000000" stroke-linecap="round" stroke-linejoin="round"></path>
            <polyline id="Stroke-373" stroke="#000000" stroke-linecap="round" stroke-linejoin="round" points="138.0408 446.0305 5.5784 445.7648 4.7406 431.9629 18.1849 362.9132"></polyline>
            <path d="M138.0408,446.0305 L138.1245,432.2247" id="Stroke-374" stroke="#000000" stroke-linecap="round" stroke-linejoin="round"></path>
            <path d="M138.0145,423.7961 L138.1245,432.2247" id="Stroke-375" stroke="#000000" stroke-linecap="round" stroke-linejoin="round"></path>
            <path d="M270.6104,446.2961 L271.6172,432.4866" id="Stroke-376" stroke="#000000" stroke-linecap="round" stroke-linejoin="round"></path>
            <path d="M256.3471,363.3302 L271.6172,432.4866" id="Stroke-377" stroke="#000000" stroke-linecap="round" stroke-linejoin="round"></path>
            <path d="M254.3526,335.1812 L257.8196,318.0684" id="Stroke-378" stroke="#000000" stroke-linecap="round" stroke-linejoin="round"></path>
            <path d="M32.1618,371.7401 L27.1253,356.994" id="Stroke-379" stroke="#000000" stroke-linecap="round" stroke-linejoin="round"></path>
            <path d="M6.2429,252.5453 L7.2977,271.7194" id="Stroke-380" stroke="#000000" stroke-linecap="round" stroke-linejoin="round"></path>
            <path d="M269.6963,252.9178 L268.4296,272.1039" id="Stroke-381" stroke="#000000" stroke-linecap="round" stroke-linejoin="round"></path>
            <path d="M151.0883,14.1544 L125.1201,14.1366" id="Stroke-382" stroke="#000000" stroke-linecap="round" stroke-linejoin="round"></path>
            <path d="M156.1656,36.0899 L155.6827,37.086" id="Stroke-383" stroke="#000000" stroke-linecap="round" stroke-linejoin="round"></path>
            <path d="M122.2366,37.0608 L121.6793,36.064" id="Stroke-384" stroke="#000000" stroke-linecap="round" stroke-linejoin="round"></path>
            <path d="M152.3582,1.5611 L180.2861,3.0019" id="Stroke-385" stroke="#000000" stroke-linecap="round" stroke-linejoin="round"></path>
            <path d="M123.7996,1.5426 L152.3582,1.5611" id="Stroke-386" stroke="#000000" stroke-linecap="round" stroke-linejoin="round"></path>
            <path d="M36.5781,41.2287 L22.4737,34.7209" id="Stroke-387" stroke="#000000" stroke-linecap="round" stroke-linejoin="round"></path>
            <path d="M32.2184,61.0554 L17.6611,53.75" id="Stroke-388" stroke="#000000" stroke-linecap="round" stroke-linejoin="round"></path>
            <path d="M95.9934,2.947 L123.7996,1.5426" id="Stroke-389" stroke="#000000" stroke-linecap="round" stroke-linejoin="round"></path>
            <path d="M180.2861,3.0019 L206.1862,5.8224" id="Stroke-390" stroke="#000000" stroke-linecap="round" stroke-linejoin="round"></path>
            <path d="M67.2845,44.5111 L46.9545,39.5378" id="Stroke-391" stroke="#000000" stroke-linecap="round" stroke-linejoin="round"></path>
            <path d="M59.0206,46.8129 L36.5781,41.2287" id="Stroke-392" stroke="#000000" stroke-linecap="round" stroke-linejoin="round"></path>
            <path d="M55.5143,67.3363 L32.2184,61.0554" id="Stroke-393" stroke="#000000" stroke-linecap="round" stroke-linejoin="round"></path>
            <path d="M206.1862,5.8224 L228.6343,9.9308" id="Stroke-394" stroke="#000000" stroke-linecap="round" stroke-linejoin="round"></path>
            <path d="M220.747,46.9398 L191.6747,51.0062" id="Stroke-395" stroke="#000000" stroke-linecap="round" stroke-linejoin="round"></path>
            <path d="M228.6343,9.9308 L246.1891,15.173" id="Stroke-396" stroke="#000000" stroke-linecap="round" stroke-linejoin="round"></path>
            <path d="M246.1891,15.173 L257.4471,21.3162" id="Stroke-397" stroke="#000000" stroke-linecap="round" stroke-linejoin="round"></path>
            <path d="M93.6948,48.1582 L67.2845,44.5111" id="Stroke-398" stroke="#000000" stroke-linecap="round" stroke-linejoin="round"></path>
            <path d="M249.407,350.4278 L247.6006,357.3761" id="Stroke-399" stroke="#000000" stroke-linecap="round" stroke-linejoin="round"></path>
            <path d="M274.6648,213.6234 L269.6963,252.9178" id="Stroke-400" stroke="#000000" stroke-linecap="round" stroke-linejoin="round"></path>
            <path d="M266.543,277.8564 L264.9041,290.8176" id="Stroke-401" stroke="#000000" stroke-linecap="round" stroke-linejoin="round"></path>
            <path d="M274.9965,172.6349 L274.6648,213.6234" id="Stroke-402" stroke="#000000" stroke-linecap="round" stroke-linejoin="round"></path>
            <path d="M257.4471,21.3162 L261.1547,28.0332" id="Stroke-403" stroke="#000000" stroke-linecap="round" stroke-linejoin="round"></path>
            <path d="M261.1547,28.0332 L256.3867,34.8959" id="Stroke-404" stroke="#000000" stroke-linecap="round" stroke-linejoin="round"></path>
            <path d="M244.7607,33.8704 L232.2529,39.6791" id="Stroke-405" stroke="#000000" stroke-linecap="round" stroke-linejoin="round"></path>
            <path d="M256.3867,34.8959 L242.7758,41.3871" id="Stroke-406" stroke="#000000" stroke-linecap="round" stroke-linejoin="round"></path>
            <path d="M261.0378,53.9462 L246.9892,61.2333" id="Stroke-407" stroke="#000000" stroke-linecap="round" stroke-linejoin="round"></path>
            <path d="M232.2529,39.6791 L212.2933,44.6239" id="Stroke-408" stroke="#000000" stroke-linecap="round" stroke-linejoin="round"></path>
            <path d="M242.7758,41.3871 L220.747,46.9398" id="Stroke-409" stroke="#000000" stroke-linecap="round" stroke-linejoin="round"></path>
            <path d="M246.9892,61.2333 L224.1201,67.4792" id="Stroke-410" stroke="#000000" stroke-linecap="round" stroke-linejoin="round"></path>
            <path d="M212.2933,44.6239 L186.1498,48.2311" id="Stroke-411" stroke="#000000" stroke-linecap="round" stroke-linejoin="round"></path>
            <path d="M20.3459,21.1487 L31.1055,15.0251" id="Stroke-412" stroke="#000000" stroke-linecap="round" stroke-linejoin="round"></path>
            <path d="M224.1201,67.4792 L193.8462,72.0606" id="Stroke-413" stroke="#000000" stroke-linecap="round" stroke-linejoin="round"></path>
            <path d="M31.1055,15.0251 L48.2274,9.8096" id="Stroke-414" stroke="#000000" stroke-linecap="round" stroke-linejoin="round"></path>
            <path d="M48.2274,9.8096 L70.3314,5.7328" id="Stroke-415" stroke="#000000" stroke-linecap="round" stroke-linejoin="round"></path>
            <path d="M70.3314,5.7328 L95.9934,2.947" id="Stroke-416" stroke="#000000" stroke-linecap="round" stroke-linejoin="round"></path>
            <path d="M17.1722,27.8558 L20.3459,21.1487" id="Stroke-417" stroke="#000000" stroke-linecap="round" stroke-linejoin="round"></path>
            <path d="M22.4737,34.7209 L17.1722,27.8558" id="Stroke-418" stroke="#000000" stroke-linecap="round" stroke-linejoin="round"></path>
            <path d="M88.3914,50.9239 L59.0206,46.8129" id="Stroke-419" stroke="#000000" stroke-linecap="round" stroke-linejoin="round"></path>
            <path d="M122.3509,53.1188 L88.3914,50.9239" id="Stroke-420" stroke="#000000" stroke-linecap="round" stroke-linejoin="round"></path>
            <path d="M157.8716,53.1474 L122.3509,53.1188" id="Stroke-421" stroke="#000000" stroke-linecap="round" stroke-linejoin="round"></path>
            <path d="M191.6747,51.0062 L157.8716,53.1474" id="Stroke-422" stroke="#000000" stroke-linecap="round" stroke-linejoin="round"></path>
            <polyline id="Stroke-423" stroke="#000000" stroke-linecap="round" stroke-linejoin="round" points="186.1498 48.2311 155.8766 50.1257 124.1076 50.1005 93.6948 48.1582"></polyline>
            <path d="M46.9545,39.5378 L34.0038,33.7134" id="Stroke-424" stroke="#000000" stroke-linecap="round" stroke-linejoin="round"></path>
            <polyline id="Stroke-425" stroke="#000000" stroke-linecap="round" stroke-linejoin="round" points="1.8295 172.3156 1.7182 213.2703 6.2429 252.5453"></polyline>
            <path d="M8.9932,276.4182 L10.6073,290.4286" id="Stroke-426" stroke="#000000" stroke-linecap="round" stroke-linejoin="round"></path>
            <path d="M24.0869,344.7495 L27.1253,356.994" id="Stroke-427" stroke="#000000" stroke-linecap="round" stroke-linejoin="round"></path>
            <path d="M17.6611,53.75 L12.2917,46.0607" id="Stroke-428" stroke="#000000" stroke-linecap="round" stroke-linejoin="round"></path>
            <path d="M86.0964,71.9678 L55.5143,67.3363" id="Stroke-429" stroke="#000000" stroke-linecap="round" stroke-linejoin="round"></path>
            <path d="M103.8823,73.2107 L86.0964,71.9678" id="Stroke-430" stroke="#000000" stroke-linecap="round" stroke-linejoin="round"></path>
            <polyline id="Stroke-431" stroke="#000000" stroke-linecap="round" stroke-linejoin="round" points="193.8462 72.0606 158.5871 74.4754 140.055 74.4592"></polyline>
            <path d="M7.6208,75.3771 L9.0977,71.9254" id="Stroke-432" stroke="#000000" stroke-linecap="round" stroke-linejoin="round"></path>
            <path d="M268.852,72.7428 L270.2606,75.6062" id="Stroke-433" stroke="#000000" stroke-linecap="round" stroke-linejoin="round"></path>
            <path d="M159.0113,107.9736 L195.3308,105.1924" id="Stroke-434" stroke="#000000" stroke-linecap="round" stroke-linejoin="round"></path>
            <path d="M120.8127,107.9365 L159.0113,107.9736" id="Stroke-435" stroke="#000000" stroke-linecap="round" stroke-linejoin="round"></path>
            <path d="M84.3298,105.0855 L120.8127,107.9365" id="Stroke-436" stroke="#000000" stroke-linecap="round" stroke-linejoin="round"></path>
            <path d="M26.5484,115.8631 L11.4417,106.6528" id="Stroke-437" stroke="#000000" stroke-linecap="round" stroke-linejoin="round"></path>
            <path d="M11.4384,106.6469 L6.0073,96.9831" id="Stroke-438" stroke="#000000" stroke-linecap="round" stroke-linejoin="round"></path>
            <path d="M266.7416,106.8999 L252.1534,116.0877" id="Stroke-439" stroke="#000000" stroke-linecap="round" stroke-linejoin="round"></path>
            <path d="M270.2606,75.6062 L271.6115,97.1503" id="Stroke-440" stroke="#000000" stroke-linecap="round" stroke-linejoin="round"></path>
            <path d="M271.6166,97.2324 L266.7449,106.8933" id="Stroke-441" stroke="#000000" stroke-linecap="round" stroke-linejoin="round"></path>
            <path d="M0.6748,151.3256 L1.8295,172.3156" id="Stroke-442" stroke="#000000" stroke-linecap="round" stroke-linejoin="round"></path>
            <path d="M0.6748,151.3256 L1.8958,147.9071" id="Stroke-443" stroke="#000000" stroke-linecap="round" stroke-linejoin="round"></path>
            <path d="M276.3831,151.6302 L274.9965,172.6349" id="Stroke-444" stroke="#000000" stroke-linecap="round" stroke-linejoin="round"></path>
            <path d="M275.1901,148.6878 L276.3831,151.6302" id="Stroke-445" stroke="#000000" stroke-linecap="round" stroke-linejoin="round"></path>
            <polyline id="Stroke-446" stroke="#000000" stroke-linecap="round" stroke-linejoin="round" points="17.8624 21.0632 28.9345 14.7938 46.47 9.4599 69.0537 5.2939"></polyline>
            <path d="M14.5187,27.9385 L12.2917,46.0607" id="Stroke-447" stroke="#000000" stroke-linecap="round" stroke-linejoin="round"></path>
            <path d="M152.6792,1.0292 L181.1401,2.4964" id="Stroke-448" stroke="#000000" stroke-linecap="round" stroke-linejoin="round"></path>
            <path d="M14.5187,27.9385 L17.8624,21.0632" id="Stroke-449" stroke="#000000" stroke-linecap="round" stroke-linejoin="round"></path>
            <path d="M181.1401,2.4964 L207.5497,5.3725" id="Stroke-450" stroke="#000000" stroke-linecap="round" stroke-linejoin="round"></path>
            <path d="M123.5785,1.013 L152.6792,1.0292" id="Stroke-451" stroke="#000000" stroke-linecap="round" stroke-linejoin="round"></path>
            <polyline id="Stroke-452" stroke="#000000" stroke-linecap="round" stroke-linejoin="round" points="69.0537 5.2939 95.2344 2.4483 123.5785 1.013"></polyline>
            <path d="M248.4176,14.9239 L259.9718,21.2106" id="Stroke-453" stroke="#000000" stroke-linecap="round" stroke-linejoin="round"></path>
            <path d="M230.4645,9.5663 L248.4176,14.9239" id="Stroke-454" stroke="#000000" stroke-linecap="round" stroke-linejoin="round"></path>
            <path d="M207.5497,5.3725 L230.4645,9.5663" id="Stroke-455" stroke="#000000" stroke-linecap="round" stroke-linejoin="round"></path>
            <path d="M259.9718,21.2106 L263.8333,28.0948" id="Stroke-456" stroke="#000000" stroke-linecap="round" stroke-linejoin="round"></path>
            <path d="M246.0649,363.3123 L247.5815,357.4364" id="Stroke-457" stroke="#000000" stroke-linecap="round" stroke-linejoin="round"></path>
            <path d="M263.4122,50.1595 L263.4538,50.0925" id="Stroke-458" stroke="#000000" stroke-linecap="round" stroke-linejoin="round"></path>
            <path d="M182.2187,446.119 L138.0408,446.0305" id="Stroke-459" stroke="#000000" stroke-linecap="round" stroke-linejoin="round"></path>
            <path d="M22.577,340.3554 L20.6655,334.792" id="Stroke-460" stroke="#000000" stroke-linecap="round" stroke-linejoin="round"></path>
            <polyline id="Stroke-461" stroke="#000000" stroke-linecap="round" stroke-linejoin="round" points="39.3965 364.0576 27.1307 351.1933 25.8336 349.833"></polyline>
            <polyline id="Stroke-462" stroke="#000000" stroke-linecap="round" stroke-linejoin="round" points="60.8802 376.237 40.4194 364.6375 39.3965 364.0576"></polyline>
            <path d="M249.6038,350.2159 L249.407,350.4278" id="Stroke-463" stroke="#000000" stroke-linecap="round" stroke-linejoin="round"></path>
            <polyline id="Stroke-464" stroke="#000000" stroke-linecap="round" stroke-linejoin="round" points="88.926 385.1881 61.6537 376.4838 60.8802 376.237"></polyline>
            <polyline id="Stroke-465" stroke="#000000" stroke-linecap="round" stroke-linejoin="round" points="215.264 376.5135 214.4347 376.7775 187.449 385.3673"></polyline>
            <polyline id="Stroke-466" stroke="#000000" stroke-linecap="round" stroke-linejoin="round" points="236.4264 364.4033 235.3421 365.0238 215.264 376.5135"></polyline>
            <polyline id="Stroke-467" stroke="#000000" stroke-linecap="round" stroke-linejoin="round" points="121.4601 389.9622 121.3126 389.9619 89.4068 385.259 88.926 385.1881"></polyline>
            <polyline id="Stroke-468" stroke="#000000" stroke-linecap="round" stroke-linejoin="round" points="187.449 385.3673 186.9136 385.4446 155.183 390.024"></polyline>
            <polyline id="Stroke-469" stroke="#000000" stroke-linecap="round" stroke-linejoin="round" points="254.3526 335.1812 251.8683 343.0464 249.6038 350.2159"></polyline>
            <path d="M257.833,318.002 L257.8196,318.0684" id="Stroke-470" stroke="#000000" stroke-linecap="round" stroke-linejoin="round"></path>
            <polyline id="Stroke-471" stroke="#000000" stroke-linecap="round" stroke-linejoin="round" points="30.4108 370.2963 28.5918 362.9314 27.1253 356.994"></polyline>
            <polyline id="Stroke-472" stroke="#000000" stroke-linecap="round" stroke-linejoin="round" points="247.6006 357.3761 247.5815 357.4364 242.9519 372.1149"></polyline>
            <path d="M239.5809,385.2886 L239.5964,385.2282" id="Stroke-473" stroke="#000000" stroke-linecap="round" stroke-linejoin="round"></path>
            <polyline id="Stroke-474" stroke="#000000" stroke-linecap="round" stroke-linejoin="round" points="225.5593 313.3159 224.655 313.5741 194.3121 322.2403 193.7238 322.3163 157.8849 326.9481"></polyline>
            <polyline id="Stroke-475" stroke="#000000" stroke-linecap="round" stroke-linejoin="round" points="119.767 326.8855 119.5825 326.8852 83.5728 322.1333 83.0122 322.0593 52.3697 313.2888 51.4919 313.0376 28.6698 301.3884 27.5531 300.8184 13.9713 287.8627 12.6777 286.6288 8.9932 276.4182 7.2977 271.7194"></polyline>
            <polyline id="Stroke-476" stroke="#000000" stroke-linecap="round" stroke-linejoin="round" points="268.4296 272.1039 266.543 277.8564 263.5409 287.0096 262.2127 288.3131 249.1188 301.1643 247.9755 301.7541 225.5593 313.3159"></polyline>
            <polyline id="Stroke-477" stroke="#000000" stroke-linecap="round" stroke-linejoin="round" points="41.3939 27.0513 37.6304 29.3679 32.8498 32.3107"></polyline>
            <polyline id="Stroke-478" stroke="#000000" stroke-linecap="round" stroke-linejoin="round" points="56.6918 22.0731 53.8318 23.0038 41.3939 27.0513"></polyline>
            <polyline id="Stroke-479" stroke="#000000" stroke-linecap="round" stroke-linejoin="round" points="76.6125 18.1663 74.5433 18.5721 56.6918 22.0731"></polyline>
            <polyline id="Stroke-480" stroke="#000000" stroke-linecap="round" stroke-linejoin="round" points="99.8591 15.4888 98.5935 15.6346 76.6125 18.1663"></polyline>
            <polyline id="Stroke-481" stroke="#000000" stroke-linecap="round" stroke-linejoin="round" points="125.1201 14.1366 124.6761 14.1604 99.8591 15.4888"></polyline>
            <polyline id="Stroke-482" stroke="#000000" stroke-linecap="round" stroke-linejoin="round" points="176.4593 15.5417 151.4723 14.1754 151.0883 14.1544"></polyline>
            <polyline id="Stroke-483" stroke="#000000" stroke-linecap="round" stroke-linejoin="round" points="199.9213 18.2523 177.6665 15.6811 176.4593 15.5417"></polyline>
            <polyline id="Stroke-484" stroke="#000000" stroke-linecap="round" stroke-linejoin="round" points="220.152 22.1891 201.9344 18.6441 199.9213 18.2523"></polyline>
            <polyline id="Stroke-485" stroke="#000000" stroke-linecap="round" stroke-linejoin="round" points="235.8391 27.1922 222.9553 23.0831 220.152 22.1891"></polyline>
            <polyline id="Stroke-486" stroke="#000000" stroke-linecap="round" stroke-linejoin="round" points="245.4951 32.8852 239.5156 29.3598 235.8391 27.1922"></polyline>
            <polyline id="Stroke-487" stroke="#000000" stroke-linecap="round" stroke-linejoin="round" points="155.6827 37.086 155.4482 37.2198 154.0446 38.0206 153.6231 38.147 151.3529 38.8279 150.8246 38.92 147.7869 39.4498 147.2469 39.5001 143.593 39.8408 143.129 39.8542 139.0669 39.9721 138.7399 39.9621 134.5309 39.8338 134.363 39.8181 130.3079 39.4364 130.2809 39.4318"></polyline>
            <polyline id="Stroke-488" stroke="#000000" stroke-linecap="round" stroke-linejoin="round" points="126.6958 38.8091 124.0369 38.0252 123.9441 37.9978 122.3 37.0956 122.2366 37.0608"></polyline>
            <path d="M264.9041,290.8176 L257.833,318.002" id="Stroke-489" stroke="#000000" stroke-linecap="round" stroke-linejoin="round"></path>
            <polyline id="Stroke-490" stroke="#000000" stroke-linecap="round" stroke-linejoin="round" points="275.3403 130.1307 275.1901 148.6878 275.1667 151.5774"></polyline>
            <polyline id="Stroke-491" stroke="#000000" stroke-linecap="round" stroke-linejoin="round" points="271.6115 97.1503 271.6166 97.2324 275.3403 130.1307"></polyline>
            <path d="M263.4122,50.1595 L261.0378,53.9462" id="Stroke-492" stroke="#000000" stroke-linecap="round" stroke-linejoin="round"></path>
            <path d="M245.4951,32.8852 L244.7607,33.8704" id="Stroke-493" stroke="#000000" stroke-linecap="round" stroke-linejoin="round"></path>
            <path d="M29.6257,28.3919 L28.9214,27.536" id="Stroke-494" stroke="#000000" stroke-linecap="round" stroke-linejoin="round"></path>
            <path d="M12.2917,46.0607 L9.0977,71.9254" id="Stroke-495" stroke="#000000" stroke-linecap="round" stroke-linejoin="round"></path>
            <polyline id="Stroke-496" stroke="#000000" stroke-linecap="round" stroke-linejoin="round" points="6.0073 96.9831 1.9449 129.8467 1.8958 147.9071 1.8866 151.2756"></polyline>
            <path d="M10.6073,290.4286 L17.3572,317.6142" id="Stroke-497" stroke="#000000" stroke-linecap="round" stroke-linejoin="round"></path>
            <path d="M121.517,74.4431 L103.8823,73.2107" id="Stroke-498" stroke="#000000" stroke-linecap="round" stroke-linejoin="round"></path>
            <path d="M140.055,74.4592 L121.517,74.4431" id="Stroke-499" stroke="#000000" stroke-linecap="round" stroke-linejoin="round"></path>
            <path d="M263.8333,28.0948 L265.8507,46.2319" id="Stroke-500" stroke="#000000" stroke-linecap="round" stroke-linejoin="round"></path>
            <polyline id="Stroke-501" stroke="#000000" stroke-linecap="round" stroke-linejoin="round" points="25.8336 349.833 24.0869 344.7495 22.577 340.3554"></polyline>
            <polyline id="Stroke-502" stroke="#000000" stroke-linecap="round" stroke-linejoin="round" points="249.407 350.4278 248.2172 351.7088 236.4264 364.4033"></polyline>
            <polyline id="Stroke-503" stroke="#000000" stroke-linecap="round" stroke-linejoin="round" points="155.183 390.024 154.9808 390.0237 121.4601 389.9622"></polyline>
            <path d="M153.2704,423.8216 L138.0145,423.7961" id="Stroke-504" stroke="#000000" stroke-linecap="round" stroke-linejoin="round"></path>
            <polyline id="Stroke-505" stroke="#000000" stroke-linecap="round" stroke-linejoin="round" points="157.8849 326.9481 157.6715 326.9477 119.767 326.8855"></polyline>
            <polyline id="Stroke-506" stroke="#000000" stroke-linecap="round" stroke-linejoin="round" points="130.2809 39.4318 126.7604 38.8204 126.6958 38.8091"></polyline>
            <path d="M265.857,46.2592 L268.852,72.7428" id="Stroke-507" stroke="#000000" stroke-linecap="round" stroke-linejoin="round"></path>
            <path d="M265.857,46.2592 L263.4538,50.0925" id="Stroke-508" stroke="#000000" stroke-linecap="round" stroke-linejoin="round"></path>
            <polyline id="Stroke-509" stroke="#000000" stroke-linecap="round" stroke-linejoin="round" points="249.3629 27.6961 248.2609 29.1746 245.4951 32.8852"></polyline>
            <polyline id="Stroke-510" stroke="#000000" stroke-linecap="round" stroke-linejoin="round" points="34.0038 33.7134 32.8498 32.3107 29.6257 28.3919"></polyline>
            <path d="M122.5422,423.7682 L138.0145,423.7961" id="Stroke-511" stroke="#000000" stroke-linecap="round" stroke-linejoin="round"></path>
            <path d="M122.5422,423.7682 L93.1335,419.1841" id="Stroke-512" stroke="#000000" stroke-linecap="round" stroke-linejoin="round"></path>
            <path d="M239.5964,385.2282 L244.1735,370.6232" id="Stroke-513" stroke="#000000" stroke-linecap="round" stroke-linejoin="round"></path>
            <path d="M246.0649,363.3123 L244.1735,370.6232" id="Stroke-514" stroke="#000000" stroke-linecap="round" stroke-linejoin="round"></path>
            <path d="M20.6655,334.792 L17.3572,317.6142" id="Stroke-515" stroke="#000000" stroke-linecap="round" stroke-linejoin="round"></path>
            <path d="M7.6208,75.3771 L6.0073,96.9831" id="Stroke-516" stroke="#000000" stroke-linecap="round" stroke-linejoin="round"></path>
            <path d="M269.1719,75.5724 L268.852,72.7428" id="Stroke-517" stroke="#000000" stroke-linecap="round" stroke-linejoin="round"></path>
            <path d="M8.6753,75.3451 L9.0977,71.9254" id="Stroke-518" stroke="#000000" stroke-linecap="round" stroke-linejoin="round"></path>
            <path d="M8.9932,276.4182 L10.6073,290.4286" id="Stroke-519" stroke="#000000" stroke-linecap="round" stroke-linejoin="round"></path>
            <path d="M1.8295,172.3156 L1.7182,213.2703" id="Stroke-520" stroke="#000000" stroke-linecap="round" stroke-linejoin="round"></path>
            <path d="M12.2917,46.0607 L8.675,75.348" id="Stroke-521" stroke="#000000" stroke-linecap="round" stroke-linejoin="round"></path>
            <path d="M1.9449,129.8467 L1.8866,151.2756" id="Stroke-522" stroke="#000000" stroke-linecap="round" stroke-linejoin="round"></path>
            <path d="M6.0136,96.899 L1.9449,129.8467" id="Stroke-523" stroke="#000000" stroke-linecap="round" stroke-linejoin="round"></path>
            <path d="M10.6073,290.4286 L17.3703,317.6825" id="Stroke-524" stroke="#000000" stroke-linecap="round" stroke-linejoin="round"></path>
            <path d="M1.7182,213.2703 L6.2429,252.5453" id="Stroke-525" stroke="#000000" stroke-linecap="round" stroke-linejoin="round"></path>
            <path d="M24.0869,344.7495 L27.1253,356.994" id="Stroke-526" stroke="#000000" stroke-linecap="round" stroke-linejoin="round"></path>
            <path d="M13.9713,287.8627 L15.942,305.4996" id="Stroke-527" stroke="#000000" stroke-linecap="round" stroke-linejoin="round"></path>
            <path d="M7.2881,184.7115 L7.1686,226.9824" id="Stroke-528" stroke="#000000" stroke-linecap="round" stroke-linejoin="round"></path>
            <path d="M17.6611,53.75 L14.0842,84.1563" id="Stroke-529" stroke="#000000" stroke-linecap="round" stroke-linejoin="round"></path>
            <path d="M7.4119,140.8752 L7.3494,162.9944" id="Stroke-530" stroke="#000000" stroke-linecap="round" stroke-linejoin="round"></path>
            <path d="M11.448,106.5653 L7.4119,140.8752" id="Stroke-531" stroke="#000000" stroke-linecap="round" stroke-linejoin="round"></path>
            <path d="M15.942,305.4996 L22.5985,332.6846" id="Stroke-532" stroke="#000000" stroke-linecap="round" stroke-linejoin="round"></path>
            <path d="M7.1686,226.9824 L11.6393,266.9924" id="Stroke-533" stroke="#000000" stroke-linecap="round" stroke-linejoin="round"></path>
            <path d="M27.1307,351.1933 L32.1618,371.7401" id="Stroke-534" stroke="#000000" stroke-linecap="round" stroke-linejoin="round"></path>
            <path d="M22.7306,196.5418 L22.5944,240.0684" id="Stroke-535" stroke="#000000" stroke-linecap="round" stroke-linejoin="round"></path>
            <path d="M40.4194,364.6375 L45.0707,385.6437" id="Stroke-536" stroke="#000000" stroke-linecap="round" stroke-linejoin="round"></path>
            <path d="M30.496,319.8203 L36.4907,346.8943" id="Stroke-537" stroke="#000000" stroke-linecap="round" stroke-linejoin="round"></path>
            <path d="M28.6698,301.3884 L30.496,319.8203" id="Stroke-538" stroke="#000000" stroke-linecap="round" stroke-linejoin="round"></path>
            <path d="M32.2184,61.0554 L28.9613,92.5393" id="Stroke-539" stroke="#000000" stroke-linecap="round" stroke-linejoin="round"></path>
            <path d="M22.5944,240.0684 L26.6249,280.7495" id="Stroke-540" stroke="#000000" stroke-linecap="round" stroke-linejoin="round"></path>
            <polyline id="Stroke-541" stroke="#000000" stroke-linecap="round" stroke-linejoin="round" points="26.5575 115.7747 22.8719 151.4012 22.8006 174.1788"></polyline>
            <path d="M47.7504,206.7552 L47.5888,251.3652" id="Stroke-542" stroke="#000000" stroke-linecap="round" stroke-linejoin="round"></path>
            <path d="M61.6537,376.4838 L65.3665,397.5157" id="Stroke-543" stroke="#000000" stroke-linecap="round" stroke-linejoin="round"></path>
            <path d="M53.8246,332.1348 L58.5811,359.0785" id="Stroke-544" stroke="#000000" stroke-linecap="round" stroke-linejoin="round"></path>
            <path d="M52.3697,313.2888 L53.8246,332.1348" id="Stroke-545" stroke="#000000" stroke-linecap="round" stroke-linejoin="round"></path>
            <path d="M55.5143,67.3363 L52.8705,99.7574" id="Stroke-546" stroke="#000000" stroke-linecap="round" stroke-linejoin="round"></path>
            <path d="M47.5888,251.3652 L50.7725,292.6021" id="Stroke-547" stroke="#000000" stroke-linecap="round" stroke-linejoin="round"></path>
            <polyline id="Stroke-548" stroke="#000000" stroke-linecap="round" stroke-linejoin="round" points="50.917 123.7128 47.918 160.4889 47.8334 183.8348"></polyline>
            <path d="M271.6116,97.1506 L275.3403,130.1307" id="Stroke-549" stroke="#000000" stroke-linecap="round" stroke-linejoin="round"></path>
            <path d="M249.407,350.4278 L247.6006,357.3761" id="Stroke-550" stroke="#000000" stroke-linecap="round" stroke-linejoin="round"></path>
            <path d="M264.9041,290.8176 L257.8195,318.0685" id="Stroke-551" stroke="#000000" stroke-linecap="round" stroke-linejoin="round"></path>
            <path d="M265.8578,46.2592 L269.1723,75.5756" id="Stroke-552" stroke="#000000" stroke-linecap="round" stroke-linejoin="round"></path>
            <path d="M274.6648,213.6234 L269.6963,252.9178" id="Stroke-553" stroke="#000000" stroke-linecap="round" stroke-linejoin="round"></path>
            <path d="M266.543,277.8564 L264.9041,290.8176" id="Stroke-554" stroke="#000000" stroke-linecap="round" stroke-linejoin="round"></path>
            <path d="M275.3403,130.1307 L275.1667,151.5774" id="Stroke-555" stroke="#000000" stroke-linecap="round" stroke-linejoin="round"></path>
            <path d="M274.9965,172.6349 L274.6648,213.6234" id="Stroke-556" stroke="#000000" stroke-linecap="round" stroke-linejoin="round"></path>
            <path d="M266.7365,106.8148 L270.4383,141.1573" id="Stroke-557" stroke="#000000" stroke-linecap="round" stroke-linejoin="round"></path>
            <path d="M248.2172,351.7088 L242.9519,372.1149" id="Stroke-558" stroke="#000000" stroke-linecap="round" stroke-linejoin="round"></path>
            <path d="M260.041,305.8842 L253.0277,333.0651" id="Stroke-559" stroke="#000000" stroke-linecap="round" stroke-linejoin="round"></path>
            <path d="M261.0378,53.9462 L264.3184,84.3814" id="Stroke-560" stroke="#000000" stroke-linecap="round" stroke-linejoin="round"></path>
            <path d="M269.7494,227.3332 L264.8022,267.3616" id="Stroke-561" stroke="#000000" stroke-linecap="round" stroke-linejoin="round"></path>
            <path d="M262.2127,288.3131 L260.041,305.8842" id="Stroke-562" stroke="#000000" stroke-linecap="round" stroke-linejoin="round"></path>
            <path d="M270.4383,141.1573 L270.2614,163.2942" id="Stroke-563" stroke="#000000" stroke-linecap="round" stroke-linejoin="round"></path>
            <path d="M270.0875,185.0286 L269.7494,227.3332" id="Stroke-564" stroke="#000000" stroke-linecap="round" stroke-linejoin="round"></path>
            <path d="M255.1542,196.8307 L254.8187,240.3878" id="Stroke-565" stroke="#000000" stroke-linecap="round" stroke-linejoin="round"></path>
            <path d="M255.5021,151.6582 L255.3265,174.4519" id="Stroke-566" stroke="#000000" stroke-linecap="round" stroke-linejoin="round"></path>
            <path d="M247.9755,301.7541 L245.9219,320.1692" id="Stroke-567" stroke="#000000" stroke-linecap="round" stroke-linejoin="round"></path>
            <path d="M254.8187,240.3878 L250.2804,281.0851" id="Stroke-568" stroke="#000000" stroke-linecap="round" stroke-linejoin="round"></path>
            <path d="M246.9892,61.2333 L249.9557,92.7437" id="Stroke-569" stroke="#000000" stroke-linecap="round" stroke-linejoin="round"></path>
            <path d="M245.9219,320.1692 L239.5371,347.2386" id="Stroke-570" stroke="#000000" stroke-linecap="round" stroke-linejoin="round"></path>
            <path d="M235.3421,365.0238 L230.3989,385.9811" id="Stroke-571" stroke="#000000" stroke-linecap="round" stroke-linejoin="round"></path>
            <path d="M252.1453,116.0016 L255.5021,151.6582" id="Stroke-572" stroke="#000000" stroke-linecap="round" stroke-linejoin="round"></path>
            <path d="M230.5615,206.9881 L230.2393,251.6228" id="Stroke-573" stroke="#000000" stroke-linecap="round" stroke-linejoin="round"></path>
            <path d="M230.8958,160.6961 L230.7272,184.055" id="Stroke-574" stroke="#000000" stroke-linecap="round" stroke-linejoin="round"></path>
            <path d="M224.655,313.5741 L222.9567,332.415" id="Stroke-575" stroke="#000000" stroke-linecap="round" stroke-linejoin="round"></path>
            <path d="M230.2393,251.6228 L226.5211,292.8721" id="Stroke-576" stroke="#000000" stroke-linecap="round" stroke-linejoin="round"></path>
            <path d="M224.1201,67.4792 L226.4783,99.9218" id="Stroke-577" stroke="#000000" stroke-linecap="round" stroke-linejoin="round"></path>
            <path d="M222.9567,332.415 L217.7818,359.354" id="Stroke-578" stroke="#000000" stroke-linecap="round" stroke-linejoin="round"></path>
            <path d="M214.4347,376.7775 L210.3992,397.785" id="Stroke-579" stroke="#000000" stroke-linecap="round" stroke-linejoin="round"></path>
            <path d="M228.2209,123.8954 L230.8958,160.6961" id="Stroke-580" stroke="#000000" stroke-linecap="round" stroke-linejoin="round"></path>
            <path d="M197.806,214.4631 L197.5072,259.8904" id="Stroke-581" stroke="#000000" stroke-linecap="round" stroke-linejoin="round"></path>
            <path d="M198.1158,167.3475 L197.9595,191.1222" id="Stroke-582" stroke="#000000" stroke-linecap="round" stroke-linejoin="round"></path>
            <path d="M193.7238,322.3163 L192.5673,341.3985" id="Stroke-583" stroke="#000000" stroke-linecap="round" stroke-linejoin="round"></path>
            <path d="M197.5072,259.8904 L194.9834,301.5322" id="Stroke-584" stroke="#000000" stroke-linecap="round" stroke-linejoin="round"></path>
            <path d="M193.8462,72.0606 L195.3308,105.1931" id="Stroke-585" stroke="#000000" stroke-linecap="round" stroke-linejoin="round"></path>
            <path d="M192.5673,341.3985 L189.1243,368.2215" id="Stroke-586" stroke="#000000" stroke-linecap="round" stroke-linejoin="round"></path>
            <path d="M186.9136,385.4446 L184.2243,406.3962" id="Stroke-587" stroke="#000000" stroke-linecap="round" stroke-linejoin="round"></path>
            <path d="M196.4288,129.6971 L198.1158,167.3475" id="Stroke-588" stroke="#000000" stroke-linecap="round" stroke-linejoin="round"></path>
            <path d="M154.9808,390.0237 L153.9317,410.9189" id="Stroke-589" stroke="#000000" stroke-linecap="round" stroke-linejoin="round"></path>
            <path d="M159.5308,218.4114 L159.2637,264.2574" id="Stroke-590" stroke="#000000" stroke-linecap="round" stroke-linejoin="round"></path>
            <path d="M158.5862,74.448 L158.5871,74.4754" id="Stroke-591" stroke="#000000" stroke-linecap="round" stroke-linejoin="round"></path>
            <path d="M159.2637,264.2574 L158.2009,306.1016" id="Stroke-592" stroke="#000000" stroke-linecap="round" stroke-linejoin="round"></path>
            <path d="M157.1842,346.1339 L155.841,372.8888" id="Stroke-593" stroke="#000000" stroke-linecap="round" stroke-linejoin="round"></path>
            <path d="M158.5871,74.4754 L159.0113,107.9736" id="Stroke-594" stroke="#000000" stroke-linecap="round" stroke-linejoin="round"></path>
            <path d="M159.8077,170.8609 L159.668,194.8551" id="Stroke-595" stroke="#000000" stroke-linecap="round" stroke-linejoin="round"></path>
            <path d="M157.6715,326.9477 L157.1842,346.1339" id="Stroke-596" stroke="#000000" stroke-linecap="round" stroke-linejoin="round"></path>
            <path d="M159.3252,132.7589 L159.8077,170.8609" id="Stroke-597" stroke="#000000" stroke-linecap="round" stroke-linejoin="round"></path>
            <path d="M121.4601,389.9622 L122.1574,410.8586" id="Stroke-598" stroke="#000000" stroke-linecap="round" stroke-linejoin="round"></path>
            <polyline id="Stroke-599" stroke="#000000" stroke-linecap="round" stroke-linejoin="round" points="119.2512 218.3587 119.0206 264.199 119.5188 306.0406"></polyline>
            <path d="M119.9955,346.0706 L120.8883,372.8268" id="Stroke-600" stroke="#000000" stroke-linecap="round" stroke-linejoin="round"></path>
            <path d="M121.517,74.4431 L120.8127,107.9365" id="Stroke-601" stroke="#000000" stroke-linecap="round" stroke-linejoin="round"></path>
            <path d="M119.4904,170.814 L119.3697,194.8053" id="Stroke-602" stroke="#000000" stroke-linecap="round" stroke-linejoin="round"></path>
            <path d="M119.767,326.8855 L119.9955,346.0706" id="Stroke-603" stroke="#000000" stroke-linecap="round" stroke-linejoin="round"></path>
            <path d="M120.2916,132.7173 L119.4904,170.814" id="Stroke-604" stroke="#000000" stroke-linecap="round" stroke-linejoin="round"></path>
            <path d="M89.4068,385.259 L91.7539,406.222" id="Stroke-605" stroke="#000000" stroke-linecap="round" stroke-linejoin="round"></path>
            <path d="M80.8144,214.3114 L80.6203,259.7227" id="Stroke-606" stroke="#000000" stroke-linecap="round" stroke-linejoin="round"></path>
            <path d="M86.0994,71.9406 L86.0964,71.9678" id="Stroke-607" stroke="#000000" stroke-linecap="round" stroke-linejoin="round"></path>
            <path d="M80.6203,259.7227 L82.5899,301.3565" id="Stroke-608" stroke="#000000" stroke-linecap="round" stroke-linejoin="round"></path>
            <path d="M84.4756,341.2164 L87.4791,368.0425" id="Stroke-609" stroke="#000000" stroke-linecap="round" stroke-linejoin="round"></path>
            <path d="M86.0964,71.9678 L84.3297,105.0862" id="Stroke-610" stroke="#000000" stroke-linecap="round" stroke-linejoin="round"></path>
            <path d="M81.0156,167.2125 L80.9141,190.9788" id="Stroke-611" stroke="#000000" stroke-linecap="round" stroke-linejoin="round"></path>
            <path d="M83.5728,322.1333 L84.4756,341.2164" id="Stroke-612" stroke="#000000" stroke-linecap="round" stroke-linejoin="round"></path>
            <path d="M83.0233,129.5783 L81.0156,167.2125" id="Stroke-613" stroke="#000000" stroke-linecap="round" stroke-linejoin="round"></path>
        </g>
    </g>
</svg>