<?xml version="1.0" encoding="UTF-8"?>
<svg viewBox="0 0 400 300" version="1.1" xmlns="http://www.w3.org/2000/svg" xmlns:xlink="http://www.w3.org/1999/xlink">
    <!-- Generator: Sketch 52.5 (67469) - http://www.bohemiancoding.com/sketch -->
    <title>04</title>
    <desc>Created with Sketch.</desc>
    <g id="04" stroke="none" stroke-width="1" fill="none" fill-rule="evenodd">
        <rect fill="#EDEDED" x="0" y="0" width="400" height="300"></rect>
        <g id="Group-738" transform="translate(32.000000, 41.000000)">
            <polyline id="Fill-51" fill="#6F6F6F" points="145.196536 76.5297429 145.190344 76.5023893 145.114447 72.3994857 146.511021 73.6270929 146.587049 77.8601571 145.203388 76.5570964 145.196536 76.5297429"></polyline>
            <polyline id="Fill-52" fill="#B68854" points="145.190344 76.5023893 145.196536 76.5297429 145.203388 76.5570964 146.587049 77.8601571 146.619859 77.8909464 148.963162 79.0230143 149.013628 79.0473286 152.159774 79.9266071 152.224207 79.9445786 155.957496 80.507375 156.031285 80.518475 160.091746 80.723825 160.169487 80.7277893 164.271981 80.5604964 164.348141 80.557325 168.205026 80.0288857 168.273807 80.0195036 171.616151 79.1673143 171.672546 79.1529107 174.269892 78.0368321 174.309948 78.0196536 175.987576 76.7159321 176.008395 76.6999429 176.658127 75.28575 176.616885 69.2293786 175.61376 62.2850071 175.215567 61.0378429 172.010918 53.7259821 166.933628 47.4021536 165.607153 46.4209929 171.234692 45.4123464 172.492254 45.1869107 196.077478 43.2625143 196.491746 43.2286857 221.160207 43.3355893 221.592527 43.3747036 245.126099 45.5031286 246.400791 45.7436286 267.028028 49.6361607 269.135341 50.3086357 285.543341 55.5449286 288.511605 57.1245643 299.433449 62.9368679 303.658353 67.3134393 307.614193 71.4111893 307.681525 71.7830393 307.926212 73.1338036 304.310852 79.099525 291.935906 87.2861714 273.186974 94.1249607 249.312791 99.0192679 222.122485 101.517032 193.814287 101.379471 166.721224 98.6200643 143.026504 93.501775 124.51264 86.4949 112.397666 78.2067679 109.079172 72.4356929 109.379859 70.987275 109.480395 70.5032357 113.642974 66.3359786 116.475388 63.5001929 143.686381 70.6670929 144.751699 71.0921964 144.788198 71.1187571 144.861986 75.0835714 144.868311 75.1111893 144.853948 75.138675 144.870024 75.2040857 145.190344 76.5023893"></polyline>
            <polyline id="Fill-53" fill="#515151" points="144.868311 75.1111893 144.861986 75.0835714 144.788198 71.1187571 144.813496 71.1372571 145.114447 72.3994857 145.190344 76.5023893 144.870024 75.2040857 144.868311 75.1111893"></polyline>
            <polyline id="Fill-54" fill="#4D4D4D" points="144.751699 71.0921964 143.686381 70.6670929 143.971784 70.5344214 145.332518 71.0775286 144.751699 71.0921964"></polyline>
            <polyline id="Fill-55" fill="#4F4F4F" points="143.971784 70.5344214 143.686381 70.6670929 116.475388 63.5001929 114.569807 62.9983143 113.591849 62.7406357 113.683294 62.5564286 143.971784 70.5344214"></polyline>
            <polyline id="Fill-56" fill="#4F4F4F" points="113.683294 62.5564286 113.591849 62.7406357 108.931859 61.513425 99.7012141 59.0822607 97.5102306 58.5051929 1.32476235 33.1718214 1.06136471 32.892075 113.683294 62.5564286"></polyline>
            <polyline id="Fill-57" fill="#5B5B5B" points="143.971784 70.5344214 113.683294 62.5564286 114.037082 61.3092643 144.578296 69.3571607 143.971784 70.5344214"></polyline>
            <polyline id="Fill-58" fill="#5B5B5B" points="114.037082 61.3092643 113.683294 62.5564286 1.06136471 32.892075 1.06479059 31.5399893 114.037082 61.3092643"></polyline>
            <polyline id="Fill-59" fill="#5D5D5D" points="143.971784 70.5344214 144.578296 69.3571607 146.408772 70.0880429 145.332518 71.0775286 143.971784 70.5344214"></polyline>
            <polyline id="Fill-60" fill="#7D7D7D" points="144.578296 69.3571607 114.037082 61.3092643 114.631209 59.075125 145.466654 67.2066679 144.578296 69.3571607"></polyline>
            <polyline id="Fill-61" fill="#7D7D7D" points="114.631209 59.075125 114.037082 61.3092643 1.06479059 31.5399893 1.33741176 29.1989464 114.631209 59.075125"></polyline>
            <polyline id="Fill-62" fill="#7F7F7F" points="144.578296 69.3571607 145.466654 67.2066679 147.910758 68.1834679 146.408772 70.0880429 144.578296 69.3571607"></polyline>
            <polyline id="Fill-63" fill="#9B9B9B" points="145.466654 67.2066679 114.631209 59.075125 115.426278 56.0012179 146.577694 64.2244679 145.466654 67.2066679"></polyline>
            <polyline id="Fill-64" fill="#9B9B9B" points="115.426278 56.0012179 114.631209 59.075125 1.33741176 29.1989464 1.86236235 26.0228929 115.426278 56.0012179"></polyline>
            <polyline id="Fill-65" fill="#9C9C9C" points="145.466654 67.2066679 146.577694 64.2244679 149.737412 65.4886786 147.910758 68.1834679 145.466654 67.2066679"></polyline>
            <polyline id="Fill-66" fill="#B3B3B3" points="146.577694 64.2244679 115.426278 56.0012179 116.368264 52.2963286 147.835256 60.6131357 146.577694 64.2244679"></polyline>
            <polyline id="Fill-67" fill="#B3B3B3" points="116.368264 52.2963286 115.426278 56.0012179 1.86236235 26.0228929 2.60485647 22.2281464 116.368264 52.2963286"></polyline>
            <polyline id="Fill-68" fill="#B3B3B3" points="146.577694 64.2244679 147.835256 60.6131357 151.763162 62.1869571 149.737412 65.4886786 146.577694 64.2244679"></polyline>
            <polyline id="Fill-69" fill="#C3C3C3" points="147.835256 60.6131357 116.368264 52.2963286 117.391548 48.2176071 149.151586 56.6233464 147.835256 60.6131357"></polyline>
            <polyline id="Fill-70" fill="#C3C3C3" points="117.391548 48.2176071 116.368264 52.2963286 2.60485647 22.2281464 3.51403294 18.0783321 117.391548 48.2176071"></polyline>
            <polyline id="Fill-71" fill="#C2C2C2" points="147.835256 60.6131357 149.151586 56.6233464 153.846758 58.5073071 151.763162 62.1869571 147.835256 60.6131357"></polyline>
            <polyline id="Fill-72" fill="#CACACA" points="149.151586 56.6233464 117.391548 48.2176071 118.424452 44.0516714 150.434184 52.5352429 149.151586 56.6233464"></polyline>
            <polyline id="Fill-73" fill="#CACACA" points="118.424452 44.0516714 117.391548 48.2176071 3.51403294 18.0783321 4.52585412 13.8650893 118.424452 44.0516714"></polyline>
            <polyline id="Fill-74" fill="#C9C9C9" points="149.151586 56.6233464 150.434184 52.5352429 155.841148 54.7082 153.846758 58.5073071 149.151586 56.6233464"></polyline>
            <polyline id="Fill-75" fill="#C9C9C9" points="150.434184 52.5352429 118.424452 44.0516714 119.393845 40.0925393 151.592395 48.6372929 150.434184 52.5352429"></polyline>
            <polyline id="Fill-76" fill="#C9C9C9" points="119.393845 40.0925393 118.424452 44.0516714 4.52585412 13.8650893 5.56929882 9.88573929 119.393845 40.0925393"></polyline>
            <polyline id="Fill-77" fill="#C7C7C7" points="150.434184 52.5352429 151.592395 48.6372929 157.606005 51.0574893 155.841148 54.7082 150.434184 52.5352429"></polyline>
            <polyline id="Fill-78" fill="#BEBEBE" points="151.592395 48.6372929 119.393845 40.0925393 120.231736 36.6186357 152.544922 45.203825 151.592395 48.6372929"></polyline>
            <polyline id="Fill-79" fill="#BEBEBE" points="120.231736 36.6186357 119.393845 40.0925393 5.56929882 9.88573929 6.57071059 6.42055714 120.231736 36.6186357"></polyline>
            <polyline id="Fill-80" fill="#BCBCBC" points="151.592395 48.6372929 152.544922 45.203825 159.017073 47.8117964 157.606005 51.0574893 151.592395 48.6372929"></polyline>
            <polyline id="Fill-81" fill="#ABABAB" points="152.544922 45.203825 120.231736 36.6186357 120.879624 33.8721786 153.225751 42.4738857 152.544922 45.203825"></polyline>
            <polyline id="Fill-82" fill="#ABABAB" points="120.879624 33.8721786 120.231736 36.6186357 6.57071059 6.42055714 7.45985882 3.71083571 120.879624 33.8721786"></polyline>
            <polyline id="Fill-83" fill="#A9A9A9" points="152.544922 45.203825 153.225751 42.4738857 159.977374 45.1970857 159.017073 47.8117964 152.544922 45.203825"></polyline>
            <polyline id="Fill-84" fill="#919191" points="153.225751 42.4738857 120.879624 33.8721786 121.293365 32.04015 153.588762 40.6335321 153.225751 42.4738857"></polyline>
            <polyline id="Fill-85" fill="#919191" points="121.293365 32.04015 120.879624 33.8721786 7.45985882 3.71083571 8.17534118 1.94091429 121.293365 32.04015"></polyline>
            <polyline id="Fill-86" fill="#8E8E8E" points="153.225751 42.4738857 153.588762 40.6335321 160.422344 43.39175 159.977374 45.1970857 153.225751 42.4738857"></polyline>
            <polyline id="Fill-87" fill="#717171" points="153.588762 40.6335321 121.293365 32.04015 121.446475 31.2426679 141.750626 36.6467821 143.58176 37.134125 151.410692 39.2178857 153.611558 39.803675 153.588762 40.6335321"></polyline>
            <polyline id="Fill-88" fill="#717171" points="121.446475 31.2426679 121.293365 32.04015 8.17534118 1.94091429 8.66893176 1.22615357 121.446475 31.2426679"></polyline>
            <polyline id="Fill-89" fill="#6F6F6F" points="153.588762 40.6335321 153.611558 39.803675 160.325496 42.5143214 160.422344 43.39175 153.588762 40.6335321"></polyline>
            <polyline id="Fill-90" fill="#454545" points="144.751699 71.0921964 145.332518 71.0775286 145.757854 71.3876679 144.838136 71.1550964 144.813496 71.1372571 144.788198 71.1187571 144.751699 71.0921964"></polyline>
            <polyline id="Fill-91" fill="#646464" points="145.332518 71.0775286 146.408772 70.0880429 147.375398 70.7935536 145.757854 71.3876679 145.332518 71.0775286"></polyline>
            <polyline id="Fill-92" fill="#838383" points="146.408772 70.0880429 147.910758 68.1834679 149.585092 69.4069786 147.375398 70.7935536 146.408772 70.0880429"></polyline>
            <polyline id="Fill-93" fill="#9F9F9F" points="147.910758 68.1834679 149.737412 65.4886786 152.237515 67.3181964 149.585092 69.4069786 147.910758 68.1834679"></polyline>
            <polyline id="Fill-94" fill="#B4B4B4" points="149.737412 65.4886786 151.763162 62.1869571 155.149647 64.6691286 152.237515 67.3181964 149.737412 65.4886786"></polyline>
            <polyline id="Fill-95" fill="#C1C1C1" points="151.763162 62.1869571 153.846758 58.5073071 158.118042 61.64385 155.149647 64.6691286 151.763162 62.1869571"></polyline>
            <polyline id="Fill-96" fill="#C6C6C6" points="153.846758 58.5073071 155.841148 54.7082 160.933459 58.4545821 158.118042 61.64385 153.846758 58.5073071"></polyline>
            <polyline id="Fill-97" fill="#C2C2C2" points="155.841148 54.7082 157.606005 51.0574893 163.397854 55.3258357 160.933459 58.4545821 155.841148 54.7082"></polyline>
            <polyline id="Fill-98" fill="#B6B6B6" points="157.606005 51.0574893 159.017073 47.8117964 165.338748 52.4776286 163.397854 55.3258357 157.606005 51.0574893"></polyline>
            <polyline id="Fill-99" fill="#A1A1A1" points="159.017073 47.8117964 159.977374 45.1970857 166.622795 50.1076464 165.338748 52.4776286 159.017073 47.8117964"></polyline>
            <polyline id="Fill-100" fill="#878787" points="159.977374 45.1970857 160.422344 43.39175 167.165007 48.3776321 166.622795 50.1076464 159.977374 45.1970857"></polyline>
            <polyline id="Fill-101" fill="#676767" points="160.422344 43.39175 160.325496 42.5143214 165.607153 46.4209929 166.933628 47.4021536 167.165007 48.3776321 160.422344 43.39175"></polyline>
            <polyline id="Fill-102" fill="#CF9A5F" points="160.325496 42.5143214 153.611558 39.803675 151.410692 39.2178857 172.412536 35.5289857 171.234692 45.4123464 165.607153 46.4209929 160.325496 42.5143214"></polyline>
            <polyline id="Fill-103" fill="#4C4C4C" points="144.838136 71.1550964 145.757854 71.3876679 146.087002 71.7904393 144.904809 71.2368929 144.838136 71.1550964"></polyline>
            <polyline id="Fill-104" fill="#6D6D6D" points="145.757854 71.3876679 147.375398 70.7935536 148.123162 71.7094357 146.087002 71.7904393 145.757854 71.3876679"></polyline>
            <polyline id="Fill-105" fill="#8A8A8A" points="147.375398 70.7935536 149.585092 69.4069786 150.879416 70.9942786 148.123162 71.7094357 147.375398 70.7935536"></polyline>
            <polyline id="Fill-106" fill="#A3A3A3" points="149.585092 69.4069786 152.237515 67.3181964 154.168264 69.6905571 150.879416 70.9942786 149.585092 69.4069786"></polyline>
            <polyline id="Fill-107" fill="#B5B5B5" points="152.237515 67.3181964 155.149647 64.6691286 157.762278 67.8865429 154.168264 69.6905571 152.237515 67.3181964"></polyline>
            <polyline id="Fill-108" fill="#C0C0C0" points="155.149647 64.6691286 158.118042 61.64385 161.409788 65.7071107 157.762278 67.8865429 155.149647 64.6691286"></polyline>
            <polyline id="Fill-109" fill="#C2C2C2" points="158.118042 61.64385 160.933459 58.4545821 164.853986 63.3055464 161.409788 65.7071107 158.118042 61.64385"></polyline>
            <polyline id="Fill-110" fill="#BBBBBB" points="160.933459 58.4545821 163.397854 55.3258357 167.853082 60.8507286 164.853986 63.3055464 160.933459 58.4545821"></polyline>
            <polyline id="Fill-111" fill="#ADADAD" points="163.397854 55.3258357 165.338748 52.4776286 170.198231 58.5148393 167.853082 60.8507286 163.397854 55.3258357"></polyline>
            <polyline id="Fill-112" fill="#979797" points="165.338748 52.4776286 166.622795 50.1076464 171.729073 56.4604143 170.198231 58.5148393 165.338748 52.4776286"></polyline>
            <polyline id="Fill-113" fill="#7B7B7B" points="166.622795 50.1076464 167.165007 48.3776321 172.345073 54.8277893 171.729073 56.4604143 166.622795 50.1076464"></polyline>
            <polyline id="Fill-114" fill="#5C5C5C" points="167.165007 48.3776321 166.933628 47.4021536 172.010918 53.7259821 172.345073 54.8277893 167.165007 48.3776321"></polyline>
            <polyline id="Fill-115" fill="#686868" points="144.838136 71.1550964 144.904809 71.2368929 144.947633 71.3317714 145.114447 72.3994857 144.813496 71.1372571 144.838136 71.1550964"></polyline>
            <polyline id="Fill-116" fill="#595959" points="144.904809 71.2368929 146.087002 71.7904393 146.297694 72.258225 144.947633 71.3317714 144.904809 71.2368929"></polyline>
            <polyline id="Fill-117" fill="#787878" points="146.087002 71.7904393 148.123162 71.7094357 148.6016 72.7726571 146.297694 72.258225 146.087002 71.7904393"></polyline>
            <polyline id="Fill-118" fill="#939393" points="148.123162 71.7094357 150.879416 70.9942786 151.705845 72.8362179 148.6016 72.7726571 148.123162 71.7094357"></polyline>
            <polyline id="Fill-119" fill="#A8A8A8" points="150.879416 70.9942786 154.168264 69.6905571 155.398814 72.4417714 151.705845 72.8362179 150.879416 70.9942786"></polyline>
            <polyline id="Fill-120" fill="#B7B7B7" points="154.168264 69.6905571 157.762278 67.8865429 159.424226 71.6150857 155.398814 72.4417714 154.168264 69.6905571"></polyline>
            <polyline id="Fill-121" fill="#BEBEBE" points="157.762278 67.8865429 161.409788 65.7071107 163.499445 70.4132464 159.424226 71.6150857 157.762278 67.8865429"></polyline>
            <polyline id="Fill-122" fill="#BDBDBD" points="161.409788 65.7071107 164.853986 63.3055464 167.338014 68.9205607 163.499445 70.4132464 161.409788 65.7071107"></polyline>
            <polyline id="Fill-123" fill="#B3B3B3" points="164.853986 63.3055464 167.853082 60.8507286 170.671266 67.2423464 167.338014 68.9205607 164.853986 63.3055464"></polyline>
            <polyline id="Fill-124" fill="#A2A2A2" points="167.853082 60.8507286 170.198231 58.5148393 173.267953 65.4968714 170.671266 67.2423464 167.853082 60.8507286"></polyline>
            <polyline id="Fill-125" fill="#8A8A8A" points="170.198231 58.5148393 171.729073 56.4604143 174.952169 63.805575 173.267953 65.4968714 170.198231 58.5148393"></polyline>
            <polyline id="Fill-126" fill="#6D6D6D" points="171.729073 56.4604143 172.345073 54.8277893 175.61376 62.2850071 174.952169 63.805575 171.729073 56.4604143"></polyline>
            <polyline id="Fill-127" fill="#4E4E4E" points="172.345073 54.8277893 172.010918 53.7259821 175.215567 61.0378429 175.61376 62.2850071 172.345073 54.8277893"></polyline>
            <polyline id="Fill-128" fill="#686868" points="144.947633 71.3317714 146.297694 72.258225 146.511021 73.6270929 145.114447 72.3994857 144.947633 71.3317714"></polyline>
            <polyline id="Fill-129" fill="#848484" points="146.297694 72.258225 148.6016 72.7726571 148.887925 74.620675 146.511021 73.6270929 146.297694 72.258225"></polyline>
            <polyline id="Fill-130" fill="#9C9C9C" points="148.6016 72.7726571 151.705845 72.8362179 152.086381 75.3092714 148.887925 74.620675 148.6016 72.7726571"></polyline>
            <polyline id="Fill-131" fill="#AFAFAF" points="151.705845 72.8362179 155.398814 72.4417714 155.887002 75.6430643 152.086381 75.3092714 151.705845 72.8362179"></polyline>
            <polyline id="Fill-132" fill="#B9B9B9" points="155.398814 72.4417714 159.424226 71.6150857 160.025073 75.5976071 155.887002 75.6430643 155.398814 72.4417714"></polyline>
            <polyline id="Fill-133" fill="#BCBCBC" points="159.424226 71.6150857 163.499445 70.4132464 164.210447 75.1755429 160.025073 75.5976071 159.424226 71.6150857"></polyline>
            <polyline id="Fill-134" fill="#B7B7B7" points="163.499445 70.4132464 167.338014 68.9205607 168.149158 74.4063393 164.210447 75.1755429 163.499445 70.4132464"></polyline>
            <polyline id="Fill-135" fill="#A9A9A9" points="167.338014 68.9205607 170.671266 67.2423464 171.565553 73.3452321 168.149158 74.4063393 167.338014 68.9205607"></polyline>
            <polyline id="Fill-136" fill="#959595" points="170.671266 67.2423464 173.267953 65.4968714 174.224038 72.0675429 171.565553 73.3452321 170.671266 67.2423464"></polyline>
            <polyline id="Fill-137" fill="#7B7B7B" points="173.267953 65.4968714 174.952169 63.805575 175.945016 70.6629964 174.224038 72.0675429 173.267953 65.4968714"></polyline>
            <polyline id="Fill-138" fill="#5E5E5E" points="174.952169 63.805575 175.61376 62.2850071 176.616885 69.2293786 175.945016 70.6629964 174.952169 63.805575"></polyline>
            <polyline id="Fill-139" fill="#8B8B8B" points="146.511021 73.6270929 148.887925 74.620675 148.963162 79.0230143 146.619859 77.8909464 146.587049 77.8601571 146.511021 73.6270929"></polyline>
            <polyline id="Fill-140" fill="#A1A1A1" points="148.887925 74.620675 152.086381 75.3092714 152.159774 79.9266071 149.013628 79.0473286 148.963162 79.0230143 148.887925 74.620675"></polyline>
            <polyline id="Fill-141" fill="#B2B2B2" points="152.086381 75.3092714 155.887002 75.6430643 155.957496 80.507375 152.224207 79.9445786 152.159774 79.9266071 152.086381 75.3092714"></polyline>
            <polyline id="Fill-142" fill="#BABABA" points="155.887002 75.6430643 160.025073 75.5976071 160.091746 80.723825 156.031285 80.518475 155.957496 80.507375 155.887002 75.6430643"></polyline>
            <polyline id="Fill-143" fill="#BBBBBB" points="160.025073 75.5976071 164.210447 75.1755429 164.271981 80.5604964 160.169487 80.7277893 160.091746 80.723825 160.025073 75.5976071"></polyline>
            <polyline id="Fill-144" fill="#B3B3B3" points="164.210447 75.1755429 168.149158 74.4063393 168.205026 80.0288857 164.348141 80.557325 164.271981 80.5604964 164.210447 75.1755429"></polyline>
            <polyline id="Fill-145" fill="#A4A4A4" points="168.149158 74.4063393 171.565553 73.3452321 171.616151 79.1673143 168.273807 80.0195036 168.205026 80.0288857 168.149158 74.4063393"></polyline>
            <polyline id="Fill-146" fill="#8E8E8E" points="171.565553 73.3452321 174.224038 72.0675429 174.269892 78.0368321 171.672546 79.1529107 171.616151 79.1673143 171.565553 73.3452321"></polyline>
            <polyline id="Fill-147" fill="#747474" points="174.224038 72.0675429 175.945016 70.6629964 175.987576 76.7159321 174.309948 78.0196536 174.269892 78.0368321 174.224038 72.0675429"></polyline>
            <polyline id="Fill-148" fill="#555555" points="175.945016 70.6629964 176.616885 69.2293786 176.658127 75.28575 176.008395 76.6999429 175.987576 76.7159321 175.945016 70.6629964"></polyline>
            <polyline id="Fill-184" fill="#82613C" points="89.9240094 285.587671 84.1554824 270.381729 80.3821365 234.754957 86.2559435 249.669921 89.9240094 285.587671"></polyline>
            <polyline id="Fill-186" fill="#AB7F4E" points="104.356329 299.846414 89.9240094 285.587671 86.2559435 249.669921 101.095944 263.674421 104.356329 299.846414"></polyline>
            <polyline id="Fill-190" fill="#86643E" points="330.882259 271.956475 324.754014 287.118546 328.786409 251.17265 335.024546 236.29865 330.882259 271.956475"></polyline>
            <polyline id="Fill-192" fill="#AE8250" points="324.754014 287.118546 309.951962 301.212904 313.569562 265.017521 328.786409 251.17265 324.754014 287.118546"></polyline>
            <polyline id="Fill-205" fill="#E3A968" points="221.160207 43.3355893 196.491746 43.2286857 196.077478 43.2625143 196.496885 33.6031357 221.252442 33.7081893 221.592527 43.3747036 221.160207 43.3355893"></polyline>
            <polyline id="Fill-207" fill="#906B42" points="334.830193 199.316621 335.024546 236.29865 328.786409 251.17265 328.606682 213.333146 334.830193 199.316621"></polyline>
            <polyline id="Fill-208" fill="#222222" points="334.830193 199.316621 328.606682 213.333146 329.605986 194.197011 335.853346 180.492211 334.830193 199.316621"></polyline>
            <polyline id="Fill-209" fill="#B88955" points="328.606682 213.333146 328.786409 251.17265 313.569562 265.017521 313.433318 226.378289 328.606682 213.333146"></polyline>
            <polyline id="Fill-210" fill="#2C2C2C" points="328.606682 213.333146 313.433318 226.378289 314.33696 206.9558 329.605986 194.197011 328.606682 213.333146"></polyline>
            <polyline id="Fill-221" fill="#DAA264" points="313.433318 226.378289 313.569562 265.017521 290.045346 276.672521 289.980781 237.358568 313.433318 226.378289"></polyline>
            <polyline id="Fill-222" fill="#343434" points="313.433318 226.378289 289.980781 237.358568 290.717478 217.698221 314.33696 206.9558 313.433318 226.378289"></polyline>
            <polyline id="Fill-223" fill="#B68854" points="291.935906 87.2861714 304.310852 79.099525 307.926212 73.1338036 308.334682 72.4600071 309.687642 70.2275857 308.034786 61.3257821 299.817016 52.988625 285.870908 45.7169357 267.285365 39.9048964 245.303718 35.8399179 221.252442 33.7081893 196.496885 33.6031357 172.412536 35.5289857 151.410692 39.2178857 143.58176 37.134125 144.592791 36.83165 168.865035 32.6001714 195.325628 30.4985714 222.507369 30.6132714 248.934099 32.9396464 273.135718 37.3814964 293.672169 43.7453643 309.175868 51.7293036 318.426409 60.9128357 320.459802 70.7537786 314.708009 80.5981571 301.149948 89.7145607 280.435087 97.3542679 253.934569 102.835025 223.676913 105.636586 192.150758 105.482243 162.005496 102.387589 135.711191 96.6570821 115.264207 88.8322429 101.999454 79.6058964 96.5335906 69.7290107 98.8210259 59.9273143 99.7012141 59.0822607 108.931859 61.513425 107.277289 69.3021893 108.660555 71.70785 109.079172 72.4356929 112.397666 78.2067679 124.51264 86.4949 143.026504 93.501775 166.721224 98.6200643 193.814287 101.379471 222.122485 101.517032 249.312791 99.0192679 273.186974 94.1249607 291.935906 87.2861714"></polyline>
            <polyline id="Fill-224" fill="#6B4F31" points="308.034786 61.3257821 309.687642 70.2275857 308.334682 72.4600071 307.681525 71.7830393 307.614193 71.4111893 303.658353 67.3134393 299.817016 52.988625 308.034786 61.3257821"></polyline>
            <polyline id="Fill-225" fill="#785937" points="307.681525 71.7830393 308.334682 72.4600071 307.926212 73.1338036 307.681525 71.7830393"></polyline>
            <polyline id="Fill-226" fill="#2C2C2C" points="314.708009 80.5981571 320.459802 70.7537786 318.426409 60.9128357 309.175868 51.7293036 293.672169 43.7453643 273.135718 37.3814964 248.934099 32.9396464 222.507369 30.6132714 195.325628 30.4985714 168.865035 32.6001714 144.592791 36.83165 143.58176 37.134125 141.750626 36.6467821 143.086984 36.2491643 167.938071 31.9418357 195.022438 29.80535 222.845741 29.9266571 249.904151 32.3007357 274.699765 36.8309893 295.761562 43.3221107 311.688885 51.4689821 321.225751 60.845575 323.374042 70.9000607 317.537525 80.9653821 303.680621 90.2922893 282.458466 98.1121071 255.273826 103.723025 224.212009 106.588807 191.838344 106.424554 160.884969 103.247046 133.897713 97.3707857 112.930127 89.3546036 99.3480847 79.9118071 93.7747012 69.8129214 96.1514729 59.8008536 97.5102306 58.5051929 99.7012141 59.0822607 98.8210259 59.9273143 96.5335906 69.7290107 101.999454 79.6058964 115.264207 88.8322429 135.711191 96.6570821 162.005496 102.387589 192.150758 105.482243 223.676913 105.636586 253.934569 102.835025 280.435087 97.3542679 301.149948 89.7145607 314.708009 80.5981571"></polyline>
            <polyline id="Fill-227" fill="#916C43" points="299.817016 52.988625 303.658353 67.3134393 299.433449 62.9368679 288.511605 57.1245643 285.870908 45.7169357 299.817016 52.988625"></polyline>
            <polyline id="Fill-228" fill="#B38552" points="285.870908 45.7169357 288.511605 57.1245643 285.543341 55.5449286 269.135341 50.3086357 267.285365 39.9048964 285.870908 45.7169357"></polyline>
            <polyline id="Fill-233" fill="#F4B670" points="289.980781 237.358568 290.045346 276.672521 259.755275 285.063725 259.78624 245.263486 289.980781 237.358568"></polyline>
            <polyline id="Fill-234" fill="#3A3A3A" points="289.980781 237.358568 259.78624 245.263486 260.294588 225.433468 290.717478 217.698221 289.980781 237.358568"></polyline>
            <polyline id="Fill-239" fill="#FFC278" points="259.78624 245.263486 259.755275 285.063725 225.049901 289.362596 225.192075 249.312871 259.78624 245.263486"></polyline>
            <polyline id="Fill-240" fill="#3E3E3E" points="259.78624 245.263486 225.192075 249.312871 225.430306 229.396564 260.294588 225.433468 259.78624 245.263486"></polyline>
            <polyline id="Fill-241" fill="#B48653" points="101.095944 263.674421 86.2559435 249.669921 86.8102776 211.917104 101.615624 225.112757 101.095944 263.674421"></polyline>
            <polyline id="Fill-242" fill="#2B2B2B" points="101.615624 225.112757 86.8102776 211.917104 86.0026918 192.812286 100.904358 205.718018 101.615624 225.112757"></polyline>
            <polyline id="Fill-248" fill="#FFC67A" points="225.192075 249.312871 225.049901 289.362596 188.854795 289.125664 189.112791 249.089814 225.192075 249.312871"></polyline>
            <polyline id="Fill-249" fill="#404040" points="225.192075 249.312871 189.112791 249.089814 189.066146 229.178132 225.430306 229.396564 225.192075 249.312871"></polyline>
            <polyline id="Fill-255" fill="#FFC177" points="189.112791 249.089814 188.854795 289.125664 154.296075 284.377904 154.661986 244.617307 189.112791 249.089814"></polyline>
            <polyline id="Fill-256" fill="#3E3E3E" points="189.112791 249.089814 154.661986 244.617307 154.345619 224.801164 189.066146 229.178132 189.112791 249.089814"></polyline>
            <polyline id="Fill-261" fill="#F2B46F" points="154.661986 244.617307 154.296075 284.377904 124.273751 275.607054 124.729525 236.354811 154.661986 244.617307"></polyline>
            <polyline id="Fill-262" fill="#3A3A3A" points="154.661986 244.617307 124.729525 236.354811 124.185205 216.716136 154.345619 224.801164 154.661986 244.617307"></polyline>
            <polyline id="Fill-263" fill="#D7A063" points="124.729525 236.354811 124.273751 275.607054 101.095944 263.674421 101.615624 225.112757 124.729525 236.354811"></polyline>
            <polyline id="Fill-264" fill="#333333" points="124.729525 236.354811 101.615624 225.112757 100.904358 205.718018 124.185205 216.716136 124.729525 236.354811"></polyline>
            <polyline id="Fill-277" fill="#8C6840" points="86.8102776 211.917104 86.2559435 249.669921 80.3821365 234.754957 80.9418729 197.861861 86.8102776 211.917104"></polyline>
            <polyline id="Fill-278" fill="#212121" points="86.8102776 211.917104 80.9418729 197.861861 80.10912 179.070089 86.0026918 192.812286 86.8102776 211.917104"></polyline>
            <polyline id="Fill-279" fill="#DDA566" points="221.592527 43.3747036 221.252442 33.7081893 245.303718 35.8399179 246.400791 45.7436286 245.126099 45.5031286 221.592527 43.3747036"></polyline>
            <polyline id="Fill-280" fill="#CC985E" points="246.400791 45.7436286 245.303718 35.8399179 267.285365 39.9048964 269.135341 50.3086357 267.028028 49.6361607 246.400791 45.7436286"></polyline>
            <polyline id="Fill-281" fill="#6F5333" points="107.277289 69.3021893 108.931859 61.513425 113.591849 62.7406357 114.569807 62.9983143 113.642974 66.3359786 109.480395 70.5032357 109.379859 70.987275 108.660555 71.70785 107.277289 69.3021893"></polyline>
            <polyline id="Fill-282" fill="#956F45" points="113.642974 66.3359786 114.569807 62.9983143 116.475388 63.5001929 113.642974 66.3359786"></polyline>
            <polyline id="Fill-283" fill="#DEA566" points="172.412536 35.5289857 196.496885 33.6031357 196.077478 43.2625143 172.492254 45.1869107 171.234692 45.4123464 172.412536 35.5289857"></polyline>
            <polyline id="Fill-284" fill="#7C5C39" points="108.660555 71.70785 109.379859 70.987275 109.079172 72.4356929 108.660555 71.70785"></polyline>
            <polyline id="Fill-286" fill="#2C2C2C" points="326.939068 101.285386 329.31808 112.781154 323.277064 124.317093 308.741835 135.032161 286.376753 144.03545 257.653496 150.508204 224.789007 153.821025 190.52544 153.638404 157.788894 149.979368 129.300311 143.212993 107.238682 133.99365 93.0335247 123.152782 87.3113788 111.582486 89.7392753 101.134346 88.2840659 111.535046 93.9790682 123.00835 108.08224 133.754736 129.967699 142.891225 158.216339 149.594832 190.668932 153.220436 224.632734 153.401207 257.212348 150.118779 285.687887 143.708132 285.694344 143.706679 307.87904 134.783996 322.309384 124.16275 328.320885 112.723936 326.817186 101.156811 326.939068 101.285386"></polyline>
            <polyline id="Fill-287" fill="#997247" points="328.320885 112.723936 322.309384 124.16275 319.048866 97.4139964 319.052424 97.388625 321.975755 92.1775714 324.955614 86.8356964 326.817186 101.156811 328.320885 112.723936"></polyline>
            <polyline id="Fill-288" fill="#C19059" points="322.309384 124.16275 307.87904 134.783996 305.001035 107.224811 319.048866 97.4139964 322.309384 124.16275"></polyline>
            <polyline id="Fill-289" fill="#2F2F2F" points="319.052424 97.388625 319.048866 97.4139964 303.680621 90.2922893 317.537525 80.9653821 319.052424 97.388625"></polyline>
            <polyline id="Fill-290" fill="#FCBC74" points="285.687887 143.708132 257.212348 150.118779 255.8304 121.370043 283.452104 115.457575 285.687887 143.708132"></polyline>
            <polyline id="Fill-291" fill="#FABA73" points="158.216339 149.594832 129.967699 142.891225 132.499953 114.705946 159.901741 120.887193 158.216339 149.594832"></polyline>
            <polyline id="Fill-292" fill="#DFA667" points="129.967699 142.891225 108.08224 133.754736 111.236028 106.274571 132.499953 114.705946 129.967699 142.891225"></polyline>
            <polyline id="Fill-293" fill="#BD8D57" points="108.08224 133.754736 93.9790682 123.00835 97.4931012 96.3469429 111.236028 106.274571 108.08224 133.754736"></polyline>
            <polyline id="Fill-294" fill="#956F45" points="93.9790682 123.00835 88.2840659 111.535046 89.7392753 101.134346 91.89376 85.7356071 97.4931012 96.3469429 93.9790682 123.00835"></polyline>
            <polyline id="Fill-295" fill="#2F2F2F" points="319.048866 97.4139964 305.001035 107.224811 303.680621 90.2922893 319.048866 97.4139964"></polyline>
            <polyline id="Fill-296" fill="#E2A968" points="305.001035 107.224811 307.87904 134.783996 285.694344 143.706679 285.687887 143.708132 283.452104 115.457575 305.001035 107.224811"></polyline>
            <polyline id="Fill-297" fill="#373737" points="305.001035 107.224811 283.452104 115.457575 282.458466 98.1121071 305.001035 107.224811"></polyline>
            <polyline id="Fill-298" fill="#3D3D3D" points="283.452104 115.457575 255.8304 121.370043 282.458466 98.1121071 283.452104 115.457575"></polyline>
            <polyline id="Fill-299" fill="#FFC87C" points="255.8304 121.370043 257.212348 150.118779 224.632734 153.401207 224.258786 124.394264 255.8304 121.370043"></polyline>
            <polyline id="Fill-300" fill="#414141" points="255.8304 121.370043 224.258786 124.394264 255.273826 103.723025 255.8304 121.370043"></polyline>
            <polyline id="Fill-301" fill="#FFCC7E" points="224.258786 124.394264 224.632734 153.401207 190.668932 153.220436 191.353449 124.227632 207.805854 124.310882 224.258786 124.394264"></polyline>
            <polyline id="Fill-302" fill="#FFC77B" points="191.353449 124.227632 190.668932 153.220436 158.216339 149.594832 159.901741 120.887193 175.676875 122.562632 191.353449 124.227632"></polyline>
            <polyline id="Fill-303" fill="#3D3D3D" points="159.901741 120.887193 132.499953 114.705946 160.884969 103.247046 159.901741 120.887193"></polyline>
            <polyline id="Fill-304" fill="#363636" points="132.499953 114.705946 111.236028 106.274571 133.897713 97.3707857 132.499953 114.705946"></polyline>
            <polyline id="Fill-305" fill="#2E2E2E" points="111.236028 106.274571 97.4931012 96.3469429 99.3480847 79.9118071 111.236028 106.274571"></polyline>
            <polyline id="Fill-306" fill="#242424" points="97.4931012 96.3469429 91.89376 85.7356071 93.7747012 69.8129214 97.4931012 96.3469429"></polyline>
            <polyline id="Fill-307" fill="#363636" points="286.376753 144.03545 308.741835 135.032161 310.01152 155.202446 287.354711 164.652246 286.376753 144.03545"></polyline>
            <polyline id="Fill-308" fill="#363636" points="287.354711 164.652246 310.01152 155.202446 310.016264 155.279089 287.3584 164.730607 287.354711 164.652246"></polyline>
            <polyline id="Fill-309" fill="#2E2E2E" points="308.741835 135.032161 323.277064 124.317093 324.718306 143.961186 310.01152 155.202446 308.741835 135.032161"></polyline>
            <polyline id="Fill-310" fill="#2E2E2E" points="310.01152 155.202446 324.718306 143.961186 324.723708 144.035979 310.016264 155.279089 310.01152 155.202446"></polyline>
            <polyline id="Fill-311" fill="#242424" points="323.277064 124.317093 329.31808 112.781154 330.809129 131.865357 324.718306 143.961186 323.277064 124.317093"></polyline>
            <polyline id="Fill-312" fill="#242424" points="324.718306 143.961186 330.809129 131.865357 330.814795 131.938036 324.723708 144.035979 324.718306 143.961186"></polyline>
            <polyline id="Fill-313" fill="#3C3C3C" points="129.300311 143.212993 157.788894 149.979368 156.965892 170.892561 128.090315 163.788164 129.300311 143.212993"></polyline>
            <polyline id="Fill-314" fill="#3C3C3C" points="128.090315 163.788164 156.965892 170.892561 156.961148 170.972111 128.083332 163.865996 128.090315 163.788164"></polyline>
            <polyline id="Fill-315" fill="#2D2D2D" points="93.0335247 123.152782 107.238682 133.99365 105.746052 154.111607 91.3786918 142.738864 93.0335247 123.152782"></polyline>
            <polyline id="Fill-316" fill="#2D2D2D" points="91.3786918 142.738864 105.746052 154.111607 105.740254 154.189175 91.3722353 142.814582 91.3786918 142.738864"></polyline>
            <polyline id="Fill-317" fill="#363636" points="107.238682 133.99365 129.300311 143.212993 128.090315 163.788164 105.746052 154.111607 107.238682 133.99365"></polyline>
            <polyline id="Fill-318" fill="#363636" points="105.746052 154.111607 128.090315 163.788164 128.083332 163.865996 105.740254 154.189175 105.746052 154.111607"></polyline>
            <polyline id="Fill-319" fill="#232323" points="87.3113788 111.582486 93.0335247 123.152782 91.3786918 142.738864 91.3722353 142.814582 85.6092424 130.681357 87.3113788 111.582486"></polyline>
            <polyline id="Fill-320" fill="#404040" points="157.788894 149.979368 190.52544 153.638404 190.161111 174.735671 156.965892 170.892561 157.788894 149.979368"></polyline>
            <polyline id="Fill-321" fill="#404040" points="156.965892 170.892561 190.161111 174.735671 190.159661 174.816014 156.961148 170.972111 156.965892 170.892561"></polyline>
            <polyline id="Fill-322" fill="#424242" points="190.52544 153.638404 224.789007 153.821025 224.910362 174.927543 190.161111 174.735671 190.52544 153.638404"></polyline>
            <polyline id="Fill-323" fill="#424242" points="190.161111 174.735671 224.910362 174.927543 224.910889 175.007754 190.159661 174.816014 190.161111 174.735671"></polyline>
            <polyline id="Fill-324" fill="#414141" points="224.789007 153.821025 257.653496 150.508204 258.237609 171.448486 224.910362 174.927543 224.789007 153.821025"></polyline>
            <polyline id="Fill-325" fill="#414141" points="224.910362 174.927543 258.237609 171.448486 258.241431 171.527639 224.910889 175.007754 224.910362 174.927543"></polyline>
            <polyline id="Fill-326" fill="#3D3D3D" points="257.653496 150.508204 286.376753 144.03545 287.354711 164.652246 258.237609 171.448486 257.653496 150.508204"></polyline>
            <polyline id="Fill-327" fill="#3D3D3D" points="258.237609 171.448486 287.354711 164.652246 287.3584 164.730607 258.241431 171.527639 258.237609 171.448486"></polyline>
            <polyline id="Fill-328" fill="#997247" points="324.723708 144.035979 330.814795 131.938036 334.630174 161.260536 328.421948 174.399764 324.723708 144.035979"></polyline>
            <polyline id="Fill-329" fill="#906B42" points="328.421948 174.399764 334.630174 161.260536 334.700141 174.574854 334.730974 180.425743 328.514842 194.006064 328.421948 174.399764"></polyline>
            <polyline id="Fill-330" fill="#2C2C2C" points="328.514842 194.006064 334.730974 180.425743 334.700141 174.574854 335.853346 180.492211 329.605986 194.197011 314.33696 206.9558 290.717478 217.698221 260.294588 225.433468 225.430306 229.396564 189.066146 229.178132 154.345619 224.801164 124.185205 216.716136 100.904358 205.718018 86.0026918 192.812286 80.10912 179.070089 81.3102871 173.576646 81.2278024 179.016175 87.0933082 192.634289 101.881129 205.418582 124.962353 216.309532 154.84896 224.313689 189.244424 228.645993 225.264678 228.862179 259.80192 224.939518 289.947708 217.281839 313.363746 206.644471 328.514842 194.006064"></polyline>
            <polyline id="Fill-331" fill="#B88955" points="328.514842 194.006064 313.363746 206.644471 313.293252 186.626679 328.421948 174.399764 328.514842 194.006064"></polyline>
            <polyline id="Fill-332" fill="#DAA264" points="313.363746 206.644471 289.947708 217.281839 289.914372 196.917304 313.293252 186.626679 313.363746 206.644471"></polyline>
            <polyline id="Fill-333" fill="#F4B670" points="289.947708 217.281839 259.80192 224.939518 259.818127 204.324968 289.914372 196.917304 289.947708 217.281839"></polyline>
            <polyline id="Fill-334" fill="#FFC278" points="259.80192 224.939518 225.264678 228.862179 225.338334 208.11945 259.818127 204.324968 259.80192 224.939518"></polyline>
            <polyline id="Fill-335" fill="#FFC67A" points="225.264678 228.862179 189.244424 228.645993 189.377901 207.9104 225.338334 208.11945 225.264678 228.862179"></polyline>
            <polyline id="Fill-336" fill="#FFC177" points="189.244424 228.645993 154.84896 224.313689 155.038438 203.719489 189.377901 207.9104 189.244424 228.645993"></polyline>
            <polyline id="Fill-337" fill="#F2B46F" points="154.84896 224.313689 124.962353 216.309532 125.198475 195.976711 155.038438 203.719489 154.84896 224.313689"></polyline>
            <polyline id="Fill-338" fill="#D7A063" points="124.962353 216.309532 101.881129 205.418582 102.150325 185.440696 125.198475 195.976711 124.962353 216.309532"></polyline>
            <polyline id="Fill-339" fill="#B48653" points="101.881129 205.418582 87.0933082 192.634289 87.3805553 173.072389 102.150325 185.440696 101.881129 205.418582"></polyline>
            <polyline id="Fill-340" fill="#8C6840" points="87.0933082 192.634289 81.2278024 179.016175 81.3102871 173.576646 81.5178165 159.896689 87.3805553 173.072389 87.0933082 192.634289"></polyline>
            <polyline id="Fill-341" fill="#C19059" points="328.421948 174.399764 313.293252 186.626679 310.016264 155.279089 324.723708 144.035979 328.421948 174.399764"></polyline>
            <polyline id="Fill-342" fill="#E2A968" points="313.293252 186.626679 289.914372 196.917304 287.3584 164.730607 310.016264 155.279089 313.293252 186.626679"></polyline>
            <polyline id="Fill-343" fill="#FCBC74" points="289.914372 196.917304 259.818127 204.324968 258.241431 171.527639 287.3584 164.730607 289.914372 196.917304"></polyline>
            <polyline id="Fill-344" fill="#FFC87C" points="259.818127 204.324968 225.338334 208.11945 224.910889 175.007754 258.241431 171.527639 259.818127 204.324968"></polyline>
            <polyline id="Fill-345" fill="#FFCC7E" points="225.338334 208.11945 189.377901 207.9104 190.159661 174.816014 224.910889 175.007754 225.338334 208.11945"></polyline>
            <polyline id="Fill-346" fill="#FFC77B" points="189.377901 207.9104 155.038438 203.719489 156.961148 170.972111 190.159661 174.816014 189.377901 207.9104"></polyline>
            <polyline id="Fill-347" fill="#FABA73" points="155.038438 203.719489 125.198475 195.976711 128.083332 163.865996 156.961148 170.972111 155.038438 203.719489"></polyline>
            <polyline id="Fill-348" fill="#BD8D57" points="102.150325 185.440696 87.3805553 173.072389 91.3722353 142.814582 105.740254 154.189175 102.150325 185.440696"></polyline>
            <polyline id="Fill-349" fill="#DFA667" points="125.198475 195.976711 102.150325 185.440696 105.740254 154.189175 128.083332 163.865996 125.198475 195.976711"></polyline>
            <polyline id="Fill-350" fill="#956F45" points="87.3805553 173.072389 81.5178165 159.896689 85.6092424 130.681357 91.3722353 142.814582 87.3805553 173.072389"></polyline>
            <polyline id="Fill-351" fill="#373737" points="303.680621 90.2922893 305.001035 107.224811 282.458466 98.1121071 303.680621 90.2922893"></polyline>
            <polyline id="Fill-352" fill="#252525" points="317.537525 80.9653821 323.374042 70.9000607 324.955614 86.8356964 321.975755 92.1775714 319.052424 97.388625 317.537525 80.9653821"></polyline>
            <polyline id="Fill-353" fill="#414141" points="224.212009 106.588807 255.273826 103.723025 224.258786 124.394264 224.212009 106.588807"></polyline>
            <polyline id="Fill-354" fill="#434343" points="224.212009 106.588807 224.258786 124.394264 207.805854 124.310882 191.354108 124.200543 191.838344 106.424554 224.212009 106.588807"></polyline>
            <polyline id="Fill-355" fill="#3D3D3D" points="255.8304 121.370043 255.273826 103.723025 282.458466 98.1121071 255.8304 121.370043"></polyline>
            <polyline id="Fill-356" fill="#242424" points="93.7747012 69.8129214 99.3480847 79.9118071 97.4931012 96.3469429 93.7747012 69.8129214"></polyline>
            <polyline id="Fill-357" fill="#2E2E2E" points="99.3480847 79.9118071 112.930127 89.3546036 111.236028 106.274571 99.3480847 79.9118071"></polyline>
            <polyline id="Fill-358" fill="#363636" points="111.236028 106.274571 112.930127 89.3546036 133.897713 97.3707857 111.236028 106.274571"></polyline>
            <polyline id="Fill-359" fill="#3D3D3D" points="132.499953 114.705946 133.897713 97.3707857 160.884969 103.247046 132.499953 114.705946"></polyline>
            <polyline id="Fill-360" fill="#414141" points="159.901741 120.887193 160.884969 103.247046 191.838344 106.424554 191.354108 124.200543 175.676875 122.562632 159.901741 120.887193"></polyline>
            <path d="M144.853948,75.138675 L144.868311,75.1111893" id="Stroke-383" stroke="#000000" stroke-width="1.2" stroke-linecap="round" stroke-linejoin="round"></path>
            <path d="M318.426409,60.9128357 L320.459802,70.7537786" id="Stroke-384" stroke="#000000" stroke-width="1.2" stroke-linecap="round" stroke-linejoin="round"></path>
            <path d="M299.817016,52.988625 L308.034786,61.3257821" id="Stroke-385" stroke="#000000" stroke-width="1.2" stroke-linecap="round" stroke-linejoin="round"></path>
            <path d="M285.870908,45.7169357 L299.817016,52.988625" id="Stroke-386" stroke="#000000" stroke-width="1.2" stroke-linecap="round" stroke-linejoin="round"></path>
            <path d="M221.252442,33.7081893 L245.303718,35.8399179" id="Stroke-387" stroke="#000000" stroke-width="1.2" stroke-linecap="round" stroke-linejoin="round"></path>
            <path d="M245.303718,35.8399179 L267.285365,39.9048964" id="Stroke-388" stroke="#000000" stroke-width="1.2" stroke-linecap="round" stroke-linejoin="round"></path>
            <path d="M267.285365,39.9048964 L285.870908,45.7169357" id="Stroke-389" stroke="#000000" stroke-width="1.2" stroke-linecap="round" stroke-linejoin="round"></path>
            <path d="M96.5335906,69.7290107 L98.8210259,59.9273143" id="Stroke-390" stroke="#000000" stroke-width="1.2" stroke-linecap="round" stroke-linejoin="round"></path>
            <polyline id="Stroke-391" stroke="#000000" stroke-width="1.2" stroke-linecap="round" stroke-linejoin="round" points="151.410692 39.2178857 172.412536 35.5289857 196.496885 33.6031357 221.252442 33.7081893"></polyline>
            <path d="M308.741835,135.032161 L286.376753,144.03545" id="Stroke-392" stroke="#000000" stroke-width="1.2" stroke-linecap="round" stroke-linejoin="round"></path>
            <path d="M323.277064,124.317093 L308.741835,135.032161" id="Stroke-393" stroke="#000000" stroke-width="1.2" stroke-linecap="round" stroke-linejoin="round"></path>
            <path d="M329.31808,112.781154 L323.277064,124.317093" id="Stroke-394" stroke="#000000" stroke-width="1.2" stroke-linecap="round" stroke-linejoin="round"></path>
            <path d="M157.788894,149.979368 L129.300311,143.212993" id="Stroke-395" stroke="#000000" stroke-width="1.2" stroke-linecap="round" stroke-linejoin="round"></path>
            <path d="M107.238682,133.99365 L93.0335247,123.152782" id="Stroke-396" stroke="#000000" stroke-width="1.2" stroke-linecap="round" stroke-linejoin="round"></path>
            <path d="M129.300311,143.212993 L107.238682,133.99365" id="Stroke-397" stroke="#000000" stroke-width="1.2" stroke-linecap="round" stroke-linejoin="round"></path>
            <path d="M93.0335247,123.152782 L87.3113788,111.582486" id="Stroke-398" stroke="#000000" stroke-width="1.2" stroke-linecap="round" stroke-linejoin="round"></path>
            <path d="M190.52544,153.638404 L157.788894,149.979368" id="Stroke-399" stroke="#000000" stroke-width="1.2" stroke-linecap="round" stroke-linejoin="round"></path>
            <path d="M224.789007,153.821025 L190.52544,153.638404" id="Stroke-400" stroke="#000000" stroke-width="1.2" stroke-linecap="round" stroke-linejoin="round"></path>
            <path d="M257.653496,150.508204 L224.789007,153.821025" id="Stroke-401" stroke="#000000" stroke-width="1.2" stroke-linecap="round" stroke-linejoin="round"></path>
            <path d="M286.376753,144.03545 L257.653496,150.508204" id="Stroke-402" stroke="#000000" stroke-width="1.2" stroke-linecap="round" stroke-linejoin="round"></path>
            <path d="M100.904358,205.718018 L86.0026918,192.812286" id="Stroke-403" stroke="#000000" stroke-width="1.2" stroke-linecap="round" stroke-linejoin="round"></path>
            <path d="M86.0026918,192.812286 L80.10912,179.070089" id="Stroke-404" stroke="#000000" stroke-width="1.2" stroke-linecap="round" stroke-linejoin="round"></path>
            <polyline id="Stroke-405" stroke="#000000" stroke-width="1.2" stroke-linecap="round" stroke-linejoin="round" points="335.853346 180.492211 329.605986 194.197011 314.33696 206.9558 290.717478 217.698221 260.294588 225.433468 225.430306 229.396564 189.066146 229.178132 154.345619 224.801164 124.185205 216.716136 100.904358 205.718018"></polyline>
            <path d="M323.374042,70.9000607 L317.537525,80.9653821" id="Stroke-406" stroke="#000000" stroke-width="1.2" stroke-linecap="round" stroke-linejoin="round"></path>
            <path d="M317.537525,80.9653821 L303.680621,90.2922893" id="Stroke-407" stroke="#000000" stroke-width="1.2" stroke-linecap="round" stroke-linejoin="round"></path>
            <path d="M255.273826,103.723025 L224.212009,106.588807" id="Stroke-408" stroke="#000000" stroke-width="1.2" stroke-linecap="round" stroke-linejoin="round"></path>
            <path d="M282.458466,98.1121071 L255.273826,103.723025" id="Stroke-409" stroke="#000000" stroke-width="1.2" stroke-linecap="round" stroke-linejoin="round"></path>
            <path d="M303.680621,90.2922893 L282.458466,98.1121071" id="Stroke-410" stroke="#000000" stroke-width="1.2" stroke-linecap="round" stroke-linejoin="round"></path>
            <path d="M99.3480847,79.9118071 L93.7747012,69.8129214" id="Stroke-411" stroke="#000000" stroke-width="1.2" stroke-linecap="round" stroke-linejoin="round"></path>
            <path d="M112.930127,89.3546036 L99.3480847,79.9118071" id="Stroke-412" stroke="#000000" stroke-width="1.2" stroke-linecap="round" stroke-linejoin="round"></path>
            <path d="M133.897713,97.3707857 L112.930127,89.3546036" id="Stroke-413" stroke="#000000" stroke-width="1.2" stroke-linecap="round" stroke-linejoin="round"></path>
            <path d="M160.884969,103.247046 L133.897713,97.3707857" id="Stroke-414" stroke="#000000" stroke-width="1.2" stroke-linecap="round" stroke-linejoin="round"></path>
            <path d="M191.838344,106.424554 L160.884969,103.247046" id="Stroke-415" stroke="#000000" stroke-width="1.2" stroke-linecap="round" stroke-linejoin="round"></path>
            <path d="M224.212009,106.588807 L191.838344,106.424554" id="Stroke-416" stroke="#000000" stroke-width="1.2" stroke-linecap="round" stroke-linejoin="round"></path>
            <path d="M145.196536,76.5297429 L145.190344,76.5023893" id="Stroke-422" stroke="#000000" stroke-width="1.32" stroke-linecap="round" stroke-linejoin="round"></path>
            <path d="M322.309384,124.16275 L328.320885,112.723936" id="Stroke-429" stroke="#000000" stroke-width="1.32" stroke-linecap="round" stroke-linejoin="round"></path>
            <path d="M328.606682,213.333146 L334.830193,199.316621" id="Stroke-430" stroke="#000000" stroke-width="1.32" stroke-linecap="round" stroke-linejoin="round"></path>
            <path d="M328.514842,194.006064 L334.730974,180.425743" id="Stroke-431" stroke="#000000" stroke-width="1.32" stroke-linecap="round" stroke-linejoin="round"></path>
            <path d="M313.433318,226.378289 L328.606682,213.333146" id="Stroke-432" stroke="#000000" stroke-width="1.32" stroke-linecap="round" stroke-linejoin="round"></path>
            <path d="M313.363746,206.644471 L328.514842,194.006064" id="Stroke-433" stroke="#000000" stroke-width="1.32" stroke-linecap="round" stroke-linejoin="round"></path>
            <path d="M307.87904,134.783996 L322.309384,124.16275" id="Stroke-434" stroke="#000000" stroke-width="1.32" stroke-linecap="round" stroke-linejoin="round"></path>
            <path d="M319.048866,97.4139964 L319.052424,97.388625" id="Stroke-435" stroke="#000000" stroke-width="1.32" stroke-linecap="round" stroke-linejoin="round"></path>
            <path d="M289.980781,237.358568 L313.433318,226.378289" id="Stroke-436" stroke="#000000" stroke-width="1.32" stroke-linecap="round" stroke-linejoin="round"></path>
            <path d="M289.947708,217.281839 L313.363746,206.644471" id="Stroke-437" stroke="#000000" stroke-width="1.32" stroke-linecap="round" stroke-linejoin="round"></path>
            <path d="M259.80192,224.939518 L289.947708,217.281839" id="Stroke-438" stroke="#000000" stroke-width="1.32" stroke-linecap="round" stroke-linejoin="round"></path>
            <path d="M259.78624,245.263486 L289.980781,237.358568" id="Stroke-439" stroke="#000000" stroke-width="1.32" stroke-linecap="round" stroke-linejoin="round"></path>
            <path d="M257.212348,150.118779 L285.687887,143.708132" id="Stroke-440" stroke="#000000" stroke-width="1.32" stroke-linecap="round" stroke-linejoin="round"></path>
            <path d="M225.264678,228.862179 L259.80192,224.939518" id="Stroke-441" stroke="#000000" stroke-width="1.32" stroke-linecap="round" stroke-linejoin="round"></path>
            <path d="M225.192075,249.312871 L259.78624,245.263486" id="Stroke-442" stroke="#000000" stroke-width="1.32" stroke-linecap="round" stroke-linejoin="round"></path>
            <path d="M189.112791,249.089814 L225.192075,249.312871" id="Stroke-443" stroke="#000000" stroke-width="1.32" stroke-linecap="round" stroke-linejoin="round"></path>
            <path d="M189.244424,228.645993 L225.264678,228.862179" id="Stroke-444" stroke="#000000" stroke-width="1.32" stroke-linecap="round" stroke-linejoin="round"></path>
            <path d="M154.84896,224.313689 L189.244424,228.645993" id="Stroke-445" stroke="#000000" stroke-width="1.32" stroke-linecap="round" stroke-linejoin="round"></path>
            <path d="M154.661986,244.617307 L189.112791,249.089814" id="Stroke-446" stroke="#000000" stroke-width="1.32" stroke-linecap="round" stroke-linejoin="round"></path>
            <path d="M129.967699,142.891225 L158.216339,149.594832" id="Stroke-447" stroke="#000000" stroke-width="1.32" stroke-linecap="round" stroke-linejoin="round"></path>
            <path d="M124.962353,216.309532 L154.84896,224.313689" id="Stroke-448" stroke="#000000" stroke-width="1.32" stroke-linecap="round" stroke-linejoin="round"></path>
            <path d="M124.729525,236.354811 L154.661986,244.617307" id="Stroke-449" stroke="#000000" stroke-width="1.32" stroke-linecap="round" stroke-linejoin="round"></path>
            <path d="M108.08224,133.754736 L129.967699,142.891225" id="Stroke-450" stroke="#000000" stroke-width="1.32" stroke-linecap="round" stroke-linejoin="round"></path>
            <path d="M101.615624,225.112757 L124.729525,236.354811" id="Stroke-451" stroke="#000000" stroke-width="1.32" stroke-linecap="round" stroke-linejoin="round"></path>
            <path d="M101.881129,205.418582 L124.962353,216.309532" id="Stroke-452" stroke="#000000" stroke-width="1.32" stroke-linecap="round" stroke-linejoin="round"></path>
            <path d="M93.9790682,123.00835 L108.08224,133.754736" id="Stroke-453" stroke="#000000" stroke-width="1.32" stroke-linecap="round" stroke-linejoin="round"></path>
            <path d="M86.8102776,211.917104 L101.615624,225.112757" id="Stroke-454" stroke="#000000" stroke-width="1.32" stroke-linecap="round" stroke-linejoin="round"></path>
            <path d="M87.0933082,192.634289 L101.881129,205.418582" id="Stroke-455" stroke="#000000" stroke-width="1.32" stroke-linecap="round" stroke-linejoin="round"></path>
            <path d="M93.9790682,123.00835 L88.2840659,111.535046" id="Stroke-456" stroke="#000000" stroke-width="1.32" stroke-linecap="round" stroke-linejoin="round"></path>
            <path d="M86.8102776,211.917104 L80.9418729,197.861861" id="Stroke-457" stroke="#000000" stroke-width="1.32" stroke-linecap="round" stroke-linejoin="round"></path>
            <path d="M87.0933082,192.634289 L81.2278024,179.016175" id="Stroke-458" stroke="#000000" stroke-width="1.32" stroke-linecap="round" stroke-linejoin="round"></path>
            <path d="M121.293365,32.04015 L121.446475,31.2426679" id="Stroke-459" stroke="#000000" stroke-width="1.32" stroke-linecap="round" stroke-linejoin="round"></path>
            <path d="M120.879624,33.8721786 L121.293365,32.04015" id="Stroke-460" stroke="#000000" stroke-width="1.32" stroke-linecap="round" stroke-linejoin="round"></path>
            <path d="M120.231736,36.6186357 L120.879624,33.8721786" id="Stroke-461" stroke="#000000" stroke-width="1.32" stroke-linecap="round" stroke-linejoin="round"></path>
            <path d="M119.393845,40.0925393 L120.231736,36.6186357" id="Stroke-462" stroke="#000000" stroke-width="1.32" stroke-linecap="round" stroke-linejoin="round"></path>
            <path d="M118.424452,44.0516714 L119.393845,40.0925393" id="Stroke-463" stroke="#000000" stroke-width="1.32" stroke-linecap="round" stroke-linejoin="round"></path>
            <path d="M117.391548,48.2176071 L118.424452,44.0516714" id="Stroke-464" stroke="#000000" stroke-width="1.32" stroke-linecap="round" stroke-linejoin="round"></path>
            <path d="M116.368264,52.2963286 L117.391548,48.2176071" id="Stroke-465" stroke="#000000" stroke-width="1.32" stroke-linecap="round" stroke-linejoin="round"></path>
            <path d="M115.426278,56.0012179 L116.368264,52.2963286" id="Stroke-466" stroke="#000000" stroke-width="1.32" stroke-linecap="round" stroke-linejoin="round"></path>
            <path d="M114.631209,59.075125 L115.426278,56.0012179" id="Stroke-467" stroke="#000000" stroke-width="1.32" stroke-linecap="round" stroke-linejoin="round"></path>
            <path d="M114.037082,61.3092643 L114.631209,59.075125" id="Stroke-468" stroke="#000000" stroke-width="1.32" stroke-linecap="round" stroke-linejoin="round"></path>
            <path d="M113.683294,62.5564286 L114.037082,61.3092643" id="Stroke-469" stroke="#000000" stroke-width="1.32" stroke-linecap="round" stroke-linejoin="round"></path>
            <path d="M113.591849,62.7406357 L113.683294,62.5564286" id="Stroke-470" stroke="#000000" stroke-width="1.32" stroke-linecap="round" stroke-linejoin="round"></path>
            <path d="M144.751699,71.0921964 L143.686381,70.6670929" id="Stroke-471" stroke="#000000" stroke-width="1.32" stroke-linecap="round" stroke-linejoin="round"></path>
            <path d="M160.325496,42.5143214 L153.611558,39.803675" id="Stroke-472" stroke="#000000" stroke-width="1.32" stroke-linecap="round" stroke-linejoin="round"></path>
            <path d="M144.904809,71.2368929 L144.838136,71.1550964" id="Stroke-473" stroke="#000000" stroke-width="1.32" stroke-linecap="round" stroke-linejoin="round"></path>
            <path d="M172.010918,53.7259821 L166.933628,47.4021536" id="Stroke-474" stroke="#000000" stroke-width="1.32" stroke-linecap="round" stroke-linejoin="round"></path>
            <path d="M144.947633,71.3317714 L144.904809,71.2368929" id="Stroke-475" stroke="#000000" stroke-width="1.32" stroke-linecap="round" stroke-linejoin="round"></path>
            <polyline id="Stroke-476" stroke="#000000" stroke-width="1.32" stroke-linecap="round" stroke-linejoin="round" points="175.61376 62.2850071 175.215567 61.0378429 172.010918 53.7259821"></polyline>
            <path d="M176.616885,69.2293786 L175.61376,62.2850071" id="Stroke-477" stroke="#000000" stroke-width="1.32" stroke-linecap="round" stroke-linejoin="round"></path>
            <path d="M144.861986,75.0835714 L144.788198,71.1187571" id="Stroke-478" stroke="#000000" stroke-width="1.32" stroke-linecap="round" stroke-linejoin="round"></path>
            <path d="M176.658127,75.28575 L176.616885,69.2293786" id="Stroke-479" stroke="#000000" stroke-width="1.32" stroke-linecap="round" stroke-linejoin="round"></path>
            <polyline id="Stroke-480" stroke="#000000" stroke-width="1.32" stroke-linecap="round" stroke-linejoin="round" points="3.51403294 18.0783321 2.60485647 22.2281464 1.86236235 26.0228929 1.33741176 29.1989464 1.06479059 31.5399893 1.06136471 32.892075 1.32476235 33.1718214"></polyline>
            <polyline id="Stroke-481" stroke="#000000" stroke-width="1.32" stroke-linecap="round" stroke-linejoin="round" points="8.66893176 1.22615357 8.17534118 1.94091429 7.45985882 3.71083571 6.57071059 6.42055714 5.56929882 9.88573929 4.52585412 13.8650893 3.51403294 18.0783321"></polyline>
            <path d="M8.66893176,1.22615357 L121.446475,31.2426679" id="Stroke-482" stroke="#000000" stroke-width="1.32" stroke-linecap="round" stroke-linejoin="round"></path>
            <path d="M221.160207,43.3355893 L196.491746,43.2286857" id="Stroke-501" stroke="#000000" stroke-width="1.32" stroke-linecap="round" stroke-linejoin="round"></path>
            <path d="M176.658127,75.28575 L176.008395,76.6999429" id="Stroke-502" stroke="#000000" stroke-width="1.32" stroke-linecap="round" stroke-linejoin="round"></path>
            <path d="M308.034786,61.3257821 L309.687642,70.2275857" id="Stroke-503" stroke="#000000" stroke-width="1.32" stroke-linecap="round" stroke-linejoin="round"></path>
            <path d="M320.459802,70.7537786 L314.708009,80.5981571" id="Stroke-504" stroke="#000000" stroke-width="1.32" stroke-linecap="round" stroke-linejoin="round"></path>
            <polyline id="Stroke-505" stroke="#000000" stroke-width="1.32" stroke-linecap="round" stroke-linejoin="round" points="334.830193 199.316621 335.024546 236.29865 330.882259 271.956475"></polyline>
            <path d="M144.592791,36.83165 L168.865035,32.6001714" id="Stroke-508" stroke="#000000" stroke-width="1.32" stroke-linecap="round" stroke-linejoin="round"></path>
            <path d="M309.175868,51.7293036 L318.426409,60.9128357" id="Stroke-509" stroke="#000000" stroke-width="1.32" stroke-linecap="round" stroke-linejoin="round"></path>
            <path d="M319.048866,97.4139964 L305.001035,107.224811" id="Stroke-510" stroke="#000000" stroke-width="1.32" stroke-linecap="round" stroke-linejoin="round"></path>
            <path d="M314.708009,80.5981571 L301.149948,89.7145607" id="Stroke-511" stroke="#000000" stroke-width="1.32" stroke-linecap="round" stroke-linejoin="round"></path>
            <path d="M304.310852,79.099525 L291.935906,87.2861714" id="Stroke-512" stroke="#000000" stroke-width="1.32" stroke-linecap="round" stroke-linejoin="round"></path>
            <path d="M143.58176,37.134125 L144.592791,36.83165" id="Stroke-513" stroke="#000000" stroke-width="1.32" stroke-linecap="round" stroke-linejoin="round"></path>
            <path d="M305.001035,107.224811 L283.452104,115.457575" id="Stroke-514" stroke="#000000" stroke-width="1.32" stroke-linecap="round" stroke-linejoin="round"></path>
            <path d="M301.149948,89.7145607 L280.435087,97.3542679" id="Stroke-515" stroke="#000000" stroke-width="1.32" stroke-linecap="round" stroke-linejoin="round"></path>
            <path d="M291.935906,87.2861714 L273.186974,94.1249607" id="Stroke-516" stroke="#000000" stroke-width="1.32" stroke-linecap="round" stroke-linejoin="round"></path>
            <path d="M115.264207,88.8322429 L101.999454,79.6058964" id="Stroke-517" stroke="#000000" stroke-width="1.32" stroke-linecap="round" stroke-linejoin="round"></path>
            <path d="M283.452104,115.457575 L255.8304,121.370043" id="Stroke-518" stroke="#000000" stroke-width="1.32" stroke-linecap="round" stroke-linejoin="round"></path>
            <path d="M280.435087,97.3542679 L253.934569,102.835025" id="Stroke-519" stroke="#000000" stroke-width="1.32" stroke-linecap="round" stroke-linejoin="round"></path>
            <path d="M273.186974,94.1249607 L249.312791,99.0192679" id="Stroke-520" stroke="#000000" stroke-width="1.32" stroke-linecap="round" stroke-linejoin="round"></path>
            <path d="M255.8304,121.370043 L224.258786,124.394264" id="Stroke-521" stroke="#000000" stroke-width="1.32" stroke-linecap="round" stroke-linejoin="round"></path>
            <path d="M253.934569,102.835025 L223.676913,105.636586" id="Stroke-522" stroke="#000000" stroke-width="1.32" stroke-linecap="round" stroke-linejoin="round"></path>
            <path d="M249.312791,99.0192679 L222.122485,101.517032" id="Stroke-523" stroke="#000000" stroke-width="1.32" stroke-linecap="round" stroke-linejoin="round"></path>
            <path d="M223.676913,105.636586 L192.150758,105.482243" id="Stroke-524" stroke="#000000" stroke-width="1.32" stroke-linecap="round" stroke-linejoin="round"></path>
            <path d="M222.122485,101.517032 L193.814287,101.379471" id="Stroke-525" stroke="#000000" stroke-width="1.32" stroke-linecap="round" stroke-linejoin="round"></path>
            <path d="M192.150758,105.482243 L162.005496,102.387589" id="Stroke-526" stroke="#000000" stroke-width="1.32" stroke-linecap="round" stroke-linejoin="round"></path>
            <polyline id="Stroke-527" stroke="#000000" stroke-width="1.32" stroke-linecap="round" stroke-linejoin="round" points="193.814287 101.379471 166.721224 98.6200643 143.026504 93.501775"></polyline>
            <path d="M162.005496,102.387589 L135.711191,96.6570821" id="Stroke-528" stroke="#000000" stroke-width="1.32" stroke-linecap="round" stroke-linejoin="round"></path>
            <path d="M159.901741,120.887193 L132.499953,114.705946" id="Stroke-529" stroke="#000000" stroke-width="1.32" stroke-linecap="round" stroke-linejoin="round"></path>
            <path d="M143.026504,93.501775 L124.51264,86.4949" id="Stroke-530" stroke="#000000" stroke-width="1.32" stroke-linecap="round" stroke-linejoin="round"></path>
            <path d="M135.711191,96.6570821 L115.264207,88.8322429" id="Stroke-531" stroke="#000000" stroke-width="1.32" stroke-linecap="round" stroke-linejoin="round"></path>
            <path d="M132.499953,114.705946 L111.236028,106.274571" id="Stroke-532" stroke="#000000" stroke-width="1.32" stroke-linecap="round" stroke-linejoin="round"></path>
            <path d="M124.51264,86.4949 L112.397666,78.2067679" id="Stroke-533" stroke="#000000" stroke-width="1.32" stroke-linecap="round" stroke-linejoin="round"></path>
            <path d="M222.507369,30.6132714 L248.934099,32.9396464" id="Stroke-534" stroke="#000000" stroke-width="1.32" stroke-linecap="round" stroke-linejoin="round"></path>
            <path d="M111.236028,106.274571 L97.4931012,96.3469429" id="Stroke-535" stroke="#000000" stroke-width="1.32" stroke-linecap="round" stroke-linejoin="round"></path>
            <path d="M248.934099,32.9396464 L273.135718,37.3814964" id="Stroke-536" stroke="#000000" stroke-width="1.32" stroke-linecap="round" stroke-linejoin="round"></path>
            <path d="M273.135718,37.3814964 L293.672169,43.7453643" id="Stroke-537" stroke="#000000" stroke-width="1.32" stroke-linecap="round" stroke-linejoin="round"></path>
            <path d="M293.672169,43.7453643 L309.175868,51.7293036" id="Stroke-538" stroke="#000000" stroke-width="1.32" stroke-linecap="round" stroke-linejoin="round"></path>
            <path d="M195.325628,30.4985714 L222.507369,30.6132714" id="Stroke-539" stroke="#000000" stroke-width="1.32" stroke-linecap="round" stroke-linejoin="round"></path>
            <path d="M168.865035,32.6001714 L195.325628,30.4985714" id="Stroke-540" stroke="#000000" stroke-width="1.32" stroke-linecap="round" stroke-linejoin="round"></path>
            <path d="M98.8210259,59.9273143 L99.7012141,59.0822607" id="Stroke-541" stroke="#000000" stroke-width="1.32" stroke-linecap="round" stroke-linejoin="round"></path>
            <path d="M101.999454,79.6058964 L96.5335906,69.7290107" id="Stroke-542" stroke="#000000" stroke-width="1.32" stroke-linecap="round" stroke-linejoin="round"></path>
            <path d="M107.277289,69.3021893 L108.931859,61.513425" id="Stroke-543" stroke="#000000" stroke-width="1.32" stroke-linecap="round" stroke-linejoin="round"></path>
            <polyline id="Stroke-544" stroke="#000000" stroke-width="1.32" stroke-linecap="round" stroke-linejoin="round" points="80.9418729 197.861861 80.3821365 234.754957 84.1554824 270.381729"></polyline>
            <path d="M97.4931012,96.3469429 L91.89376,85.7356071" id="Stroke-547" stroke="#000000" stroke-width="1.32" stroke-linecap="round" stroke-linejoin="round"></path>
            <path d="M326.939068,101.285386 L329.31808,112.781154" id="Stroke-548" stroke="#000000" stroke-width="1.32" stroke-linecap="round" stroke-linejoin="round"></path>
            <path d="M158.216339,149.594832 L190.668932,153.220436" id="Stroke-549" stroke="#000000" stroke-width="1.32" stroke-linecap="round" stroke-linejoin="round"></path>
            <path d="M326.817186,101.156811 L326.939068,101.285386" id="Stroke-550" stroke="#000000" stroke-width="1.32" stroke-linecap="round" stroke-linejoin="round"></path>
            <path d="M190.668932,153.220436 L224.632734,153.401207" id="Stroke-551" stroke="#000000" stroke-width="1.32" stroke-linecap="round" stroke-linejoin="round"></path>
            <path d="M87.3113788,111.582486 L89.7392753,101.134346" id="Stroke-552" stroke="#000000" stroke-width="1.32" stroke-linecap="round" stroke-linejoin="round"></path>
            <path d="M224.632734,153.401207 L257.212348,150.118779" id="Stroke-553" stroke="#000000" stroke-width="1.32" stroke-linecap="round" stroke-linejoin="round"></path>
            <path d="M330.814795,131.938036 L324.723708,144.035979" id="Stroke-554" stroke="#000000" stroke-width="1.32" stroke-linecap="round" stroke-linejoin="round"></path>
            <path d="M329.31808,112.781154 L330.809129,131.865357" id="Stroke-555" stroke="#000000" stroke-width="1.32" stroke-linecap="round" stroke-linejoin="round"></path>
            <path d="M324.723708,144.035979 L310.016264,155.279089" id="Stroke-556" stroke="#000000" stroke-width="1.32" stroke-linecap="round" stroke-linejoin="round"></path>
            <path d="M128.083332,163.865996 L105.740254,154.189175" id="Stroke-557" stroke="#000000" stroke-width="1.32" stroke-linecap="round" stroke-linejoin="round"></path>
            <path d="M91.3722353,142.814582 L85.6092424,130.681357" id="Stroke-558" stroke="#000000" stroke-width="1.32" stroke-linecap="round" stroke-linejoin="round"></path>
            <path d="M105.740254,154.189175 L91.3722353,142.814582" id="Stroke-559" stroke="#000000" stroke-width="1.32" stroke-linecap="round" stroke-linejoin="round"></path>
            <path d="M156.961148,170.972111 L128.083332,163.865996" id="Stroke-560" stroke="#000000" stroke-width="1.32" stroke-linecap="round" stroke-linejoin="round"></path>
            <polyline id="Stroke-561" stroke="#000000" stroke-width="1.32" stroke-linecap="round" stroke-linejoin="round" points="224.910889 175.007754 190.159661 174.816014 156.961148 170.972111"></polyline>
            <polyline id="Stroke-562" stroke="#000000" stroke-width="1.32" stroke-linecap="round" stroke-linejoin="round" points="310.016264 155.279089 287.3584 164.730607 258.241431 171.527639 224.910889 175.007754"></polyline>
            <path d="M80.10912,179.070089 L80.9418729,197.861861" id="Stroke-563" stroke="#000000" stroke-width="1.32" stroke-linecap="round" stroke-linejoin="round"></path>
            <path d="M80.10912,179.070089 L81.3102871,173.576646" id="Stroke-564" stroke="#000000" stroke-width="1.32" stroke-linecap="round" stroke-linejoin="round"></path>
            <path d="M335.853346,180.492211 L334.830193,199.316621" id="Stroke-565" stroke="#000000" stroke-width="1.32" stroke-linecap="round" stroke-linejoin="round"></path>
            <path d="M334.700141,174.574854 L335.853346,180.492211" id="Stroke-566" stroke="#000000" stroke-width="1.32" stroke-linecap="round" stroke-linejoin="round"></path>
            <polyline id="Stroke-567" stroke="#000000" stroke-width="1.32" stroke-linecap="round" stroke-linejoin="round" points="222.845741 29.9266571 249.904151 32.3007357 274.699765 36.8309893 295.761562 43.3221107"></polyline>
            <path d="M323.374042,70.9000607 L324.955614,86.8356964" id="Stroke-568" stroke="#000000" stroke-width="1.32" stroke-linecap="round" stroke-linejoin="round"></path>
            <path d="M195.022438,29.80535 L222.845741,29.9266571" id="Stroke-569" stroke="#000000" stroke-width="1.32" stroke-linecap="round" stroke-linejoin="round"></path>
            <path d="M167.938071,31.9418357 L195.022438,29.80535" id="Stroke-570" stroke="#000000" stroke-width="1.32" stroke-linecap="round" stroke-linejoin="round"></path>
            <path d="M321.225751,60.845575 L323.374042,70.9000607" id="Stroke-571" stroke="#000000" stroke-width="1.32" stroke-linecap="round" stroke-linejoin="round"></path>
            <polyline id="Stroke-572" stroke="#000000" stroke-width="1.32" stroke-linecap="round" stroke-linejoin="round" points="295.761562 43.3221107 311.688885 51.4689821 321.225751 60.845575"></polyline>
            <path d="M143.086984,36.2491643 L167.938071,31.9418357" id="Stroke-573" stroke="#000000" stroke-width="1.32" stroke-linecap="round" stroke-linejoin="round"></path>
            <path d="M141.750626,36.6467821 L143.086984,36.2491643" id="Stroke-574" stroke="#000000" stroke-width="1.32" stroke-linecap="round" stroke-linejoin="round"></path>
            <path d="M96.1514729,59.8008536 L97.5102306,58.5051929" id="Stroke-575" stroke="#000000" stroke-width="1.32" stroke-linecap="round" stroke-linejoin="round"></path>
            <path d="M93.7747012,69.8129214 L96.1514729,59.8008536" id="Stroke-576" stroke="#000000" stroke-width="1.32" stroke-linecap="round" stroke-linejoin="round"></path>
            <path d="M93.7747012,69.8129214 L91.89376,85.7356071" id="Stroke-577" stroke="#000000" stroke-width="1.32" stroke-linecap="round" stroke-linejoin="round"></path>
            <path d="M114.569807,62.9983143 L113.591849,62.7406357" id="Stroke-578" stroke="#000000" stroke-width="1.32" stroke-linecap="round" stroke-linejoin="round"></path>
            <path d="M144.838136,71.1550964 L144.813496,71.1372571" id="Stroke-579" stroke="#000000" stroke-width="1.32" stroke-linecap="round" stroke-linejoin="round"></path>
            <polyline id="Stroke-580" stroke="#000000" stroke-width="1.32" stroke-linecap="round" stroke-linejoin="round" points="166.933628 47.4021536 165.607153 46.4209929 160.325496 42.5143214"></polyline>
            <path d="M108.931859,61.513425 L113.591849,62.7406357" id="Stroke-581" stroke="#000000" stroke-width="1.32" stroke-linecap="round" stroke-linejoin="round"></path>
            <polyline id="Stroke-603" stroke="#000000" stroke-width="1.32" stroke-linecap="round" stroke-linejoin="round" points="109.480395 70.5032357 109.379859 70.987275 109.079172 72.4356929"></polyline>
            <polyline id="Stroke-604" stroke="#000000" stroke-width="1.32" stroke-linecap="round" stroke-linejoin="round" points="116.475388 63.5001929 113.642974 66.3359786 109.480395 70.5032357"></polyline>
            <polyline id="Stroke-605" stroke="#000000" stroke-width="1.32" stroke-linecap="round" stroke-linejoin="round" points="172.492254 45.1869107 171.234692 45.4123464 165.607153 46.4209929"></polyline>
            <polyline id="Stroke-606" stroke="#000000" stroke-width="1.32" stroke-linecap="round" stroke-linejoin="round" points="196.491746 43.2286857 196.077478 43.2625143 172.492254 45.1869107"></polyline>
            <polyline id="Stroke-607" stroke="#000000" stroke-width="1.32" stroke-linecap="round" stroke-linejoin="round" points="245.126099 45.5031286 221.592527 43.3747036 221.160207 43.3355893"></polyline>
            <polyline id="Stroke-608" stroke="#000000" stroke-width="1.32" stroke-linecap="round" stroke-linejoin="round" points="267.028028 49.6361607 246.400791 45.7436286 245.126099 45.5031286"></polyline>
            <polyline id="Stroke-609" stroke="#000000" stroke-width="1.32" stroke-linecap="round" stroke-linejoin="round" points="285.543341 55.5449286 269.135341 50.3086357 267.028028 49.6361607"></polyline>
            <polyline id="Stroke-610" stroke="#000000" stroke-width="1.32" stroke-linecap="round" stroke-linejoin="round" points="299.433449 62.9368679 288.511605 57.1245643 285.543341 55.5449286"></polyline>
            <polyline id="Stroke-611" stroke="#000000" stroke-width="1.32" stroke-linecap="round" stroke-linejoin="round" points="307.614193 71.4111893 303.658353 67.3134393 299.433449 62.9368679"></polyline>
            <polyline id="Stroke-612" stroke="#000000" stroke-width="1.32" stroke-linecap="round" stroke-linejoin="round" points="307.926212 73.1338036 307.681525 71.7830393 307.614193 71.4111893"></polyline>
            <polyline id="Stroke-613" stroke="#000000" stroke-width="1.32" stroke-linecap="round" stroke-linejoin="round" points="176.008395 76.6999429 175.987576 76.7159321 174.309948 78.0196536 174.269892 78.0368321 171.672546 79.1529107 171.616151 79.1673143 168.273807 80.0195036 168.205026 80.0288857 164.348141 80.557325 164.271981 80.5604964 160.169487 80.7277893 160.091746 80.723825 156.031285 80.518475 155.957496 80.507375 152.224207 79.9445786 152.159774 79.9266071 149.013628 79.0473286 148.963162 79.0230143 146.619859 77.8909464 146.587049 77.8601571 145.203388 76.5570964 145.196536 76.5297429"></polyline>
            <path d="M307.926212,73.1338036 L304.310852,79.099525" id="Stroke-614" stroke="#000000" stroke-width="1.32" stroke-linecap="round" stroke-linejoin="round"></path>
            <path d="M324.955614,86.8356964 L326.817186,101.156811" id="Stroke-615" stroke="#000000" stroke-width="1.32" stroke-linecap="round" stroke-linejoin="round"></path>
            <polyline id="Stroke-616" stroke="#000000" stroke-width="1.32" stroke-linecap="round" stroke-linejoin="round" points="330.809129 131.865357 330.814795 131.938036 334.630174 161.260536 334.700141 174.574854 334.730974 180.425743"></polyline>
            <polyline id="Stroke-618" stroke="#000000" stroke-width="1.32" stroke-linecap="round" stroke-linejoin="round" points="224.258786 124.394264 207.805854 124.310882 191.353449 124.227632 175.676875 122.562632 159.901741 120.887193"></polyline>
            <path d="M112.397666,78.2067679 L109.079172,72.4356929" id="Stroke-619" stroke="#000000" stroke-width="1.32" stroke-linecap="round" stroke-linejoin="round"></path>
            <path d="M91.89376,85.7356071 L89.7392753,101.134346" id="Stroke-620" stroke="#000000" stroke-width="1.32" stroke-linecap="round" stroke-linejoin="round"></path>
            <polyline id="Stroke-621" stroke="#000000" stroke-width="1.32" stroke-linecap="round" stroke-linejoin="round" points="85.6092424 130.681357 81.5178165 159.896689 81.3102871 173.576646 81.2278024 179.016175"></polyline>
            <polyline id="Stroke-623" stroke="#000000" stroke-width="1.32" stroke-linecap="round" stroke-linejoin="round" points="143.686381 70.6670929 116.475388 63.5001929 114.569807 62.9983143"></polyline>
            <polyline id="Stroke-624" stroke="#000000" stroke-width="1.32" stroke-linecap="round" stroke-linejoin="round" points="153.611558 39.803675 151.410692 39.2178857 143.58176 37.134125 141.750626 36.6467821 121.446475 31.2426679"></polyline>
            <polyline id="Stroke-625" stroke="#000000" stroke-width="1.32" stroke-linecap="round" stroke-linejoin="round" points="144.813496 71.1372571 144.788198 71.1187571 144.751699 71.0921964"></polyline>
            <path d="M99.7012141,59.0822607 L108.931859,61.513425" id="Stroke-626" stroke="#000000" stroke-width="1.32" stroke-linecap="round" stroke-linejoin="round"></path>
            <polyline id="Stroke-632" stroke="#000000" stroke-width="1.32" stroke-linecap="round" stroke-linejoin="round" points="309.687642 70.2275857 308.334682 72.4600071 307.926212 73.1338036"></polyline>
            <path d="M324.955614,86.8356964 L321.975755,92.1775714" id="Stroke-633" stroke="#000000" stroke-width="1.32" stroke-linecap="round" stroke-linejoin="round"></path>
            <polyline id="Stroke-634" stroke="#000000" stroke-width="1.32" stroke-linecap="round" stroke-linejoin="round" points="109.079172 72.4356929 108.660555 71.70785 107.277289 69.3021893"></polyline>
            <polyline id="Stroke-635" stroke="#000000" stroke-width="1.32" stroke-linecap="round" stroke-linejoin="round" points="1.32476235 33.1718214 97.5102306 58.5051929 99.7012141 59.0822607"></polyline>
            <polyline id="Stroke-637" stroke="#000000" stroke-width="1.32" stroke-linecap="round" stroke-linejoin="round" points="145.190344 76.5023893 144.870024 75.2040857 144.853948 75.138675"></polyline>
            <path d="M87.3113788,111.582486 L85.6092424,130.681357" id="Stroke-640" stroke="#000000" stroke-width="1.32" stroke-linecap="round" stroke-linejoin="round"></path>
            <path d="M328.320885,112.723936 L326.817186,101.156811" id="Stroke-641" stroke="#000000" stroke-width="1.32" stroke-linecap="round" stroke-linejoin="round"></path>
            <path d="M88.2840659,111.535046 L89.7392753,101.134346" id="Stroke-642" stroke="#000000" stroke-width="1.32" stroke-linecap="round" stroke-linejoin="round"></path>
            <path d="M319.052424,97.388625 L321.975755,92.1775714" id="Stroke-643" stroke="#000000" stroke-width="1.32" stroke-linecap="round" stroke-linejoin="round"></path>
            <path d="M324.955614,86.8356964 L328.32128,112.726843" id="Stroke-645" stroke="#000000" stroke-width="1.32" stroke-linecap="round" stroke-linejoin="round"></path>
            <path d="M335.024546,236.29865 L330.882259,271.956475" id="Stroke-646" stroke="#000000" stroke-width="1.32" stroke-linecap="round" stroke-linejoin="round"></path>
            <polyline id="Stroke-649" stroke="#000000" stroke-width="1.32" stroke-linecap="round" stroke-linejoin="round" points="330.809129 131.865357 334.630174 161.260536 334.730974 180.425743"></polyline>
            <path d="M334.830193,199.316621 L335.024546,236.29865" id="Stroke-650" stroke="#000000" stroke-width="1.32" stroke-linecap="round" stroke-linejoin="round"></path>
            <path d="M324.718306,143.961318 L328.421948,174.399764" id="Stroke-651" stroke="#000000" stroke-width="1.32" stroke-linecap="round" stroke-linejoin="round"></path>
            <path d="M319.054795,97.4139964 L322.309515,124.164204" id="Stroke-654" stroke="#000000" stroke-width="1.32" stroke-linecap="round" stroke-linejoin="round"></path>
            <path d="M328.786409,251.17265 L324.754014,287.118546" id="Stroke-655" stroke="#000000" stroke-width="1.32" stroke-linecap="round" stroke-linejoin="round"></path>
            <path d="M328.421948,174.399764 L328.514842,194.006064" id="Stroke-657" stroke="#000000" stroke-width="1.32" stroke-linecap="round" stroke-linejoin="round"></path>
            <path d="M328.606682,213.333146 L328.786409,251.17265" id="Stroke-658" stroke="#000000" stroke-width="1.32" stroke-linecap="round" stroke-linejoin="round"></path>
            <path d="M310.01152,155.202579 L313.293252,186.626679" id="Stroke-659" stroke="#000000" stroke-width="1.32" stroke-linecap="round" stroke-linejoin="round"></path>
            <path d="M305.001035,107.224811 L307.879172,134.785186" id="Stroke-662" stroke="#000000" stroke-width="1.32" stroke-linecap="round" stroke-linejoin="round"></path>
            <path d="M313.293252,186.626679 L313.363746,206.644471" id="Stroke-665" stroke="#000000" stroke-width="1.32" stroke-linecap="round" stroke-linejoin="round"></path>
            <path d="M313.433318,226.378289 L313.569562,265.017521" id="Stroke-666" stroke="#000000" stroke-width="1.32" stroke-linecap="round" stroke-linejoin="round"></path>
            <path d="M287.354711,164.652246 L289.914372,196.917304" id="Stroke-667" stroke="#000000" stroke-width="1.32" stroke-linecap="round" stroke-linejoin="round"></path>
            <path d="M283.452104,115.457575 L285.693026,143.706943" id="Stroke-668" stroke="#000000" stroke-width="1.32" stroke-linecap="round" stroke-linejoin="round"></path>
            <path d="M289.914372,196.917304 L289.947708,217.281839" id="Stroke-673" stroke="#000000" stroke-width="1.32" stroke-linecap="round" stroke-linejoin="round"></path>
            <path d="M289.980781,237.358568 L290.045346,276.672521" id="Stroke-674" stroke="#000000" stroke-width="1.32" stroke-linecap="round" stroke-linejoin="round"></path>
            <path d="M258.237609,171.448486 L259.818127,204.324968" id="Stroke-675" stroke="#000000" stroke-width="1.32" stroke-linecap="round" stroke-linejoin="round"></path>
            <path d="M255.8304,121.370043 L257.21248,150.119571" id="Stroke-676" stroke="#000000" stroke-width="1.32" stroke-linecap="round" stroke-linejoin="round"></path>
            <path d="M259.818127,204.324968 L259.80192,224.939518" id="Stroke-681" stroke="#000000" stroke-width="1.32" stroke-linecap="round" stroke-linejoin="round"></path>
            <path d="M259.78624,245.263486 L259.755275,285.063725" id="Stroke-682" stroke="#000000" stroke-width="1.32" stroke-linecap="round" stroke-linejoin="round"></path>
            <path d="M224.910362,174.927543 L225.338334,208.11945" id="Stroke-683" stroke="#000000" stroke-width="1.32" stroke-linecap="round" stroke-linejoin="round"></path>
            <path d="M224.258786,124.394264 L224.632734,153.401207" id="Stroke-687" stroke="#000000" stroke-width="1.32" stroke-linecap="round" stroke-linejoin="round"></path>
            <path d="M225.338334,208.11945 L225.264678,228.862179" id="Stroke-689" stroke="#000000" stroke-width="1.32" stroke-linecap="round" stroke-linejoin="round"></path>
            <path d="M225.192075,249.312871 L225.049901,289.362596" id="Stroke-690" stroke="#000000" stroke-width="1.32" stroke-linecap="round" stroke-linejoin="round"></path>
            <path d="M190.161111,174.735407 L189.377901,207.9104" id="Stroke-691" stroke="#000000" stroke-width="1.32" stroke-linecap="round" stroke-linejoin="round"></path>
            <path d="M191.353449,124.227632 L190.668932,153.220436" id="Stroke-694" stroke="#000000" stroke-width="1.32" stroke-linecap="round" stroke-linejoin="round"></path>
            <path d="M189.377901,207.9104 L189.244424,228.645993" id="Stroke-697" stroke="#000000" stroke-width="1.32" stroke-linecap="round" stroke-linejoin="round"></path>
            <path d="M189.112791,249.089814 L188.854795,289.125664" id="Stroke-698" stroke="#000000" stroke-width="1.32" stroke-linecap="round" stroke-linejoin="round"></path>
            <path d="M156.965892,170.892561 L155.038438,203.719489" id="Stroke-699" stroke="#000000" stroke-width="1.32" stroke-linecap="round" stroke-linejoin="round"></path>
            <path d="M159.901741,120.887193 L158.216207,149.595757" id="Stroke-702" stroke="#000000" stroke-width="1.32" stroke-linecap="round" stroke-linejoin="round"></path>
            <path d="M155.038438,203.719489 L154.84896,224.313689" id="Stroke-705" stroke="#000000" stroke-width="1.32" stroke-linecap="round" stroke-linejoin="round"></path>
            <path d="M154.661986,244.617307 L154.296075,284.377904" id="Stroke-706" stroke="#000000" stroke-width="1.32" stroke-linecap="round" stroke-linejoin="round"></path>
            <path d="M124.729525,236.354811 L124.273751,275.607054" id="Stroke-707" stroke="#000000" stroke-width="1.32" stroke-linecap="round" stroke-linejoin="round"></path>
            <path d="M125.198475,195.976711 L124.962353,216.309532" id="Stroke-708" stroke="#000000" stroke-width="1.32" stroke-linecap="round" stroke-linejoin="round"></path>
            <path d="M132.499953,114.705946 L129.967699,142.892018" id="Stroke-711" stroke="#000000" stroke-width="1.32" stroke-linecap="round" stroke-linejoin="round"></path>
            <path d="M128.090315,163.788164 L125.198475,195.976711" id="Stroke-714" stroke="#000000" stroke-width="1.32" stroke-linecap="round" stroke-linejoin="round"></path>
            <path d="M101.615624,225.112757 L101.095944,263.674421" id="Stroke-715" stroke="#000000" stroke-width="1.32" stroke-linecap="round" stroke-linejoin="round"></path>
            <path d="M102.150325,185.440696 L101.881129,205.418582" id="Stroke-716" stroke="#000000" stroke-width="1.32" stroke-linecap="round" stroke-linejoin="round"></path>
            <path d="M111.236028,106.274571 L108.082108,133.755793" id="Stroke-719" stroke="#000000" stroke-width="1.32" stroke-linecap="round" stroke-linejoin="round"></path>
            <path d="M105.74592,154.111607 L102.150325,185.440696" id="Stroke-722" stroke="#000000" stroke-width="1.32" stroke-linecap="round" stroke-linejoin="round"></path>
            <path d="M86.8102776,211.917104 L86.2559435,249.669921" id="Stroke-723" stroke="#000000" stroke-width="1.32" stroke-linecap="round" stroke-linejoin="round"></path>
            <path d="M87.3805553,173.072389 L87.0933082,192.634289" id="Stroke-724" stroke="#000000" stroke-width="1.32" stroke-linecap="round" stroke-linejoin="round"></path>
            <path d="M86.2559435,249.669921 L89.9240094,285.587671" id="Stroke-726" stroke="#000000" stroke-width="1.32" stroke-linecap="round" stroke-linejoin="round"></path>
            <path d="M97.4931012,96.3469429 L93.9788047,123.009804" id="Stroke-727" stroke="#000000" stroke-width="1.32" stroke-linecap="round" stroke-linejoin="round"></path>
            <path d="M91.37856,142.738732 L87.3805553,173.072389" id="Stroke-730" stroke="#000000" stroke-width="1.32" stroke-linecap="round" stroke-linejoin="round"></path>
            <polyline id="Stroke-732" stroke="#000000" stroke-width="1.32" stroke-linecap="round" stroke-linejoin="round" points="80.9418729 197.861861 80.3821365 234.754957 84.1554824 270.381729"></polyline>
            <path d="M91.89376,85.7356071 L88.2836706,111.538218" id="Stroke-734" stroke="#000000" stroke-width="1.32" stroke-linecap="round" stroke-linejoin="round"></path>
            <path d="M81.5178165,159.896689 L81.2278024,179.016175" id="Stroke-735" stroke="#000000" stroke-width="1.32" stroke-linecap="round" stroke-linejoin="round"></path>
            <path d="M85.6156988,130.607357 L81.5178165,159.896689" id="Stroke-737" stroke="#000000" stroke-width="1.32" stroke-linecap="round" stroke-linejoin="round"></path>
        </g>
    </g>
</svg>