<?xml version="1.0" encoding="UTF-8"?>
<svg viewBox="0 0 400 300" width="1600" height="1200" version="1.1" xmlns="http://www.w3.org/2000/svg" xmlns:xlink="http://www.w3.org/1999/xlink">
    <!-- Generator: Sketch 52.5 (67469) - http://www.bohemiancoding.com/sketch -->
    <title>05</title>
    <desc>Created with Sketch.</desc>
    <g id="05" stroke="none" stroke-width="1" fill="none" fill-rule="evenodd">
        <rect fill="#EDEDED" x="0" y="0" width="400" height="300"></rect>
        <g id="Group-787" transform="translate(74.000000, 24.000000)">
            <polyline id="Fill-51" fill="#CF9B60" points="204.216618 155.684843 205.992063 155.427073 206.083729 153.769585 210.449492 149.291017 213.918838 140.141707 215.218014 136.715537 214.72898 133.399793 213.36796 124.171042 205.362613 112.488199 192.007053 102.361098 180.202229 96.9971444 175.254555 89.5380654 179.760624 90.728358 199.2816 99.5172728 214.12418 110.632384 223.130044 123.497169 225.372734 137.361281 220.288716 151.312526 207.821649 164.321249 188.545079 175.322638 163.718348 183.335056 135.233764 187.595409 105.43658 187.681442 76.8415127 183.584365 51.8076786 175.711052 32.2515983 164.812617 19.4627633 151.864546 14.0443231 137.930881 15.9656856 124.044574 24.683455 111.123532 38.7266777 100.353104 38.8663231 103.19539 39.0778271 107.497277 39.4424017 108.319263 33.4999336 112.935067 25.7575913 124.667244 24.6866463 133.299256 24.1989328 137.229869 25.4165659 140.24609 29.2683144 149.787549 40.9446079 161.414356 58.6464524 171.168975 64.4795371 172.987102 68.712807 174.30639 69.1533118 175.299564 71.0263651 175.02751 81.1985817 178.197998 96.3158306 180.346633 106.891687 181.849744 133.642753 181.77316 159.23836 177.975607 181.607376 170.821765 188.827782 166.747763 199.060852 160.97386 204.216618 155.684843"></polyline>
            <polyline id="Fill-52" fill="#EFB26E" points="205.992063 155.427073 204.216618 155.684843 199.060852 160.97386 188.827782 166.747763 170.927308 169.379086 171.373976 155.986674 206.239441 150.954438 206.083729 153.769585 205.992063 155.427073"></polyline>
            <polyline id="Fill-53" fill="#CF9B60" points="170.927308 169.379086 188.827782 166.747763 181.607376 170.821765 159.23836 177.975607 133.642753 181.77316 106.891687 181.849744 96.3158306 180.346633 105.425796 179.007458 105.309149 165.52198 105.190522 151.800048 78.442648 99.1737988 83.7141799 97.7169457 85.0053223 97.3600667 90.1604279 96.6880617 91.4808419 100.505283 92.1788489 102.866969 92.741062 105.42984 93.1857485 108.210375 93.481876 111.013656 93.6200908 113.876819 93.6801747 117.725904 93.6107371 117.963786 93.6889782 118.28968 94.0586148 119.828172 94.1139668 119.896295 95.4742166 121.572132 95.5108611 121.596085 97.7669764 123.073925 97.7875546 123.081836 100.782393 124.227409 100.790756 124.229167 104.313804 124.950286 108.110861 125.190147 111.915511 124.930069 115.460788 124.197632 118.499093 123.035798 120.821455 121.527742 122.271831 119.780046 122.757013 117.914452 122.767797 113.438301 122.621659 109.178717 122.148692 104.385902 121.38961 99.6340716 120.398557 95.2623037 120.125759 94.3902136 130.749155 94.3634037 131.151034 94.4135074 132.541216 94.5872222 132.465066 103.682363 170.927308 169.379086"></polyline>
            <polyline id="Fill-54" fill="#86643D" points="170.927308 169.379086 132.465066 103.682363 132.541216 94.5872222 132.571368 90.9821728 171.373976 155.986674 170.927308 169.379086"></polyline>
            <polyline id="Fill-55" fill="#EFB26E" points="71.0263651 175.02751 69.1533118 175.299564 69.0083843 170.761443 105.309149 165.52198 105.425796 179.007458 96.3158306 180.346633 81.1985817 178.197998 71.0263651 175.02751"></polyline>
            <polyline id="Fill-56" fill="#86643D" points="69.1533118 175.299564 68.712807 174.30639 64.4795371 172.987102 39.8604576 116.861285 39.4972035 116.033256 39.2491651 110.984978 39.4424017 108.319263 39.0778271 107.497277 38.8663231 103.19539 69.0083843 170.761443 69.1533118 175.299564"></polyline>
            <polyline id="Fill-57" fill="#CF9B60" points="39.8604576 116.861285 64.4795371 172.987102 58.6464524 171.168975 40.9446079 161.414356 29.2683144 149.787549 25.4165659 140.24609 26.2595004 133.326944 29.5542079 128.26636 33.1547266 122.735835 33.9523231 121.510711 39.8604576 116.861285"></polyline>
            <polyline id="Fill-58" fill="#83623C" points="39.4424017 108.319263 39.2491651 110.984978 39.4972035 116.033256 39.8604576 116.861285 33.9523231 121.510711 33.1547266 122.735835 29.9268157 125.278268 33.4999336 112.935067 39.4424017 108.319263"></polyline>
            <polyline id="Fill-59" fill="#6D6D6D" points="122.271831 119.780046 120.821455 121.527742 120.827507 116.659881 122.281845 115.093701 122.271831 119.780046"></polyline>
            <polyline id="Fill-60" fill="#525252" points="122.757013 117.914452 122.271831 119.780046 122.281845 115.093701 122.767797 113.438301 122.757013 117.914452"></polyline>
            <polyline id="Fill-61" fill="#A8A8A8" points="115.460788 124.197632 111.915511 124.930069 111.893392 119.800593 115.450003 119.10002 115.460788 124.197632"></polyline>
            <polyline id="Fill-62" fill="#9A9A9A" points="118.499093 123.035798 115.460788 124.197632 115.450003 119.10002 118.497993 118.027515 118.499093 123.035798"></polyline>
            <polyline id="Fill-63" fill="#868686" points="120.821455 121.527742 118.499093 123.035798 118.497993 118.027515 120.827507 116.659881 120.821455 121.527742"></polyline>
            <polyline id="Fill-64" fill="#EFB26E" points="105.309149 165.52198 69.0083843 170.761443 68.5683197 156.98666 105.190522 151.800048 105.309149 165.52198"></polyline>
            <polyline id="Fill-65" fill="#CF9B60" points="105.190522 151.800048 68.5683197 156.98666 38.2254288 90.1517259 71.6840961 85.8763198 71.8399179 86.1829852 72.4077432 87.3001 74.6629782 91.7373543 78.442648 99.1737988 105.190522 151.800048"></polyline>
            <polyline id="Fill-66" fill="#252525" points="10.0216769 151.765107 10.0191459 151.758405 11.7429799 138.120638 17.241752 152.420851 15.5620454 166.54526 12.8171162 159.240448 12.7363441 159.024541 10.0216769 151.765107"></polyline>
            <polyline id="Fill-67" fill="#86643D" points="38.2254288 90.1517259 68.5683197 156.98666 69.0083843 170.761443 38.8663231 103.19539 38.7266777 100.353104 38.6465659 98.7203383 38.2254288 90.1517259"></polyline>
            <polyline id="Fill-68" fill="#EFB26E" points="206.239441 150.954438 171.373976 155.986674 171.828346 142.362532 206.990049 137.382817 206.239441 150.954438"></polyline>
            <polyline id="Fill-69" fill="#CF9B60" points="206.239441 150.954438 206.990049 137.382817 188.417649 109.382648 191.625312 110.859169 194.739658 113.251621 204.904391 121.060657 205.849336 122.458286 209.226246 127.453823 212.858788 132.827336 213.918838 140.141707 210.449492 149.291017 206.083729 153.769585 206.239441 150.954438"></polyline>
            <polyline id="Fill-70" fill="#CF9B60" points="206.990049 137.382817 171.828346 142.362532 132.67921 78.0822272 164.922996 73.9620765 174.278138 88.0659395 175.254555 89.5380654 180.202229 96.9971444 188.417649 109.382648 206.990049 137.382817"></polyline>
            <polyline id="Fill-71" fill="#86643D" points="171.828346 142.362532 171.373976 155.986674 132.571368 90.9821728 132.611314 86.2111136 132.648948 81.7111198 132.658412 80.5765346 132.67921 78.0822272 171.828346 142.362532"></polyline>
            <polyline id="Fill-72" fill="#505050" points="92.1788489 102.866969 91.4808419 100.505283 91.2372052 97.9535099 92.10589 100.89029 92.1788489 102.866969"></polyline>
            <polyline id="Fill-73" fill="#525252" points="91.2372052 97.9535099 91.4808419 100.505283 90.1604279 96.6880617 87.3750026 88.6355395 85.8727965 84.2928889 85.4894044 83.1845642 84.7759913 81.1221815 84.4612664 78.3933975 91.2372052 97.9535099"></polyline>
            <polyline id="Fill-74" fill="#525252" points="84.4612664 78.3933975 84.7759913 81.1221815 62.2180297 15.9102333 61.8613782 13.1543099 84.4612664 78.3933975"></polyline>
            <polyline id="Fill-75" fill="#6D6D6D" points="91.2372052 97.9535099 84.4612664 78.3933975 85.1010603 75.5314432 91.9620629 95.2632926 91.2372052 97.9535099"></polyline>
            <polyline id="Fill-76" fill="#6D6D6D" points="85.1010603 75.5314432 84.4612664 78.3933975 61.8613782 13.1543099 62.4132472 10.2833457 85.1010603 75.5314432"></polyline>
            <polyline id="Fill-77" fill="#6F6F6F" points="91.2372052 97.9535099 91.9620629 95.2632926 93.0041764 98.7761556 92.10589 100.89029 91.2372052 97.9535099"></polyline>
            <polyline id="Fill-78" fill="#868686" points="91.9620629 95.2632926 85.1010603 75.5314432 86.6581782 72.7333272 93.613048 92.6195531 91.9620629 95.2632926"></polyline>
            <polyline id="Fill-79" fill="#868686" points="86.6581782 72.7333272 85.1010603 75.5314432 62.4132472 10.2833457 63.8421642 7.49511852 86.6581782 72.7333272"></polyline>
            <polyline id="Fill-80" fill="#8A8A8A" points="91.9620629 95.2632926 93.613048 92.6195531 94.8202271 96.6699321 93.0041764 98.7761556 91.9620629 95.2632926"></polyline>
            <polyline id="Fill-81" fill="#9B9B9B" points="93.613048 92.6195531 86.6581782 72.7333272 89.0301694 70.1945198 96.0813275 90.2071037 93.613048 92.6195531"></polyline>
            <polyline id="Fill-82" fill="#9B9B9B" points="89.0301694 70.1945198 86.6581782 72.7333272 63.8421642 7.49511852 66.0537118 4.98410988 89.0301694 70.1945198"></polyline>
            <polyline id="Fill-83" fill="#A0A0A0" points="93.613048 92.6195531 96.0813275 90.2071037 97.4342044 94.7186346 94.8202271 96.6699321 93.613048 92.6195531"></polyline>
            <polyline id="Fill-84" fill="#A9A9A9" points="96.0813275 90.2071037 89.0301694 70.1945198 92.0549397 68.0939 99.1984245 88.1962531 96.0813275 90.2071037"></polyline>
            <polyline id="Fill-85" fill="#A9A9A9" points="92.0549397 68.0939 89.0301694 70.1945198 66.0537118 4.98410988 68.8973502 2.92722099 92.0549397 68.0939"></polyline>
            <polyline id="Fill-86" fill="#B0B0B0" points="96.0813275 90.2071037 99.1984245 88.1962531 100.667397 93.0604877 97.4342044 94.7186346 96.0813275 90.2071037"></polyline>
            <polyline id="Fill-87" fill="#B1B1B1" points="99.1984245 88.1962531 92.0549397 68.0939 95.5223057 66.5802407 102.747333 86.729621 99.1984245 88.1962531"></polyline>
            <polyline id="Fill-88" fill="#B1B1B1" points="95.5223057 66.5802407 92.0549397 68.0939 68.8973502 2.92722099 72.1755511 1.46970864 95.5223057 66.5802407"></polyline>
            <polyline id="Fill-89" fill="#B9B9B9" points="99.1984245 88.1962531 102.747333 86.729621 104.294217 91.8136086 100.667397 93.0604877 99.1984245 88.1962531"></polyline>
            <polyline id="Fill-90" fill="#B1B1B1" points="102.747333 86.729621 95.5223057 66.5802407 99.1891808 65.7605617 106.478693 85.9112605 102.747333 86.729621"></polyline>
            <polyline id="Fill-91" fill="#B1B1B1" points="99.1891808 65.7605617 95.5223057 66.5802407 72.1755511 1.46970864 75.6587633 0.714637037 99.1891808 65.7605617"></polyline>
            <polyline id="Fill-92" fill="#BABABA" points="102.747333 86.729621 106.478693 85.9112605 108.059031 91.0666679 104.294217 91.8136086 102.747333 86.729621"></polyline>
            <polyline id="Fill-93" fill="#A9A9A9" points="106.478693 85.9112605 99.1891808 65.7605617 102.797843 65.691779 110.129942 85.7979778 106.478693 85.9112605"></polyline>
            <polyline id="Fill-94" fill="#A9A9A9" points="102.797843 65.691779 99.1891808 65.7605617 75.6587633 0.714637037 79.1028 0.714197531 102.797843 65.691779"></polyline>
            <polyline id="Fill-95" fill="#B3B3B3" points="106.478693 85.9112605 110.129942 85.7979778 111.696084 90.8719667 108.059031 91.0666679 106.478693 85.9112605"></polyline>
            <polyline id="Fill-96" fill="#9B9B9B" points="110.129942 85.7979778 102.797843 65.691779 106.096072 66.3763099 113.445338 86.3957062 110.129942 85.7979778"></polyline>
            <polyline id="Fill-97" fill="#9B9B9B" points="106.096072 66.3763099 102.797843 65.691779 79.1028 0.714197531 82.2666655 1.46619259 106.096072 66.3763099"></polyline>
            <polyline id="Fill-98" fill="#A4A4A4" points="110.129942 85.7979778 113.445338 86.3957062 114.949855 91.2414815 111.696084 90.8719667 110.129942 85.7979778"></polyline>
            <polyline id="Fill-99" fill="#878787" points="113.445338 86.3957062 106.096072 66.3763099 108.855417 67.7626222 116.195439 87.6588469 113.445338 86.3957062"></polyline>
            <polyline id="Fill-100" fill="#878787" points="108.855417 67.7626222 106.096072 66.3763099 82.2666655 1.46619259 84.9320332 2.91480494 108.855417 67.7626222"></polyline>
            <polyline id="Fill-101" fill="#6E6E6E" points="116.195439 87.6588469 108.855417 67.7626222 110.888583 69.7506185 118.193282 89.4954333 116.195439 87.6588469"></polyline>
            <polyline id="Fill-102" fill="#6E6E6E" points="110.888583 69.7506185 108.855417 67.7626222 84.9320332 2.91480494 86.917331 4.95565185 110.888583 69.7506185"></polyline>
            <polyline id="Fill-103" fill="#747474" points="116.195439 87.6588469 118.193282 89.4954333 119.451191 93.5193321 117.594645 92.1462049 116.195439 87.6588469"></polyline>
            <polyline id="Fill-104" fill="#525252" points="118.193282 89.4954333 110.888583 69.7506185 112.061209 72.1991074 115.150685 80.5451099 115.563348 81.6599173 117.178349 86.0228951 119.307584 91.7748222 118.193282 89.4954333"></polyline>
            <polyline id="Fill-105" fill="#525252" points="112.061209 72.1991074 110.888583 69.7506185 86.917331 4.95565185 88.0910568 7.44446543 112.061209 72.1991074"></polyline>
            <polyline id="Fill-106" fill="#565656" points="118.193282 89.4954333 119.307584 91.7748222 120.125759 94.3902136 120.398557 95.2623037 119.451191 93.5193321 118.193282 89.4954333"></polyline>
            <polyline id="Fill-107" fill="#8E8E8E" points="113.445338 86.3957062 116.195439 87.6588469 117.594645 92.1462049 114.949855 91.2414815 113.445338 86.3957062"></polyline>
            <polyline id="Fill-108" fill="#7C7C7C" points="117.594645 92.1462049 119.451191 93.5193321 120.636362 98.7500049 118.945761 98.119863 117.594645 92.1462049"></polyline>
            <polyline id="Fill-109" fill="#5B5B5B" points="119.451191 93.5193321 120.398557 95.2623037 121.38961 99.6340716 120.636362 98.7500049 119.451191 93.5193321"></polyline>
            <polyline id="Fill-110" fill="#4F4F4F" points="92.1788489 102.866969 92.10589 100.89029 92.8693729 104.368872 92.741062 105.42984 92.1788489 102.866969"></polyline>
            <polyline id="Fill-111" fill="#707070" points="92.10589 100.89029 93.0041764 98.7761556 93.9710201 103.174953 92.8693729 104.368872 92.10589 100.89029"></polyline>
            <polyline id="Fill-112" fill="#8F8F8F" points="93.0041764 98.7761556 94.8202271 96.6699321 95.979207 101.929502 93.9710201 103.174953 93.0041764 98.7761556"></polyline>
            <polyline id="Fill-113" fill="#A8A8A8" points="94.8202271 96.6699321 97.4342044 94.7186346 98.7610009 100.719432 95.979207 101.929502 94.8202271 96.6699321"></polyline>
            <polyline id="Fill-114" fill="#BBBBBB" points="97.4342044 94.7186346 100.667397 93.0604877 102.125696 99.6300062 98.7610009 100.719432 97.4342044 94.7186346"></polyline>
            <polyline id="Fill-115" fill="#C5C5C5" points="100.667397 93.0604877 104.294217 91.8136086 105.838129 98.7386877 102.125696 99.6300062 100.667397 93.0604877"></polyline>
            <polyline id="Fill-116" fill="#C7C7C7" points="104.294217 91.8136086 108.059031 91.0666679 109.635956 98.1090951 105.838129 98.7386877 104.294217 91.8136086"></polyline>
            <polyline id="Fill-117" fill="#C0C0C0" points="108.059031 91.0666679 111.696084 90.8719667 113.250231 97.7856185 109.635956 98.1090951 108.059031 91.0666679"></polyline>
            <polyline id="Fill-118" fill="#B0B0B0" points="111.696084 90.8719667 114.949855 91.2414815 116.426971 97.7899037 113.250231 97.7856185 111.696084 90.8719667"></polyline>
            <polyline id="Fill-119" fill="#999999" points="114.949855 91.2414815 117.594645 92.1462049 118.945761 98.119863 116.426971 97.7899037 114.949855 91.2414815"></polyline>
            <polyline id="Fill-120" fill="#7E7E7E" points="118.945761 98.119863 120.636362 98.7500049 121.544882 104.437874 119.983803 104.617852 118.945761 98.119863"></polyline>
            <polyline id="Fill-121" fill="#5C5C5C" points="120.636362 98.7500049 121.38961 99.6340716 122.148692 104.385902 121.544882 104.437874 120.636362 98.7500049"></polyline>
            <polyline id="Fill-122" fill="#4E4E4E" points="92.741062 105.42984 92.8693729 104.368872 93.4732926 108.144669 93.1857485 108.210375 92.741062 105.42984"></polyline>
            <polyline id="Fill-123" fill="#717171" points="92.8693729 104.368872 93.9710201 103.174953 94.7351633 107.951946 93.4732926 108.144669 92.8693729 104.368872"></polyline>
            <polyline id="Fill-124" fill="#909090" points="93.9710201 103.174953 95.979207 101.929502 96.8931197 107.644511 94.7351633 107.951946 93.9710201 103.174953"></polyline>
            <polyline id="Fill-125" fill="#ABABAB" points="95.979207 101.929502 98.7610009 100.719432 99.8039948 107.242693 96.8931197 107.644511 95.979207 101.929502"></polyline>
            <polyline id="Fill-126" fill="#BEBEBE" points="98.7610009 100.719432 102.125696 99.6300062 103.267949 106.774399 99.8039948 107.242693 98.7610009 100.719432"></polyline>
            <polyline id="Fill-127" fill="#C9C9C9" points="102.125696 99.6300062 105.838129 98.7386877 107.042337 106.272263 103.267949 106.774399 102.125696 99.6300062"></polyline>
            <polyline id="Fill-128" fill="#CBCBCB" points="105.838129 98.7386877 109.635956 98.1090951 110.860632 105.771775 107.042337 106.272263 105.838129 98.7386877"></polyline>
            <polyline id="Fill-129" fill="#C4C4C4" points="109.635956 98.1090951 113.250231 97.7856185 114.452458 105.308426 110.860632 105.771775 109.635956 98.1090951"></polyline>
            <polyline id="Fill-130" fill="#B4B4B4" points="113.250231 97.7856185 116.426971 97.7899037 117.565373 104.914738 114.452458 105.308426 113.250231 97.7856185"></polyline>
            <polyline id="Fill-131" fill="#9C9C9C" points="116.426971 97.7899037 118.945761 98.119863 119.983803 104.617852 117.565373 104.914738 116.426971 97.7899037"></polyline>
            <polyline id="Fill-132" fill="#7B7B7B" points="119.983803 104.617852 121.544882 104.437874 122.111717 110.17332 120.63361 111.168691 119.983803 104.617852"></polyline>
            <polyline id="Fill-133" fill="#5B5B5B" points="121.544882 104.437874 122.148692 104.385902 122.621659 109.178717 122.111717 110.17332 121.544882 104.437874"></polyline>
            <polyline id="Fill-134" fill="#4F4F4F" points="93.1857485 108.210375 93.4732926 108.144669 93.875062 111.950573 93.481876 111.013656 93.1857485 108.210375"></polyline>
            <polyline id="Fill-135" fill="#707070" points="93.4732926 108.144669 94.7351633 107.951946 95.2418044 112.766186 93.875062 111.950573 93.4732926 108.144669"></polyline>
            <polyline id="Fill-136" fill="#8F8F8F" points="94.7351633 107.951946 96.8931197 107.644511 97.496269 113.402921 95.2418044 112.766186 94.7351633 107.951946"></polyline>
            <polyline id="Fill-137" fill="#A8A8A8" points="96.8931197 107.644511 99.8039948 107.242693 100.487806 113.815068 97.496269 113.402921 96.8931197 107.644511"></polyline>
            <polyline id="Fill-138" fill="#BABABA" points="99.8039948 107.242693 103.267949 106.774399 104.010744 113.972191 100.487806 113.815068 99.8039948 107.242693"></polyline>
            <polyline id="Fill-139" fill="#C5C5C5" points="103.267949 106.774399 107.042337 106.272263 107.818695 113.862205 104.010744 113.972191 103.267949 106.774399"></polyline>
            <polyline id="Fill-140" fill="#C6C6C6" points="107.042337 106.272263 110.860632 105.771775 111.643373 113.49247 107.818695 113.862205 107.042337 106.272263"></polyline>
            <polyline id="Fill-141" fill="#BFBFBF" points="110.860632 105.771775 114.452458 105.308426 115.21451 112.889248 111.643373 113.49247 110.860632 105.771775"></polyline>
            <polyline id="Fill-142" fill="#AFAFAF" points="114.452458 105.308426 117.565373 104.914738 118.281867 112.09583 115.21451 112.889248 114.452458 105.308426"></polyline>
            <polyline id="Fill-143" fill="#989898" points="117.565373 104.914738 119.983803 104.617852 120.63361 111.168691 118.281867 112.09583 117.565373 104.914738"></polyline>
            <polyline id="Fill-144" fill="#737373" points="120.63361 111.168691 122.111717 110.17332 122.281845 115.093701 120.827507 116.659881 120.63361 111.168691"></polyline>
            <polyline id="Fill-145" fill="#555555" points="122.111717 110.17332 122.621659 109.178717 122.767797 113.438301 122.281845 115.093701 122.111717 110.17332"></polyline>
            <polyline id="Fill-146" fill="#505050" points="93.481876 111.013656 93.875062 111.950573 94.0467301 115.518044 93.6200908 113.876819 93.481876 111.013656"></polyline>
            <polyline id="Fill-147" fill="#6E6E6E" points="93.875062 111.950573 95.2418044 112.766186 95.4448349 117.040933 94.0467301 115.518044 93.875062 111.950573"></polyline>
            <polyline id="Fill-148" fill="#898989" points="95.2418044 112.766186 97.496269 113.402921 97.7253799 118.339235 95.4448349 117.040933 95.2418044 112.766186"></polyline>
            <polyline id="Fill-149" fill="#A0A0A0" points="97.496269 113.402921 100.487806 113.815068 100.735514 119.320652 97.7253799 118.339235 97.496269 113.402921"></polyline>
            <polyline id="Fill-150" fill="#B0B0B0" points="100.487806 113.815068 104.010744 113.972191 104.268136 119.914864 100.735514 119.320652 100.487806 113.815068"></polyline>
            <polyline id="Fill-151" fill="#B8B8B8" points="104.010744 113.972191 107.818695 113.862205 108.076638 120.07891 104.268136 119.914864 104.010744 113.972191"></polyline>
            <polyline id="Fill-152" fill="#B9B9B9" points="107.818695 113.862205 111.643373 113.49247 111.893392 119.800593 108.076638 120.07891 107.818695 113.862205"></polyline>
            <polyline id="Fill-153" fill="#B2B2B2" points="111.643373 113.49247 115.21451 112.889248 115.450003 119.10002 111.893392 119.800593 111.643373 113.49247"></polyline>
            <polyline id="Fill-154" fill="#A3A3A3" points="115.21451 112.889248 118.281867 112.09583 118.497993 118.027515 115.450003 119.10002 115.21451 112.889248"></polyline>
            <polyline id="Fill-155" fill="#8D8D8D" points="118.281867 112.09583 120.63361 111.168691 120.827507 116.659881 118.497993 118.027515 118.281867 112.09583"></polyline>
            <polyline id="Fill-156" fill="#525252" points="93.6200908 113.876819 94.0467301 115.518044 94.1139668 119.896295 94.0586148 119.828172 93.6889782 118.28968 93.6801747 117.725904 93.6200908 113.876819"></polyline>
            <polyline id="Fill-157" fill="#6D6D6D" points="94.0467301 115.518044 95.4448349 117.040933 95.5108611 121.596085 95.4742166 121.572132 94.1139668 119.896295 94.0467301 115.518044"></polyline>
            <polyline id="Fill-158" fill="#868686" points="95.4448349 117.040933 97.7253799 118.339235 97.7875546 123.081836 97.7669764 123.073925 95.5108611 121.596085 95.4448349 117.040933"></polyline>
            <polyline id="Fill-159" fill="#9A9A9A" points="97.7253799 118.339235 100.735514 119.320652 100.790756 124.229167 100.782393 124.227409 97.7875546 123.081836 97.7253799 118.339235"></polyline>
            <polyline id="Fill-160" fill="#A8A8A8" points="100.735514 119.320652 104.268136 119.914864 104.313804 124.950286 100.790756 124.229167 100.735514 119.320652"></polyline>
            <polyline id="Fill-161" fill="#AFAFAF" points="104.268136 119.914864 108.076638 120.07891 108.110861 125.190147 104.313804 124.950286 104.268136 119.914864"></polyline>
            <polyline id="Fill-162" fill="#AFAFAF" points="108.076638 120.07891 111.893392 119.800593 111.915511 124.930069 108.110861 125.190147 108.076638 120.07891"></polyline>
            <polyline id="Fill-198" fill="#7E5E3A" points="232.274452 304.306163 226.993457 322.73158 231.189312 294.131375 236.581341 275.619375 232.274452 304.306163"></polyline>
            <polyline id="Fill-219" fill="#C7945C" points="90.1604279 96.6880617 85.0053223 97.3600667 83.7141799 97.7169457 84.8313432 88.9628617 87.3750026 88.6355395 90.1604279 96.6880617"></polyline>
            <polyline id="Fill-220" fill="#CC985E" points="130.749155 94.3634037 120.125759 94.3902136 119.307584 91.7748222 117.178349 86.0228951 130.810009 85.9889432 131.151034 94.4135074 130.749155 94.3634037"></polyline>
            <polyline id="Fill-221" fill="#A2794B" points="191.625312 110.859169 188.417649 109.382648 180.202229 96.9971444 192.007053 102.361098 194.739658 113.251621 191.625312 110.859169"></polyline>
            <polyline id="Fill-222" fill="#725535" points="213.918838 140.141707 212.858788 132.827336 209.226246 127.453823 208.900187 124.80448 214.72898 133.399793 215.218014 136.715537 213.918838 140.141707"></polyline>
            <polyline id="Fill-223" fill="#715434" points="26.2595004 133.326944 25.4165659 140.24609 24.1989328 137.229869 24.6866463 133.299256 29.9268157 125.278268 29.5542079 128.26636 26.2595004 133.326944"></polyline>
            <polyline id="Fill-229" fill="#313131" points="217.883602 280.106184 196.526107 294.338163 197.385107 278.451553 218.960489 264.33033 217.883602 280.106184"></polyline>
            <polyline id="Fill-232" fill="#333333" points="105.43658 187.681442 135.233764 187.595409 163.718348 183.335056 188.545079 175.322638 207.821649 164.321249 220.288716 151.312526 225.372734 137.361281 223.130044 123.497169 214.12418 110.632384 199.2816 99.5172728 179.760624 90.728358 175.254555 89.5380654 174.278138 88.0659395 180.929728 89.8267111 200.879104 98.8187877 216.075584 110.196833 225.331577 123.375536 226.52291 130.554979 227.687722 137.595978 222.560128 151.905749 209.868571 165.265528 190.189462 176.571275 164.805469 184.807841 135.656222 189.185322 105.152777 189.265752 75.8828122 185.041109 50.2723493 176.934307 30.2870987 165.724483 17.241752 152.420851 11.7429799 138.120638 13.7457747 123.885253 22.6814306 110.65381 37.6086341 99.1980815 38.6465659 98.7203383 38.7266777 100.353104 24.683455 111.123532 15.9656856 124.044574 14.0443231 137.930881 19.4627633 151.864546 32.2515983 164.812617 51.8076786 175.711052 76.8415127 183.584365 105.43658 187.681442"></polyline>
            <polyline id="Fill-240" fill="#313131" points="43.8233502 294.841507 22.1514603 280.740721 21.0992227 264.959702 42.9932908 278.951052 43.8233502 294.841507"></polyline>
            <polyline id="Fill-241" fill="#B08351" points="22.1514603 280.740721 22.445607 312.119594 8.45344454 294.86546 8.12122271 264.050694 22.1514603 280.740721"></polyline>
            <polyline id="Fill-242" fill="#292929" points="22.1514603 280.740721 8.12122271 264.050694 6.9403441 248.405922 21.0992227 264.959702 22.1514603 280.740721"></polyline>
            <polyline id="Fill-243" fill="#8C6840" points="8.12122271 264.050694 8.45344454 294.86546 2.69254847 276.373568 2.34998253 246.165759 8.12122271 264.050694"></polyline>
            <polyline id="Fill-244" fill="#202020" points="8.12122271 264.050694 2.34998253 246.165759 1.13455022 230.674815 6.9403441 248.405922 8.12122271 264.050694"></polyline>
            <polyline id="Fill-245" fill="#C7955C" points="131.151034 94.4135074 130.810009 85.9889432 132.611314 86.2111136 132.571368 90.9821728 132.541216 94.5872222 131.151034 94.4135074"></polyline>
            <polyline id="Fill-246" fill="#CF9B60" points="132.611314 86.2111136 130.810009 85.9889432 117.178349 86.0228951 115.563348 81.6599173 131.900321 81.6193728 132.648948 81.7111198 132.611314 86.2111136"></polyline>
            <polyline id="Fill-276" fill="#956F44" points="29.5542079 128.26636 29.9268157 125.278268 33.1547266 122.735835 29.5542079 128.26636"></polyline>
            <polyline id="Fill-277" fill="#61482C" points="29.9268157 125.278268 24.6866463 133.299256 25.7575913 124.667244 33.4999336 112.935067 29.9268157 125.278268"></polyline>
            <polyline id="Fill-278" fill="#8A6740" points="236.95494 245.436289 236.581341 275.619375 231.189312 294.131375 231.554327 263.340672 236.95494 245.436289"></polyline>
            <polyline id="Fill-279" fill="#202020" points="236.95494 245.436289 231.554327 263.340672 232.755233 247.701943 238.185998 229.951827 236.95494 245.436289"></polyline>
            <polyline id="Fill-284" fill="#AF8250" points="231.554327 263.340672 231.189312 294.131375 217.554791 311.463631 217.883602 280.106184 231.554327 263.340672"></polyline>
            <polyline id="Fill-285" fill="#292929" points="231.554327 263.340672 217.883602 280.106184 218.960489 264.33033 232.755233 247.701943 231.554327 263.340672"></polyline>
            <polyline id="Fill-289" fill="#333333" points="132.648948 81.7111198 131.900321 81.6193728 115.563348 81.6599173 115.150685 80.5451099 132.091687 80.5068728 132.658412 80.5765346 132.648948 81.7111198"></polyline>
            <polyline id="Fill-290" fill="#CF9B60" points="87.3750026 88.6355395 84.8313432 88.9628617 74.6629782 91.7373543 72.4077432 87.3001 81.4050236 84.8639173 85.8727965 84.2928889 87.3750026 88.6355395"></polyline>
            <polyline id="Fill-291" fill="#333333" points="85.8727965 84.2928889 81.4050236 84.8639173 72.4077432 87.3001 71.8399179 86.1829852 80.5958725 83.8102012 85.4894044 83.1845642 85.8727965 84.2928889"></polyline>
            <polyline id="Fill-292" fill="#B88955" points="74.6629782 91.7373543 84.8313432 88.9628617 83.7141799 97.7169457 78.442648 99.1737988 74.6629782 91.7373543"></polyline>
            <polyline id="Fill-293" fill="#85633D" points="192.007053 102.361098 205.362613 112.488199 208.900187 124.80448 205.849336 122.458286 204.904391 121.060657 194.739658 113.251621 192.007053 102.361098"></polyline>
            <polyline id="Fill-294" fill="#62492D" points="205.362613 112.488199 213.36796 124.171042 214.72898 133.399793 208.900187 124.80448 205.362613 112.488199"></polyline>
            <polyline id="Fill-295" fill="#967045" points="208.900187 124.80448 209.226246 127.453823 205.849336 122.458286 208.900187 124.80448"></polyline>
            <polyline id="Fill-296" fill="#333333" points="230.523878 157.658995 233.090426 173.275638 227.790393 189.03633 214.518356 203.773411 193.855677 216.267802 167.143457 225.385578 136.43181 230.240033 104.282882 230.338043 73.4507371 225.669609 46.5130376 216.709396 25.5475179 204.330815 11.9282934 189.660758 6.26929782 173.918306 8.49295022 158.274743 9.35690306 156.95194 7.20268821 173.844359 12.834393 189.45441 26.3555686 203.996021 47.1533817 216.262748 73.863731 225.139894 104.42814 229.765367 136.295466 229.668236 166.740587 224.8585 193.227548 215.82522 193.2336 215.823132 213.725052 203.443672 226.90179 188.835256 232.177064 173.207075 230.134543 157.084121 230.523878 157.658995"></polyline>
            <polyline id="Fill-297" fill="#F1B46F" points="193.227548 215.82522 166.740587 224.8585 165.500505 199.963552 191.304865 191.444494 193.227548 215.82522"></polyline>
            <polyline id="Fill-298" fill="#D9A264" points="193.2336 215.823132 193.227548 215.82522 191.304865 191.444494 211.30145 179.759453 213.725052 203.443672 193.2336 215.823132"></polyline>
            <polyline id="Fill-299" fill="#F2B46F" points="73.863731 225.139894 47.1533817 216.262748 49.0724332 191.8573 75.093469 200.228904 73.863731 225.139894"></polyline>
            <polyline id="Fill-300" fill="#DBA365" points="47.1533817 216.262748 26.3555686 203.996021 28.7840122 180.280927 49.0724332 191.8573 47.1533817 216.262748"></polyline>
            <polyline id="Fill-301" fill="#BC8C56" points="26.3555686 203.996021 12.834393 189.45441 15.5620454 166.54526 28.7840122 180.280927 26.3555686 203.996021"></polyline>
            <polyline id="Fill-302" fill="#987146" points="12.834393 189.45441 7.20268821 173.844359 9.35690306 156.95194 10.0157345 151.783457 12.7363441 159.024541 12.8171162 159.240448 15.5620454 166.54526 12.834393 189.45441"></polyline>
            <polyline id="Fill-303" fill="#977045" points="232.177064 173.207075 226.90179 188.835256 224.188224 165.960168 229.386907 151.182542 230.134543 157.084121 232.177064 173.207075"></polyline>
            <polyline id="Fill-304" fill="#BA8B56" points="226.90179 188.835256 213.725052 203.443672 211.30145 179.759453 224.188224 165.960168 226.90179 188.835256"></polyline>
            <polyline id="Fill-305" fill="#3A3A3A" points="191.304865 191.444494 165.500505 199.963552 165.498414 199.943115 164.805469 184.807841 191.304865 191.444494"></polyline>
            <polyline id="Fill-306" fill="#FFBF76" points="165.500505 199.963552 166.740587 224.8585 136.295466 229.668236 135.862334 204.496399 150.641748 202.236128 165.500505 199.963552"></polyline>
            <polyline id="Fill-307" fill="#FFC379" points="135.862334 204.496399 136.295466 229.668236 104.42814 229.765367 104.847406 204.588036 120.350028 204.542217 135.862334 204.496399"></polyline>
            <polyline id="Fill-308" fill="#FFBF76" points="104.847406 204.588036 104.42814 229.765367 73.863731 225.139894 75.093469 200.228904 104.847406 204.588036"></polyline>
            <polyline id="Fill-309" fill="#3E3E3E" points="104.847406 204.588036 75.093469 200.228904 75.8828122 185.041109 104.847406 204.588036"></polyline>
            <polyline id="Fill-310" fill="#3B3B3B" points="75.093469 200.228904 49.0724332 191.8573 50.2723493 176.934307 75.093469 200.228904"></polyline>
            <polyline id="Fill-311" fill="#353535" points="49.0724332 191.8573 28.7840122 180.280927 50.2723493 176.934307 49.0724332 191.8573"></polyline>
            <polyline id="Fill-312" fill="#2E2E2E" points="28.7840122 180.280927 15.5620454 166.54526 30.2870987 165.724483 28.7840122 180.280927"></polyline>
            <polyline id="Fill-313" fill="#252525" points="229.386907 151.182542 224.188224 165.960168 227.687722 137.595978 227.690033 137.589605 229.386907 151.182542"></polyline>
            <polyline id="Fill-314" fill="#2D2D2D" points="224.188224 165.960168 211.30145 179.759453 222.560128 151.905749 224.188224 165.960168"></polyline>
            <polyline id="Fill-315" fill="#353535" points="211.30145 179.759453 191.304865 191.444494 190.189462 176.571275 211.30145 179.759453"></polyline>
            <polyline id="Fill-316" fill="#3A3A3A" points="46.5130376 216.709396 73.4507371 225.669609 72.9585118 243.47697 45.7415214 234.218553 46.5130376 216.709396"></polyline>
            <polyline id="Fill-317" fill="#3A3A3A" points="45.7415214 234.218553 72.9585118 243.47697 72.956641 243.544435 45.7385502 234.284809 45.7415214 234.218553"></polyline>
            <polyline id="Fill-318" fill="#3E3E3E" points="73.4507371 225.669609 104.282882 230.338043 104.119467 248.30154 72.9585118 243.47697 73.4507371 225.669609"></polyline>
            <polyline id="Fill-319" fill="#3E3E3E" points="72.9585118 243.47697 104.119467 248.30154 104.118807 248.369773 72.956641 243.544435 72.9585118 243.47697"></polyline>
            <polyline id="Fill-320" fill="#3F3F3F" points="104.282882 230.338043 136.43181 230.240033 136.614372 248.200233 104.119467 248.30154 104.282882 230.338043"></polyline>
            <polyline id="Fill-321" fill="#3F3F3F" points="104.119467 248.30154 136.614372 248.200233 136.615032 248.268357 104.118807 248.369773 104.119467 248.30154"></polyline>
            <polyline id="Fill-322" fill="#3E3E3E" points="136.43181 230.240033 167.143457 225.385578 167.653289 243.182831 136.614372 248.200233 136.43181 230.240033"></polyline>
            <polyline id="Fill-323" fill="#3E3E3E" points="136.614372 248.200233 167.653289 243.182831 167.65516 243.250844 136.615032 248.268357 136.614372 248.200233"></polyline>
            <polyline id="Fill-324" fill="#343434" points="193.855677 216.267802 214.518356 203.773411 215.506769 220.854489 194.641939 233.761577 193.855677 216.267802"></polyline>
            <polyline id="Fill-325" fill="#343434" points="194.641939 233.761577 215.506769 220.854489 215.51051 220.920415 194.64491 233.828491 194.641939 233.761577"></polyline>
            <polyline id="Fill-326" fill="#3A3A3A" points="167.143457 225.385578 193.855677 216.267802 194.641939 233.761577 167.653289 243.182831 167.143457 225.385578"></polyline>
            <polyline id="Fill-327" fill="#3A3A3A" points="167.653289 243.182831 194.641939 233.761577 194.64491 233.828491 167.65516 243.250844 167.653289 243.182831"></polyline>
            <polyline id="Fill-328" fill="#232323" points="227.790393 189.03633 233.090426 173.275638 234.228938 189.431336 228.901614 205.693394 228.894901 205.636917 227.790393 189.03633"></polyline>
            <polyline id="Fill-329" fill="#2C2C2C" points="214.518356 203.773411 227.790393 189.03633 228.894901 205.636917 215.506769 220.854489 214.518356 203.773411"></polyline>
            <polyline id="Fill-330" fill="#2C2C2C" points="215.506769 220.854489 228.894901 205.636917 228.901614 205.693394 228.899193 205.700975 215.51051 220.920415 215.506769 220.854489"></polyline>
            <polyline id="Fill-331" fill="#242424" points="6.26929782 173.918306 11.9282934 189.660758 10.8307179 206.282881 10.8240052 206.338699 5.13386725 190.094551 6.26929782 173.918306"></polyline>
            <polyline id="Fill-332" fill="#2D2D2D" points="11.9282934 189.660758 25.5475179 204.330815 24.57011 221.431451 10.8307179 206.282881 11.9282934 189.660758"></polyline>
            <polyline id="Fill-333" fill="#2D2D2D" points="10.8307179 206.282881 24.57011 221.431451 24.5664786 221.496168 10.8265362 206.345841 10.8240052 206.338699 10.8307179 206.282881"></polyline>
            <polyline id="Fill-334" fill="#343434" points="25.5475179 204.330815 46.5130376 216.709396 45.7415214 234.218553 24.57011 221.431451 25.5475179 204.330815"></polyline>
            <polyline id="Fill-335" fill="#343434" points="24.57011 221.431451 45.7415214 234.218553 45.7385502 234.284809 24.5664786 221.496168 24.57011 221.431451"></polyline>
            <polyline id="Fill-336" fill="#D9A264" points="194.64491 233.828491 215.51051 220.920415 218.226278 247.430988 196.802536 261.159842 194.64491 233.828491"></polyline>
            <polyline id="Fill-337" fill="#CE995F" points="196.802536 261.159842 218.226278 247.430988 218.053289 263.93851 196.662891 277.921948 196.802536 261.159842"></polyline>
            <polyline id="Fill-338" fill="#333333" points="196.662891 277.921948 218.053289 263.93851 231.742501 247.466698 237.147516 229.877221 237.221576 223.8884 238.185998 229.951827 232.755233 247.701943 218.960489 264.33033 197.385107 278.451553 169.422791 288.770169 137.229406 294.268501 103.513897 294.379696 71.1933013 289.091778 42.9932908 278.951052 21.0992227 264.959702 6.9403441 248.405922 1.13455022 230.674815 2.09556157 223.734683 2.17336245 230.593836 7.94999476 248.164304 21.9998201 264.56184 43.7053834 278.416502 71.648662 288.455483 103.666307 293.689452 137.06291 293.579465 168.954666 288.13717 196.662891 277.921948"></polyline>
            <polyline id="Fill-339" fill="#E6AB6A" points="196.662891 277.921948 168.954666 288.13717 169.048313 271.189483 196.802536 261.159842 196.662891 277.921948"></polyline>
            <polyline id="Fill-341" fill="#F5B771" points="168.954666 288.13717 137.06291 293.579465 137.101866 276.533109 169.048313 271.189483 168.954666 288.13717"></polyline>
            <polyline id="Fill-342" fill="#F6B771" points="103.666307 293.689452 71.648662 288.455483 71.5748227 271.502081 103.64749 276.641117 103.666307 293.689452"></polyline>
            <polyline id="Fill-343" fill="#E7AC6A" points="71.648662 288.455483 43.7053834 278.416502 43.5848856 261.645277 71.5748227 271.502081 71.648662 288.455483"></polyline>
            <polyline id="Fill-344" fill="#CF9A5F" points="43.7053834 278.416502 21.9998201 264.56184 21.8449886 248.043 43.5848856 261.645277 43.7053834 278.416502"></polyline>
            <polyline id="Fill-345" fill="#B08351" points="21.9998201 264.56184 7.94999476 248.164304 7.77524541 231.944988 21.8449886 248.043 21.9998201 264.56184"></polyline>
            <polyline id="Fill-346" fill="#8C6840" points="7.94999476 248.164304 2.17336245 230.593836 2.09556157 223.734683 1.99300087 214.696788 7.77524541 231.944988 7.94999476 248.164304"></polyline>
            <polyline id="Fill-347" fill="#8A6740" points="237.147516 229.877221 231.742501 247.466698 231.934528 231.260237 237.344164 213.993358 237.221576 223.8884 237.147516 229.877221"></polyline>
            <polyline id="Fill-348" fill="#AF8250" points="231.742501 247.466698 218.053289 263.93851 218.226278 247.430988 231.934528 231.260237 231.742501 247.466698"></polyline>
            <polyline id="Fill-349" fill="#F1B46F" points="196.802536 261.159842 169.048313 271.189483 167.65516 243.250844 194.64491 233.828491 196.802536 261.159842"></polyline>
            <polyline id="Fill-350" fill="#FFC379" points="137.101866 276.533109 103.64749 276.641117 104.118807 248.369773 136.615032 248.268357 137.101866 276.533109"></polyline>
            <polyline id="Fill-351" fill="#FFBF76" points="169.048313 271.189483 137.101866 276.533109 136.615032 248.268357 167.65516 243.250844 169.048313 271.189483"></polyline>
            <polyline id="Fill-352" fill="#FFBF76" points="103.64749 276.641117 71.5748227 271.502081 72.956641 243.544435 104.118807 248.369773 103.64749 276.641117"></polyline>
            <polyline id="Fill-353" fill="#F2B46F" points="71.5748227 271.502081 43.5848856 261.645277 45.7385502 234.284809 72.956641 243.544435 71.5748227 271.502081"></polyline>
            <polyline id="Fill-354" fill="#DBA365" points="43.5848856 261.645277 21.8449886 248.043 24.5664786 221.496168 45.7385502 234.284809 43.5848856 261.645277"></polyline>
            <polyline id="Fill-355" fill="#BC8C56" points="21.8449886 248.043 7.77524541 231.944988 10.8265362 206.345841 24.5664786 221.496168 21.8449886 248.043"></polyline>
            <polyline id="Fill-356" fill="#987146" points="7.77524541 231.944988 1.99300087 214.696788 5.13386725 190.094551 10.8240052 206.338699 10.8265362 206.345841 7.77524541 231.944988"></polyline>
            <polyline id="Fill-357" fill="#977045" points="237.344164 213.993358 231.934528 231.260237 228.899193 205.700975 228.901614 205.693394 234.228938 189.431336 237.344164 213.993358"></polyline>
            <polyline id="Fill-358" fill="#BA8B56" points="231.934528 231.260237 218.226278 247.430988 215.51051 220.920415 228.899193 205.700975 231.934528 231.260237"></polyline>
            <polyline id="Fill-359" fill="#242424" points="224.188224 165.960168 222.560128 151.905749 227.687722 137.595978 224.188224 165.960168"></polyline>
            <polyline id="Fill-360" fill="#2D2D2D" points="209.868571 165.265528 222.560128 151.905749 211.30145 179.759453 209.868571 165.265528"></polyline>
            <polyline id="Fill-361" fill="#353535" points="209.868571 165.265528 211.30145 179.759453 190.189462 176.571275 209.868571 165.265528"></polyline>
            <polyline id="Fill-362" fill="#3B3B3B" points="75.8828122 185.041109 75.093469 200.228904 50.2723493 176.934307 75.8828122 185.041109"></polyline>
            <polyline id="Fill-363" fill="#2E2E2E" points="15.5620454 166.54526 17.241752 152.420851 30.2870987 165.724483 15.5620454 166.54526"></polyline>
            <polyline id="Fill-364" fill="#3F3F3F" points="105.152777 189.265752 135.656222 189.185322 135.862334 204.496399 120.350028 204.542217 104.847846 204.567379 105.152777 189.265752"></polyline>
            <polyline id="Fill-365" fill="#3E3E3E" points="135.862334 204.496399 135.656222 189.185322 164.805469 184.807841 165.498414 199.943115 150.641748 202.236128 135.862334 204.496399"></polyline>
            <polyline id="Fill-366" fill="#3E3E3E" points="75.8828122 185.041109 105.152777 189.265752 104.847846 204.567379 104.847406 204.588036 75.8828122 185.041109"></polyline>
            <polyline id="Fill-367" fill="#3A3A3A" points="190.189462 176.571275 191.304865 191.444494 164.805469 184.807841 190.189462 176.571275"></polyline>
            <polyline id="Fill-368" fill="#353535" points="28.7840122 180.280927 30.2870987 165.724483 50.2723493 176.934307 28.7840122 180.280927"></polyline>
            <path d="M68.5683197,156.98666 L38.2254288,90.1517259" id="Stroke-381" stroke="#000000" stroke-linecap="round" stroke-linejoin="round"></path>
            <path d="M105.190522,151.800048 L68.5683197,156.98666" id="Stroke-382" stroke="#000000" stroke-linecap="round" stroke-linejoin="round"></path>
            <path d="M69.0083843,170.761443 L68.5683197,156.98666" id="Stroke-383" stroke="#000000" stroke-linecap="round" stroke-linejoin="round"></path>
            <path d="M206.990049,137.382817 L171.828346,142.362532" id="Stroke-384" stroke="#000000" stroke-linecap="round" stroke-linejoin="round"></path>
            <path d="M171.373976,155.986674 L171.828346,142.362532" id="Stroke-385" stroke="#000000" stroke-linecap="round" stroke-linejoin="round"></path>
            <path d="M171.828346,142.362532 L132.67921,78.0822272" id="Stroke-386" stroke="#000000" stroke-linecap="round" stroke-linejoin="round"></path>
            <path d="M170.927308,169.379086 L171.373976,155.986674" id="Stroke-387" stroke="#000000" stroke-linecap="round" stroke-linejoin="round"></path>
            <path d="M69.1533118,175.299564 L69.0083843,170.761443" id="Stroke-388" stroke="#000000" stroke-linecap="round" stroke-linejoin="round"></path>
            <path d="M93.6107371,117.963786 L93.6801747,117.725904" id="Stroke-406" stroke="#000000" stroke-linecap="round" stroke-linejoin="round"></path>
            <path d="M130.810009,85.9889432 L132.611314,86.2111136" id="Stroke-407" stroke="#000000" stroke-linecap="round" stroke-linejoin="round"></path>
            <path d="M14.0443231,137.930881 L15.9656856,124.044574" id="Stroke-408" stroke="#000000" stroke-linecap="round" stroke-linejoin="round"></path>
            <path d="M25.7575913,124.667244 L33.4999336,112.935067" id="Stroke-409" stroke="#000000" stroke-linecap="round" stroke-linejoin="round"></path>
            <path d="M33.4999336,112.935067 L39.4424017,108.319263" id="Stroke-410" stroke="#000000" stroke-linecap="round" stroke-linejoin="round"></path>
            <path d="M223.130044,123.497169 L225.372734,137.361281" id="Stroke-411" stroke="#000000" stroke-linecap="round" stroke-linejoin="round"></path>
            <polyline id="Stroke-412" stroke="#000000" stroke-linecap="round" stroke-linejoin="round" points="74.6629782 91.7373543 84.8313432 88.9628617 87.3750026 88.6355395"></polyline>
            <path d="M117.178349,86.0228951 L130.810009,85.9889432" id="Stroke-413" stroke="#000000" stroke-linecap="round" stroke-linejoin="round"></path>
            <polyline id="Stroke-414" stroke="#000000" stroke-linecap="round" stroke-linejoin="round" points="180.202229 96.9971444 192.007053 102.361098 205.362613 112.488199 213.36796 124.171042"></polyline>
            <path d="M73.4507371,225.669609 L46.5130376,216.709396" id="Stroke-415" stroke="#000000" stroke-linecap="round" stroke-linejoin="round"></path>
            <path d="M104.282882,230.338043 L73.4507371,225.669609" id="Stroke-416" stroke="#000000" stroke-linecap="round" stroke-linejoin="round"></path>
            <path d="M136.43181,230.240033 L104.282882,230.338043" id="Stroke-417" stroke="#000000" stroke-linecap="round" stroke-linejoin="round"></path>
            <path d="M167.143457,225.385578 L136.43181,230.240033" id="Stroke-418" stroke="#000000" stroke-linecap="round" stroke-linejoin="round"></path>
            <polyline id="Stroke-419" stroke="#000000" stroke-linecap="round" stroke-linejoin="round" points="214.518356 203.773411 193.855677 216.267802 167.143457 225.385578"></polyline>
            <polyline id="Stroke-420" stroke="#000000" stroke-linecap="round" stroke-linejoin="round" points="233.090426 173.275638 227.790393 189.03633 214.518356 203.773411"></polyline>
            <path d="M11.9282934,189.660758 L6.26929782,173.918306" id="Stroke-421" stroke="#000000" stroke-linecap="round" stroke-linejoin="round"></path>
            <path d="M25.5475179,204.330815 L11.9282934,189.660758" id="Stroke-422" stroke="#000000" stroke-linecap="round" stroke-linejoin="round"></path>
            <path d="M46.5130376,216.709396 L25.5475179,204.330815" id="Stroke-423" stroke="#000000" stroke-linecap="round" stroke-linejoin="round"></path>
            <polyline id="Stroke-424" stroke="#000000" stroke-linecap="round" stroke-linejoin="round" points="238.185998 229.951827 232.755233 247.701943 218.960489 264.33033 197.385107 278.451553 169.422791 288.770169 137.229406 294.268501 103.513897 294.379696 71.1933013 289.091778 42.9932908 278.951052 21.0992227 264.959702 6.9403441 248.405922"></polyline>
            <path d="M6.9403441,248.405922 L1.13455022,230.674815" id="Stroke-425" stroke="#000000" stroke-linecap="round" stroke-linejoin="round"></path>
            <path d="M222.560128,151.905749 L209.868571,165.265528" id="Stroke-426" stroke="#000000" stroke-linecap="round" stroke-linejoin="round"></path>
            <path d="M135.656222,189.185322 L105.152777,189.265752" id="Stroke-427" stroke="#000000" stroke-linecap="round" stroke-linejoin="round"></path>
            <path d="M105.152777,189.265752 L75.8828122,185.041109" id="Stroke-428" stroke="#000000" stroke-linecap="round" stroke-linejoin="round"></path>
            <path d="M164.805469,184.807841 L135.656222,189.185322" id="Stroke-429" stroke="#000000" stroke-linecap="round" stroke-linejoin="round"></path>
            <polyline id="Stroke-430" stroke="#000000" stroke-linecap="round" stroke-linejoin="round" points="209.868571 165.265528 190.189462 176.571275 164.805469 184.807841"></polyline>
            <path d="M30.2870987,165.724483 L17.241752,152.420851" id="Stroke-431" stroke="#000000" stroke-linecap="round" stroke-linejoin="round"></path>
            <path d="M50.2723493,176.934307 L30.2870987,165.724483" id="Stroke-432" stroke="#000000" stroke-linecap="round" stroke-linejoin="round"></path>
            <path d="M75.8828122,185.041109 L50.2723493,176.934307" id="Stroke-433" stroke="#000000" stroke-linecap="round" stroke-linejoin="round"></path>
            <path d="M17.241752,152.420851 L11.7429799,138.120638" id="Stroke-434" stroke="#000000" stroke-linecap="round" stroke-linejoin="round"></path>
            <polyline id="Stroke-437" stroke="#000000" stroke-linecap="round" stroke-linejoin="round" points="227.690033 137.589605 227.687722 137.595978 222.560128 151.905749"></polyline>
            <path d="M170.927308,169.379086 L188.827782,166.747763" id="Stroke-438" stroke="#000000" stroke-width="1.1" stroke-linecap="round" stroke-linejoin="round"></path>
            <path d="M170.927308,169.379086 L132.465066,103.682363" id="Stroke-439" stroke="#000000" stroke-width="1.1" stroke-linecap="round" stroke-linejoin="round"></path>
            <path d="M96.3158306,180.346633 L105.425796,179.007458" id="Stroke-440" stroke="#000000" stroke-width="1.1" stroke-linecap="round" stroke-linejoin="round"></path>
            <path d="M64.4795371,172.987102 L39.8604576,116.861285" id="Stroke-441" stroke="#000000" stroke-width="1.1" stroke-linecap="round" stroke-linejoin="round"></path>
            <polyline id="Stroke-447" stroke="#000000" stroke-width="1.1" stroke-linecap="round" stroke-linejoin="round" points="166.740587 224.8585 193.227548 215.82522 193.2336 215.823132"></polyline>
            <path d="M47.1533817,216.262748 L73.863731,225.139894" id="Stroke-458" stroke="#000000" stroke-width="1.1" stroke-linecap="round" stroke-linejoin="round"></path>
            <path d="M21.9998201,264.56184 L43.7053834,278.416502" id="Stroke-459" stroke="#000000" stroke-width="1.1" stroke-linecap="round" stroke-linejoin="round"></path>
            <path d="M26.3555686,203.996021 L47.1533817,216.262748" id="Stroke-461" stroke="#000000" stroke-width="1.1" stroke-linecap="round" stroke-linejoin="round"></path>
            <path d="M21.9998201,264.56184 L7.94999476,248.164304" id="Stroke-462" stroke="#000000" stroke-width="1.1" stroke-linecap="round" stroke-linejoin="round"></path>
            <path d="M22.1514603,280.740721 L8.12122271,264.050694" id="Stroke-463" stroke="#000000" stroke-width="1.1" stroke-linecap="round" stroke-linejoin="round"></path>
            <path d="M26.3555686,203.996021 L12.834393,189.45441" id="Stroke-464" stroke="#000000" stroke-width="1.1" stroke-linecap="round" stroke-linejoin="round"></path>
            <path d="M7.94999476,248.164304 L2.17336245,230.593836" id="Stroke-465" stroke="#000000" stroke-width="1.1" stroke-linecap="round" stroke-linejoin="round"></path>
            <path d="M8.12122271,264.050694 L2.34998253,246.165759" id="Stroke-466" stroke="#000000" stroke-width="1.1" stroke-linecap="round" stroke-linejoin="round"></path>
            <path d="M12.834393,189.45441 L7.20268821,173.844359" id="Stroke-467" stroke="#000000" stroke-width="1.1" stroke-linecap="round" stroke-linejoin="round"></path>
            <path d="M10.0216769,151.765107 L10.0191459,151.758405" id="Stroke-468" stroke="#000000" stroke-width="1.1" stroke-linecap="round" stroke-linejoin="round"></path>
            <path d="M10.0157345,151.783457 L10.0216769,151.765107" id="Stroke-469" stroke="#000000" stroke-width="1.1" stroke-linecap="round" stroke-linejoin="round"></path>
            <path d="M226.90179,188.835256 L232.177064,173.207075" id="Stroke-470" stroke="#000000" stroke-width="1.1" stroke-linecap="round" stroke-linejoin="round"></path>
            <path d="M231.742501,247.466698 L237.147516,229.877221" id="Stroke-471" stroke="#000000" stroke-width="1.1" stroke-linecap="round" stroke-linejoin="round"></path>
            <path d="M231.554327,263.340672 L236.95494,245.436289" id="Stroke-472" stroke="#000000" stroke-width="1.1" stroke-linecap="round" stroke-linejoin="round"></path>
            <path d="M218.053289,263.93851 L231.742501,247.466698" id="Stroke-473" stroke="#000000" stroke-width="1.1" stroke-linecap="round" stroke-linejoin="round"></path>
            <path d="M217.883602,280.106184 L231.554327,263.340672" id="Stroke-474" stroke="#000000" stroke-width="1.1" stroke-linecap="round" stroke-linejoin="round"></path>
            <path d="M213.725052,203.443672 L226.90179,188.835256" id="Stroke-475" stroke="#000000" stroke-width="1.1" stroke-linecap="round" stroke-linejoin="round"></path>
            <path d="M196.662891,277.921948 L218.053289,263.93851" id="Stroke-476" stroke="#000000" stroke-width="1.1" stroke-linecap="round" stroke-linejoin="round"></path>
            <path d="M38.2254288,90.1517259 L71.6840961,85.8763198" id="Stroke-478" stroke="#000000" stroke-width="1.1" stroke-linecap="round" stroke-linejoin="round"></path>
            <polyline id="Stroke-479" stroke="#000000" stroke-width="1.1" stroke-linecap="round" stroke-linejoin="round" points="105.309149 165.52198 69.0083843 170.761443 38.8663231 103.19539"></polyline>
            <path d="M105.309149,165.52198 L105.190522,151.800048" id="Stroke-480" stroke="#000000" stroke-width="1.1" stroke-linecap="round" stroke-linejoin="round"></path>
            <path d="M206.239441,150.954438 L171.373976,155.986674" id="Stroke-481" stroke="#000000" stroke-width="1.1" stroke-linecap="round" stroke-linejoin="round"></path>
            <path d="M206.239441,150.954438 L206.990049,137.382817" id="Stroke-482" stroke="#000000" stroke-width="1.1" stroke-linecap="round" stroke-linejoin="round"></path>
            <path d="M171.373976,155.986674 L132.571368,90.9821728" id="Stroke-483" stroke="#000000" stroke-width="1.1" stroke-linecap="round" stroke-linejoin="round"></path>
            <path d="M132.67921,78.0822272 L164.922996,73.9620765" id="Stroke-484" stroke="#000000" stroke-width="1.1" stroke-linecap="round" stroke-linejoin="round"></path>
            <path d="M39.4972035,116.033256 L39.2491651,110.984978" id="Stroke-485" stroke="#000000" stroke-width="1.1" stroke-linecap="round" stroke-linejoin="round"></path>
            <path d="M39.0778271,107.497277 L38.8663231,103.19539" id="Stroke-486" stroke="#000000" stroke-width="1.1" stroke-linecap="round" stroke-linejoin="round"></path>
            <path d="M105.425796,179.007458 L105.309149,165.52198" id="Stroke-487" stroke="#000000" stroke-width="1.1" stroke-linecap="round" stroke-linejoin="round"></path>
            <path d="M106.096072,66.3763099 L108.855417,67.7626222" id="Stroke-488" stroke="#000000" stroke-width="1.1" stroke-linecap="round" stroke-linejoin="round"></path>
            <path d="M102.797843,65.691779 L106.096072,66.3763099" id="Stroke-489" stroke="#000000" stroke-width="1.1" stroke-linecap="round" stroke-linejoin="round"></path>
            <path d="M99.1891808,65.7605617 L102.797843,65.691779" id="Stroke-490" stroke="#000000" stroke-width="1.1" stroke-linecap="round" stroke-linejoin="round"></path>
            <path d="M95.5223057,66.5802407 L99.1891808,65.7605617" id="Stroke-491" stroke="#000000" stroke-width="1.1" stroke-linecap="round" stroke-linejoin="round"></path>
            <path d="M92.0549397,68.0939 L95.5223057,66.5802407" id="Stroke-492" stroke="#000000" stroke-width="1.1" stroke-linecap="round" stroke-linejoin="round"></path>
            <path d="M89.0301694,70.1945198 L92.0549397,68.0939" id="Stroke-493" stroke="#000000" stroke-width="1.1" stroke-linecap="round" stroke-linejoin="round"></path>
            <path d="M86.6581782,72.7333272 L89.0301694,70.1945198" id="Stroke-494" stroke="#000000" stroke-width="1.1" stroke-linecap="round" stroke-linejoin="round"></path>
            <path d="M85.1010603,75.5314432 L86.6581782,72.7333272" id="Stroke-495" stroke="#000000" stroke-width="1.1" stroke-linecap="round" stroke-linejoin="round"></path>
            <path d="M84.4612664,78.3933975 L85.1010603,75.5314432" id="Stroke-496" stroke="#000000" stroke-width="1.1" stroke-linecap="round" stroke-linejoin="round"></path>
            <path d="M84.7759913,81.1221815 L84.4612664,78.3933975" id="Stroke-497" stroke="#000000" stroke-width="1.1" stroke-linecap="round" stroke-linejoin="round"></path>
            <path d="M110.888583,69.7506185 L112.061209,72.1991074" id="Stroke-498" stroke="#000000" stroke-width="1.1" stroke-linecap="round" stroke-linejoin="round"></path>
            <path d="M108.855417,67.7626222 L110.888583,69.7506185" id="Stroke-499" stroke="#000000" stroke-width="1.1" stroke-linecap="round" stroke-linejoin="round"></path>
            <path d="M92.1788489,102.866969 L91.4808419,100.505283" id="Stroke-500" stroke="#000000" stroke-width="1.1" stroke-linecap="round" stroke-linejoin="round"></path>
            <path d="M121.38961,99.6340716 L120.398557,95.2623037" id="Stroke-501" stroke="#000000" stroke-width="1.1" stroke-linecap="round" stroke-linejoin="round"></path>
            <path d="M92.741062,105.42984 L92.1788489,102.866969" id="Stroke-502" stroke="#000000" stroke-width="1.1" stroke-linecap="round" stroke-linejoin="round"></path>
            <path d="M122.148692,104.385902 L121.38961,99.6340716" id="Stroke-503" stroke="#000000" stroke-width="1.1" stroke-linecap="round" stroke-linejoin="round"></path>
            <path d="M93.1857485,108.210375 L92.741062,105.42984" id="Stroke-504" stroke="#000000" stroke-width="1.1" stroke-linecap="round" stroke-linejoin="round"></path>
            <path d="M122.621659,109.178717 L122.148692,104.385902" id="Stroke-505" stroke="#000000" stroke-width="1.1" stroke-linecap="round" stroke-linejoin="round"></path>
            <path d="M93.481876,111.013656 L93.1857485,108.210375" id="Stroke-506" stroke="#000000" stroke-width="1.1" stroke-linecap="round" stroke-linejoin="round"></path>
            <path d="M122.767797,113.438301 L122.621659,109.178717" id="Stroke-507" stroke="#000000" stroke-width="1.1" stroke-linecap="round" stroke-linejoin="round"></path>
            <path d="M93.6200908,113.876819 L93.481876,111.013656" id="Stroke-508" stroke="#000000" stroke-width="1.1" stroke-linecap="round" stroke-linejoin="round"></path>
            <path d="M122.757013,117.914452 L122.767797,113.438301" id="Stroke-509" stroke="#000000" stroke-width="1.1" stroke-linecap="round" stroke-linejoin="round"></path>
            <polyline id="Stroke-510" stroke="#000000" stroke-width="1.1" stroke-linecap="round" stroke-linejoin="round" points="62.4132472 10.2833457 61.8613782 13.1543099 62.2180297 15.9102333"></polyline>
            <polyline id="Stroke-511" stroke="#000000" stroke-width="1.1" stroke-linecap="round" stroke-linejoin="round" points="88.0910568 7.44446543 86.917331 4.95565185 84.9320332 2.91480494 82.2666655 1.46619259 79.1028 0.714197531 75.6587633 0.714637037 72.1755511 1.46970864 68.8973502 2.92722099 66.0537118 4.98410988 63.8421642 7.49511852 62.4132472 10.2833457"></polyline>
            <path d="M62.2180297,15.9102333 L84.7759913,81.1221815" id="Stroke-512" stroke="#000000" stroke-width="1.1" stroke-linecap="round" stroke-linejoin="round"></path>
            <path d="M88.0910568,7.44446543 L112.061209,72.1991074" id="Stroke-513" stroke="#000000" stroke-width="1.1" stroke-linecap="round" stroke-linejoin="round"></path>
            <path d="M39.8604576,116.861285 L33.9523231,121.510711" id="Stroke-536" stroke="#000000" stroke-width="1.1" stroke-linecap="round" stroke-linejoin="round"></path>
            <path d="M90.1604279,96.6880617 L85.0053223,97.3600667" id="Stroke-537" stroke="#000000" stroke-width="1.1" stroke-linecap="round" stroke-linejoin="round"></path>
            <path d="M130.749155,94.3634037 L120.125759,94.3902136" id="Stroke-538" stroke="#000000" stroke-width="1.1" stroke-linecap="round" stroke-linejoin="round"></path>
            <path d="M191.625312,110.859169 L188.417649,109.382648" id="Stroke-539" stroke="#000000" stroke-width="1.1" stroke-linecap="round" stroke-linejoin="round"></path>
            <path d="M213.918838,140.141707 L212.858788,132.827336" id="Stroke-540" stroke="#000000" stroke-width="1.1" stroke-linecap="round" stroke-linejoin="round"></path>
            <path d="M26.2595004,133.326944 L25.4165659,140.24609" id="Stroke-541" stroke="#000000" stroke-width="1.1" stroke-linecap="round" stroke-linejoin="round"></path>
            <polyline id="Stroke-542" stroke="#000000" stroke-width="1.1" stroke-linecap="round" stroke-linejoin="round" points="111.915511 124.930069 108.110861 125.190147 104.313804 124.950286"></polyline>
            <path d="M159.23836,177.975607 L133.642753,181.77316" id="Stroke-543" stroke="#000000" stroke-width="1.1" stroke-linecap="round" stroke-linejoin="round"></path>
            <path d="M191.304865,191.444494 L165.500505,199.963552" id="Stroke-544" stroke="#000000" stroke-width="1.1" stroke-linecap="round" stroke-linejoin="round"></path>
            <path d="M133.642753,181.77316 L106.891687,181.849744" id="Stroke-545" stroke="#000000" stroke-width="1.1" stroke-linecap="round" stroke-linejoin="round"></path>
            <path d="M135.233764,187.595409 L105.43658,187.681442" id="Stroke-546" stroke="#000000" stroke-width="1.1" stroke-linecap="round" stroke-linejoin="round"></path>
            <path d="M163.718348,183.335056 L135.233764,187.595409" id="Stroke-547" stroke="#000000" stroke-width="1.1" stroke-linecap="round" stroke-linejoin="round"></path>
            <path d="M179.760624,90.728358 L199.2816,99.5172728" id="Stroke-548" stroke="#000000" stroke-width="1.1" stroke-linecap="round" stroke-linejoin="round"></path>
            <path d="M188.545079,175.322638 L163.718348,183.335056" id="Stroke-549" stroke="#000000" stroke-width="1.1" stroke-linecap="round" stroke-linejoin="round"></path>
            <path d="M181.607376,170.821765 L159.23836,177.975607" id="Stroke-550" stroke="#000000" stroke-width="1.1" stroke-linecap="round" stroke-linejoin="round"></path>
            <path d="M104.847406,204.588036 L75.093469,200.228904" id="Stroke-551" stroke="#000000" stroke-width="1.1" stroke-linecap="round" stroke-linejoin="round"></path>
            <path d="M105.43658,187.681442 L76.8415127,183.584365" id="Stroke-552" stroke="#000000" stroke-width="1.1" stroke-linecap="round" stroke-linejoin="round"></path>
            <path d="M175.254555,89.5380654 L179.760624,90.728358" id="Stroke-553" stroke="#000000" stroke-width="1.1" stroke-linecap="round" stroke-linejoin="round"></path>
            <path d="M75.093469,200.228904 L49.0724332,191.8573" id="Stroke-554" stroke="#000000" stroke-width="1.1" stroke-linecap="round" stroke-linejoin="round"></path>
            <path d="M76.8415127,183.584365 L51.8076786,175.711052" id="Stroke-555" stroke="#000000" stroke-width="1.1" stroke-linecap="round" stroke-linejoin="round"></path>
            <path d="M81.1985817,178.197998 L71.0263651,175.02751" id="Stroke-556" stroke="#000000" stroke-width="1.1" stroke-linecap="round" stroke-linejoin="round"></path>
            <path d="M49.0724332,191.8573 L28.7840122,180.280927" id="Stroke-557" stroke="#000000" stroke-width="1.1" stroke-linecap="round" stroke-linejoin="round"></path>
            <path d="M51.8076786,175.711052 L32.2515983,164.812617" id="Stroke-558" stroke="#000000" stroke-width="1.1" stroke-linecap="round" stroke-linejoin="round"></path>
            <path d="M58.6464524,171.168975 L40.9446079,161.414356" id="Stroke-559" stroke="#000000" stroke-width="1.1" stroke-linecap="round" stroke-linejoin="round"></path>
            <path d="M28.7840122,180.280927 L15.5620454,166.54526" id="Stroke-561" stroke="#000000" stroke-width="1.1" stroke-linecap="round" stroke-linejoin="round"></path>
            <path d="M32.2515983,164.812617 L19.4627633,151.864546" id="Stroke-562" stroke="#000000" stroke-width="1.1" stroke-linecap="round" stroke-linejoin="round"></path>
            <path d="M40.9446079,161.414356 L29.2683144,149.787549" id="Stroke-563" stroke="#000000" stroke-width="1.1" stroke-linecap="round" stroke-linejoin="round"></path>
            <path d="M2.34998253,246.165759 L2.69254847,276.373568" id="Stroke-566" stroke="#000000" stroke-width="1.1" stroke-linecap="round" stroke-linejoin="round"></path>
            <path d="M19.4627633,151.864546 L14.0443231,137.930881" id="Stroke-567" stroke="#000000" stroke-width="1.1" stroke-linecap="round" stroke-linejoin="round"></path>
            <path d="M15.9656856,124.044574 L24.683455,111.123532" id="Stroke-568" stroke="#000000" stroke-width="1.1" stroke-linecap="round" stroke-linejoin="round"></path>
            <path d="M24.683455,111.123532 L38.7266777,100.353104" id="Stroke-569" stroke="#000000" stroke-width="1.1" stroke-linecap="round" stroke-linejoin="round"></path>
            <polyline id="Stroke-570" stroke="#000000" stroke-width="1.1" stroke-linecap="round" stroke-linejoin="round" points="236.95494 245.436289 236.581341 275.619375 232.274452 304.306163"></polyline>
            <path d="M229.386907,151.182542 L224.188224,165.960168" id="Stroke-572" stroke="#000000" stroke-width="1.1" stroke-linecap="round" stroke-linejoin="round"></path>
            <path d="M225.372734,137.361281 L220.288716,151.312526" id="Stroke-574" stroke="#000000" stroke-width="1.1" stroke-linecap="round" stroke-linejoin="round"></path>
            <path d="M224.188224,165.960168 L211.30145,179.759453" id="Stroke-576" stroke="#000000" stroke-width="1.1" stroke-linecap="round" stroke-linejoin="round"></path>
            <path d="M220.288716,151.312526 L207.821649,164.321249" id="Stroke-577" stroke="#000000" stroke-width="1.1" stroke-linecap="round" stroke-linejoin="round"></path>
            <path d="M210.449492,149.291017 L206.083729,153.769585" id="Stroke-578" stroke="#000000" stroke-width="1.1" stroke-linecap="round" stroke-linejoin="round"></path>
            <path d="M204.216618,155.684843 L199.060852,160.97386" id="Stroke-579" stroke="#000000" stroke-width="1.1" stroke-linecap="round" stroke-linejoin="round"></path>
            <path d="M211.30145,179.759453 L191.304865,191.444494" id="Stroke-580" stroke="#000000" stroke-width="1.1" stroke-linecap="round" stroke-linejoin="round"></path>
            <path d="M207.821649,164.321249 L188.545079,175.322638" id="Stroke-581" stroke="#000000" stroke-width="1.1" stroke-linecap="round" stroke-linejoin="round"></path>
            <path d="M214.12418,110.632384 L223.130044,123.497169" id="Stroke-582" stroke="#000000" stroke-width="1.1" stroke-linecap="round" stroke-linejoin="round"></path>
            <path d="M199.2816,99.5172728 L214.12418,110.632384" id="Stroke-583" stroke="#000000" stroke-width="1.1" stroke-linecap="round" stroke-linejoin="round"></path>
            <path d="M131.900321,81.6193728 L132.648948,81.7111198" id="Stroke-584" stroke="#000000" stroke-width="1.1" stroke-linecap="round" stroke-linejoin="round"></path>
            <path d="M115.563348,81.6599173 L131.900321,81.6193728" id="Stroke-585" stroke="#000000" stroke-width="1.1" stroke-linecap="round" stroke-linejoin="round"></path>
            <path d="M81.4050236,84.8639173 L85.8727965,84.2928889" id="Stroke-586" stroke="#000000" stroke-width="1.1" stroke-linecap="round" stroke-linejoin="round"></path>
            <path d="M72.4077432,87.3001 L81.4050236,84.8639173" id="Stroke-587" stroke="#000000" stroke-width="1.1" stroke-linecap="round" stroke-linejoin="round"></path>
            <path d="M230.523878,157.658995 L233.090426,173.275638" id="Stroke-588" stroke="#000000" stroke-width="1.1" stroke-linecap="round" stroke-linejoin="round"></path>
            <path d="M8.49295022,158.274743 L9.35690306,156.95194" id="Stroke-589" stroke="#000000" stroke-width="1.1" stroke-linecap="round" stroke-linejoin="round"></path>
            <path d="M104.42814,229.765367 L136.295466,229.668236" id="Stroke-590" stroke="#000000" stroke-width="1.1" stroke-linecap="round" stroke-linejoin="round"></path>
            <path d="M73.863731,225.139894 L104.42814,229.765367" id="Stroke-591" stroke="#000000" stroke-width="1.1" stroke-linecap="round" stroke-linejoin="round"></path>
            <path d="M136.295466,229.668236 L166.740587,224.8585" id="Stroke-592" stroke="#000000" stroke-width="1.1" stroke-linecap="round" stroke-linejoin="round"></path>
            <path d="M230.134543,157.084121 L230.523878,157.658995" id="Stroke-593" stroke="#000000" stroke-width="1.1" stroke-linecap="round" stroke-linejoin="round"></path>
            <path d="M6.26929782,173.918306 L8.49295022,158.274743" id="Stroke-594" stroke="#000000" stroke-width="1.1" stroke-linecap="round" stroke-linejoin="round"></path>
            <path d="M215.51051,220.920415 L194.64491,233.828491" id="Stroke-595" stroke="#000000" stroke-width="1.1" stroke-linecap="round" stroke-linejoin="round"></path>
            <polyline id="Stroke-596" stroke="#000000" stroke-width="1.1" stroke-linecap="round" stroke-linejoin="round" points="136.615032 248.268357 104.118807 248.369773 72.956641 243.544435"></polyline>
            <path d="M167.65516,243.250844 L136.615032,248.268357" id="Stroke-597" stroke="#000000" stroke-width="1.1" stroke-linecap="round" stroke-linejoin="round"></path>
            <path d="M194.64491,233.828491 L167.65516,243.250844" id="Stroke-598" stroke="#000000" stroke-width="1.1" stroke-linecap="round" stroke-linejoin="round"></path>
            <path d="M228.899193,205.700975 L215.51051,220.920415" id="Stroke-599" stroke="#000000" stroke-width="1.1" stroke-linecap="round" stroke-linejoin="round"></path>
            <path d="M234.228938,189.431336 L228.901614,205.693394" id="Stroke-600" stroke="#000000" stroke-width="1.1" stroke-linecap="round" stroke-linejoin="round"></path>
            <path d="M10.8240052,206.338699 L5.13386725,190.094551" id="Stroke-601" stroke="#000000" stroke-width="1.1" stroke-linecap="round" stroke-linejoin="round"></path>
            <polyline id="Stroke-602" stroke="#000000" stroke-width="1.1" stroke-linecap="round" stroke-linejoin="round" points="72.956641 243.544435 45.7385502 234.284809 24.5664786 221.496168 10.8265362 206.345841"></polyline>
            <path d="M238.185998,229.951827 L236.95494,245.436289" id="Stroke-603" stroke="#000000" stroke-width="1.1" stroke-linecap="round" stroke-linejoin="round"></path>
            <path d="M237.221576,223.8884 L238.185998,229.951827" id="Stroke-604" stroke="#000000" stroke-width="1.1" stroke-linecap="round" stroke-linejoin="round"></path>
            <path d="M1.13455022,230.674815 L2.34998253,246.165759" id="Stroke-605" stroke="#000000" stroke-width="1.1" stroke-linecap="round" stroke-linejoin="round"></path>
            <path d="M1.13455022,230.674815 L2.09556157,223.734683" id="Stroke-606" stroke="#000000" stroke-width="1.1" stroke-linecap="round" stroke-linejoin="round"></path>
            <path d="M227.690033,137.589605 L229.386907,151.182542" id="Stroke-607" stroke="#000000" stroke-width="1.1" stroke-linecap="round" stroke-linejoin="round"></path>
            <path d="M216.075584,110.196833 L225.331577,123.375536" id="Stroke-608" stroke="#000000" stroke-width="1.1" stroke-linecap="round" stroke-linejoin="round"></path>
            <path d="M200.879104,98.8187877 L216.075584,110.196833" id="Stroke-609" stroke="#000000" stroke-width="1.1" stroke-linecap="round" stroke-linejoin="round"></path>
            <path d="M180.929728,89.8267111 L200.879104,98.8187877" id="Stroke-610" stroke="#000000" stroke-width="1.1" stroke-linecap="round" stroke-linejoin="round"></path>
            <path d="M174.278138,88.0659395 L180.929728,89.8267111" id="Stroke-611" stroke="#000000" stroke-width="1.1" stroke-linecap="round" stroke-linejoin="round"></path>
            <path d="M132.091687,80.5068728 L132.658412,80.5765346" id="Stroke-612" stroke="#000000" stroke-width="1.1" stroke-linecap="round" stroke-linejoin="round"></path>
            <path d="M115.150685,80.5451099 L132.091687,80.5068728" id="Stroke-613" stroke="#000000" stroke-width="1.1" stroke-linecap="round" stroke-linejoin="round"></path>
            <path d="M80.5958725,83.8102012 L85.4894044,83.1845642" id="Stroke-614" stroke="#000000" stroke-width="1.1" stroke-linecap="round" stroke-linejoin="round"></path>
            <path d="M71.8399179,86.1829852 L80.5958725,83.8102012" id="Stroke-615" stroke="#000000" stroke-width="1.1" stroke-linecap="round" stroke-linejoin="round"></path>
            <path d="M37.6086341,99.1980815 L38.6465659,98.7203383" id="Stroke-616" stroke="#000000" stroke-width="1.1" stroke-linecap="round" stroke-linejoin="round"></path>
            <path d="M22.6814306,110.65381 L37.6086341,99.1980815" id="Stroke-617" stroke="#000000" stroke-width="1.1" stroke-linecap="round" stroke-linejoin="round"></path>
            <path d="M13.7457747,123.885253 L22.6814306,110.65381" id="Stroke-618" stroke="#000000" stroke-width="1.1" stroke-linecap="round" stroke-linejoin="round"></path>
            <path d="M11.7429799,138.120638 L13.7457747,123.885253" id="Stroke-619" stroke="#000000" stroke-width="1.1" stroke-linecap="round" stroke-linejoin="round"></path>
            <path d="M12.8171162,159.240448 L12.7363441,159.024541" id="Stroke-620" stroke="#000000" stroke-width="1.1" stroke-linecap="round" stroke-linejoin="round"></path>
            <path d="M193.2336,215.823132 L213.725052,203.443672" id="Stroke-621" stroke="#000000" stroke-width="1.1" stroke-linecap="round" stroke-linejoin="round"></path>
            <path d="M12.7363441,159.024541 L10.0157345,151.783457" id="Stroke-622" stroke="#000000" stroke-width="1.1" stroke-linecap="round" stroke-linejoin="round"></path>
            <path d="M38.8663231,103.19539 L38.7266777,100.353104" id="Stroke-623" stroke="#000000" stroke-width="1.1" stroke-linecap="round" stroke-linejoin="round"></path>
            <path d="M78.442648,99.1737988 L105.190522,151.800048" id="Stroke-624" stroke="#000000" stroke-width="1.1" stroke-linecap="round" stroke-linejoin="round"></path>
            <path d="M188.417649,109.382648 L206.990049,137.382817" id="Stroke-625" stroke="#000000" stroke-width="1.1" stroke-linecap="round" stroke-linejoin="round"></path>
            <path d="M132.571368,90.9821728 L132.611314,86.2111136" id="Stroke-626" stroke="#000000" stroke-width="1.1" stroke-linecap="round" stroke-linejoin="round"></path>
            <polyline id="Stroke-627" stroke="#000000" stroke-width="1.1" stroke-linecap="round" stroke-linejoin="round" points="205.992063 155.427073 206.083729 153.769585 206.239441 150.954438"></polyline>
            <polyline id="Stroke-628" stroke="#000000" stroke-width="1.1" stroke-linecap="round" stroke-linejoin="round" points="132.465066 103.682363 132.541216 94.5872222 132.571368 90.9821728"></polyline>
            <path d="M39.8604576,116.861285 L39.4972035,116.033256" id="Stroke-629" stroke="#000000" stroke-width="1.1" stroke-linecap="round" stroke-linejoin="round"></path>
            <path d="M119.307584,91.7748222 L117.178349,86.0228951" id="Stroke-630" stroke="#000000" stroke-width="1.1" stroke-linecap="round" stroke-linejoin="round"></path>
            <path d="M91.4808419,100.505283 L90.1604279,96.6880617" id="Stroke-631" stroke="#000000" stroke-width="1.1" stroke-linecap="round" stroke-linejoin="round"></path>
            <polyline id="Stroke-632" stroke="#000000" stroke-width="1.1" stroke-linecap="round" stroke-linejoin="round" points="120.398557 95.2623037 120.125759 94.3902136 119.307584 91.7748222"></polyline>
            <polyline id="Stroke-633" stroke="#000000" stroke-width="1.1" stroke-linecap="round" stroke-linejoin="round" points="93.6889782 118.28968 93.6801747 117.725904 93.6200908 113.876819"></polyline>
            <path d="M29.5542079,128.26636 L26.2595004,133.326944" id="Stroke-647" stroke="#000000" stroke-width="1.1" stroke-linecap="round" stroke-linejoin="round"></path>
            <polyline id="Stroke-648" stroke="#000000" stroke-width="1.1" stroke-linecap="round" stroke-linejoin="round" points="85.0053223 97.3600667 83.7141799 97.7169457 78.442648 99.1737988"></polyline>
            <polyline id="Stroke-649" stroke="#000000" stroke-width="1.1" stroke-linecap="round" stroke-linejoin="round" points="132.541216 94.5872222 131.151034 94.4135074 130.749155 94.3634037"></polyline>
            <polyline id="Stroke-650" stroke="#000000" stroke-width="1.1" stroke-linecap="round" stroke-linejoin="round" points="204.904391 121.060657 194.739658 113.251621 191.625312 110.859169"></polyline>
            <path d="M205.849336,122.458286 L204.904391,121.060657" id="Stroke-651" stroke="#000000" stroke-width="1.1" stroke-linecap="round" stroke-linejoin="round"></path>
            <polyline id="Stroke-652" stroke="#000000" stroke-width="1.1" stroke-linecap="round" stroke-linejoin="round" points="104.313804 124.950286 100.790756 124.229167 100.782393 124.227409 97.7875546 123.081836 97.7669764 123.073925 95.5108611 121.596085 95.4742166 121.572132 94.1139668 119.896295 94.0586148 119.828172 93.6889782 118.28968 93.6107371 117.963786"></polyline>
            <polyline id="Stroke-653" stroke="#000000" stroke-width="1.1" stroke-linecap="round" stroke-linejoin="round" points="135.862334 204.496399 120.350028 204.542217 104.847406 204.588036"></polyline>
            <polyline id="Stroke-654" stroke="#000000" stroke-width="1.1" stroke-linecap="round" stroke-linejoin="round" points="165.500505 199.963552 150.641748 202.236128 135.862334 204.496399"></polyline>
            <polyline id="Stroke-655" stroke="#000000" stroke-width="1.1" stroke-linecap="round" stroke-linejoin="round" points="199.060852 160.97386 188.827782 166.747763 181.607376 170.821765"></polyline>
            <polyline id="Stroke-656" stroke="#000000" stroke-width="1.1" stroke-linecap="round" stroke-linejoin="round" points="106.891687 181.849744 96.3158306 180.346633 81.1985817 178.197998"></polyline>
            <polyline id="Stroke-657" stroke="#000000" stroke-width="1.1" stroke-linecap="round" stroke-linejoin="round" points="68.712807 174.30639 64.4795371 172.987102 58.6464524 171.168975"></polyline>
            <polyline id="Stroke-660" stroke="#000000" stroke-width="1.1" stroke-linecap="round" stroke-linejoin="round" points="1.99300087 214.696788 2.09556157 223.734683 2.17336245 230.593836"></polyline>
            <path d="M15.5620454,166.54526 L12.8171162,159.240448" id="Stroke-661" stroke="#000000" stroke-width="1.1" stroke-linecap="round" stroke-linejoin="round"></path>
            <path d="M5.13386725,190.094551 L1.99300087,214.696788" id="Stroke-662" stroke="#000000" stroke-width="1.1" stroke-linecap="round" stroke-linejoin="round"></path>
            <polyline id="Stroke-663" stroke="#000000" stroke-width="1.1" stroke-linecap="round" stroke-linejoin="round" points="29.2683144 149.787549 25.4165659 140.24609 24.1989328 137.229869 24.6866463 133.299256 25.7575913 124.667244"></polyline>
            <polyline id="Stroke-664" stroke="#000000" stroke-width="1.1" stroke-linecap="round" stroke-linejoin="round" points="213.36796 124.171042 214.72898 133.399793 215.218014 136.715537"></polyline>
            <path d="M229.386907,151.182542 L230.134543,157.084121" id="Stroke-665" stroke="#000000" stroke-width="1.1" stroke-linecap="round" stroke-linejoin="round"></path>
            <polyline id="Stroke-666" stroke="#000000" stroke-width="1.1" stroke-linecap="round" stroke-linejoin="round" points="234.228938 189.431336 237.344164 213.993358 237.221576 223.8884 237.147516 229.877221"></polyline>
            <polyline id="Stroke-667" stroke="#000000" stroke-width="1.1" stroke-linecap="round" stroke-linejoin="round" points="215.218014 136.715537 213.918838 140.141707 210.449492 149.291017"></polyline>
            <polyline id="Stroke-668" stroke="#000000" stroke-width="1.1" stroke-linecap="round" stroke-linejoin="round" points="225.331577 123.375536 226.52291 130.554979 227.690033 137.589605"></polyline>
            <polyline id="Stroke-669" stroke="#000000" stroke-width="1.1" stroke-linecap="round" stroke-linejoin="round" points="38.7266777 100.353104 38.6465659 98.7203383 38.2254288 90.1517259"></polyline>
            <path d="M74.6629782,91.7373543 L78.442648,99.1737988" id="Stroke-670" stroke="#000000" stroke-width="1.1" stroke-linecap="round" stroke-linejoin="round"></path>
            <path d="M180.202229,96.9971444 L188.417649,109.382648" id="Stroke-671" stroke="#000000" stroke-width="1.1" stroke-linecap="round" stroke-linejoin="round"></path>
            <path d="M132.611314,86.2111136 L132.648948,81.7111198" id="Stroke-672" stroke="#000000" stroke-width="1.1" stroke-linecap="round" stroke-linejoin="round"></path>
            <path d="M117.178349,86.0228951 L115.563348,81.6599173" id="Stroke-673" stroke="#000000" stroke-width="1.1" stroke-linecap="round" stroke-linejoin="round"></path>
            <path d="M90.1604279,96.6880617 L87.3750026,88.6355395" id="Stroke-674" stroke="#000000" stroke-width="1.1" stroke-linecap="round" stroke-linejoin="round"></path>
            <polyline id="Stroke-678" stroke="#000000" stroke-width="1.1" stroke-linecap="round" stroke-linejoin="round" points="33.9523231 121.510711 33.1547266 122.735835 29.5542079 128.26636"></polyline>
            <polyline id="Stroke-679" stroke="#000000" stroke-width="1.1" stroke-linecap="round" stroke-linejoin="round" points="212.858788 132.827336 209.226246 127.453823 205.849336 122.458286"></polyline>
            <path d="M10.0157345,151.783457 L9.35690306,156.95194" id="Stroke-681" stroke="#000000" stroke-width="1.1" stroke-linecap="round" stroke-linejoin="round"></path>
            <path d="M11.7429799,138.120638 L10.0191459,151.758405" id="Stroke-683" stroke="#000000" stroke-width="1.1" stroke-linecap="round" stroke-linejoin="round"></path>
            <path d="M72.4077432,87.3001 L74.6629782,91.7373543" id="Stroke-684" stroke="#000000" stroke-width="1.1" stroke-linecap="round" stroke-linejoin="round"></path>
            <path d="M175.254555,89.5380654 L180.202229,96.9971444" id="Stroke-685" stroke="#000000" stroke-width="1.1" stroke-linecap="round" stroke-linejoin="round"></path>
            <polyline id="Stroke-686" stroke="#000000" stroke-width="1.1" stroke-linecap="round" stroke-linejoin="round" points="132.648948 81.7111198 132.658412 80.5765346 132.67921 78.0822272"></polyline>
            <polyline id="Stroke-687" stroke="#000000" stroke-width="1.1" stroke-linecap="round" stroke-linejoin="round" points="115.563348 81.6599173 115.150685 80.5451099 112.061209 72.1991074"></polyline>
            <path d="M87.3750026,88.6355395 L85.8727965,84.2928889" id="Stroke-688" stroke="#000000" stroke-width="1.1" stroke-linecap="round" stroke-linejoin="round"></path>
            <polyline id="Stroke-689" stroke="#000000" stroke-width="1.1" stroke-linecap="round" stroke-linejoin="round" points="71.6840961 85.8763198 71.8399179 86.1829852 72.4077432 87.3001"></polyline>
            <polyline id="Stroke-690" stroke="#000000" stroke-width="1.1" stroke-linecap="round" stroke-linejoin="round" points="164.922996 73.9620765 174.278138 88.0659395 175.254555 89.5380654"></polyline>
            <polyline id="Stroke-691" stroke="#000000" stroke-width="1.1" stroke-linecap="round" stroke-linejoin="round" points="85.8727965 84.2928889 85.4894044 83.1845642 84.7759913 81.1221815"></polyline>
            <path d="M6.26929782,173.918306 L5.13386725,190.094551" id="Stroke-693" stroke="#000000" stroke-width="1.1" stroke-linecap="round" stroke-linejoin="round"></path>
            <path d="M233.090426,173.275638 L234.228938,189.431336" id="Stroke-694" stroke="#000000" stroke-width="1.1" stroke-linecap="round" stroke-linejoin="round"></path>
            <path d="M7.20268821,173.844359 L9.35690306,156.95194" id="Stroke-695" stroke="#000000" stroke-width="1.1" stroke-linecap="round" stroke-linejoin="round"></path>
            <path d="M232.177064,173.207075 L230.134543,157.084121" id="Stroke-696" stroke="#000000" stroke-width="1.1" stroke-linecap="round" stroke-linejoin="round"></path>
            <path d="M236.581341,275.619375 L232.274452,304.306163" id="Stroke-697" stroke="#000000" stroke-width="1.1" stroke-linecap="round" stroke-linejoin="round"></path>
            <path d="M237.344164,213.993358 L237.147516,229.877221" id="Stroke-698" stroke="#000000" stroke-width="1.1" stroke-linecap="round" stroke-linejoin="round"></path>
            <path d="M229.386907,151.182542 L232.177614,173.211031" id="Stroke-699" stroke="#000000" stroke-width="1.1" stroke-linecap="round" stroke-linejoin="round"></path>
            <path d="M236.95494,245.436289 L236.581341,275.619375" id="Stroke-701" stroke="#000000" stroke-width="1.1" stroke-linecap="round" stroke-linejoin="round"></path>
            <path d="M234.224536,189.368926 L237.344164,213.993358" id="Stroke-702" stroke="#000000" stroke-width="1.1" stroke-linecap="round" stroke-linejoin="round"></path>
            <path d="M228.894901,205.636917 L231.934528,231.260237" id="Stroke-704" stroke="#000000" stroke-width="1.1" stroke-linecap="round" stroke-linejoin="round"></path>
            <path d="M231.554327,263.340672 L231.189312,294.131375" id="Stroke-705" stroke="#000000" stroke-width="1.1" stroke-linecap="round" stroke-linejoin="round"></path>
            <path d="M231.934528,231.260237 L231.742501,247.466698" id="Stroke-707" stroke="#000000" stroke-width="1.1" stroke-linecap="round" stroke-linejoin="round"></path>
            <path d="M224.188224,165.960168 L226.90201,188.837233" id="Stroke-708" stroke="#000000" stroke-width="1.1" stroke-linecap="round" stroke-linejoin="round"></path>
            <path d="M218.226278,247.430988 L218.053289,263.93851" id="Stroke-714" stroke="#000000" stroke-width="1.1" stroke-linecap="round" stroke-linejoin="round"></path>
            <path d="M211.30145,179.759453 L213.725162,203.4451" id="Stroke-715" stroke="#000000" stroke-width="1.1" stroke-linecap="round" stroke-linejoin="round"></path>
            <path d="M215.506769,220.854819 L218.226278,247.430988" id="Stroke-717" stroke="#000000" stroke-width="1.1" stroke-linecap="round" stroke-linejoin="round"></path>
            <path d="M196.802536,261.159842 L196.662891,277.921948" id="Stroke-719" stroke="#000000" stroke-width="1.1" stroke-linecap="round" stroke-linejoin="round"></path>
            <path d="M194.641939,233.761577 L196.802536,261.159842" id="Stroke-720" stroke="#000000" stroke-width="1.1" stroke-linecap="round" stroke-linejoin="round"></path>
            <path d="M191.304865,191.444494 L193.227548,215.826428" id="Stroke-725" stroke="#000000" stroke-width="1.1" stroke-linecap="round" stroke-linejoin="round"></path>
            <path d="M169.048313,271.189483 L168.954666,288.13717" id="Stroke-727" stroke="#000000" stroke-width="1.1" stroke-linecap="round" stroke-linejoin="round"></path>
            <path d="M167.653289,243.183051 L169.048313,271.189483" id="Stroke-728" stroke="#000000" stroke-width="1.1" stroke-linecap="round" stroke-linejoin="round"></path>
            <path d="M165.500505,199.963552 L166.740587,224.859599" id="Stroke-733" stroke="#000000" stroke-width="1.1" stroke-linecap="round" stroke-linejoin="round"></path>
            <path d="M135.862334,204.496399 L136.295466,229.668236" id="Stroke-735" stroke="#000000" stroke-width="1.1" stroke-linecap="round" stroke-linejoin="round"></path>
            <polyline id="Stroke-739" stroke="#000000" stroke-width="1.1" stroke-linecap="round" stroke-linejoin="round" points="136.614372 248.200014 137.101866 276.533109 137.06291 293.579465"></polyline>
            <path d="M104.119467,248.301759 L103.64749,276.641117" id="Stroke-741" stroke="#000000" stroke-width="1.1" stroke-linecap="round" stroke-linejoin="round"></path>
            <path d="M104.847406,204.588036 L104.42814,229.765367" id="Stroke-744" stroke="#000000" stroke-width="1.1" stroke-linecap="round" stroke-linejoin="round"></path>
            <path d="M72.9584017,243.47708 L71.5748227,271.502081" id="Stroke-749" stroke="#000000" stroke-width="1.1" stroke-linecap="round" stroke-linejoin="round"></path>
            <path d="M75.093469,200.228904 L73.863621,225.140993" id="Stroke-752" stroke="#000000" stroke-width="1.1" stroke-linecap="round" stroke-linejoin="round"></path>
            <path d="M71.5748227,271.502081 L71.648662,288.455483" id="Stroke-755" stroke="#000000" stroke-width="1.1" stroke-linecap="round" stroke-linejoin="round"></path>
            <path d="M45.7415214,234.218553 L43.5848856,261.645277" id="Stroke-757" stroke="#000000" stroke-width="1.1" stroke-linecap="round" stroke-linejoin="round"></path>
            <path d="M49.0724332,191.8573 L47.1532716,216.263957" id="Stroke-758" stroke="#000000" stroke-width="1.1" stroke-linecap="round" stroke-linejoin="round"></path>
            <path d="M43.5848856,261.645277 L43.7053834,278.416502" id="Stroke-763" stroke="#000000" stroke-width="1.1" stroke-linecap="round" stroke-linejoin="round"></path>
            <path d="M24.57011,221.431451 L21.8449886,248.043" id="Stroke-765" stroke="#000000" stroke-width="1.1" stroke-linecap="round" stroke-linejoin="round"></path>
            <path d="M28.7840122,180.280927 L26.3554585,203.997449" id="Stroke-766" stroke="#000000" stroke-width="1.1" stroke-linecap="round" stroke-linejoin="round"></path>
            <path d="M21.8449886,248.043 L21.9998201,264.56184" id="Stroke-771" stroke="#000000" stroke-width="1.1" stroke-linecap="round" stroke-linejoin="round"></path>
            <path d="M10.8307179,206.282881 L7.77524541,231.944988" id="Stroke-773" stroke="#000000" stroke-width="1.1" stroke-linecap="round" stroke-linejoin="round"></path>
            <path d="M15.5620454,166.54526 L12.8340629,189.456388" id="Stroke-777" stroke="#000000" stroke-width="1.1" stroke-linecap="round" stroke-linejoin="round"></path>
            <path d="M7.77524541,231.944988 L7.94999476,248.164304" id="Stroke-779" stroke="#000000" stroke-width="1.1" stroke-linecap="round" stroke-linejoin="round"></path>
            <path d="M8.12122271,264.050694 L8.45344454,294.86546" id="Stroke-780" stroke="#000000" stroke-width="1.1" stroke-linecap="round" stroke-linejoin="round"></path>
            <path d="M5.138269,190.033459 L1.99300087,214.696788" id="Stroke-781" stroke="#000000" stroke-width="1.1" stroke-linecap="round" stroke-linejoin="round"></path>
            <path d="M10.0157345,151.785435 L7.20224803,173.848095" id="Stroke-782" stroke="#000000" stroke-width="1.1" stroke-linecap="round" stroke-linejoin="round"></path>
            <path d="M1.99300087,214.696788 L2.17336245,230.593836" id="Stroke-785" stroke="#000000" stroke-width="1.1" stroke-linecap="round" stroke-linejoin="round"></path>
            <path d="M2.34998253,246.165759 L2.69254847,276.373568" id="Stroke-786" stroke="#000000" stroke-width="1.1" stroke-linecap="round" stroke-linejoin="round"></path>
        </g>
    </g>
</svg>